<svg width="135" height="92" viewBox="0 0 135 92" fill="none" xmlns="http://www.w3.org/2000/svg">
<path d="M51.4027 17.6342C53.3876 20.8969 56.2362 22.021 54.7572 22.4911C54.1992 23.1422 52.5014 23.7315 51.4027 24.7634C50.3041 25.7954 48.3094 26.5656 46.6667 26.3803C46.3776 25.1274 44.9608 21.6241 41.6069 17.6342C38.2531 13.6442 36.99 16.9238 37.4891 18.7931L37.9931 28.4422C36.3945 29.3215 31.8004 29.0183 26.1117 29.0183C19.4641 29.0183 14.9011 27.8989 6.45357 31.6826C-0.459393 34.779 -0.614021 39.2645 0.545238 41.2388C2.18365 44.3402 8.61645 50.4119 22.141 52.1564C39.0466 54.3371 47.6418 42.5758 49.4467 41.2388C50.8906 40.1692 51.9743 42.9001 52.3357 44.3992C49.8039 45.7079 44.0372 49.0914 41.2251 52.1564C38.4131 55.2214 38.9044 64.2248 39.5016 68.3433L40.6511 69.1096C40.8746 71.2421 41.1875 76.1778 40.6511 78.8607C40.1147 81.5436 44.7696 88.0268 47.1642 90.9331C47.5732 90.6403 48.3912 89.8386 48.3912 88.9737C48.3912 87.8927 42.9909 82.4364 44.7402 75.5071C46.4894 68.5778 45.3001 63.0483 44.7402 57.1689C44.2922 52.4653 46.9875 52.2455 48.3912 52.7236C49.1789 51.8868 50.2816 52.5464 48.3912 61.879C46.0283 73.5447 50.3111 76.7934 50.7541 78.8607C51.1971 80.928 58.7281 87.5731 70.0985 87.7207C81.4689 87.8684 86.7402 77.2585 88.8138 73.7756C90.8874 70.2928 88.451 57.8853 88.8138 54.9104C89.104 52.5304 91.4661 53.6766 92.6109 54.5471C92.9436 63.079 92.6109 81.7739 92.6109 81.7739C92.6109 81.7739 88.3643 87.8382 86.7402 90.0548C85.116 92.2714 88.8069 91.7882 89.6066 90.9331C92.6109 87.7207 92.6763 86.9515 95.6009 82.6222C98.5256 78.2928 95.1057 69.6536 96.553 70.8581C98.3622 72.3637 99.0947 67.7805 98.9253 66.9334C98.7558 66.0862 97.0349 59.1277 95.6009 53.5484C94.4518 49.0771 86.8019 46.5275 82.1145 45.3979C82.5138 42.2917 85.6539 36.9444 90.3884 44.3992C95.1228 51.8541 108.07 53.6049 114.343 53.5484C122.575 49.9721 137.9 41.0575 133.354 34.0103C127.67 25.2012 99.9875 30.96 101.164 28.8694C102.105 27.1969 100.772 25.3979 99.9875 24.7075C99.9057 22.2324 99.2515 17.106 97.2889 16.4017C94.8357 15.5213 95.6944 20.3625 96.553 22.0658C97.2399 23.4284 94.8766 25.4139 93.6091 26.2362C91.3195 26.8904 86.7402 27.8063 86.7402 26.2362C86.7402 24.6662 84.7058 21.6662 83.6886 20.3625C85.3756 18.8588 88.5076 15.1914 87.5394 12.5509C86.3291 9.25017 81.3781 18.2545 81.3781 16.4017C81.3781 14.5488 76.0304 11.8359 74.3801 9.89061C73.0598 8.33435 83.6886 -0.582026 80.0059 0.0300757L71.256 9.24988C70.1557 9.89832 67.6912 10.8061 66.635 9.24988C65.5788 7.69362 60.1803 -1.95161 58.4192 0.777184C61.1268 3.6014 67.8931 10.2277 63.2144 11.1952C58.5356 12.1627 57.5004 16.3045 57.5676 18.2545C57.097 17.0442 54.8021 13.9379 53.3505 11.1952C51.5359 7.7668 47.9117 11.8957 51.4027 17.6342Z" fill="white"/>
</svg>
