<svg width="114" height="85" viewBox="0 0 114 85" fill="none" xmlns="http://www.w3.org/2000/svg">
<path d="M102.409 0.172091C104.179 -0.158386 105.757 -0.0398448 106.945 0.763888C111.253 3.67799 112.862 7.80745 113.093 11.7766C113.319 15.6733 112.221 19.4331 111.05 21.8147C111.031 24.2155 110.421 27.6687 109.639 30.8449C108.848 34.0636 107.862 37.0835 107.095 38.4885C106.317 39.9151 104.784 41.4874 103.169 42.8049C101.81 43.9128 100.346 44.8775 99.1463 45.4455C104.943 51.6423 103.497 60.8852 99.2752 68.6906C97.0949 72.7213 94.1497 76.4275 90.9871 79.2317C87.8333 82.028 84.4195 83.9656 81.2986 84.386C79.3428 84.6493 77.119 83.5511 74.9236 81.7844C72.7042 79.9983 70.4098 77.4448 68.2859 74.5949C64.8968 70.0473 61.8943 64.6764 60.3094 60.342C60.2634 62.6791 60.1263 65.3733 59.7058 67.7649C59.3916 69.5517 58.9137 71.2159 58.1697 72.4446C57.4248 73.6745 56.3731 74.5216 54.9295 74.5363L54.9305 74.5373C54.2043 74.598 53.5802 74.3711 53.0662 73.9309C52.5657 73.5021 52.1835 72.8836 51.8836 72.1701C51.2849 70.7458 50.9551 68.7979 50.7498 66.76C50.5436 64.7133 50.4578 62.5228 50.367 60.6018C50.3297 59.8138 50.2887 59.0761 50.242 58.4113C48.9061 62.8775 46.4829 68.6175 43.3484 73.2844C41.4853 76.0584 39.3519 78.4838 37.0213 80.0305C34.6816 81.5832 32.1138 82.2666 29.4353 81.4826C23.0896 79.6253 15.6373 75.3043 11.3504 69.0461C9.2017 65.9093 7.84312 62.2769 7.83279 58.2278C7.82281 54.2687 9.10256 49.9474 12.1306 45.3362C4.97712 37.8295 2.75327 33.1951 2.3992 29.7346C2.21983 27.9802 2.52557 26.5617 2.86112 25.2873C3.18918 24.0414 3.52371 22.9881 3.54666 21.8293C1.14426 17.8547 -0.620542 11.8104 0.206818 7.1174C0.627865 4.72995 1.73133 2.6444 3.81229 1.40061C5.75455 0.239769 8.46843 -0.138796 12.0965 0.543185L12.8347 0.693575L12.8562 0.698458L12.8767 0.704318C23.0689 3.94785 31.7271 10.3491 38.2469 16.9641C44.1777 22.9817 48.3683 29.2074 50.3426 33.4514C50.7465 32.2658 51.2249 31.2779 51.7537 30.4836C50.6129 25.9634 50.5287 24.1479 47.031 17.2619C43.1016 9.52583 38.6027 5.94734 38.9002 4.46408C43.544 7.35399 50.5824 18.8908 53.5838 28.6096C54.2477 28.1938 54.9505 27.9986 55.659 28.0442C56.1464 28.0756 56.6137 28.221 57.0525 28.4641C59.9961 18.6799 67.1417 6.92005 71.8367 3.99826C72.5017 4.86862 67.6352 9.06024 63.7058 16.7961C60.1258 23.8444 60.1205 25.5802 58.8992 30.342C59.4256 31.2061 59.8464 32.2966 60.1248 33.5891C61.6976 31.4042 64.4756 28.2925 67.9109 24.8518C71.9099 20.8466 76.8292 16.3651 81.8435 12.3244C86.8542 8.28673 91.9778 4.67534 96.3846 2.42502C98.5863 1.30071 100.632 0.503951 102.409 0.172091Z" fill="#73C431"/>
</svg>
