<svg width="121" height="183" viewBox="0 0 121 183" fill="none" xmlns="http://www.w3.org/2000/svg">
<path d="M71.6998 27.9697C73.3332 22.0887 83.1354 -6.95031 94.2447 1.54493C103.132 8.34128 97.9478 29.6572 94.2447 36.1924L71.6998 71.1016L48.8267 99.5283C51.9865 98.2202 60.6801 93.4454 70.1763 84.8125C79.6725 76.1796 87.3526 68.7163 90.0055 66.0635C94.6366 60.9827 105.085 50.6048 109.834 49.7412C115.769 48.6621 118.437 47.3973 119.951 50.9561C121.463 54.5154 112.936 66.8731 112.936 66.8731C112.925 66.9276 112.026 71.3732 111.183 74.1563C105.991 91.2994 86.8482 109.04 83.2174 110.512C78.6791 112.352 75.7354 114.191 69.4801 113.21C64.4758 112.425 58.3182 110.675 55.8648 109.898C60.1709 116.101 68.9226 128.892 69.4801 130.432C70.0389 131.973 79.6058 145.558 84.3199 152.158C89.7356 158.962 100.995 173.934 102.71 179.388C104.424 184.841 99.2689 181.66 96.4771 179.388C91.4779 172.83 81.3234 159.444 80.6998 158.353C79.9207 156.989 67.1647 139.702 65.0318 137.688C62.8996 135.674 51.4086 121.933 50.5787 120.511C49.9153 119.374 48.4925 117.143 47.8638 116.17C46.6932 115.919 44.5719 115.461 44.2252 115.37C44.265 115.588 38.8922 118.229 36.2467 117.216C34.0626 116.379 33.4772 121.437 33.4576 124.07L32.5377 139.963L15.9947 153.749C15.2352 154.508 13.1893 155.906 11.0797 155.427C8.96989 154.947 7.40383 153.629 6.88436 153.029C6.92447 152.59 7.4834 151.566 9.40096 150.991C11.319 150.416 12.1982 149.233 12.398 148.714L15.9947 150.032C20.1733 147.239 28.5933 140.861 28.8443 137.688C29.0954 134.514 30.7268 122.718 31.5113 117.216C31.3375 116.663 30.6354 115.889 29.2164 117.216C27.7975 118.543 26.7527 124.984 26.4078 128.039C26.6542 129.345 25.2103 132.06 22.1949 132.474C19.1797 132.887 17.9534 132.646 16.3521 132.474C13.4905 132.165 13.4529 131.661 12.398 130.183C11.0795 128.335 9.3353 129.296 8.81795 129.37C8.30077 129.445 8.07849 132.299 4.90096 131.365C1.72336 130.432 -0.266205 131.244 0.0288888 130.432C0.324517 129.619 0.17099 127.005 0.983967 126.709C1.79703 126.413 4.16215 125.822 3.3492 123.679C2.53638 121.536 1.2799 121.185 1.79647 120.511C2.31381 119.836 5.92831 120.935 9.8453 121.985C19.7636 124.645 18.3332 120.857 18.5787 120.511L22.1949 115.357C20.7218 116.052 17.4199 117.314 15.9947 116.806C14.2133 116.17 11.7894 113.554 11.0797 113.923C10.3714 114.292 8.23309 109.911 8.30037 109.898C8.37428 109.898 5.23832 104.911 8.81795 102.663C12.3977 100.415 12.0727 96.1571 16.8043 96.5117C21.5361 96.8666 23.2677 98.3518 26.0738 96.8643C28.8234 95.4067 33.4027 98.3762 33.8385 98.2686C35.3825 94.8892 26.9316 89.4627 28.5377 72.2051C29.1273 65.8682 23.419 60.1452 22.1676 54.5147C20.9163 48.8839 28.7526 35.3093 39.6656 44.7109C48.3959 52.2321 53.1146 58.0314 54.3824 59.9912C59.6106 51.2774 70.3931 32.6744 71.6998 27.9697ZM24.4596 120.043C25.1814 116.722 24.7604 117.817 24.4596 118.779L17.7799 124.918H10.3785V127.311L17.7799 128.89C19.7055 127.325 23.7374 123.365 24.4596 120.043Z" fill="#73C431"/>
</svg>
