<svg width="223" height="182" viewBox="0 0 223 182" fill="none" xmlns="http://www.w3.org/2000/svg">
<path d="M164.508 31.9485C157.707 33.7462 150.636 26.6894 143.298 32.6156C138.345 36.615 138.752 41.9388 136.114 47.2476C133.477 52.5563 103.096 53.7106 88.2354 53.6241L92.6872 38.6509C94.2883 38.3567 99.3049 35.6223 108.498 27.2593C117.692 18.8962 108.411 17.3052 105.611 18.4041C102.812 19.503 97.5644 28.0422 96.5395 29.2114C95.5145 30.3807 93.6588 29.7144 92.384 28.3888C90.8074 26.7495 95.5347 16.7507 95.7614 15.6054C96.0448 14.1737 100.187 4.81069 98.6809 2.36462C97.4759 0.407769 94.8566 -0.822521 92.9367 0.647137L92.8958 0.678399C91.3517 1.85968 91.0827 2.06549 90.8235 11.3221C90.4966 22.9943 86.175 24.7837 83.3747 23.8988C80.5743 23.0138 76.5981 6.35681 74.4671 5.10842C72.336 3.86003 68.0636 7.56771 72.3833 15.6347C75.8392 22.0882 77.8806 28.039 78.4693 30.2077C75.9163 28.2951 69.9773 24.2347 66.6456 23.2938C62.481 22.1176 63.8752 28.7259 63.6742 29.7415C63.5133 30.554 73.7714 34.2028 78.9205 35.9257C79.8121 36.1609 81.5769 37.6125 81.5034 41.5381C79.4982 58.0652 82.4369 65.7405 84.1569 67.5123C100.168 66.8302 127.475 66.2235 108.613 69.2534C89.7507 72.2834 84.7723 96.3978 84.6715 108.72C71.3368 103.829 56.628 99.8583 44.7943 102.103C37.0094 107.448 56.3721 133.387 54.6865 133.727C53.0009 134.068 42.9011 129.911 40.5898 128.644C38.2784 127.378 42.7993 122.13 44.1063 120.296C45.4133 118.462 43.7895 116.034 41.783 117.315C40.1778 118.339 39.3181 121.27 38.2655 124.116C38.8861 120.981 38.7354 114.858 36.9376 106.656C35.9025 101.934 30.5123 104.592 29.9284 107.541C29.7495 108.446 30.6167 111.406 32.546 118.896C34.4752 126.387 31.0079 124.871 29.0331 123.177C24.9428 117.806 15.354 107.177 9.72077 107.625C2.67926 108.186 8.43268 113.235 14.0776 115.241C19.7224 117.247 23.8475 128.725 22.2425 129.652L4.38934 126.117C0.456253 125.339 -0.892988 127.915 0.581842 130.34C1.7617 132.279 17.0127 133.119 25.0567 135.184C23.1667 136.054 17.3346 138.252 13.7909 139.528C8.92265 141.281 12.9432 147.971 16.3031 146.138C19.7296 144.27 29.3516 140.418 33.9452 135.167C34.3753 133.593 38.3576 132.628 50.8464 141.356C63.3351 150.083 75.0884 148.761 79.404 147.009C76.7025 140.906 71.107 128.058 70.3361 125.489C69.5652 122.919 77.3835 127.891 81.3889 130.698L84.6586 142.007C85.5488 142.598 89.1207 143.886 96.2872 144.309C103.454 144.733 119.647 143.306 126.847 142.54C119.345 146.326 103.235 155.174 98.8143 160.27C94.3937 165.366 103.727 166.573 108.946 166.54C117.058 165.658 135.026 164.239 142.003 165.621C148.98 167.002 153.042 175.388 154.201 179.408C155.229 180.5 158.378 182.368 162.751 181.101C167.125 179.834 162.588 177.206 160.282 175.388C156.408 173.436 151.017 168.258 156.368 168.464C163.056 168.722 166.843 175.691 175.837 176.938C184.831 178.186 178.76 169.698 172.538 168.466C166.317 167.235 160.942 165.105 160.118 162.987C159.458 161.292 167.356 157.798 172.754 156.603C176.287 155.821 178.724 155.94 180.542 153.169C183.327 148.925 178.13 147.609 175.38 148.631C167.085 151.713 153.909 158.275 152.218 155.381C150.528 152.487 154.819 147.011 157.176 144.634C158.608 143.081 161.154 139.375 156.457 138.019C150.587 136.323 149.618 154.356 146.242 155.727C144.175 156.566 149.436 146.132 146.16 144.621C144.666 143.932 143.61 145.849 143.095 147.412C141.933 150.939 142.534 158.69 142.534 158.69L135.723 158.158L129.284 158.511C128.136 157.247 129.051 155.955 135.172 153.044C141.292 150.133 146.679 138.41 148.604 132.275C139.757 129.99 124.058 125.39 132.044 125.265C142.026 125.108 144.474 118.129 145.958 107.939C147.146 99.7859 152.144 100.929 154.494 102.52C155.455 109.937 158.253 125.3 158.677 126.805C159.207 128.687 166.213 131.233 170.351 129.116C172.855 127.835 178.662 123.803 184.163 122.424C185.737 123.446 190.058 127.544 193.458 131.913C196.858 136.282 202.357 137.229 204.681 137.156C206.091 135.421 207.74 131.4 203.059 129.193C198.378 126.987 195.45 123.345 194.571 121.799L205.515 123.966C208.252 124.507 214.1 128.003 216.014 128.382C218.924 128.958 220.297 128.908 221.546 124.037C222.432 120.582 214.802 120.145 208.033 120.227C201.264 120.308 198.966 116.655 201.011 113.505C203.056 110.356 208.18 108.11 209.732 107.955C212.317 107.695 216.04 106.707 220.59 105.268C225.14 103.829 220.386 98.0369 218.12 97.8698C215.877 97.7045 210.188 100.839 207.4 102.657C200.933 110.002 186.227 115.787 197.79 100.371C206.73 88.4512 195.15 87.8227 192.797 95.7538C178.322 124.712 169.273 121.212 168.382 114.36C161.192 98.3889 166.281 76.0988 169.939 65.8652C173.702 63.9292 178.735 61.3204 179.944 55.9556C181.202 50.3724 174.965 48.0202 174.602 42.3085C174.377 38.7678 174.835 29.2189 164.508 31.9485Z" fill="#161616"/>
</svg>
