<svg width="2465" height="149" viewBox="0 0 2465 149" fill="none" xmlns="http://www.w3.org/2000/svg">
<path d="M2454.98 86.0375C2460.34 86.0375 2464.69 90.2392 2464.69 95.4223C2464.69 100.605 2460.34 104.807 2454.98 104.807C2449.61 104.807 2445.26 100.605 2445.26 95.4223C2445.26 90.2392 2449.61 86.0375 2454.98 86.0375Z" fill="white"/>
<path d="M2454.98 99.5815C2460.34 99.5815 2464.69 103.783 2464.69 108.966C2464.69 114.149 2460.34 118.351 2454.98 118.351C2449.61 118.351 2445.26 114.149 2445.26 108.966C2445.26 103.783 2449.61 99.5815 2454.98 99.5815Z" fill="white"/>
<path d="M2454.98 71.3852C2460.34 71.3852 2464.69 75.5869 2464.69 80.77C2464.69 85.9531 2460.34 90.1548 2454.98 90.1548C2449.61 90.1548 2445.26 85.9531 2445.26 80.77C2445.26 75.5869 2449.61 71.3852 2454.98 71.3852Z" fill="white"/>
<path d="M2454.98 56.7323C2460.34 56.7323 2464.69 60.9341 2464.69 66.1171C2464.69 71.3002 2460.34 75.502 2454.98 75.502C2449.61 75.502 2445.26 71.3002 2445.26 66.1171C2445.26 60.9341 2449.61 56.7323 2454.98 56.7323Z" fill="white"/>
<path d="M2454.98 42.0727C2460.34 42.0727 2464.69 46.2744 2464.69 51.4575C2464.69 56.6406 2460.34 60.8423 2454.98 60.8423C2449.61 60.8423 2445.26 56.6406 2445.26 51.4575C2445.26 46.2744 2449.61 42.0727 2454.98 42.0727Z" fill="white"/>
<path d="M2454.98 27.4203C2460.34 27.4203 2464.69 31.622 2464.69 36.8051C2464.69 41.9882 2460.34 46.1899 2454.98 46.1899C2449.61 46.1899 2445.26 41.9882 2445.26 36.8051C2445.26 31.622 2449.61 27.4203 2454.98 27.4203Z" fill="white"/>
<path d="M2454.98 12.767C2460.34 12.767 2464.69 16.9687 2464.69 22.1518C2464.69 27.3349 2460.34 31.5366 2454.98 31.5366C2449.61 31.5366 2445.26 27.3349 2445.26 22.1518C2445.26 16.9687 2449.61 12.767 2454.98 12.767Z" fill="white"/>
<path d="M2441.92 12.5448C2447.28 12.5448 2451.63 16.7466 2451.63 21.9296C2451.63 27.1127 2447.28 31.3145 2441.92 31.3145C2436.55 31.3145 2432.2 27.1127 2432.2 21.9296C2432.2 16.7466 2436.55 12.5448 2441.92 12.5448Z" fill="white"/>
<path d="M2427.54 12.767C2432.91 12.767 2437.26 16.9687 2437.26 22.1518C2437.26 27.3349 2432.91 31.5366 2427.54 31.5366C2422.18 31.5366 2417.83 27.3349 2417.83 22.1518C2417.83 16.9687 2422.18 12.767 2427.54 12.767Z" fill="white"/>
<path d="M2413.17 12.767C2418.54 12.767 2422.89 16.9687 2422.89 22.1518C2422.89 27.3349 2418.54 31.5366 2413.17 31.5366C2407.81 31.5366 2403.46 27.3349 2403.46 22.1518C2403.46 16.9687 2407.81 12.767 2413.17 12.767Z" fill="white"/>
<path d="M2404.68 18.0346C2410.04 18.0346 2414.39 22.2363 2414.39 27.4194C2414.39 32.6025 2410.04 36.8042 2404.68 36.8042C2399.31 36.8042 2394.96 32.6025 2394.96 27.4194C2394.96 22.2363 2399.31 18.0346 2404.68 18.0346Z" fill="white"/>
<path d="M2399.67 32.6889C2405.04 32.6889 2409.39 36.8906 2409.39 42.0737C2409.39 47.2568 2405.04 51.4585 2399.67 51.4585C2394.3 51.4585 2389.96 47.2568 2389.96 42.0737C2389.96 36.8906 2394.3 32.6889 2399.67 32.6889Z" fill="white"/>
<path d="M2403.46 47.3437C2408.82 47.3437 2413.17 51.5454 2413.17 56.7285C2413.17 61.9116 2408.82 66.1133 2403.46 66.1133C2398.09 66.1133 2393.74 61.9116 2393.74 56.7285C2393.74 51.5454 2398.09 47.3437 2403.46 47.3437Z" fill="white"/>
<path d="M2414.39 56.7323C2419.76 56.7323 2424.11 60.9341 2424.11 66.1171C2424.11 71.3002 2419.76 75.502 2414.39 75.502C2409.03 75.502 2404.68 71.3002 2404.68 66.1171C2404.68 60.9341 2409.03 56.7323 2414.39 56.7323Z" fill="white"/>
<path d="M2429.22 59.0346C2434.58 59.0346 2438.93 63.2363 2438.93 68.4194C2438.93 73.6025 2434.58 77.8042 2429.22 77.8042C2423.85 77.8042 2419.5 73.6025 2419.5 68.4194C2419.5 63.2363 2423.85 59.0346 2429.22 59.0346Z" fill="white"/>
<path d="M2443.81 59.0346C2449.17 59.0346 2453.52 63.2363 2453.52 68.4194C2453.52 73.6025 2449.17 77.8042 2443.81 77.8042C2438.44 77.8042 2434.09 73.6025 2434.09 68.4194C2434.09 63.2363 2438.44 59.0346 2443.81 59.0346Z" fill="white"/>
<path d="M2415.72 68.6376C2421.08 68.6376 2425.43 72.8393 2425.43 78.0224C2425.43 83.2055 2421.08 87.4072 2415.72 87.4072C2410.35 87.4072 2406 83.2055 2406 78.0224C2406 72.8393 2410.35 68.6376 2415.72 68.6376Z" fill="white"/>
<path d="M2409.79 78.9555C2415.15 78.9555 2419.5 83.1572 2419.5 88.3403C2419.5 93.5234 2415.15 97.7251 2409.79 97.7251C2404.42 97.7251 2400.07 93.5234 2400.07 88.3403C2400.07 83.1572 2404.42 78.9555 2409.79 78.9555Z" fill="white"/>
<path d="M2404.68 91.0243C2410.04 91.0243 2414.39 95.226 2414.39 100.409C2414.39 105.592 2410.04 109.794 2404.68 109.794C2399.31 109.794 2394.96 105.592 2394.96 100.409C2394.96 95.226 2399.31 91.0243 2404.68 91.0243Z" fill="white"/>
<path d="M2400.07 101.243C2405.44 101.243 2409.79 105.444 2409.79 110.627C2409.79 115.81 2405.44 120.012 2400.07 120.012C2394.71 120.012 2390.36 115.81 2390.36 110.627C2390.36 105.444 2394.71 101.243 2400.07 101.243Z" fill="white"/>
<path d="M2219.07 86.9691C2224.56 86.9691 2229.01 91.2659 2229.01 96.5663C2229.01 101.867 2224.56 106.164 2219.07 106.164C2213.58 106.164 2209.14 101.867 2209.14 96.5663C2209.14 91.2659 2213.58 86.9691 2219.07 86.9691Z" fill="white"/>
<path d="M2219.07 100.815C2224.56 100.815 2229.01 105.112 2229.01 110.413C2229.01 115.713 2224.56 120.01 2219.07 120.01C2213.58 120.01 2209.14 115.713 2209.14 110.413C2209.14 105.112 2213.58 100.815 2219.07 100.815Z" fill="white"/>
<path d="M2219.07 71.9823C2224.56 71.9823 2229.01 76.2791 2229.01 81.5795C2229.01 86.8799 2224.56 91.1768 2219.07 91.1768C2213.58 91.1768 2209.14 86.8799 2209.14 81.5795C2209.14 76.2791 2213.58 71.9823 2219.07 71.9823Z" fill="white"/>
<path d="M2219.07 56.9959C2224.56 56.9959 2229.01 61.2928 2229.01 66.5932C2229.01 71.8936 2224.56 76.1904 2219.07 76.1904C2213.58 76.1904 2209.14 71.8936 2209.14 66.5932C2209.14 61.2928 2213.58 56.9959 2219.07 56.9959Z" fill="white"/>
<path d="M2219.07 42.0121C2224.56 42.0121 2229.01 46.3089 2229.01 51.6093C2229.01 56.9097 2224.56 61.2065 2219.07 61.2065C2213.58 61.2065 2209.14 56.9097 2209.14 51.6093C2209.14 46.3089 2213.58 42.0121 2219.07 42.0121Z" fill="white"/>
<path d="M2219.07 27.0262C2224.56 27.0262 2229.01 31.323 2229.01 36.6235C2229.01 41.9239 2224.56 46.2207 2219.07 46.2207C2213.58 46.2207 2209.14 41.9239 2209.14 36.6235C2209.14 31.323 2213.58 27.0262 2219.07 27.0262Z" fill="white"/>
<path d="M2219.07 12.037C2224.56 12.037 2229.01 16.3338 2229.01 21.6342C2229.01 26.9346 2224.56 31.2314 2219.07 31.2314C2213.58 31.2314 2209.14 26.9346 2209.14 21.6342C2209.14 16.3338 2213.58 12.037 2219.07 12.037Z" fill="white"/>
<path d="M2231.8 12.037C2237.28 12.037 2241.73 16.3338 2241.73 21.6342C2241.73 26.9346 2237.28 31.2314 2231.8 31.2314C2226.31 31.2314 2221.86 26.9346 2221.86 21.6342C2221.86 16.3338 2226.31 12.037 2231.8 12.037Z" fill="white"/>
<path d="M2248.39 12.037C2253.88 12.037 2258.33 16.3338 2258.33 21.6342C2258.33 26.9346 2253.88 31.2314 2248.39 31.2314C2242.91 31.2314 2238.46 26.9346 2238.46 21.6342C2238.46 16.3338 2242.91 12.037 2248.39 12.037Z" fill="white"/>
<path d="M2263.59 15.0702C2269.08 15.0702 2273.53 19.367 2273.53 24.6674C2273.53 29.9678 2269.08 34.2646 2263.59 34.2646C2258.11 34.2646 2253.66 29.9678 2253.66 24.6674C2253.66 19.367 2258.11 15.0702 2263.59 15.0702Z" fill="white"/>
<path d="M2270.28 26.7157C2275.77 26.7157 2280.22 31.0125 2280.22 36.3129C2280.22 41.6133 2275.77 45.9102 2270.28 45.9102C2264.79 45.9102 2260.35 41.6133 2260.35 36.3129C2260.35 31.0125 2264.79 26.7157 2270.28 26.7157Z" fill="white"/>
<path d="M2270.28 40.0399C2275.77 40.0399 2280.22 44.3367 2280.22 49.6371C2280.22 54.9375 2275.77 59.2344 2270.28 59.2344C2264.79 59.2344 2260.35 54.9375 2260.35 49.6371C2260.35 44.3367 2264.79 40.0399 2270.28 40.0399Z" fill="white"/>
<path d="M2265.05 53.4564C2270.54 53.4564 2274.99 57.7532 2274.99 63.0536C2274.99 68.354 2270.54 72.6509 2265.05 72.6509C2259.56 72.6509 2255.12 68.354 2255.12 63.0536C2255.12 57.7532 2259.56 53.4564 2265.05 53.4564Z" fill="white"/>
<path d="M2251.68 60.5833C2257.17 60.5833 2261.62 64.8802 2261.62 70.1806C2261.62 75.481 2257.17 79.7778 2251.68 79.7778C2246.2 79.7778 2241.75 75.481 2241.75 70.1806C2241.75 64.8802 2246.2 60.5833 2251.68 60.5833Z" fill="white"/>
<path d="M2234.41 61.429C2239.89 61.429 2244.34 65.7259 2244.34 71.0263C2244.34 76.3267 2239.89 80.6235 2234.41 80.6235C2228.92 80.6235 2224.47 76.3267 2224.47 71.0263C2224.47 65.7259 2228.92 61.429 2234.41 61.429Z" fill="white"/>
<path d="M1745.48 11.8448C1751.26 11.8448 1755.95 16.3711 1755.95 21.9546C1755.95 27.5381 1751.26 32.0645 1745.48 32.0645C1739.7 32.0645 1735.02 27.5381 1735.02 21.9546C1735.02 16.3711 1739.7 11.8448 1745.48 11.8448Z" fill="white"/>
<path d="M1757.96 11.8448C1763.74 11.8448 1768.43 16.3711 1768.43 21.9546C1768.43 27.5381 1763.74 32.0645 1757.96 32.0645C1752.18 32.0645 1747.49 27.5381 1747.49 21.9546C1747.49 16.3711 1752.18 11.8448 1757.96 11.8448Z" fill="white"/>
<path d="M1777.16 11.8448C1782.94 11.8448 1787.62 16.3711 1787.62 21.9546C1787.62 27.5381 1782.94 32.0645 1777.16 32.0645C1771.38 32.0645 1766.69 27.5381 1766.69 21.9546C1766.69 16.3711 1771.38 11.8448 1777.16 11.8448Z" fill="white"/>
<path d="M1795.07 13.7886C1800.85 13.7886 1805.54 18.315 1805.54 23.8985C1805.54 29.482 1800.85 34.0083 1795.07 34.0083C1789.29 34.0083 1784.6 29.482 1784.6 23.8985C1784.6 18.315 1789.29 13.7886 1795.07 13.7886Z" fill="white"/>
<path d="M1802.43 29.8785C1808.21 29.8785 1812.9 34.4048 1812.9 39.9883C1812.9 45.5718 1808.21 50.0981 1802.43 50.0981C1796.65 50.0981 1791.96 45.5718 1791.96 39.9883C1791.96 34.4048 1796.65 29.8785 1802.43 29.8785Z" fill="white"/>
<path d="M1798.09 48.4835C1803.87 48.4835 1808.55 53.0098 1808.55 58.5933C1808.55 64.1768 1803.87 68.7031 1798.09 68.7031C1792.31 68.7031 1787.62 64.1768 1787.62 58.5933C1787.62 53.0098 1792.31 48.4835 1798.09 48.4835Z" fill="white"/>
<path d="M1781.5 52.2886C1787.28 52.2886 1791.96 56.815 1791.96 62.3985C1791.96 67.982 1787.28 72.5083 1781.5 72.5083C1775.72 72.5083 1771.03 67.982 1771.03 62.3985C1771.03 56.815 1775.72 52.2886 1781.5 52.2886Z" fill="white"/>
<path d="M1798.09 62.398C1803.87 62.398 1808.55 66.9243 1808.55 72.5078C1808.55 78.0914 1803.87 82.6177 1798.09 82.6177C1792.31 82.6177 1787.62 78.0914 1787.62 72.5078C1787.62 66.9243 1792.31 62.398 1798.09 62.398Z" fill="white"/>
<path d="M1808.55 73.7603C1814.33 73.7603 1819.02 78.2866 1819.02 83.8702C1819.02 89.4537 1814.33 93.98 1808.55 93.98C1802.77 93.98 1798.09 89.4537 1798.09 83.8702C1798.09 78.2866 1802.77 73.7603 1808.55 73.7603Z" fill="white"/>
<path d="M1805.54 90.295C1811.32 90.295 1816 94.8213 1816 100.405C1816 105.988 1811.32 110.515 1805.54 110.515C1799.76 110.515 1795.07 105.988 1795.07 100.405C1795.07 94.8213 1799.76 90.295 1805.54 90.295Z" fill="white"/>
<path d="M1781.5 101.357C1787.28 101.357 1791.96 105.883 1791.96 111.467C1791.96 117.05 1787.28 121.577 1781.5 121.577C1775.72 121.577 1771.03 117.05 1771.03 111.467C1771.03 105.883 1775.72 101.357 1781.5 101.357Z" fill="white"/>
<path d="M1798.09 99.4132C1803.87 99.4132 1808.55 103.939 1808.55 109.523C1808.55 115.106 1803.87 119.633 1798.09 119.633C1792.31 119.633 1787.62 115.106 1787.62 109.523C1787.62 103.939 1792.31 99.4132 1798.09 99.4132Z" fill="white"/>
<path d="M1762.83 101.953C1768.61 101.953 1773.3 106.48 1773.3 112.063C1773.3 117.647 1768.61 122.173 1762.83 122.173C1757.05 122.173 1752.36 117.647 1752.36 112.063C1752.36 106.48 1757.05 101.953 1762.83 101.953Z" fill="white"/>
<path d="M1762.83 52.2886C1768.61 52.2886 1773.3 56.815 1773.3 62.3985C1773.3 67.982 1768.61 72.5083 1762.83 72.5083C1757.05 72.5083 1752.36 67.982 1752.36 62.3985C1752.36 56.815 1757.05 52.2886 1762.83 52.2886Z" fill="white"/>
<path d="M1745.48 25.6182C1751.26 25.6182 1755.95 30.1446 1755.95 35.7281C1755.95 41.3116 1751.26 45.8379 1745.48 45.8379C1739.7 45.8379 1735.02 41.3116 1735.02 35.7281C1735.02 30.1446 1739.7 25.6182 1745.48 25.6182Z" fill="white"/>
<path d="M1745.48 35.9537C1751.26 35.9537 1755.95 40.48 1755.95 46.0635C1755.95 51.647 1751.26 56.1733 1745.48 56.1733C1739.7 56.1733 1735.02 51.647 1735.02 46.0635C1735.02 40.48 1739.7 35.9537 1745.48 35.9537Z" fill="white"/>
<path d="M1745.48 52.2886C1751.26 52.2886 1755.95 56.815 1755.95 62.3985C1755.95 67.982 1751.26 72.5083 1745.48 72.5083C1739.7 72.5083 1735.02 67.982 1735.02 62.3985C1735.02 56.815 1739.7 52.2886 1745.48 52.2886Z" fill="white"/>
<path d="M1745.48 70.0767C1751.26 70.0767 1755.95 74.6031 1755.95 80.1866C1755.95 85.7701 1751.26 90.2964 1745.48 90.2964C1739.7 90.2964 1735.02 85.7701 1735.02 80.1866C1735.02 74.6031 1739.7 70.0767 1745.48 70.0767Z" fill="white"/>
<path d="M1745.48 86.6309C1751.26 86.6309 1755.95 91.1573 1755.95 96.7408C1755.95 102.324 1751.26 106.851 1745.48 106.851C1739.7 106.851 1735.02 102.324 1735.02 96.7408C1735.02 91.1573 1739.7 86.6309 1745.48 86.6309Z" fill="white"/>
<path d="M1745.48 101.357C1751.26 101.357 1755.95 105.883 1755.95 111.467C1755.95 117.05 1751.26 121.577 1745.48 121.577C1739.7 121.577 1735.02 117.05 1735.02 111.467C1735.02 105.883 1739.7 101.357 1745.48 101.357Z" fill="white"/>
<path d="M2334.2 60.9675C2339.77 60.9675 2344.29 65.3299 2344.29 70.7113C2344.29 76.0926 2339.77 80.4551 2334.2 80.4551C2328.63 80.4551 2324.11 76.0926 2324.11 70.7113C2324.11 65.3299 2328.63 60.9675 2334.2 60.9675Z" fill="white"/>
<path d="M2303.94 87.2121C2309.51 87.2121 2314.03 91.5745 2314.03 96.9559C2314.03 102.337 2309.51 106.7 2303.94 106.7C2298.37 106.7 2293.85 102.337 2293.85 96.9559C2293.85 91.5745 2298.37 87.2121 2303.94 87.2121Z" fill="white"/>
<path d="M2303.94 99.4904C2309.51 99.4904 2314.03 103.853 2314.03 109.234C2314.03 114.616 2309.51 118.978 2303.94 118.978C2298.37 118.978 2293.85 114.616 2293.85 109.234C2293.85 103.853 2298.37 99.4904 2303.94 99.4904Z" fill="white"/>
<path d="M2314.03 86.6589C2319.6 86.6589 2324.11 91.0213 2324.11 96.4027C2324.11 101.784 2319.6 106.146 2314.03 106.146C2308.45 106.146 2303.94 101.784 2303.94 96.4027C2303.94 91.0213 2308.45 86.6589 2314.03 86.6589Z" fill="white"/>
<path d="M2324.11 74.4631C2329.68 74.4631 2334.2 78.8255 2334.2 84.2069C2334.2 89.5882 2329.68 93.9507 2324.11 93.9507C2318.54 93.9507 2314.03 89.5882 2314.03 84.2069C2314.03 78.8255 2318.54 74.4631 2324.11 74.4631Z" fill="white"/>
<path d="M2344.29 47.5573C2349.86 47.5573 2354.37 51.9198 2354.37 57.3011C2354.37 62.6825 2349.86 67.0449 2344.29 67.0449C2338.72 67.0449 2334.2 62.6825 2334.2 57.3011C2334.2 51.9198 2338.72 47.5573 2344.29 47.5573Z" fill="white"/>
<path d="M2354.37 34.2248C2359.94 34.2248 2364.46 38.5872 2364.46 43.9686C2364.46 49.35 2359.94 53.7124 2354.37 53.7124C2348.8 53.7124 2344.29 49.35 2344.29 43.9686C2344.29 38.5872 2348.8 34.2248 2354.37 34.2248Z" fill="white"/>
<path d="M2362 24.631C2367.57 24.631 2372.09 28.9935 2372.09 34.3748C2372.09 39.7562 2367.57 44.1187 2362 44.1187C2356.43 44.1187 2351.91 39.7562 2351.91 34.3748C2351.91 28.9935 2356.43 24.631 2362 24.631Z" fill="white"/>
<path d="M2369.27 12.4728C2374.84 12.4728 2379.36 16.8353 2379.36 22.2166C2379.36 27.598 2374.84 31.9604 2369.27 31.9604C2363.7 31.9604 2359.18 27.598 2359.18 22.2166C2359.18 16.8353 2363.7 12.4728 2369.27 12.4728Z" fill="white"/>
<path d="M2369.27 26.9758C2374.84 26.9758 2379.36 31.3382 2379.36 36.7196C2379.36 42.1009 2374.84 46.4634 2369.27 46.4634C2363.7 46.4634 2359.18 42.1009 2359.18 36.7196C2359.18 31.3382 2363.7 26.9758 2369.27 26.9758Z" fill="white"/>
<path d="M2369.27 41.4792C2374.84 41.4792 2379.36 45.8416 2379.36 51.223C2379.36 56.6043 2374.84 60.9668 2369.27 60.9668C2363.7 60.9668 2359.18 56.6043 2359.18 51.223C2359.18 45.8416 2363.7 41.4792 2369.27 41.4792Z" fill="white"/>
<path d="M2369.27 55.9797C2374.84 55.9797 2379.36 60.3421 2379.36 65.7235C2379.36 71.1048 2374.84 75.4673 2369.27 75.4673C2363.7 75.4673 2359.18 71.1048 2359.18 65.7235C2359.18 60.3421 2363.7 55.9797 2369.27 55.9797Z" fill="white"/>
<path d="M2369.27 70.4855C2374.84 70.4855 2379.36 74.848 2379.36 80.2293C2379.36 85.6107 2374.84 89.9731 2369.27 89.9731C2363.7 89.9731 2359.18 85.6107 2359.18 80.2293C2359.18 74.848 2363.7 70.4855 2369.27 70.4855Z" fill="white"/>
<path d="M2369.27 84.9846C2374.84 84.9846 2379.36 89.347 2379.36 94.7284C2379.36 100.11 2374.84 104.472 2369.27 104.472C2363.7 104.472 2359.18 100.11 2359.18 94.7284C2359.18 89.347 2363.7 84.9846 2369.27 84.9846Z" fill="white"/>
<path d="M2369.27 99.4904C2374.84 99.4904 2379.36 103.853 2379.36 109.234C2379.36 114.616 2374.84 118.978 2369.27 118.978C2363.7 118.978 2359.18 114.616 2359.18 109.234C2359.18 103.853 2363.7 99.4904 2369.27 99.4904Z" fill="white"/>
<path d="M2303.94 72.7087C2309.51 72.7087 2314.03 77.0711 2314.03 82.4525C2314.03 87.8338 2309.51 92.1963 2303.94 92.1963C2298.37 92.1963 2293.85 87.8338 2293.85 82.4525C2293.85 77.0711 2298.37 72.7087 2303.94 72.7087Z" fill="white"/>
<path d="M2303.94 58.2077C2309.51 58.2077 2314.03 62.5701 2314.03 67.9515C2314.03 73.3329 2309.51 77.6953 2303.94 77.6953C2298.37 77.6953 2293.85 73.3329 2293.85 67.9515C2293.85 62.5701 2298.37 58.2077 2303.94 58.2077Z" fill="white"/>
<path d="M2303.94 43.7043C2309.51 43.7043 2314.03 48.0667 2314.03 53.4481C2314.03 58.8294 2309.51 63.1919 2303.94 63.1919C2298.37 63.1919 2293.85 58.8294 2293.85 53.4481C2293.85 48.0667 2298.37 43.7043 2303.94 43.7043Z" fill="white"/>
<path d="M2303.94 27.6003C2309.51 27.6003 2314.03 31.9627 2314.03 37.3441C2314.03 42.7254 2309.51 47.0879 2303.94 47.0879C2298.37 47.0879 2293.85 42.7254 2293.85 37.3441C2293.85 31.9627 2298.37 27.6003 2303.94 27.6003Z" fill="white"/>
<path d="M2303.94 12.4728C2309.51 12.4728 2314.03 16.8353 2314.03 22.2166C2314.03 27.598 2309.51 31.9604 2303.94 31.9604C2298.37 31.9604 2293.85 27.598 2293.85 22.2166C2293.85 16.8353 2298.37 12.4728 2303.94 12.4728Z" fill="white"/>
<path d="M1870.7 60.5543C1876.48 60.5543 1881.17 65.0806 1881.17 70.6641C1881.17 76.2476 1876.48 80.7739 1870.7 80.7739C1864.92 80.7739 1860.24 76.2476 1860.24 70.6641C1860.24 65.0806 1864.92 60.5543 1870.7 60.5543Z" fill="white"/>
<path d="M1835.47 101.356C1841.25 101.356 1845.93 105.882 1845.93 111.465C1845.93 117.049 1841.25 121.575 1835.47 121.575C1829.69 121.575 1825 117.049 1825 111.465C1825 105.882 1829.69 101.356 1835.47 101.356Z" fill="white"/>
<path d="M1845.93 88.8184C1851.71 88.8184 1856.4 93.3448 1856.4 98.9283C1856.4 104.512 1851.71 109.038 1845.93 109.038C1840.15 109.038 1835.47 104.512 1835.47 98.9283C1835.47 93.3448 1840.15 88.8184 1845.93 88.8184Z" fill="white"/>
<path d="M1860.01 75.4234C1865.79 75.4234 1870.48 79.9497 1870.48 85.5332C1870.48 91.1167 1865.79 95.6431 1860.01 95.6431C1854.23 95.6431 1849.55 91.1167 1849.55 85.5332C1849.55 79.9497 1854.23 75.4234 1860.01 75.4234Z" fill="white"/>
<path d="M1882.23 45.8375C1888.01 45.8375 1892.69 50.3638 1892.69 55.9473C1892.69 61.5308 1888.01 66.0571 1882.23 66.0571C1876.45 66.0571 1871.76 61.5308 1871.76 55.9473C1871.76 50.3638 1876.45 45.8375 1882.23 45.8375Z" fill="white"/>
<path d="M1891.63 32.0635C1897.41 32.0635 1902.1 36.5899 1902.1 42.1734C1902.1 47.7569 1897.41 52.2832 1891.63 52.2832C1885.85 52.2832 1881.17 47.7569 1881.17 42.1734C1881.17 36.5899 1885.85 32.0635 1891.63 32.0635Z" fill="white"/>
<path d="M1903.25 11.8453C1909.03 11.8453 1913.72 16.3716 1913.72 21.9551C1913.72 27.5386 1909.03 32.0649 1903.25 32.0649C1897.47 32.0649 1892.78 27.5386 1892.78 21.9551C1892.78 16.3716 1897.47 11.8453 1903.25 11.8453Z" fill="white"/>
<path d="M1903.25 25.6163C1909.03 25.6163 1913.72 30.1426 1913.72 35.7261C1913.72 41.3096 1909.03 45.8359 1903.25 45.8359C1897.47 45.8359 1892.78 41.3096 1892.78 35.7261C1892.78 30.1426 1897.47 25.6163 1903.25 25.6163Z" fill="white"/>
<path d="M1903.25 35.9493C1909.03 35.9493 1913.72 40.4756 1913.72 46.0591C1913.72 51.6426 1909.03 56.1689 1903.25 56.1689C1897.47 56.1689 1892.78 51.6426 1892.78 46.0591C1892.78 40.4756 1897.47 35.9493 1903.25 35.9493Z" fill="white"/>
<path d="M1903.25 52.2847C1909.03 52.2847 1913.72 56.8111 1913.72 62.3946C1913.72 67.9781 1909.03 72.5044 1903.25 72.5044C1897.47 72.5044 1892.78 67.9781 1892.78 62.3946C1892.78 56.8111 1897.47 52.2847 1903.25 52.2847Z" fill="white"/>
<path d="M1903.25 70.0753C1909.03 70.0753 1913.72 74.6016 1913.72 80.1851C1913.72 85.7686 1909.03 90.2949 1903.25 90.2949C1897.47 90.2949 1892.78 85.7686 1892.78 80.1851C1892.78 74.6016 1897.47 70.0753 1903.25 70.0753Z" fill="white"/>
<path d="M1903.25 86.6285C1909.03 86.6285 1913.72 91.1548 1913.72 96.7383C1913.72 102.322 1909.03 106.848 1903.25 106.848C1897.47 106.848 1892.78 102.322 1892.78 96.7383C1892.78 91.1548 1897.47 86.6285 1903.25 86.6285Z" fill="white"/>
<path d="M1903.25 101.356C1909.03 101.356 1913.72 105.882 1913.72 111.465C1913.72 117.049 1909.03 121.575 1903.25 121.575C1897.47 121.575 1892.78 117.049 1892.78 111.465C1892.78 105.882 1897.47 101.356 1903.25 101.356Z" fill="white"/>
<path d="M1835.47 83.6744C1841.25 83.6744 1845.93 88.2007 1845.93 93.7842C1845.93 99.3677 1841.25 103.894 1835.47 103.894C1829.69 103.894 1825 99.3677 1825 93.7842C1825 88.2007 1829.69 83.6744 1835.47 83.6744Z" fill="white"/>
<path d="M1835.47 66.0552C1841.25 66.0552 1845.93 70.5816 1845.93 76.1651C1845.93 81.7486 1841.25 86.2749 1835.47 86.2749C1829.69 86.2749 1825 81.7486 1825 76.1651C1825 70.5816 1829.69 66.0552 1835.47 66.0552Z" fill="white"/>
<path d="M1835.47 47.6983C1841.25 47.6983 1845.93 52.2246 1845.93 57.8081C1845.93 63.3916 1841.25 67.918 1835.47 67.918C1829.69 67.918 1825 63.3916 1825 57.8081C1825 52.2246 1829.69 47.6983 1835.47 47.6983Z" fill="white"/>
<path d="M1835.47 29.6358C1841.25 29.6358 1845.93 34.1621 1845.93 39.7456C1845.93 45.3291 1841.25 49.8555 1835.47 49.8555C1829.69 49.8555 1825 45.3291 1825 39.7456C1825 34.1621 1829.69 29.6358 1835.47 29.6358Z" fill="white"/>
<path d="M1835.47 11.8453C1841.25 11.8453 1845.93 16.3716 1845.93 21.9551C1845.93 27.5386 1841.25 32.0649 1835.47 32.0649C1829.69 32.0649 1825 27.5386 1825 21.9551C1825 16.3716 1829.69 11.8453 1835.47 11.8453Z" fill="white"/>
<path d="M2152.68 8.8656C2158.06 8.8656 2162.42 13.0808 2162.42 18.2805C2162.42 23.4801 2158.06 27.6953 2152.68 27.6953C2147.29 27.6953 2142.93 23.4801 2142.93 18.2805C2142.93 13.0808 2147.29 8.8656 2152.68 8.8656Z" fill="white"/>
<path d="M2165.99 12.9999C2171.37 12.9999 2175.74 17.2151 2175.74 22.4147C2175.74 27.6144 2171.37 31.8296 2165.99 31.8296C2160.61 31.8296 2156.25 27.6144 2156.25 22.4147C2156.25 17.2151 2160.61 12.9999 2165.99 12.9999Z" fill="white"/>
<path d="M2136.97 12.9286C2142.35 12.9286 2146.72 17.1438 2146.72 22.3434C2146.72 27.5431 2142.35 31.7583 2136.97 31.7583C2131.59 31.7583 2127.23 27.5431 2127.23 22.3434C2127.23 17.1438 2131.59 12.9286 2136.97 12.9286Z" fill="white"/>
<path d="M2124.42 20.4794C2129.81 20.4794 2134.17 24.6945 2134.17 29.8942C2134.17 35.0939 2129.81 39.3091 2124.42 39.3091C2119.04 39.3091 2114.68 35.0939 2114.68 29.8942C2114.68 24.6945 2119.04 20.4794 2124.42 20.4794Z" fill="white"/>
<path d="M2175.74 22.3475C2181.12 22.3475 2185.48 26.5627 2185.48 31.7624C2185.48 36.9621 2181.12 41.1772 2175.74 41.1772C2170.36 41.1772 2165.99 36.9621 2165.99 31.7624C2165.99 26.5627 2170.36 22.3475 2175.74 22.3475Z" fill="white"/>
<path d="M2185.48 35.724C2190.87 35.724 2195.23 39.9392 2195.23 45.1389C2195.23 50.3385 2190.87 54.5537 2185.48 54.5537C2180.1 54.5537 2175.74 50.3385 2175.74 45.1389C2175.74 39.9392 2180.1 35.724 2185.48 35.724Z" fill="white"/>
<path d="M2116.42 31.9213C2121.81 31.9213 2126.17 36.1364 2126.17 41.3361C2126.17 46.5358 2121.81 50.751 2116.42 50.751C2111.04 50.751 2106.68 46.5358 2106.68 41.3361C2106.68 36.1364 2111.04 31.9213 2116.42 31.9213Z" fill="white"/>
<path d="M2111.87 46.3187C2117.25 46.3187 2121.62 50.5339 2121.62 55.7336C2121.62 60.9333 2117.25 65.1484 2111.87 65.1484C2106.49 65.1484 2102.12 60.9333 2102.12 55.7336C2102.12 50.5339 2106.49 46.3187 2111.87 46.3187Z" fill="white"/>
<path d="M2189.3 48.327C2194.69 48.327 2199.05 52.5422 2199.05 57.7419C2199.05 62.9416 2194.69 67.1567 2189.3 67.1567C2183.92 67.1567 2179.56 62.9416 2179.56 57.7419C2179.56 52.5422 2183.92 48.327 2189.3 48.327Z" fill="white"/>
<path d="M2152.68 122.173C2158.06 122.173 2162.42 117.958 2162.42 112.759C2162.42 107.559 2158.06 103.344 2152.68 103.344C2147.29 103.344 2142.93 107.559 2142.93 112.759C2142.93 117.958 2147.29 122.173 2152.68 122.173Z" fill="white"/>
<path d="M2165.99 117.714C2171.37 117.714 2175.74 113.498 2175.74 108.299C2175.74 103.099 2171.37 98.8838 2165.99 98.8838C2160.61 98.8838 2156.25 103.099 2156.25 108.299C2156.25 113.498 2160.61 117.714 2165.99 117.714Z" fill="white"/>
<path d="M2136.97 118.762C2142.35 118.762 2146.72 114.547 2146.72 109.347C2146.72 104.148 2142.35 99.9326 2136.97 99.9326C2131.59 99.9326 2127.23 104.148 2127.23 109.347C2127.23 114.547 2131.59 118.762 2136.97 118.762Z" fill="white"/>
<path d="M2123.37 109.277C2128.75 109.277 2133.11 105.062 2133.11 99.8626C2133.11 94.6629 2128.75 90.4478 2123.37 90.4478C2117.98 90.4478 2113.62 94.6629 2113.62 99.8626C2113.62 105.062 2117.98 109.277 2123.37 109.277Z" fill="white"/>
<path d="M2175.74 108.368C2181.12 108.368 2185.49 104.153 2185.49 98.9529C2185.49 93.7533 2181.12 89.5381 2175.74 89.5381C2170.36 89.5381 2165.99 93.7533 2165.99 98.9529C2165.99 104.153 2170.36 108.368 2175.74 108.368Z" fill="white"/>
<path d="M2185.48 94.9908C2190.87 94.9908 2195.23 90.7757 2195.23 85.576C2195.23 80.3763 2190.87 76.1611 2185.48 76.1611C2180.1 76.1611 2175.74 80.3763 2175.74 85.576C2175.74 90.7757 2180.1 94.9908 2185.48 94.9908Z" fill="white"/>
<path d="M2115.37 97.8351C2120.75 97.8351 2125.11 93.6199 2125.11 88.4202C2125.11 83.2205 2120.75 79.0054 2115.37 79.0054C2109.99 79.0054 2105.62 83.2205 2105.62 88.4202C2105.62 93.6199 2109.99 97.8351 2115.37 97.8351Z" fill="white"/>
<path d="M2111.87 81.5533C2117.25 81.5533 2121.62 77.3382 2121.62 72.1385C2121.62 66.9388 2117.25 62.7236 2111.87 62.7236C2106.49 62.7236 2102.12 66.9388 2102.12 72.1385C2102.12 77.3382 2106.49 81.5533 2111.87 81.5533Z" fill="white"/>
<path d="M2189.3 82.3834C2194.69 82.3834 2199.05 78.1682 2199.05 72.9686C2199.05 67.7689 2194.69 63.5537 2189.3 63.5537C2183.92 63.5537 2179.56 67.7689 2179.56 72.9686C2179.56 78.1682 2183.92 82.3834 2189.3 82.3834Z" fill="white"/>
<path d="M2058.72 100.886C2064.5 100.886 2069.19 105.412 2069.19 110.996C2069.19 116.579 2064.5 121.105 2058.72 121.105C2052.94 121.105 2048.25 116.579 2048.25 110.996C2048.25 105.412 2052.94 100.886 2058.72 100.886Z" fill="white"/>
<path d="M2058.54 83.2047C2064.32 83.2047 2069 87.731 2069 93.3145C2069 98.898 2064.32 103.424 2058.54 103.424C2052.76 103.424 2048.07 98.898 2048.07 93.3145C2048.07 87.731 2052.76 83.2047 2058.54 83.2047Z" fill="white"/>
<path d="M2058.54 65.5884C2064.32 65.5884 2069 70.1148 2069 75.6983C2069 81.2818 2064.32 85.8081 2058.54 85.8081C2052.76 85.8081 2048.07 81.2818 2048.07 75.6983C2048.07 70.1148 2052.76 65.5884 2058.54 65.5884Z" fill="white"/>
<path d="M2058.54 47.524C2064.32 47.524 2069 52.0503 2069 57.6338C2069 63.2173 2064.32 67.7437 2058.54 67.7437C2052.76 67.7437 2048.07 63.2173 2048.07 57.6338C2048.07 52.0503 2052.76 47.524 2058.54 47.524Z" fill="white"/>
<path d="M2058.54 29.7354C2064.32 29.7354 2069 34.2617 2069 39.8452C2069 45.4288 2064.32 49.9551 2058.54 49.9551C2052.76 49.9551 2048.07 45.4288 2048.07 39.8452C2048.07 34.2617 2052.76 29.7354 2058.54 29.7354Z" fill="white"/>
<path d="M2027.87 11.8448C2033.65 11.8448 2038.34 16.3711 2038.34 21.9546C2038.34 27.5381 2033.65 32.0645 2027.87 32.0645C2022.09 32.0645 2017.41 27.5381 2017.41 21.9546C2017.41 16.3711 2022.09 11.8448 2027.87 11.8448Z" fill="white"/>
<path d="M2043.21 11.8448C2048.99 11.8448 2053.68 16.3711 2053.68 21.9546C2053.68 27.5381 2048.99 32.0645 2043.21 32.0645C2037.43 32.0645 2032.74 27.5381 2032.74 21.9546C2032.74 16.3711 2037.43 11.8448 2043.21 11.8448Z" fill="white"/>
<path d="M2057.9 11.8448C2063.68 11.8448 2068.37 16.3711 2068.37 21.9546C2068.37 27.5381 2063.68 32.0645 2057.9 32.0645C2052.12 32.0645 2047.44 27.5381 2047.44 21.9546C2047.44 16.3711 2052.12 11.8448 2057.9 11.8448Z" fill="white"/>
<path d="M2073.45 11.8448C2079.23 11.8448 2083.91 16.3711 2083.91 21.9546C2083.91 27.5381 2079.23 32.0645 2073.45 32.0645C2067.67 32.0645 2062.98 27.5381 2062.98 21.9546C2062.98 16.3711 2067.67 11.8448 2073.45 11.8448Z" fill="white"/>
<path d="M2089.2 11.8448C2094.98 11.8448 2099.67 16.3711 2099.67 21.9546C2099.67 27.5381 2094.98 32.0645 2089.2 32.0645C2083.42 32.0645 2078.73 27.5381 2078.73 21.9546C2078.73 16.3711 2083.42 11.8448 2089.2 11.8448Z" fill="white"/>
<path d="M1940.5 98.7589C1946.28 98.7589 1950.96 103.285 1950.96 108.869C1950.96 114.452 1946.28 118.979 1940.5 118.979C1934.72 118.979 1930.03 114.452 1930.03 108.869C1930.03 103.285 1934.72 98.7589 1940.5 98.7589Z" fill="white"/>
<path d="M1940.31 81.0777C1946.09 81.0777 1950.78 85.604 1950.78 91.1875C1950.78 96.771 1946.09 101.297 1940.31 101.297C1934.53 101.297 1929.84 96.771 1929.84 91.1875C1929.84 85.604 1934.53 81.0777 1940.31 81.0777Z" fill="white"/>
<path d="M1940.31 63.4586C1946.09 63.4586 1950.78 67.9849 1950.78 73.5684C1950.78 79.1519 1946.09 83.6782 1940.31 83.6782C1934.53 83.6782 1929.84 79.1519 1929.84 73.5684C1929.84 67.9849 1934.53 63.4586 1940.31 63.4586Z" fill="white"/>
<path d="M1940.31 45.397C1946.09 45.397 1950.78 49.9234 1950.78 55.5069C1950.78 61.0904 1946.09 65.6167 1940.31 65.6167C1934.53 65.6167 1929.84 61.0904 1929.84 55.5069C1929.84 49.9234 1934.53 45.397 1940.31 45.397Z" fill="white"/>
<path d="M1950.96 53.3472C1956.74 53.3472 1961.43 57.8736 1961.43 63.4571C1961.43 69.0406 1956.74 73.5669 1950.96 73.5669C1945.18 73.5669 1940.5 69.0406 1940.5 63.4571C1940.5 57.8736 1945.18 53.3472 1950.96 53.3472Z" fill="white"/>
<path d="M1965.95 53.3472C1971.73 53.3472 1976.41 57.8736 1976.41 63.4571C1976.41 69.0406 1971.73 73.5669 1965.95 73.5669C1960.17 73.5669 1955.48 69.0406 1955.48 63.4571C1955.48 57.8736 1960.17 53.3472 1965.95 53.3472Z" fill="white"/>
<path d="M1976.41 39.5787C1982.19 39.5787 1986.88 44.105 1986.88 49.6885C1986.88 55.272 1982.19 59.7983 1976.41 59.7983C1970.63 59.7983 1965.95 55.272 1965.95 49.6885C1965.95 44.105 1970.63 39.5787 1976.41 39.5787Z" fill="white"/>
<path d="M1987.07 26.1983C1992.85 26.1983 1997.53 30.7246 1997.53 36.3081C1997.53 41.8916 1992.85 46.418 1987.07 46.418C1981.29 46.418 1976.6 41.8916 1976.6 36.3081C1976.6 30.7246 1981.29 26.1983 1987.07 26.1983Z" fill="white"/>
<path d="M1997.53 13.3497C2003.31 13.3497 2008 17.876 2008 23.4595C2008 29.043 2003.31 33.5693 1997.53 33.5693C1991.75 33.5693 1987.07 29.043 1987.07 23.4595C1987.07 17.876 1991.75 13.3497 1997.53 13.3497Z" fill="white"/>
<path d="M1971.89 63.814C1977.67 63.814 1982.36 68.3404 1982.36 73.9239C1982.36 79.5074 1977.67 84.0337 1971.89 84.0337C1966.11 84.0337 1961.43 79.5074 1961.43 73.9239C1961.43 68.3404 1966.11 63.814 1971.89 63.814Z" fill="white"/>
<path d="M1980.03 76.1104C1985.81 76.1104 1990.49 80.6367 1990.49 86.2202C1990.49 91.8038 1985.81 96.3301 1980.03 96.3301C1974.25 96.3301 1969.56 91.8038 1969.56 86.2202C1969.56 80.6367 1974.25 76.1104 1980.03 76.1104Z" fill="white"/>
<path d="M1990.49 88.6495C1996.27 88.6495 2000.96 93.1758 2000.96 98.7593C2000.96 104.343 1996.27 108.869 1990.49 108.869C1984.71 108.869 1980.03 104.343 1980.03 98.7593C1980.03 93.1758 1984.71 88.6495 1990.49 88.6495Z" fill="white"/>
<path d="M2000.96 98.7589C2006.74 98.7589 2011.42 103.285 2011.42 108.869C2011.42 114.452 2006.74 118.979 2000.96 118.979C1995.18 118.979 1990.49 114.452 1990.49 108.869C1990.49 103.285 1995.18 98.7589 2000.96 98.7589Z" fill="white"/>
<path d="M1940.31 27.6065C1946.09 27.6065 1950.78 32.1328 1950.78 37.7163C1950.78 43.2998 1946.09 47.8262 1940.31 47.8262C1934.53 47.8262 1929.84 43.2998 1929.84 37.7163C1929.84 32.1328 1934.53 27.6065 1940.31 27.6065Z" fill="white"/>
<path d="M1940.31 13.1319C1946.09 13.1319 1950.78 17.6582 1950.78 23.2417C1950.78 28.8252 1946.09 33.3516 1940.31 33.3516C1934.53 33.3516 1929.84 28.8252 1929.84 23.2417C1929.84 17.6582 1934.53 13.1319 1940.31 13.1319Z" fill="white"/>
<path d="M268.22 103.316C273.838 103.316 278.393 107.715 278.393 113.142C278.393 118.569 273.838 122.968 268.22 122.968C262.603 122.968 258.048 118.569 258.048 113.142C258.048 107.715 262.603 103.316 268.22 103.316Z" fill="white"/>
<path d="M283.591 103.316C289.209 103.316 293.763 107.715 293.763 113.142C293.763 118.569 289.209 122.968 283.591 122.968C277.973 122.968 273.418 118.569 273.418 113.142C273.418 107.715 277.973 103.316 283.591 103.316Z" fill="white"/>
<path d="M301.222 103.316C306.84 103.316 311.394 107.715 311.394 113.142C311.394 118.569 306.84 122.968 301.222 122.968C295.604 122.968 291.05 118.569 291.05 113.142C291.05 107.715 295.604 103.316 301.222 103.316Z" fill="white"/>
<path d="M316.07 103.316C321.688 103.316 326.242 107.715 326.242 113.142C326.242 118.569 321.688 122.968 316.07 122.968C310.452 122.968 305.898 118.569 305.898 113.142C305.898 107.715 310.452 103.316 316.07 103.316Z" fill="white"/>
<path d="M331.351 103.316C336.969 103.316 341.523 107.715 341.523 113.142C341.523 118.569 336.969 122.968 331.351 122.968C325.733 122.968 321.179 118.569 321.179 113.142C321.179 107.715 325.733 103.316 331.351 103.316Z" fill="white"/>
<path d="M333.057 89.005C338.675 89.005 343.23 93.4043 343.23 98.8311C343.23 104.258 338.675 108.657 333.057 108.657C327.439 108.657 322.885 104.258 322.885 98.8311C322.885 93.4043 327.439 89.005 333.057 89.005Z" fill="white"/>
<path d="M333.057 73.8468C338.675 73.8468 343.23 78.2461 343.23 83.6729C343.23 89.0997 338.675 93.499 333.057 93.499C327.439 93.499 322.885 89.0997 322.885 83.6729C322.885 78.2461 327.439 73.8468 333.057 73.8468Z" fill="white"/>
<path d="M333.057 57.7618C338.675 57.7618 343.23 62.1611 343.23 67.588C343.23 73.0148 338.675 77.4141 333.057 77.4141C327.439 77.4141 322.885 73.0148 322.885 67.588C322.885 62.1611 327.439 57.7618 333.057 57.7618Z" fill="white"/>
<path d="M333.057 41.7116C338.675 41.7116 343.23 46.1109 343.23 51.5377C343.23 56.9645 338.675 61.3638 333.057 61.3638C327.439 61.3638 322.885 56.9645 322.885 51.5377C322.885 46.1109 327.439 41.7116 333.057 41.7116Z" fill="white"/>
<path d="M333.057 27.8849C338.675 27.8849 343.23 32.2842 343.23 37.711C343.23 43.1378 338.675 47.5371 333.057 47.5371C327.439 47.5371 322.885 43.1378 322.885 37.711C322.885 32.2842 327.439 27.8849 333.057 27.8849Z" fill="white"/>
<path d="M333.057 13.6544C338.675 13.6544 343.23 18.0537 343.23 23.4805C343.23 28.9073 338.675 33.3066 333.057 33.3066C327.439 33.3066 322.885 28.9073 322.885 23.4805C322.885 18.0537 327.439 13.6544 333.057 13.6544Z" fill="white"/>
<path d="M319.599 13.6544C325.217 13.6544 329.771 18.0537 329.771 23.4805C329.771 28.9073 325.217 33.3066 319.599 33.3066C313.981 33.3066 309.427 28.9073 309.427 23.4805C309.427 18.0537 313.981 13.6544 319.599 13.6544Z" fill="white"/>
<path d="M301.222 13.6544C306.84 13.6544 311.394 18.0537 311.394 23.4805C311.394 28.9073 306.84 33.3066 301.222 33.3066C295.604 33.3066 291.05 28.9073 291.05 23.4805C291.05 18.0537 295.604 13.6544 301.222 13.6544Z" fill="white"/>
<path d="M283.591 13.6544C289.209 13.6544 293.763 18.0537 293.763 23.4805C293.763 28.9073 289.209 33.3066 283.591 33.3066C277.973 33.3066 273.418 28.9073 273.418 23.4805C273.418 18.0537 277.973 13.6544 283.591 13.6544Z" fill="white"/>
<path d="M283.591 27.8849C289.209 27.8849 293.763 32.2842 293.763 37.711C293.763 43.1378 289.209 47.5371 283.591 47.5371C277.973 47.5371 273.418 43.1378 273.418 37.711C273.418 32.2842 277.973 27.8849 283.591 27.8849Z" fill="white"/>
<path d="M283.591 43.0177C289.209 43.0177 293.763 47.417 293.763 52.8438C293.763 58.2706 289.209 62.6699 283.591 62.6699C277.973 62.6699 273.418 58.2706 273.418 52.8438C273.418 47.417 277.973 43.0177 283.591 43.0177Z" fill="white"/>
<path d="M281.25 57.7618C286.868 57.7618 291.422 62.1611 291.422 67.588C291.422 73.0148 286.868 77.4141 281.25 77.4141C275.632 77.4141 271.078 73.0148 271.078 67.588C271.078 62.1611 275.632 57.7618 281.25 57.7618Z" fill="white"/>
<path d="M278.392 72.2672C284.01 72.2672 288.564 76.6665 288.564 82.0933C288.564 87.5201 284.01 91.9194 278.392 91.9194C272.774 91.9194 268.22 87.5201 268.22 82.0933C268.22 76.6665 272.774 72.2672 278.392 72.2672Z" fill="white"/>
<path d="M273.417 83.674C279.035 83.674 283.589 88.0733 283.589 93.5001C283.589 98.9269 279.035 103.326 273.417 103.326C267.799 103.326 263.245 98.9269 263.245 93.5001C263.245 88.0733 267.799 83.674 273.417 83.674Z" fill="white"/>
<path d="M268.22 95.5953C273.838 95.5953 278.393 99.9946 278.393 105.421C278.393 110.848 273.838 115.248 268.22 115.248C262.603 115.248 258.048 110.848 258.048 105.421C258.048 99.9946 262.603 95.5953 268.22 95.5953Z" fill="white"/>
<path d="M343.948 103.316C349.565 103.316 354.12 107.715 354.12 113.142C354.12 118.569 349.565 122.968 343.948 122.968C338.33 122.968 333.775 118.569 333.775 113.142C333.775 107.715 338.33 103.316 343.948 103.316Z" fill="white"/>
<path d="M258.327 105.175C263.945 105.175 268.499 109.574 268.499 115.001C268.499 120.428 263.945 124.827 258.327 124.827C252.709 124.827 248.155 120.428 248.155 115.001C248.155 109.574 252.709 105.175 258.327 105.175Z" fill="white"/>
<path d="M343.948 115.246C349.565 115.246 354.12 119.646 354.12 125.072C354.12 130.499 349.565 134.898 343.948 134.898C338.33 134.898 333.775 130.499 333.775 125.072C333.775 119.646 338.33 115.246 343.948 115.246Z" fill="white"/>
<path d="M258.327 117.115C263.945 117.115 268.499 121.514 268.499 126.941C268.499 132.368 263.945 136.767 258.327 136.767C252.709 136.767 248.155 132.368 248.155 126.941C248.155 121.514 252.709 117.115 258.327 117.115Z" fill="white"/>
<path d="M343.948 126.695C349.565 126.695 354.12 131.094 354.12 136.521C354.12 141.948 349.565 146.347 343.948 146.347C338.33 146.347 333.775 141.948 333.775 136.521C333.775 131.094 338.33 126.695 343.948 126.695Z" fill="white"/>
<path d="M258.327 128.559C263.945 128.559 268.499 132.959 268.499 138.385C268.499 143.812 263.945 148.211 258.327 148.211C252.709 148.211 248.155 143.812 248.155 138.385C248.155 132.959 252.709 128.559 258.327 128.559Z" fill="white"/>
<path d="M258.327 103.316C263.945 103.316 268.499 107.715 268.499 113.142C268.499 118.569 263.945 122.968 258.327 122.968C252.709 122.968 248.155 118.569 248.155 113.142C248.155 107.715 252.709 103.316 258.327 103.316Z" fill="white"/>
<path d="M451.194 30.3279C456.049 28.2109 461.643 30.2967 463.688 34.9868C465.733 39.6769 463.455 45.1952 458.6 47.3123C453.745 49.4293 448.151 47.3434 446.106 42.6533C444.061 37.9632 446.339 32.445 451.194 30.3279Z" fill="white"/>
<path d="M463.688 20.5472C468.543 18.4301 474.137 20.516 476.182 25.2061C478.227 29.8962 475.949 35.4144 471.093 37.5315C466.238 39.6485 460.644 37.5627 458.599 32.8726C456.554 28.1825 458.832 22.6642 463.688 20.5472Z" fill="white"/>
<path d="M476.181 12.99C481.037 10.873 486.63 12.9588 488.675 17.6489C490.721 22.339 488.442 27.8573 483.587 29.9744C478.732 32.0914 473.138 30.0055 471.093 25.3154C469.048 20.6254 471.326 15.1071 476.181 12.99Z" fill="white"/>
<path d="M476.181 28.2146C481.037 26.0976 486.63 28.1835 488.675 32.8736C490.721 37.5636 488.442 43.0819 483.587 45.199C478.732 47.316 473.138 45.2302 471.093 40.5401C469.048 35.85 471.326 30.3317 476.181 28.2146Z" fill="white"/>
<path d="M476.181 44.1067C481.037 41.9897 486.63 44.0755 488.675 48.7656C490.721 53.4557 488.442 58.974 483.587 61.0911C478.732 63.2081 473.138 61.1222 471.093 56.4321C469.048 51.7421 471.326 46.2238 476.181 44.1067Z" fill="white"/>
<path d="M476.181 60.3133C481.037 58.1962 486.63 60.2821 488.675 64.9722C490.721 69.6623 488.442 75.1806 483.587 77.2976C478.732 79.4147 473.138 77.3288 471.093 72.6387C469.048 67.9486 471.326 62.4303 476.181 60.3133Z" fill="white"/>
<path d="M476.181 76.9724C481.037 74.8554 486.63 76.9413 488.675 81.6314C490.721 86.3215 488.442 91.8397 483.587 93.9568C478.732 96.0738 473.138 93.988 471.093 89.2979C469.048 84.6078 471.326 79.0895 476.181 76.9724Z" fill="white"/>
<path d="M476.181 91.5037C481.037 89.3866 486.63 91.4725 488.675 96.1626C490.721 100.853 488.442 106.371 483.587 108.488C478.732 110.605 473.138 108.519 471.093 103.829C469.048 99.139 471.326 93.6207 476.181 91.5037Z" fill="white"/>
<path d="M476.181 104.01C481.037 101.893 486.63 103.978 488.675 108.668C490.721 113.359 488.442 118.877 483.587 120.994C478.732 123.111 473.138 121.025 471.093 116.335C469.048 111.645 471.326 106.127 476.181 104.01Z" fill="white"/>
<path d="M542.964 11.2421C547.873 9.10183 553.528 11.2106 555.596 15.9523C557.663 20.6939 555.36 26.2729 550.451 28.4132C545.543 30.5535 539.887 28.4447 537.82 23.7031C535.752 18.9614 538.056 13.3825 542.964 11.2421Z" fill="white"/>
<path d="M530.331 15.7124C535.24 13.572 540.895 15.6808 542.963 20.4225C545.03 25.1641 542.727 30.7431 537.819 32.8834C532.91 35.0237 527.255 32.9149 525.187 28.1733C523.12 23.4316 525.423 17.8527 530.331 15.7124Z" fill="white"/>
<path d="M556.963 15.7124C561.871 13.572 567.527 15.6808 569.594 20.4225C571.662 25.1641 569.359 30.7431 564.45 32.8834C559.541 35.0237 553.886 32.9149 551.818 28.1733C549.751 23.4316 552.054 17.8527 556.963 15.7124Z" fill="white"/>
<path d="M567.601 27.0922C572.51 24.9519 578.165 27.0607 580.232 31.8024C582.3 36.544 579.997 42.123 575.088 44.2633C570.179 46.4036 564.524 44.2948 562.457 39.5532C560.389 34.8115 562.692 29.2326 567.601 27.0922Z" fill="white"/>
<path d="M519.602 27.0922C524.511 24.9519 530.166 27.0607 532.233 31.8024C534.301 36.544 531.998 42.123 527.089 44.2633C522.18 46.4036 516.525 44.2948 514.458 39.5532C512.39 34.8115 514.693 29.2326 519.602 27.0922Z" fill="white"/>
<path d="M572.746 41.7207C577.655 39.5803 583.31 41.6891 585.377 46.4308C587.445 51.1724 585.142 56.7514 580.233 58.8917C575.324 61.032 569.669 58.9232 567.602 54.1816C565.534 49.4399 567.837 43.861 572.746 41.7207Z" fill="white"/>
<path d="M514.457 41.7207C519.366 39.5803 525.021 41.6891 527.089 46.4308C529.156 51.1724 526.853 56.7514 521.945 58.8917C517.036 61.032 511.381 58.9232 509.313 54.1816C507.246 49.4399 509.549 43.861 514.457 41.7207Z" fill="white"/>
<path d="M573.06 58.1167C577.969 55.9763 583.624 58.0851 585.691 62.8268C587.759 67.5684 585.456 73.1474 580.547 75.2877C575.638 77.428 569.983 75.3192 567.916 70.5776C565.848 65.8359 568.151 60.257 573.06 58.1167Z" fill="white"/>
<path d="M512.868 58.1186C517.777 55.9783 523.432 58.0871 525.499 62.8287C527.567 67.5704 525.264 73.1493 520.355 75.2896C515.447 77.43 509.791 75.3212 507.724 70.5795C505.656 65.8379 507.959 60.2589 512.868 58.1186Z" fill="white"/>
<path d="M572.746 73.3447C577.655 71.2044 583.31 73.3132 585.377 78.0548C587.445 82.7965 585.142 88.3754 580.233 90.5157C575.324 92.656 569.669 90.5472 567.602 85.8056C565.534 81.0639 567.837 75.485 572.746 73.3447Z" fill="white"/>
<path d="M514.457 73.3447C519.366 71.2044 525.021 73.3132 527.089 78.0548C529.156 82.7965 526.853 88.3754 521.945 90.5157C517.036 92.656 511.381 90.5472 509.313 85.8056C507.246 81.0639 509.549 75.485 514.457 73.3447Z" fill="white"/>
<path d="M567.601 88.75C572.51 86.6096 578.165 88.7184 580.233 93.4601C582.3 98.2017 579.997 103.781 575.089 105.921C570.18 108.061 564.525 105.953 562.457 101.211C560.39 96.4692 562.693 90.8903 567.601 88.75Z" fill="white"/>
<path d="M519.602 88.75C524.511 86.6096 530.166 88.7184 532.233 93.4601C534.301 98.2017 531.998 103.781 527.089 105.921C522.18 108.061 516.525 105.953 514.458 101.211C512.39 96.4692 514.693 90.8903 519.602 88.75Z" fill="white"/>
<path d="M557.116 100.903C562.024 98.7625 567.679 100.871 569.747 105.613C571.815 110.355 569.511 115.934 564.603 118.074C559.694 120.214 554.039 118.105 551.971 113.364C549.904 108.622 552.207 103.043 557.116 100.903Z" fill="white"/>
<path d="M528.473 100.903C533.382 98.7625 539.037 100.871 541.104 105.613C543.172 110.355 540.869 115.934 535.96 118.074C531.051 120.214 525.396 118.105 523.329 113.364C521.261 108.622 523.564 103.043 528.473 100.903Z" fill="white"/>
<path d="M542.964 104.11C547.873 101.97 553.528 104.079 555.596 108.82C557.663 113.562 555.36 119.141 550.451 121.281C545.543 123.422 539.887 121.313 537.82 116.571C535.752 111.83 538.056 106.251 542.964 104.11Z" fill="white"/>
<path d="M372.821 28.2363C377.42 25.4128 383.359 26.7251 386.087 31.1675C388.814 35.6098 387.297 41.5 382.698 44.3236C378.1 47.1471 372.161 45.8348 369.433 41.3924C366.706 36.95 368.223 31.0599 372.821 28.2363Z" fill="white"/>
<path d="M383.33 16.6153C388.277 14.4584 393.976 16.5835 396.059 21.3619C398.143 26.1403 395.822 31.7624 390.875 33.9193C385.929 36.0762 380.229 33.9511 378.146 29.1727C376.062 24.3943 378.383 18.7722 383.33 16.6153Z" fill="white"/>
<path d="M410.751 14.9561C415.698 12.7992 421.397 14.9244 423.48 19.7027C425.564 24.4811 423.243 30.1032 418.296 32.2601C413.349 34.417 407.65 32.2919 405.567 27.5135C403.483 22.7352 405.804 17.113 410.751 14.9561Z" fill="white"/>
<path d="M419.158 24.1426C424.105 21.9858 429.804 24.1109 431.887 28.8892C433.971 33.6676 431.65 39.2898 426.703 41.4467C421.757 43.6035 416.058 41.4784 413.974 36.7C411.891 31.9217 414.212 26.2995 419.158 24.1426Z" fill="white"/>
<path d="M422.539 36.8199C427.486 34.663 433.185 36.7881 435.268 41.5665C437.352 46.3449 435.031 51.967 430.084 54.1239C425.137 56.2808 419.438 54.1557 417.355 49.3773C415.271 44.5989 417.592 38.9768 422.539 36.8199Z" fill="white"/>
<path d="M420.034 50.5977C424.98 48.4408 430.679 50.566 432.763 55.3443C434.846 60.1227 432.525 65.7448 427.579 67.9017C422.632 70.0586 416.933 67.9335 414.85 63.1551C412.766 58.3768 415.087 52.7546 420.034 50.5977Z" fill="white"/>
<path d="M409.53 60.8765C414.477 58.7196 420.176 60.8448 422.259 65.6231C424.343 70.4015 422.022 76.0236 417.075 78.1805C412.129 80.3374 406.43 78.2123 404.346 73.4339C402.263 68.6556 404.584 63.0334 409.53 60.8765Z" fill="white"/>
<path d="M396.022 61.7105C400.969 59.5536 406.668 61.6787 408.751 66.4571C410.835 71.2355 408.514 76.8576 403.567 79.0145C398.62 81.1714 392.921 79.0463 390.838 74.2679C388.754 69.4895 391.075 63.8674 396.022 61.7105Z" fill="white"/>
<path d="M420.021 70.77C424.743 68.1569 430.617 69.736 433.141 74.2969C435.665 78.8579 433.884 84.6736 429.162 87.2867C424.44 89.8998 418.567 88.3207 416.042 83.7597C413.518 79.1988 415.3 73.383 420.021 70.77Z" fill="white"/>
<path d="M423.508 84.0024C428.229 81.3893 434.103 82.9684 436.628 87.5294C439.152 92.0903 437.37 97.906 432.649 100.519C427.927 103.132 422.053 101.553 419.529 96.9921C417.005 92.4312 418.786 86.6155 423.508 84.0024Z" fill="white"/>
<path d="M414.962 97.4272C419.684 94.8141 425.558 96.3932 428.082 100.954C430.606 105.515 428.825 111.331 424.103 113.944C419.382 116.557 413.508 114.978 410.984 110.417C408.46 105.856 410.241 100.04 414.962 97.4272Z" fill="white"/>
<path d="M401.202 103.257C405.924 100.644 411.798 102.223 414.322 106.784C416.846 111.345 415.065 117.16 410.343 119.773C405.622 122.387 399.748 120.807 397.224 116.247C394.699 111.686 396.481 105.87 401.202 103.257Z" fill="white"/>
<path d="M387.431 102.997C392.152 100.384 398.026 101.963 400.55 106.524C403.075 111.085 401.293 116.901 396.572 119.514C391.85 122.127 385.976 120.548 383.452 115.987C380.928 111.426 382.709 105.61 387.431 102.997Z" fill="white"/>
<path d="M373.781 97.6025C378.503 94.9894 384.377 96.5685 386.901 101.129C389.425 105.69 387.644 111.506 382.922 114.119C378.201 116.732 372.327 115.153 369.803 110.592C367.278 106.031 369.06 100.216 373.781 97.6025Z" fill="white"/>
<path d="M366.941 86.7407C371.662 84.1276 377.536 85.7067 380.06 90.2676C382.584 94.8286 380.803 100.644 376.081 103.257C371.36 105.87 365.486 104.291 362.962 99.7304C360.438 95.1695 362.219 89.3538 366.941 86.7407Z" fill="white"/>
<path d="M380.858 59.8443C385.805 57.6874 391.504 59.8125 393.587 64.5909C395.671 69.3693 393.35 74.9914 388.403 77.1483C383.456 79.3052 377.757 77.1801 375.674 72.4017C373.59 67.6233 375.911 62.0012 380.858 59.8443Z" fill="white"/>
<path d="M396.981 12.0909C401.928 9.93399 407.627 12.0591 409.71 16.8375C411.794 21.6159 409.473 27.238 404.526 29.3949C399.579 31.5518 393.88 29.4267 391.797 24.6483C389.713 19.8699 392.034 14.2478 396.981 12.0909Z" fill="white"/>
<path d="M188.987 41.8024C194.551 41.0215 199.672 44.745 200.426 50.1192C201.181 55.4933 197.282 60.4829 191.719 61.2638C186.156 62.0447 181.034 58.3211 180.28 52.947C179.525 47.5729 183.424 42.5833 188.987 41.8024Z" fill="white"/>
<path d="M186.538 54.9449C192.101 54.1641 197.222 57.8876 197.977 63.2617C198.731 68.6359 194.833 73.6255 189.269 74.4064C183.706 75.1873 178.584 71.4637 177.83 66.0896C177.076 60.7155 180.974 55.7258 186.538 54.9449Z" fill="white"/>
<path d="M205.378 50.173C210.996 50.173 215.55 54.5723 215.55 59.9991C215.55 65.4259 210.996 69.8252 205.378 69.8252C199.76 69.8252 195.206 65.4259 195.206 59.9991C195.206 54.5723 199.76 50.173 205.378 50.173Z" fill="white"/>
<path d="M232.236 59.9987C237.854 59.9987 242.408 64.398 242.408 69.8248C242.408 75.2516 237.854 79.6509 232.236 79.6509C226.618 79.6509 222.063 75.2516 222.063 69.8248C222.063 64.398 226.618 59.9987 232.236 59.9987Z" fill="white"/>
<path d="M236.436 72.2643C242.054 72.2643 246.608 76.6636 246.608 82.0904C246.608 87.5172 242.054 91.9165 236.436 91.9165C230.818 91.9165 226.264 87.5172 226.264 82.0904C226.264 76.6636 230.818 72.2643 236.436 72.2643Z" fill="white"/>
<path d="M234.389 85.7667C240.007 85.7667 244.561 90.166 244.561 95.5928C244.561 101.02 240.007 105.419 234.389 105.419C228.771 105.419 224.217 101.02 224.217 95.5928C224.217 90.166 228.771 85.7667 234.389 85.7667Z" fill="white"/>
<path d="M226.262 97.8781C231.88 97.8781 236.435 102.277 236.435 107.704C236.435 113.131 231.88 117.53 226.262 117.53C220.645 117.53 216.09 113.131 216.09 107.704C216.09 102.277 220.645 97.8781 226.262 97.8781Z" fill="white"/>
<path d="M211.964 103.311C217.582 103.311 222.136 107.71 222.136 113.137C222.136 118.564 217.582 122.963 211.964 122.963C206.346 122.963 201.792 118.564 201.792 113.137C201.792 107.71 206.346 103.311 211.964 103.311Z" fill="white"/>
<path d="M196.952 101.632C202.57 101.632 207.124 106.032 207.124 111.459C207.124 116.885 202.57 121.285 196.952 121.285C191.334 121.285 186.78 116.885 186.78 111.459C186.78 106.032 191.334 101.632 196.952 101.632Z" fill="white"/>
<path d="M185.034 90.3942C190.652 90.3942 195.207 94.7935 195.207 100.22C195.207 105.647 190.652 110.046 185.034 110.046C179.417 110.046 174.862 105.647 174.862 100.22C174.862 94.7935 179.417 90.3942 185.034 90.3942Z" fill="white"/>
<path d="M220.286 51.5343C225.904 51.5343 230.458 55.9336 230.458 61.3604C230.458 66.7872 225.904 71.1865 220.286 71.1865C214.668 71.1865 210.114 66.7872 210.114 61.3604C210.114 55.9336 214.668 51.5343 220.286 51.5343Z" fill="white"/>
<path d="M190.272 29.2955C195.835 28.5146 200.957 32.2382 201.711 37.6123C202.465 42.9864 198.567 47.9761 193.004 48.757C187.44 49.5379 182.319 45.8143 181.564 40.4402C180.81 35.0661 184.709 30.0764 190.272 29.2955Z" fill="white"/>
<path d="M193.962 15.462C199.58 15.462 204.134 19.8613 204.134 25.2882C204.134 30.715 199.58 35.1143 193.962 35.1143C188.344 35.1143 183.79 30.715 183.79 25.2882C183.79 19.8613 188.344 15.462 193.962 15.462Z" fill="white"/>
<path d="M207.126 15.462C212.744 15.462 217.298 19.8613 217.298 25.2882C217.298 30.715 212.744 35.1143 207.126 35.1143C201.508 35.1143 196.954 30.715 196.954 25.2882C196.954 19.8613 201.508 15.462 207.126 15.462Z" fill="white"/>
<path d="M220.286 15.462C225.904 15.462 230.459 19.8613 230.459 25.2882C230.459 30.715 225.904 35.1143 220.286 35.1143C214.668 35.1143 210.114 30.715 210.114 25.2882C210.114 19.8613 214.668 15.462 220.286 15.462Z" fill="white"/>
<path d="M233.448 15.462C239.066 15.462 243.62 19.8613 243.62 25.2882C243.62 30.715 239.066 35.1143 233.448 35.1143C227.83 35.1143 223.276 30.715 223.276 25.2882C223.276 19.8613 227.83 15.462 233.448 15.462Z" fill="white"/>
<path d="M102.784 33.1881C108.402 33.1881 112.956 37.5874 112.956 43.0142C112.956 48.441 108.402 52.8403 102.784 52.8403C97.166 52.8403 92.6118 48.441 92.6118 43.0142C92.6118 37.5874 97.166 33.1881 102.784 33.1881Z" fill="white"/>
<path d="M106.466 19.7594C112.084 19.7594 116.638 24.1587 116.638 29.5855C116.638 35.0123 112.084 39.4116 106.466 39.4116C100.848 39.4116 96.2935 35.0123 96.2935 29.5855C96.2935 24.1587 100.848 19.7594 106.466 19.7594Z" fill="white"/>
<path d="M119.029 11.1544C124.646 11.1544 129.201 15.5537 129.201 20.9805C129.201 26.4073 124.646 30.8066 119.029 30.8066C113.411 30.8066 108.856 26.4073 108.856 20.9805C108.856 15.5537 113.411 11.1544 119.029 11.1544Z" fill="white"/>
<path d="M134.561 11.1544C140.179 11.1544 144.733 15.5537 144.733 20.9805C144.733 26.4073 140.179 30.8066 134.561 30.8066C128.943 30.8066 124.389 26.4073 124.389 20.9805C124.389 15.5537 128.943 11.1544 134.561 11.1544Z" fill="white"/>
<path d="M147.232 20.9796C152.85 20.9796 157.404 25.3789 157.404 30.8057C157.404 36.2325 152.85 40.6318 147.232 40.6318C141.614 40.6318 137.06 36.2325 137.06 30.8057C137.06 25.3789 141.614 20.9796 147.232 20.9796Z" fill="white"/>
<path d="M150.816 36.0368C156.434 36.0368 160.988 40.436 160.988 45.8629C160.988 51.2897 156.434 55.689 150.816 55.689C145.198 55.689 140.644 51.2897 140.644 45.8629C140.644 40.436 145.198 36.0368 150.816 36.0368Z" fill="white"/>
<path d="M147.232 49.6964C152.85 49.6964 157.404 54.0957 157.404 59.5225C157.404 64.9493 152.85 69.3486 147.232 69.3486C141.614 69.3486 137.06 64.9493 137.06 59.5225C137.06 54.0957 141.614 49.6964 147.232 49.6964Z" fill="white"/>
<path d="M137.059 60.9186C142.677 60.9186 147.231 65.3179 147.231 70.7447C147.231 76.1715 142.677 80.5708 137.059 80.5708C131.441 80.5708 126.887 76.1715 126.887 70.7447C126.887 65.3179 131.441 60.9186 137.059 60.9186Z" fill="white"/>
<path d="M126.888 70.7438C132.506 70.7438 137.06 75.1431 137.06 80.5699C137.06 85.9967 132.506 90.396 126.888 90.396C121.27 90.396 116.716 85.9967 116.716 80.5699C116.716 75.1431 121.27 70.7438 126.888 70.7438Z" fill="white"/>
<path d="M119.029 80.569C124.646 80.569 129.201 84.9683 129.201 90.3951C129.201 95.8219 124.646 100.221 119.029 100.221C113.411 100.221 108.856 95.8219 108.856 90.3951C108.856 84.9683 113.411 80.569 119.029 80.569Z" fill="white"/>
<path d="M108.857 91.8073C114.475 91.8073 119.03 96.2066 119.03 101.633C119.03 107.06 114.475 111.459 108.857 111.459C103.24 111.459 98.6853 107.06 98.6853 101.633C98.6853 96.2066 103.24 91.8073 108.857 91.8073Z" fill="white"/>
<path d="M102.784 101.744C108.402 101.744 112.956 106.143 112.956 111.57C112.956 116.997 108.402 121.396 102.784 121.396C97.166 121.396 92.6118 116.997 92.6118 111.57C92.6118 106.143 97.166 101.744 102.784 101.744Z" fill="white"/>
<path d="M119.029 101.744C124.646 101.744 129.201 106.143 129.201 111.57C129.201 116.997 124.646 121.396 119.029 121.396C113.411 121.396 108.856 116.997 108.856 111.57C108.856 106.143 113.411 101.744 119.029 101.744Z" fill="white"/>
<path d="M130.472 101.631C136.09 101.631 140.644 106.03 140.644 111.457C140.644 116.884 136.09 121.283 130.472 121.283C124.854 121.283 120.3 116.884 120.3 111.457C120.3 106.03 124.854 101.631 130.472 101.631Z" fill="white"/>
<path d="M145.473 101.744C151.091 101.744 155.645 106.143 155.645 111.57C155.645 116.997 151.091 121.396 145.473 121.396C139.855 121.396 135.301 116.997 135.301 111.57C135.301 106.143 139.855 101.744 145.473 101.744Z" fill="white"/>
<path d="M154.907 101.744C160.524 101.744 165.079 106.143 165.079 111.57C165.079 116.997 160.524 121.396 154.907 121.396C149.289 121.396 144.734 116.997 144.734 111.57C144.734 106.143 149.289 101.744 154.907 101.744Z" fill="white"/>
<path d="M10.1721 86.8903C15.7901 86.8903 20.3443 91.2896 20.3443 96.7164C20.3443 102.143 15.7901 106.542 10.1721 106.542C4.55422 106.542 0 102.143 0 96.7164C0 91.2896 4.55422 86.8903 10.1721 86.8903Z" fill="white"/>
<path d="M10.1721 43.0148C15.7901 43.0148 20.3443 47.4141 20.3443 52.8409C20.3443 58.2677 15.7901 62.667 10.1721 62.667C4.55422 62.667 0 58.2677 0 52.8409C0 47.4141 4.55422 43.0148 10.1721 43.0148Z" fill="white"/>
<path d="M10.1721 72.2667C15.7901 72.2667 20.3443 76.666 20.3443 82.0928C20.3443 87.5196 15.7901 91.9189 10.1721 91.9189C4.55422 91.9189 0 87.5196 0 82.0928C0 76.666 4.55422 72.2667 10.1721 72.2667Z" fill="white"/>
<path d="M10.1721 28.3912C15.7901 28.3912 20.3443 32.7905 20.3443 38.2174C20.3443 43.6442 15.7901 48.0435 10.1721 48.0435C4.55422 48.0435 0 43.6442 0 38.2174C0 32.7905 4.55422 28.3912 10.1721 28.3912Z" fill="white"/>
<path d="M10.1721 13.7628C15.7901 13.7628 20.3443 18.1621 20.3443 23.5889C20.3443 29.0157 15.7901 33.415 10.1721 33.415C4.55422 33.415 0 29.0157 0 23.5889C0 18.1621 4.55422 13.7628 10.1721 13.7628Z" fill="white"/>
<path d="M10.1721 57.6432C15.7901 57.6432 20.3443 62.0425 20.3443 67.4693C20.3443 72.8961 15.7901 77.2954 10.1721 77.2954C4.55422 77.2954 0 72.8961 0 67.4693C0 62.0425 4.55422 57.6432 10.1721 57.6432Z" fill="white"/>
<path d="M26.343 57.6432C31.961 57.6432 36.5152 62.0425 36.5152 67.4693C36.5152 72.8961 31.961 77.2954 26.343 77.2954C20.7251 77.2954 16.1709 72.8961 16.1709 67.4693C16.1709 62.0425 20.7251 57.6432 26.343 57.6432Z" fill="white"/>
<path d="M23.5808 13.7628C29.1987 13.7628 33.753 18.1621 33.753 23.5889C33.753 29.0157 29.1987 33.415 23.5808 33.415C17.9629 33.415 13.4087 29.0157 13.4087 23.5889C13.4087 18.1621 17.9629 13.7628 23.5808 13.7628Z" fill="white"/>
<path d="M38.3736 13.7628C43.9915 13.7628 48.5457 18.1621 48.5457 23.5889C48.5457 29.0157 43.9915 33.415 38.3736 33.415C32.7556 33.415 28.2014 29.0157 28.2014 23.5889C28.2014 18.1621 32.7556 13.7628 38.3736 13.7628Z" fill="white"/>
<path d="M54.6485 13.7628C60.2664 13.7628 64.8206 18.1621 64.8206 23.5889C64.8206 29.0157 60.2664 33.415 54.6485 33.415C49.0305 33.415 44.4763 29.0157 44.4763 23.5889C44.4763 18.1621 49.0305 13.7628 54.6485 13.7628Z" fill="white"/>
<path d="M66.5764 13.7628C72.1943 13.7628 76.7486 18.1621 76.7486 23.5889C76.7486 29.0157 72.1943 33.415 66.5764 33.415C60.9585 33.415 56.4043 29.0157 56.4043 23.5889C56.4043 18.1621 60.9585 13.7628 66.5764 13.7628Z" fill="white"/>
<path d="M42.2273 57.6432C47.8452 57.6432 52.3994 62.0425 52.3994 67.4693C52.3994 72.8961 47.8452 77.2954 42.2273 77.2954C36.6094 77.2954 32.0552 72.8961 32.0552 67.4693C32.0552 62.0425 36.6094 57.6432 42.2273 57.6432Z" fill="white"/>
<path d="M57.469 59.5211C63.0869 59.5211 67.6411 63.9204 67.6411 69.3472C67.6411 74.774 63.0869 79.1733 57.469 79.1733C51.8511 79.1733 47.2969 74.774 47.2969 69.3472C47.2969 63.9204 51.8511 59.5211 57.469 59.5211Z" fill="white"/>
<path d="M69.084 69.3493C74.7019 69.3493 79.2561 73.7485 79.2561 79.1754C79.2561 84.6022 74.7019 89.0015 69.084 89.0015C63.4661 89.0015 58.9119 84.6022 58.9119 79.1754C58.9119 73.7485 63.4661 69.3493 69.084 69.3493Z" fill="white"/>
<path d="M69.084 82.0924C74.7019 82.0924 79.2561 86.4917 79.2561 91.9185C79.2561 97.3453 74.7019 101.745 69.084 101.745C63.4661 101.745 58.9119 97.3453 58.9119 91.9185C58.9119 86.4917 63.4661 82.0924 69.084 82.0924Z" fill="white"/>
<path d="M64.8194 95.5924C70.4373 95.5924 74.9915 99.9917 74.9915 105.419C74.9915 110.845 70.4373 115.245 64.8194 115.245C59.2014 115.245 54.6472 110.845 54.6472 105.419C54.6472 99.9917 59.2014 95.5924 64.8194 95.5924Z" fill="white"/>
<path d="M50.9873 101.746C56.6052 101.746 61.1595 106.145 61.1595 111.572C61.1595 116.999 56.6052 121.398 50.9873 121.398C45.3694 121.398 40.8152 116.999 40.8152 111.572C40.8152 106.145 45.3694 101.746 50.9873 101.746Z" fill="white"/>
<path d="M23.5808 101.63C29.1987 101.63 33.753 106.029 33.753 111.456C33.753 116.882 29.1987 121.282 23.5808 121.282C17.9629 121.282 13.4087 116.882 13.4087 111.456C13.4087 106.029 17.9629 101.63 23.5808 101.63Z" fill="white"/>
<path d="M38.3736 101.63C43.9915 101.63 48.5457 106.029 48.5457 111.456C48.5457 116.882 43.9915 121.282 38.3736 121.282C32.7556 121.282 28.2014 116.882 28.2014 111.456C28.2014 106.029 32.7556 101.63 38.3736 101.63Z" fill="white"/>
<path d="M10.1721 101.63C15.7901 101.63 20.3443 106.029 20.3443 111.456C20.3443 116.882 15.7901 121.282 10.1721 121.282C4.55422 121.282 0 116.882 0 111.456C0 106.029 4.55422 101.63 10.1721 101.63Z" fill="white"/>
<path d="M725.915 86.82C731.509 86.82 736.043 91.2 736.043 96.6031C736.043 102.006 731.509 106.386 725.915 106.386C720.322 106.386 715.788 102.006 715.788 96.6031C715.788 91.2 720.322 86.82 725.915 86.82Z" fill="white"/>
<path d="M725.915 43.1339C731.509 43.1339 736.043 47.514 736.043 52.9171C736.043 58.3201 731.509 62.7002 725.915 62.7002C720.322 62.7002 715.788 58.3201 715.788 52.9171C715.788 47.514 720.322 43.1339 725.915 43.1339Z" fill="white"/>
<path d="M725.913 72.2555C731.506 72.2555 736.04 76.6356 736.04 82.0387C736.04 87.4417 731.506 91.8218 725.913 91.8218C720.319 91.8218 715.785 87.4417 715.785 82.0387C715.785 76.6356 720.319 72.2555 725.913 72.2555Z" fill="white"/>
<path d="M725.915 28.5885C731.509 28.5885 736.043 32.9686 736.043 38.3717C736.043 43.7747 731.509 48.1548 725.915 48.1548C720.322 48.1548 715.788 43.7747 715.788 38.3717C715.788 32.9686 720.322 28.5885 725.915 28.5885Z" fill="white"/>
<path d="M725.913 14.0265C731.506 14.0265 736.04 18.4066 736.04 23.8097C736.04 29.2127 731.506 33.5928 725.913 33.5928C720.319 33.5928 715.785 29.2127 715.785 23.8097C715.785 18.4066 720.319 14.0265 725.913 14.0265Z" fill="white"/>
<path d="M725.913 57.696C731.506 57.696 736.04 62.076 736.04 67.4791C736.04 72.8822 731.506 77.2622 725.913 77.2622C720.319 77.2622 715.785 72.8822 715.785 67.4791C715.785 62.076 720.319 57.696 725.913 57.696Z" fill="white"/>
<path d="M692.297 56.6491C697.89 56.6491 702.424 61.0291 702.424 66.4322C702.424 71.8353 697.89 76.2153 692.297 76.2153C686.703 76.2153 682.169 71.8353 682.169 66.4322C682.169 61.0291 686.703 56.6491 692.297 56.6491Z" fill="white"/>
<path d="M677.516 56.6491C683.109 56.6491 687.643 61.0291 687.643 66.4322C687.643 71.8353 683.109 76.2153 677.516 76.2153C671.922 76.2153 667.388 71.8353 667.388 66.4322C667.388 61.0291 671.922 56.6491 677.516 56.6491Z" fill="white"/>
<path d="M709.402 56.6491C714.995 56.6491 719.53 61.0291 719.53 66.4322C719.53 71.8353 714.995 76.2153 709.402 76.2153C703.809 76.2153 699.274 71.8353 699.274 66.4322C699.274 61.0291 703.809 56.6491 709.402 56.6491Z" fill="white"/>
<path d="M660.471 86.6056C666.064 86.6056 670.599 90.9857 670.599 96.3888C670.599 101.792 666.064 106.172 660.471 106.172C654.878 106.172 650.343 101.792 650.343 96.3888C650.343 90.9857 654.878 86.6056 660.471 86.6056Z" fill="white"/>
<path d="M660.471 42.922C666.064 42.922 670.599 47.3021 670.599 52.7052C670.599 58.1082 666.064 62.4883 660.471 62.4883C654.878 62.4883 650.343 58.1082 650.343 52.7052C650.343 47.3021 654.878 42.922 660.471 42.922Z" fill="white"/>
<path d="M660.471 72.0461C666.064 72.0461 670.599 76.4261 670.599 81.8292C670.599 87.2323 666.064 91.6123 660.471 91.6123C654.878 91.6123 650.343 87.2323 650.343 81.8292C650.343 76.4261 654.878 72.0461 660.471 72.0461Z" fill="white"/>
<path d="M660.471 28.3737C666.064 28.3737 670.599 32.7537 670.599 38.1568C670.599 43.5599 666.064 47.9399 660.471 47.9399C654.878 47.9399 650.343 43.5599 650.343 38.1568C650.343 32.7537 654.878 28.3737 660.471 28.3737Z" fill="white"/>
<path d="M660.471 13.8161C666.064 13.8161 670.599 18.1961 670.599 23.5992C670.599 29.0023 666.064 33.3823 660.471 33.3823C654.878 33.3823 650.343 29.0023 650.343 23.5992C650.343 18.1961 654.878 13.8161 660.471 13.8161Z" fill="white"/>
<path d="M660.471 57.484C666.064 57.484 670.599 61.8641 670.599 67.2672C670.599 72.6702 666.064 77.0503 660.471 77.0503C654.878 77.0503 650.343 72.6702 650.343 67.2672C650.343 61.8641 654.878 57.484 660.471 57.484Z" fill="white"/>
<path d="M660.471 101.17C666.064 101.17 670.599 105.55 670.599 110.953C670.599 116.356 666.064 120.736 660.471 120.736C654.878 120.736 650.343 116.356 650.343 110.953C650.343 105.55 654.878 101.17 660.471 101.17Z" fill="white"/>
<path d="M725.915 101.377C731.509 101.377 736.043 105.757 736.043 111.16C736.043 116.563 731.509 120.943 725.915 120.943C720.322 120.943 715.788 116.563 715.788 111.16C715.788 105.757 720.322 101.377 725.915 101.377Z" fill="white"/>
<path d="M1565.67 87.5765C1571.34 87.5765 1575.94 92.0172 1575.94 97.495C1575.94 102.973 1571.34 107.414 1565.67 107.414C1560 107.414 1555.4 102.973 1555.4 97.495C1555.4 92.0172 1560 87.5765 1565.67 87.5765Z" fill="white"/>
<path d="M1565.67 43.286C1571.34 43.286 1575.94 47.7267 1575.94 53.2045C1575.94 58.6824 1571.34 63.123 1565.67 63.123C1560 63.123 1555.4 58.6824 1555.4 53.2045C1555.4 47.7267 1560 43.286 1565.67 43.286Z" fill="white"/>
<path d="M1565.67 72.8109C1571.34 72.8109 1575.94 77.2516 1575.94 82.7294C1575.94 88.2073 1571.34 92.6479 1565.67 92.6479C1560 92.6479 1555.4 88.2073 1555.4 82.7294C1555.4 77.2516 1560 72.8109 1565.67 72.8109Z" fill="white"/>
<path d="M1565.67 28.5394C1571.34 28.5394 1575.94 32.9801 1575.94 38.4579C1575.94 43.9358 1571.34 48.3765 1565.67 48.3765C1560 48.3765 1555.4 43.9358 1555.4 38.4579C1555.4 32.9801 1560 28.5394 1565.67 28.5394Z" fill="white"/>
<path d="M1565.67 13.7757C1571.34 13.7757 1575.94 18.2164 1575.94 23.6943C1575.94 29.1721 1571.34 33.6128 1565.67 33.6128C1560 33.6128 1555.4 29.1721 1555.4 23.6943C1555.4 18.2164 1560 13.7757 1565.67 13.7757Z" fill="white"/>
<path d="M1565.67 58.0497C1571.34 58.0497 1575.94 62.4903 1575.94 67.9682C1575.94 73.446 1571.34 77.8867 1565.67 77.8867C1560 77.8867 1555.4 73.446 1555.4 67.9682C1555.4 62.4903 1560 58.0497 1565.67 58.0497Z" fill="white"/>
<path d="M1531.59 56.9881C1537.26 56.9881 1541.85 61.4288 1541.85 66.9067C1541.85 72.3845 1537.26 76.8252 1531.59 76.8252C1525.92 76.8252 1521.32 72.3845 1521.32 66.9067C1521.32 61.4288 1525.92 56.9881 1531.59 56.9881Z" fill="white"/>
<path d="M1516.6 56.9881C1522.27 56.9881 1526.87 61.4288 1526.87 66.9067C1526.87 72.3845 1522.27 76.8252 1516.6 76.8252C1510.93 76.8252 1506.33 72.3845 1506.33 66.9067C1506.33 61.4288 1510.93 56.9881 1516.6 56.9881Z" fill="white"/>
<path d="M1548.93 56.9881C1554.6 56.9881 1559.2 61.4288 1559.2 66.9067C1559.2 72.3845 1554.6 76.8252 1548.93 76.8252C1543.26 76.8252 1538.66 72.3845 1538.66 66.9067C1538.66 61.4288 1543.26 56.9881 1548.93 56.9881Z" fill="white"/>
<path d="M1499.32 87.3592C1504.99 87.3592 1509.59 91.7999 1509.59 97.2778C1509.59 102.756 1504.99 107.196 1499.32 107.196C1493.65 107.196 1489.05 102.756 1489.05 97.2778C1489.05 91.7999 1493.65 87.3592 1499.32 87.3592Z" fill="white"/>
<path d="M1499.32 43.0716C1504.99 43.0716 1509.59 47.5123 1509.59 52.9902C1509.59 58.468 1504.99 62.9087 1499.32 62.9087C1493.65 62.9087 1489.05 58.468 1489.05 52.9902C1489.05 47.5123 1493.65 43.0716 1499.32 43.0716Z" fill="white"/>
<path d="M1499.32 72.598C1504.99 72.598 1509.59 77.0387 1509.59 82.5165C1509.59 87.9944 1504.99 92.4351 1499.32 92.4351C1493.65 92.4351 1489.05 87.9944 1489.05 82.5165C1489.05 77.0387 1493.65 72.598 1499.32 72.598Z" fill="white"/>
<path d="M1499.32 28.3216C1504.99 28.3216 1509.59 32.7623 1509.59 38.2402C1509.59 43.718 1504.99 48.1587 1499.32 48.1587C1493.65 48.1587 1489.05 43.718 1489.05 38.2402C1489.05 32.7623 1493.65 28.3216 1499.32 28.3216Z" fill="white"/>
<path d="M1499.32 13.5628C1504.99 13.5628 1509.59 18.0035 1509.59 23.4814C1509.59 28.9592 1504.99 33.3999 1499.32 33.3999C1493.65 33.3999 1489.05 28.9592 1489.05 23.4814C1489.05 18.0035 1493.65 13.5628 1499.32 13.5628Z" fill="white"/>
<path d="M1499.32 57.8348C1504.99 57.8348 1509.59 62.2755 1509.59 67.7533C1509.59 73.2312 1504.99 77.6719 1499.32 77.6719C1493.65 77.6719 1489.05 73.2312 1489.05 67.7533C1489.05 62.2755 1493.65 57.8348 1499.32 57.8348Z" fill="white"/>
<path d="M1499.32 102.125C1504.99 102.125 1509.59 106.566 1509.59 112.044C1509.59 117.522 1504.99 121.962 1499.32 121.962C1493.65 121.962 1489.05 117.522 1489.05 112.044C1489.05 106.566 1493.65 102.125 1499.32 102.125Z" fill="white"/>
<path d="M1565.67 102.336C1571.34 102.336 1575.94 106.776 1575.94 112.254C1575.94 117.732 1571.34 122.173 1565.67 122.173C1560 122.173 1555.4 117.732 1555.4 112.254C1555.4 106.776 1560 102.336 1565.67 102.336Z" fill="white"/>
<path d="M1619.95 72.7838C1625.73 72.7838 1630.41 77.3101 1630.41 82.8936C1630.41 88.4771 1625.73 93.0034 1619.95 93.0034C1614.17 93.0034 1609.48 88.4771 1609.48 82.8936C1609.48 77.3101 1614.17 72.7838 1619.95 72.7838Z" fill="white"/>
<path d="M1637.42 72.7838C1643.2 72.7838 1647.89 77.3101 1647.89 82.8936C1647.89 88.4771 1643.2 93.0034 1637.42 93.0034C1631.64 93.0034 1626.96 88.4771 1626.96 82.8936C1626.96 77.3101 1631.64 72.7838 1637.42 72.7838Z" fill="white"/>
<path d="M1592.39 101.954C1598.17 101.954 1602.85 106.48 1602.85 112.064C1602.85 117.647 1598.17 122.173 1592.39 122.173C1586.61 122.173 1581.92 117.647 1581.92 112.064C1581.92 106.48 1586.61 101.954 1592.39 101.954Z" fill="white"/>
<path d="M1596.77 86.6549C1602.55 86.6549 1607.23 91.1812 1607.23 96.7647C1607.23 102.348 1602.55 106.875 1596.77 106.875C1590.99 106.875 1586.3 102.348 1586.3 96.7647C1586.3 91.1812 1590.99 86.6549 1596.77 86.6549Z" fill="white"/>
<path d="M1601.79 71.7857C1607.57 71.7857 1612.26 76.312 1612.26 81.8955C1612.26 87.479 1607.57 92.0054 1601.79 92.0054C1596.01 92.0054 1591.33 87.479 1591.33 81.8955C1591.33 76.312 1596.01 71.7857 1601.79 71.7857Z" fill="white"/>
<path d="M1613.32 43.8306C1619.1 43.8306 1623.79 48.357 1623.79 53.9405C1623.79 59.524 1619.1 64.0503 1613.32 64.0503C1607.54 64.0503 1602.85 59.524 1602.85 53.9405C1602.85 48.357 1607.54 43.8306 1613.32 43.8306Z" fill="white"/>
<path d="M1619.18 28.168C1624.96 28.168 1629.65 32.6944 1629.65 38.2779C1629.65 43.8614 1624.96 48.3877 1619.18 48.3877C1613.4 48.3877 1608.72 43.8614 1608.72 38.2779C1608.72 32.6944 1613.4 28.168 1619.18 28.168Z" fill="white"/>
<path d="M1626.92 12.4571C1632.7 12.4571 1637.39 16.9834 1637.39 22.5669C1637.39 28.1504 1632.7 32.6768 1626.92 32.6768C1621.14 32.6768 1616.46 28.1504 1616.46 22.5669C1616.46 16.9834 1621.14 12.4571 1626.92 12.4571Z" fill="white"/>
<path d="M1635.8 26.2335C1641.58 26.2335 1646.26 30.7598 1646.26 36.3433C1646.26 41.9268 1641.58 46.4531 1635.8 46.4531C1630.02 46.4531 1625.33 41.9268 1625.33 36.3433C1625.33 30.7598 1630.02 26.2335 1635.8 26.2335Z" fill="white"/>
<path d="M1641.98 42.6324C1647.76 42.6324 1652.45 47.1587 1652.45 52.7422C1652.45 58.3257 1647.76 62.8521 1641.98 62.8521C1636.2 62.8521 1631.52 58.3257 1631.52 52.7422C1631.52 47.1587 1636.2 42.6324 1641.98 42.6324Z" fill="white"/>
<path d="M1648.99 57.4761C1654.77 57.4761 1659.45 62.0025 1659.45 67.586C1659.45 73.1695 1654.77 77.6958 1648.99 77.6958C1643.21 77.6958 1638.52 73.1695 1638.52 67.586C1638.52 62.0025 1643.21 57.4761 1648.99 57.4761Z" fill="white"/>
<path d="M1654.09 74.1612C1659.87 74.1612 1664.55 78.6875 1664.55 84.271C1664.55 89.8545 1659.87 94.3809 1654.09 94.3809C1648.31 94.3809 1643.62 89.8545 1643.62 84.271C1643.62 78.6875 1648.31 74.1612 1654.09 74.1612Z" fill="white"/>
<path d="M1607.23 58.4029C1613.01 58.4029 1617.7 62.9292 1617.7 68.5127C1617.7 74.0962 1613.01 78.6226 1607.23 78.6226C1601.45 78.6226 1596.77 74.0962 1596.77 68.5127C1596.77 62.9292 1601.45 58.4029 1607.23 58.4029Z" fill="white"/>
<path d="M1659.45 88.7349C1665.23 88.7349 1669.92 93.2613 1669.92 98.8448C1669.92 104.428 1665.23 108.955 1659.45 108.955C1653.67 108.955 1648.99 104.428 1648.99 98.8448C1648.99 93.2613 1653.67 88.7349 1659.45 88.7349Z" fill="white"/>
<path d="M1664.55 101.954C1670.33 101.954 1675.02 106.48 1675.02 112.064C1675.02 117.647 1670.33 122.173 1664.55 122.173C1658.77 122.173 1654.09 117.647 1654.09 112.064C1654.09 106.48 1658.77 101.954 1664.55 101.954Z" fill="white"/>
<path d="M786.829 72.2463C792.422 72.2463 796.956 76.6263 796.956 82.0294C796.956 87.4324 792.422 91.8125 786.829 91.8125C781.235 91.8125 776.701 87.4324 776.701 82.0294C776.701 76.6263 781.235 72.2463 786.829 72.2463Z" fill="white"/>
<path d="M803.739 72.2463C809.333 72.2463 813.867 76.6263 813.867 82.0294C813.867 87.4324 809.333 91.8125 803.739 91.8125C798.146 91.8125 793.612 87.4324 793.612 82.0294C793.612 76.6263 798.146 72.2463 803.739 72.2463Z" fill="white"/>
<path d="M760.158 100.473C765.751 100.473 770.286 104.853 770.286 110.256C770.286 115.659 765.751 120.04 760.158 120.04C754.565 120.04 750.03 115.659 750.03 110.256C750.03 104.853 754.565 100.473 760.158 100.473Z" fill="white"/>
<path d="M764.397 85.6696C769.991 85.6696 774.525 90.0496 774.525 95.4527C774.525 100.856 769.991 105.236 764.397 105.236C758.804 105.236 754.27 100.856 754.27 95.4527C754.27 90.0496 758.804 85.6696 764.397 85.6696Z" fill="white"/>
<path d="M769.258 71.2804C774.851 71.2804 779.386 75.6605 779.386 81.0636C779.386 86.4666 774.851 90.8467 769.258 90.8467C763.665 90.8467 759.13 86.4666 759.13 81.0636C759.13 75.6605 763.665 71.2804 769.258 71.2804Z" fill="white"/>
<path d="M780.414 44.2292C786.007 44.2292 790.541 48.6092 790.541 54.0123C790.541 59.4154 786.007 63.7954 780.414 63.7954C774.82 63.7954 770.286 59.4154 770.286 54.0123C770.286 48.6092 774.82 44.2292 780.414 44.2292Z" fill="white"/>
<path d="M786.086 29.0729C791.679 29.0729 796.213 33.453 796.213 38.856C796.213 44.2591 791.679 48.6392 786.086 48.6392C780.492 48.6392 775.958 44.2591 775.958 38.856C775.958 33.453 780.492 29.0729 786.086 29.0729Z" fill="white"/>
<path d="M793.575 13.8693C799.168 13.8693 803.703 18.2494 803.703 23.6524C803.703 29.0555 799.168 33.4355 793.575 33.4355C787.982 33.4355 783.447 29.0555 783.447 23.6524C783.447 18.2494 787.982 13.8693 793.575 13.8693Z" fill="white"/>
<path d="M802.168 27.2004C807.762 27.2004 812.296 31.5804 812.296 36.9835C812.296 42.3865 807.762 46.7666 802.168 46.7666C796.575 46.7666 792.041 42.3865 792.041 36.9835C792.041 31.5804 796.575 27.2004 802.168 27.2004Z" fill="white"/>
<path d="M808.146 43.0695C813.74 43.0695 818.274 47.4495 818.274 52.8526C818.274 58.2557 813.74 62.6357 808.146 62.6357C802.553 62.6357 798.019 58.2557 798.019 52.8526C798.019 47.4495 802.553 43.0695 808.146 43.0695Z" fill="white"/>
<path d="M814.93 57.4328C820.524 57.4328 825.058 61.8128 825.058 67.2159C825.058 72.619 820.524 76.999 814.93 76.999C809.337 76.999 804.803 72.619 804.803 67.2159C804.803 61.8128 809.337 57.4328 814.93 57.4328Z" fill="white"/>
<path d="M819.862 73.5788C825.455 73.5788 829.99 77.9588 829.99 83.3619C829.99 88.765 825.455 93.145 819.862 93.145C814.269 93.145 809.734 88.765 809.734 83.3619C809.734 77.9588 814.269 73.5788 819.862 73.5788Z" fill="white"/>
<path d="M774.524 58.3302C780.117 58.3302 784.652 62.7103 784.652 68.1134C784.652 73.5164 780.117 77.8965 774.524 77.8965C768.931 77.8965 764.396 73.5164 764.396 68.1134C764.396 62.7103 768.931 58.3302 774.524 58.3302Z" fill="white"/>
<path d="M825.055 87.6818C830.648 87.6818 835.183 92.0619 835.183 97.4649C835.183 102.868 830.648 107.248 825.055 107.248C819.462 107.248 814.927 102.868 814.927 97.4649C814.927 92.0619 819.462 87.6818 825.055 87.6818Z" fill="white"/>
<path d="M829.989 100.473C835.583 100.473 840.117 104.853 840.117 110.256C840.117 115.659 835.583 120.04 829.989 120.04C824.396 120.04 819.862 115.659 819.862 110.256C819.862 104.853 824.396 100.473 829.989 100.473Z" fill="white"/>
<path d="M1433.81 60.4386C1439.4 60.4386 1443.93 64.8187 1443.93 70.2218C1443.93 75.6248 1439.4 80.0049 1433.81 80.0049C1428.21 80.0049 1423.68 75.6248 1423.68 70.2218C1423.68 64.8187 1428.21 60.4386 1433.81 60.4386Z" fill="white"/>
<path d="M1399.71 100.488C1405.31 100.488 1409.84 104.868 1409.84 110.272C1409.84 115.675 1405.31 120.055 1399.71 120.055C1394.12 120.055 1389.59 115.675 1389.59 110.272C1389.59 104.868 1394.12 100.488 1399.71 100.488Z" fill="white"/>
<path d="M1409.84 88.3566C1415.43 88.3566 1419.97 92.7367 1419.97 98.1397C1419.97 103.543 1415.43 107.923 1409.84 107.923C1404.25 107.923 1399.71 103.543 1399.71 98.1397C1399.71 92.7367 1404.25 88.3566 1409.84 88.3566Z" fill="white"/>
<path d="M1423.47 75.3952C1429.06 75.3952 1433.59 79.7752 1433.59 85.1783C1433.59 90.5814 1429.06 94.9614 1423.47 94.9614C1417.87 94.9614 1413.34 90.5814 1413.34 85.1783C1413.34 79.7752 1417.87 75.3952 1423.47 75.3952Z" fill="white"/>
<path d="M1444.96 46.7643C1450.55 46.7643 1455.09 51.1444 1455.09 56.5474C1455.09 61.9505 1450.55 66.3306 1444.96 66.3306C1439.36 66.3306 1434.83 61.9505 1434.83 56.5474C1434.83 51.1444 1439.36 46.7643 1444.96 46.7643Z" fill="white"/>
<path d="M1454.06 33.4367C1459.65 33.4367 1464.19 37.8167 1464.19 43.2198C1464.19 48.6229 1459.65 53.0029 1454.06 53.0029C1448.47 53.0029 1443.93 48.6229 1443.93 43.2198C1443.93 37.8167 1448.47 33.4367 1454.06 33.4367Z" fill="white"/>
<path d="M1465.31 13.8713C1470.9 13.8713 1475.43 18.2513 1475.43 23.6544C1475.43 29.0574 1470.9 33.4375 1465.31 33.4375C1459.71 33.4375 1455.18 29.0574 1455.18 23.6544C1455.18 18.2513 1459.71 13.8713 1465.31 13.8713Z" fill="white"/>
<path d="M1465.31 27.1974C1470.9 27.1974 1475.43 31.5775 1475.43 36.9805C1475.43 42.3836 1470.9 46.7637 1465.31 46.7637C1459.71 46.7637 1455.18 42.3836 1455.18 36.9805C1455.18 31.5775 1459.71 27.1974 1465.31 27.1974Z" fill="white"/>
<path d="M1465.31 37.1964C1470.9 37.1964 1475.43 41.5765 1475.43 46.9796C1475.43 52.3826 1470.9 56.7627 1465.31 56.7627C1459.71 56.7627 1455.18 52.3826 1455.18 46.9796C1455.18 41.5765 1459.71 37.1964 1465.31 37.1964Z" fill="white"/>
<path d="M1465.31 53.0036C1470.9 53.0036 1475.43 57.3836 1475.43 62.7867C1475.43 68.1898 1470.9 72.5698 1465.31 72.5698C1459.71 72.5698 1455.18 68.1898 1455.18 62.7867C1455.18 57.3836 1459.71 53.0036 1465.31 53.0036Z" fill="white"/>
<path d="M1465.31 70.2189C1470.9 70.2189 1475.43 74.599 1475.43 80.002C1475.43 85.4051 1470.9 89.7852 1465.31 89.7852C1459.71 89.7852 1455.18 85.4051 1455.18 80.002C1455.18 74.599 1459.71 70.2189 1465.31 70.2189Z" fill="white"/>
<path d="M1465.31 86.2375C1470.9 86.2375 1475.43 90.6175 1475.43 96.0206C1475.43 101.424 1470.9 105.804 1465.31 105.804C1459.71 105.804 1455.18 101.424 1455.18 96.0206C1455.18 90.6175 1459.71 86.2375 1465.31 86.2375Z" fill="white"/>
<path d="M1465.31 100.488C1470.9 100.488 1475.43 104.868 1475.43 110.272C1475.43 115.675 1470.9 120.055 1465.31 120.055C1459.71 120.055 1455.18 115.675 1455.18 110.272C1455.18 104.868 1459.71 100.488 1465.31 100.488Z" fill="white"/>
<path d="M1399.71 83.3791C1405.31 83.3791 1409.84 87.7591 1409.84 93.1622C1409.84 98.5653 1405.31 102.945 1399.71 102.945C1394.12 102.945 1389.59 98.5653 1389.59 93.1622C1389.59 87.7591 1394.12 83.3791 1399.71 83.3791Z" fill="white"/>
<path d="M1399.71 66.3298C1405.31 66.3298 1409.84 70.7098 1409.84 76.1129C1409.84 81.5159 1405.31 85.896 1399.71 85.896C1394.12 85.896 1389.59 81.5159 1389.59 76.1129C1389.59 70.7098 1394.12 66.3298 1399.71 66.3298Z" fill="white"/>
<path d="M1399.71 48.5651C1405.31 48.5651 1409.84 52.9452 1409.84 58.3482C1409.84 63.7513 1405.31 68.1313 1399.71 68.1313C1394.12 68.1313 1389.59 63.7513 1389.59 58.3482C1389.59 52.9452 1394.12 48.5651 1399.71 48.5651Z" fill="white"/>
<path d="M1399.71 31.0846C1405.31 31.0846 1409.84 35.4647 1409.84 40.8678C1409.84 46.2708 1405.31 50.6509 1399.71 50.6509C1394.12 50.6509 1389.59 46.2708 1389.59 40.8678C1389.59 35.4647 1394.12 31.0846 1399.71 31.0846Z" fill="white"/>
<path d="M1399.71 13.8713C1405.31 13.8713 1409.84 18.2513 1409.84 23.6544C1409.84 29.0574 1405.31 33.4375 1399.71 33.4375C1394.12 33.4375 1389.59 29.0574 1389.59 23.6544C1389.59 18.2513 1394.12 13.8713 1399.71 13.8713Z" fill="white"/>
<path d="M1182.25 98.589C1187.84 98.589 1192.38 102.969 1192.38 108.372C1192.38 113.775 1187.84 118.155 1182.25 118.155C1176.66 118.155 1172.12 113.775 1172.12 108.372C1172.12 102.969 1176.66 98.589 1182.25 98.589Z" fill="white"/>
<path d="M1227.5 98.589C1233.09 98.589 1237.62 102.969 1237.62 108.372C1237.62 113.775 1233.09 118.155 1227.5 118.155C1221.9 118.155 1217.37 113.775 1217.37 108.372C1217.37 102.969 1221.9 98.589 1227.5 98.589Z" fill="white"/>
<path d="M1197.47 98.589C1203.06 98.589 1207.6 102.969 1207.6 108.372C1207.6 113.775 1203.06 118.155 1197.47 118.155C1191.87 118.155 1187.34 113.775 1187.34 108.372C1187.34 102.969 1191.87 98.589 1197.47 98.589Z" fill="white"/>
<path d="M1213.11 98.589C1218.7 98.589 1223.23 102.969 1223.23 108.372C1223.23 113.775 1218.7 118.155 1213.11 118.155C1207.51 118.155 1202.98 113.775 1202.98 108.372C1202.98 102.969 1207.51 98.589 1213.11 98.589Z" fill="white"/>
<path d="M1245.21 98.589C1250.8 98.589 1255.33 102.969 1255.33 108.372C1255.33 113.775 1250.8 118.155 1245.21 118.155C1239.61 118.155 1235.08 113.775 1235.08 108.372C1235.08 102.969 1239.61 98.589 1245.21 98.589Z" fill="white"/>
<path d="M1257.52 98.589C1263.12 98.589 1267.65 102.969 1267.65 108.372C1267.65 113.775 1263.12 118.155 1257.52 118.155C1251.93 118.155 1247.4 113.775 1247.4 108.372C1247.4 102.969 1251.93 98.589 1257.52 98.589Z" fill="white"/>
<path d="M1272.74 98.589C1278.34 98.589 1282.87 102.969 1282.87 108.372C1282.87 113.775 1278.34 118.155 1272.74 118.155C1267.15 118.155 1262.61 113.775 1262.61 108.372C1262.61 102.969 1267.15 98.589 1272.74 98.589Z" fill="white"/>
<path d="M1182.07 83.2824C1187.66 83.2824 1192.2 87.6624 1192.2 93.0655C1192.2 98.4686 1187.66 102.849 1182.07 102.849C1176.48 102.849 1171.94 98.4686 1171.94 93.0655C1171.94 87.6624 1176.48 83.2824 1182.07 83.2824Z" fill="white"/>
<path d="M1227.32 84.341C1232.91 84.341 1237.45 88.721 1237.45 94.1241C1237.45 99.5272 1232.91 103.907 1227.32 103.907C1221.72 103.907 1217.19 99.5272 1217.19 94.1241C1217.19 88.721 1221.72 84.341 1227.32 84.341Z" fill="white"/>
<path d="M1272.56 81.484C1278.16 81.484 1282.69 85.8641 1282.69 91.2672C1282.69 96.6702 1278.16 101.05 1272.56 101.05C1266.97 101.05 1262.44 96.6702 1262.44 91.2672C1262.44 85.8641 1266.97 81.484 1272.56 81.484Z" fill="white"/>
<path d="M1182.07 66.2331C1187.66 66.2331 1192.2 70.6131 1192.2 76.0162C1192.2 81.4193 1187.66 85.7993 1182.07 85.7993C1176.48 85.7993 1171.94 81.4193 1171.94 76.0162C1171.94 70.6131 1176.48 66.2331 1182.07 66.2331Z" fill="white"/>
<path d="M1227.32 67.3097C1232.91 67.3097 1237.45 71.6898 1237.45 77.0929C1237.45 82.4959 1232.91 86.876 1227.32 86.876C1221.72 86.876 1217.19 82.4959 1217.19 77.0929C1217.19 71.6898 1221.72 67.3097 1227.32 67.3097Z" fill="white"/>
<path d="M1272.56 64.4489C1278.16 64.4489 1282.69 68.8289 1282.69 74.232C1282.69 79.6351 1278.16 84.0151 1272.56 84.0151C1266.97 84.0151 1262.44 79.6351 1262.44 74.232C1262.44 68.8289 1266.97 64.4489 1272.56 64.4489Z" fill="white"/>
<path d="M1182.07 48.7565C1187.66 48.7565 1192.2 53.1366 1192.2 58.5396C1192.2 63.9427 1187.66 68.3228 1182.07 68.3228C1176.48 68.3228 1171.94 63.9427 1171.94 58.5396C1171.94 53.1366 1176.48 48.7565 1182.07 48.7565Z" fill="white"/>
<path d="M1227.32 49.8175C1232.91 49.8175 1237.45 54.1976 1237.45 59.6007C1237.45 65.0037 1232.91 69.3838 1227.32 69.3838C1221.72 69.3838 1217.19 65.0037 1217.19 59.6007C1217.19 54.1976 1221.72 49.8175 1227.32 49.8175Z" fill="white"/>
<path d="M1272.56 46.9562C1278.16 46.9562 1282.69 51.3363 1282.69 56.7393C1282.69 62.1424 1278.16 66.5225 1272.56 66.5225C1266.97 66.5225 1262.44 62.1424 1262.44 56.7393C1262.44 51.3363 1266.97 46.9562 1272.56 46.9562Z" fill="white"/>
<path d="M1182.07 31.5548C1187.66 31.5548 1192.2 35.9349 1192.2 41.338C1192.2 46.741 1187.66 51.1211 1182.07 51.1211C1176.48 51.1211 1171.94 46.741 1171.94 41.338C1171.94 35.9349 1176.48 31.5548 1182.07 31.5548Z" fill="white"/>
<path d="M1227.32 32.6159C1232.91 32.6159 1237.45 36.9959 1237.45 42.399C1237.45 47.8021 1232.91 52.1821 1227.32 52.1821C1221.72 52.1821 1217.19 47.8021 1217.19 42.399C1217.19 36.9959 1221.72 32.6159 1227.32 32.6159Z" fill="white"/>
<path d="M1272.56 29.7541C1278.16 29.7541 1282.69 34.1341 1282.69 39.5372C1282.69 44.9403 1278.16 49.3203 1272.56 49.3203C1266.97 49.3203 1262.44 44.9403 1262.44 39.5372C1262.44 34.1341 1266.97 29.7541 1272.56 29.7541Z" fill="white"/>
<path d="M1182.07 15.7482C1187.66 15.7482 1192.2 20.1283 1192.2 25.5313C1192.2 30.9344 1187.66 35.3145 1182.07 35.3145C1176.48 35.3145 1171.94 30.9344 1171.94 25.5313C1171.94 20.1283 1176.48 15.7482 1182.07 15.7482Z" fill="white"/>
<path d="M1227.32 18.6095C1232.91 18.6095 1237.45 22.9896 1237.45 28.3927C1237.45 33.7957 1232.91 38.1758 1227.32 38.1758C1221.72 38.1758 1217.19 33.7957 1217.19 28.3927C1217.19 22.9896 1221.72 18.6095 1227.32 18.6095Z" fill="white"/>
<path d="M1272.56 15.7482C1278.16 15.7482 1282.69 20.1283 1282.69 25.5313C1282.69 30.9344 1278.16 35.3145 1272.56 35.3145C1266.97 35.3145 1262.44 30.9344 1262.44 25.5313C1262.44 20.1283 1266.97 15.7482 1272.56 15.7482Z" fill="white"/>
<path d="M1311.17 99.196C1316.77 99.196 1321.3 103.576 1321.3 108.979C1321.3 114.382 1316.77 118.762 1311.17 118.762C1305.58 118.762 1301.05 114.382 1301.05 108.979C1301.05 103.576 1305.58 99.196 1311.17 99.196Z" fill="white"/>
<path d="M1311 82.0861C1316.59 82.0861 1321.12 86.4662 1321.12 91.8692C1321.12 97.2723 1316.59 101.652 1311 101.652C1305.4 101.652 1300.87 97.2723 1300.87 91.8692C1300.87 86.4662 1305.4 82.0861 1311 82.0861Z" fill="white"/>
<path d="M1311 65.0387C1316.59 65.0387 1321.12 69.4188 1321.12 74.8219C1321.12 80.2249 1316.59 84.605 1311 84.605C1305.4 84.605 1300.87 80.2249 1300.87 74.8219C1300.87 69.4188 1305.4 65.0387 1311 65.0387Z" fill="white"/>
<path d="M1311 47.5607C1316.59 47.5607 1321.12 51.9408 1321.12 57.3438C1321.12 62.7469 1316.59 67.127 1311 67.127C1305.4 67.127 1300.87 62.7469 1300.87 57.3438C1300.87 51.9408 1305.4 47.5607 1311 47.5607Z" fill="white"/>
<path d="M1356.24 29.0046C1361.84 29.0046 1366.37 33.3846 1366.37 38.7877C1366.37 44.1907 1361.84 48.5708 1356.24 48.5708C1350.65 48.5708 1346.12 44.1907 1346.12 38.7877C1346.12 33.3846 1350.65 29.0046 1356.24 29.0046Z" fill="white"/>
<path d="M1366.37 16.5661C1371.96 16.5661 1376.5 20.9461 1376.5 26.3492C1376.5 31.7523 1371.96 36.1323 1366.37 36.1323C1360.78 36.1323 1356.24 31.7523 1356.24 26.3492C1356.24 20.9461 1360.78 16.5661 1366.37 16.5661Z" fill="white"/>
<path d="M1321.3 55.2575C1326.9 55.2575 1331.43 59.6375 1331.43 65.0406C1331.43 70.4437 1326.9 74.8237 1321.3 74.8237C1315.71 74.8237 1311.18 70.4437 1311.18 65.0406C1311.18 59.6375 1315.71 55.2575 1321.3 55.2575Z" fill="white"/>
<path d="M1335.8 55.2575C1341.4 55.2575 1345.93 59.6375 1345.93 65.0406C1345.93 70.4437 1341.4 74.8237 1335.8 74.8237C1330.21 74.8237 1325.68 70.4437 1325.68 65.0406C1325.68 59.6375 1330.21 55.2575 1335.8 55.2575Z" fill="white"/>
<path d="M1345.93 41.9294C1351.53 41.9294 1356.06 46.3094 1356.06 51.7125C1356.06 57.1156 1351.53 61.4956 1345.93 61.4956C1340.34 61.4956 1335.81 57.1156 1335.81 51.7125C1335.81 46.3094 1340.34 41.9294 1345.93 41.9294Z" fill="white"/>
<path d="M1341.56 65.3835C1347.15 65.3835 1351.69 69.7635 1351.69 75.1666C1351.69 80.5697 1347.15 84.9497 1341.56 84.9497C1335.97 84.9497 1331.43 80.5697 1331.43 75.1666C1331.43 69.7635 1335.97 65.3835 1341.56 65.3835Z" fill="white"/>
<path d="M1349.43 77.2848C1355.02 77.2848 1359.56 81.6649 1359.56 87.068C1359.56 92.471 1355.02 96.8511 1349.43 96.8511C1343.84 96.8511 1339.3 92.471 1339.3 87.068C1339.3 81.6649 1343.84 77.2848 1349.43 77.2848Z" fill="white"/>
<path d="M1359.56 89.4167C1365.15 89.4167 1369.68 93.7967 1369.68 99.1998C1369.68 104.603 1365.15 108.983 1359.56 108.983C1353.96 108.983 1349.43 104.603 1349.43 99.1998C1349.43 93.7967 1353.96 89.4167 1359.56 89.4167Z" fill="white"/>
<path d="M1369.69 99.1989C1375.28 99.1989 1379.81 103.579 1379.81 108.982C1379.81 114.385 1375.28 118.765 1369.69 118.765C1364.09 118.765 1359.56 114.385 1359.56 108.982C1359.56 103.579 1364.09 99.1989 1369.69 99.1989Z" fill="white"/>
<path d="M1311 30.361C1316.59 30.361 1321.12 34.7411 1321.12 40.1441C1321.12 45.5472 1316.59 49.9272 1311 49.9272C1305.4 49.9272 1300.87 45.5472 1300.87 40.1441C1300.87 34.7411 1305.4 30.361 1311 30.361Z" fill="white"/>
<path d="M1311 16.3527C1316.59 16.3527 1321.12 20.7328 1321.12 26.1358C1321.12 31.5389 1316.59 35.9189 1311 35.9189C1305.4 35.9189 1300.87 31.5389 1300.87 26.1358C1300.87 20.7328 1305.4 16.3527 1311 16.3527Z" fill="white"/>
<path d="M1042.85 13.5451C1048.45 13.5451 1052.98 17.9251 1052.98 23.3282C1052.98 28.7313 1048.45 33.1113 1042.85 33.1113C1037.26 33.1113 1032.72 28.7313 1032.72 23.3282C1032.72 17.9251 1037.26 13.5451 1042.85 13.5451Z" fill="white"/>
<path d="M1042.85 31.2956C1048.45 31.2956 1052.98 35.6756 1052.98 41.0787C1052.98 46.4818 1048.45 50.8618 1042.85 50.8618C1037.26 50.8618 1032.72 46.4818 1032.72 41.0787C1032.72 35.6756 1037.26 31.2956 1042.85 31.2956Z" fill="white"/>
<path d="M1042.85 48.2824C1048.45 48.2824 1052.98 52.6624 1052.98 58.0655C1052.98 63.4686 1048.45 67.8486 1042.85 67.8486C1037.26 67.8486 1032.72 63.4686 1032.72 58.0655C1032.72 52.6624 1037.26 48.2824 1042.85 48.2824Z" fill="white"/>
<path d="M1042.85 65.9923C1048.45 65.9923 1052.98 70.3724 1052.98 75.7755C1052.98 81.1785 1048.45 85.5586 1042.85 85.5586C1037.26 85.5586 1032.72 81.1785 1032.72 75.7755C1032.72 70.3724 1037.26 65.9923 1042.85 65.9923Z" fill="white"/>
<path d="M1042.85 83.0339C1048.45 83.0339 1052.98 87.4139 1052.98 92.817C1052.98 98.22 1048.45 102.6 1042.85 102.6C1037.26 102.6 1032.72 98.22 1032.72 92.817C1032.72 87.4139 1037.26 83.0339 1042.85 83.0339Z" fill="white"/>
<path d="M1057.29 58.2985C1062.88 58.2985 1067.42 62.6786 1067.42 68.0816C1067.42 73.4847 1062.88 77.8647 1057.29 77.8647C1051.7 77.8647 1047.16 73.4847 1047.16 68.0816C1047.16 62.6786 1051.7 58.2985 1057.29 58.2985Z" fill="white"/>
<path d="M1070.9 58.2985C1076.49 58.2985 1081.03 62.6786 1081.03 68.0816C1081.03 73.4847 1076.49 77.8647 1070.9 77.8647C1065.31 77.8647 1060.77 73.4847 1060.77 68.0816C1060.77 62.6786 1065.31 58.2985 1070.9 58.2985Z" fill="white"/>
<path d="M1073.63 41.0939C1079.22 41.0939 1083.75 45.474 1083.75 50.877C1083.75 56.2801 1079.22 60.6602 1073.63 60.6602C1068.03 60.6602 1063.5 56.2801 1063.5 50.877C1063.5 45.474 1068.03 41.0939 1073.63 41.0939Z" fill="white"/>
<path d="M1082.47 25.1628C1088.07 25.1628 1092.6 29.5428 1092.6 34.9459C1092.6 40.349 1088.07 44.729 1082.47 44.729C1076.88 44.729 1072.35 40.349 1072.35 34.9459C1072.35 29.5428 1076.88 25.1628 1082.47 25.1628Z" fill="white"/>
<path d="M1096.31 13.5451C1101.91 13.5451 1106.44 17.9251 1106.44 23.3282C1106.44 28.7313 1101.91 33.1113 1096.31 33.1113C1090.72 33.1113 1086.18 28.7313 1086.18 23.3282C1086.18 17.9251 1090.72 13.5451 1096.31 13.5451Z" fill="white"/>
<path d="M1112.6 11.7443C1118.19 11.7443 1122.73 16.1244 1122.73 21.5274C1122.73 26.9305 1118.19 31.3105 1112.6 31.3105C1107.01 31.3105 1102.47 26.9305 1102.47 21.5274C1102.47 16.1244 1107.01 11.7443 1112.6 11.7443Z" fill="white"/>
<path d="M1127.72 15.3781C1133.31 15.3781 1137.85 19.7581 1137.85 25.1612C1137.85 30.5643 1133.31 34.9443 1127.72 34.9443C1122.13 34.9443 1117.59 30.5643 1117.59 25.1612C1117.59 19.7581 1122.13 15.3781 1127.72 15.3781Z" fill="white"/>
<path d="M1140.7 26.9313C1146.29 26.9313 1150.83 31.3114 1150.83 36.7144C1150.83 42.1175 1146.29 46.4976 1140.7 46.4976C1135.11 46.4976 1130.57 42.1175 1130.57 36.7144C1130.57 31.3114 1135.11 26.9313 1140.7 26.9313Z" fill="white"/>
<path d="M1146.83 43.4596C1152.42 43.4596 1156.96 47.8397 1156.96 53.2428C1156.96 58.6458 1152.42 63.0259 1146.83 63.0259C1141.24 63.0259 1136.7 58.6458 1136.7 53.2428C1136.7 47.8397 1141.24 43.4596 1146.83 43.4596Z" fill="white"/>
<path d="M1147.97 60.6452C1153.57 60.6452 1158.1 65.0252 1158.1 70.4283C1158.1 75.8314 1153.57 80.2114 1147.97 80.2114C1142.38 80.2114 1137.85 75.8314 1137.85 70.4283C1137.85 65.0252 1142.38 60.6452 1147.97 60.6452Z" fill="white"/>
<path d="M1145.41 77.859C1151 77.859 1155.54 82.2391 1155.54 87.6422C1155.54 93.0452 1151 97.4253 1145.41 97.4253C1139.81 97.4253 1135.28 93.0452 1135.28 87.6422C1135.28 82.2391 1139.81 77.859 1145.41 77.859Z" fill="white"/>
<path d="M1136.7 92.8171C1142.3 92.8171 1146.83 97.1971 1146.83 102.6C1146.83 108.003 1142.3 112.383 1136.7 112.383C1131.11 112.383 1126.57 108.003 1126.57 102.6C1126.57 97.1971 1131.11 92.8171 1136.7 92.8171Z" fill="white"/>
<path d="M1122.01 101.378C1127.61 101.378 1132.14 105.758 1132.14 111.161C1132.14 116.564 1127.61 120.944 1122.01 120.944C1116.42 120.944 1111.89 116.564 1111.89 111.161C1111.89 105.758 1116.42 101.378 1122.01 101.378Z" fill="white"/>
<path d="M1108.61 102.607C1114.2 102.607 1118.74 106.987 1118.74 112.39C1118.74 117.793 1114.2 122.173 1108.61 122.173C1103.01 122.173 1098.48 117.793 1098.48 112.39C1098.48 106.987 1103.01 102.607 1108.61 102.607Z" fill="white"/>
<path d="M1091.16 98.7541C1096.75 98.7541 1101.28 103.134 1101.28 108.537C1101.28 113.94 1096.75 118.32 1091.16 118.32C1085.56 118.32 1081.03 113.94 1081.03 108.537C1081.03 103.134 1085.56 98.7541 1091.16 98.7541Z" fill="white"/>
<path d="M1080.51 87.6457C1086.1 87.6457 1090.64 92.0257 1090.64 97.4288C1090.64 102.832 1086.1 107.212 1080.51 107.212C1074.92 107.212 1070.38 102.832 1070.38 97.4288C1070.38 92.0257 1074.92 87.6457 1080.51 87.6457Z" fill="white"/>
<path d="M1073.63 73.2541C1079.22 73.2541 1083.75 77.6341 1083.75 83.0372C1083.75 88.4403 1079.22 92.8203 1073.63 92.8203C1068.03 92.8203 1063.5 88.4403 1063.5 83.0372C1063.5 77.6341 1068.03 73.2541 1073.63 73.2541Z" fill="white"/>
<path d="M1042.85 99.7775C1048.45 99.7775 1052.98 104.158 1052.98 109.561C1052.98 114.964 1048.45 119.344 1042.85 119.344C1037.26 119.344 1032.72 114.964 1032.72 109.561C1032.72 104.158 1037.26 99.7775 1042.85 99.7775Z" fill="white"/>
<path d="M856.015 100.864C861.609 100.864 866.143 105.244 866.143 110.647C866.143 116.05 861.609 120.43 856.015 120.43C850.422 120.43 845.888 116.05 845.888 110.647C845.888 105.244 850.422 100.864 856.015 100.864Z" fill="white"/>
<path d="M856.015 71.7423C861.609 71.7423 866.143 76.1224 866.143 81.5255C866.143 86.9285 861.609 91.3086 856.015 91.3086C850.422 91.3086 845.888 86.9285 845.888 81.5255C845.888 76.1224 850.422 71.7423 856.015 71.7423Z" fill="white"/>
<path d="M856.015 86.3039C861.609 86.3039 866.143 90.6839 866.143 96.087C866.143 101.49 861.609 105.87 856.015 105.87C850.422 105.87 845.888 101.49 845.888 96.087C845.888 90.6839 850.422 86.3039 856.015 86.3039Z" fill="white"/>
<path d="M856.015 57.1803C861.609 57.1803 866.143 61.5604 866.143 66.9635C866.143 72.3665 861.609 76.7466 856.015 76.7466C850.422 76.7466 845.888 72.3665 845.888 66.9635C845.888 61.5604 850.422 57.1803 856.015 57.1803Z" fill="white"/>
<path d="M856.015 42.6188C861.609 42.6188 866.143 46.9989 866.143 52.4019C866.143 57.805 861.609 62.1851 856.015 62.1851C850.422 62.1851 845.888 57.805 845.888 52.4019C845.888 46.9989 850.422 42.6188 856.015 42.6188Z" fill="white"/>
<path d="M856.015 28.0588C861.609 28.0588 866.143 32.4388 866.143 37.8419C866.143 43.2449 861.609 47.625 856.015 47.625C850.422 47.625 845.888 43.2449 845.888 37.8419C845.888 32.4388 850.422 28.0588 856.015 28.0588Z" fill="white"/>
<path d="M856.015 13.4972C861.609 13.4972 866.143 17.8773 866.143 23.2804C866.143 28.6834 861.609 33.0635 856.015 33.0635C850.422 33.0635 845.888 28.6834 845.888 23.2804C845.888 17.8773 850.422 13.4972 856.015 13.4972Z" fill="white"/>
<path d="M872.28 13.5021C877.873 13.5021 882.408 17.8822 882.408 23.2852C882.408 28.6883 877.873 33.0684 872.28 33.0684C866.687 33.0684 862.152 28.6883 862.152 23.2852C862.152 17.8822 866.687 13.5021 872.28 13.5021Z" fill="white"/>
<path d="M887.531 13.5021C893.125 13.5021 897.659 17.8822 897.659 23.2852C897.659 28.6883 893.125 33.0684 887.531 33.0684C881.938 33.0684 877.404 28.6883 877.404 23.2852C877.404 17.8822 881.938 13.5021 887.531 13.5021Z" fill="white"/>
<path d="M902.782 13.5021C908.375 13.5021 912.91 17.8822 912.91 23.2852C912.91 28.6883 908.375 33.0684 902.782 33.0684C897.189 33.0684 892.654 28.6883 892.654 23.2852C892.654 17.8822 897.189 13.5021 902.782 13.5021Z" fill="white"/>
<path d="M918.029 28.0597C923.623 28.0597 928.157 32.4398 928.157 37.8429C928.157 43.2459 923.623 47.626 918.029 47.626C912.436 47.626 907.902 43.2459 907.902 37.8429C907.902 32.4398 912.436 28.0597 918.029 28.0597Z" fill="white"/>
<path d="M918.029 13.5021C923.623 13.5021 928.157 17.8822 928.157 23.2852C928.157 28.6883 923.623 33.0684 918.029 33.0684C912.436 33.0684 907.902 28.6883 907.902 23.2852C907.902 17.8822 912.436 13.5021 918.029 13.5021Z" fill="white"/>
<path d="M918.029 42.6217C923.623 42.6217 928.157 47.0018 928.157 52.4049C928.157 57.8079 923.623 62.188 918.029 62.188C912.436 62.188 907.902 57.8079 907.902 52.4049C907.902 47.0018 912.436 42.6217 918.029 42.6217Z" fill="white"/>
<path d="M918.029 57.1838C923.623 57.1838 928.157 61.5638 928.157 66.9669C928.157 72.3699 923.623 76.75 918.029 76.75C912.436 76.75 907.902 72.3699 907.902 66.9669C907.902 61.5638 912.436 57.1838 918.029 57.1838Z" fill="white"/>
<path d="M918.029 71.7458C923.623 71.7458 928.157 76.1258 928.157 81.5289C928.157 86.932 923.623 91.312 918.029 91.312C912.436 91.312 907.902 86.932 907.902 81.5289C907.902 76.1258 912.436 71.7458 918.029 71.7458Z" fill="white"/>
<path d="M918.029 86.3073C923.623 86.3073 928.157 90.6873 928.157 96.0904C928.157 101.493 923.623 105.874 918.029 105.874C912.436 105.874 907.902 101.493 907.902 96.0904C907.902 90.6873 912.436 86.3073 918.029 86.3073Z" fill="white"/>
<path d="M918.029 100.87C923.623 100.87 928.157 105.25 928.157 110.653C928.157 116.056 923.623 120.436 918.029 120.436C912.436 120.436 907.902 116.056 907.902 110.653C907.902 105.25 912.436 100.87 918.029 100.87Z" fill="white"/>
<path d="M954.514 12.6481C960.107 12.6481 964.642 17.0282 964.642 22.4312C964.642 27.8343 960.107 32.2144 954.514 32.2144C948.921 32.2144 944.386 27.8343 944.386 22.4312C944.386 17.0282 948.921 12.6481 954.514 12.6481Z" fill="white"/>
<path d="M968.94 12.6481C974.533 12.6481 979.067 17.0282 979.067 22.4312C979.067 27.8343 974.533 32.2144 968.94 32.2144C963.346 32.2144 958.812 27.8343 958.812 22.4312C958.812 17.0282 963.346 12.6481 968.94 12.6481Z" fill="white"/>
<path d="M985.677 12.6481C991.27 12.6481 995.805 17.0282 995.805 22.4312C995.805 27.8343 991.27 32.2144 985.677 32.2144C980.084 32.2144 975.549 27.8343 975.549 22.4312C975.549 17.0282 980.084 12.6481 985.677 12.6481Z" fill="white"/>
<path d="M1002.01 18.0524C1007.61 18.0524 1012.14 22.4325 1012.14 27.8355C1012.14 33.2386 1007.61 37.6187 1002.01 37.6187C996.419 37.6187 991.884 33.2386 991.884 27.8355C991.884 22.4325 996.419 18.0524 1002.01 18.0524Z" fill="white"/>
<path d="M1009.78 27.8346C1015.38 27.8346 1019.91 32.2147 1019.91 37.6178C1019.91 43.0208 1015.38 47.4009 1009.78 47.4009C1004.19 47.4009 999.654 43.0208 999.654 37.6178C999.654 32.2147 1004.19 27.8346 1009.78 27.8346Z" fill="white"/>
<path d="M1009.78 43.8146C1015.38 43.8146 1019.91 48.1947 1019.91 53.5977C1019.91 59.0008 1015.38 63.3809 1009.78 63.3809C1004.19 63.3809 999.654 59.0008 999.654 53.5977C999.654 48.1947 1004.19 43.8146 1009.78 43.8146Z" fill="white"/>
<path d="M1004.34 59.7487C1009.94 59.7487 1014.47 64.1287 1014.47 69.5318C1014.47 74.9349 1009.94 79.3149 1004.34 79.3149C998.749 79.3149 994.215 74.9349 994.215 69.5318C994.215 64.1287 998.749 59.7487 1004.34 59.7487Z" fill="white"/>
<path d="M987.07 65.0929C992.663 65.0929 997.197 69.473 997.197 74.8761C997.197 80.2791 992.663 84.6592 987.07 84.6592C981.476 84.6592 976.942 80.2791 976.942 74.8761C976.942 69.473 981.476 65.0929 987.07 65.0929Z" fill="white"/>
<path d="M968.94 65.0929C974.533 65.0929 979.067 69.473 979.067 74.8761C979.067 80.2791 974.533 84.6592 968.94 84.6592C963.346 84.6592 958.812 80.2791 958.812 74.8761C958.812 69.473 963.346 65.0929 968.94 65.0929Z" fill="white"/>
<path d="M954.514 27.8346C960.107 27.8346 964.642 32.2147 964.642 37.6178C964.642 43.0208 960.107 47.4009 954.514 47.4009C948.921 47.4009 944.386 43.0208 944.386 37.6178C944.386 32.2147 948.921 27.8346 954.514 27.8346Z" fill="white"/>
<path d="M954.514 43.8146C960.107 43.8146 964.642 48.1947 964.642 53.5977C964.642 59.0008 960.107 63.3809 954.514 63.3809C948.921 63.3809 944.386 59.0008 944.386 53.5977C944.386 48.1947 948.921 43.8146 954.514 43.8146Z" fill="white"/>
<path d="M954.514 59.7463C960.107 59.7463 964.642 64.1263 964.642 69.5294C964.642 74.9324 960.107 79.3125 954.514 79.3125C948.921 79.3125 944.386 74.9324 944.386 69.5294C944.386 64.1263 948.921 59.7463 954.514 59.7463Z" fill="white"/>
<path d="M954.514 76.3092C960.107 76.3092 964.642 80.6893 964.642 86.0924C964.642 91.4954 960.107 95.8755 954.514 95.8755C948.921 95.8755 944.386 91.4954 944.386 86.0924C944.386 80.6893 948.921 76.3092 954.514 76.3092Z" fill="white"/>
<path d="M954.514 90.5251C960.107 90.5251 964.642 94.9051 964.642 100.308C964.642 105.711 960.107 110.091 954.514 110.091C948.921 110.091 944.386 105.711 944.386 100.308C944.386 94.9051 948.921 90.5251 954.514 90.5251Z" fill="white"/>
<path d="M954.514 101.705C960.107 101.705 964.642 106.085 964.642 111.488C964.642 116.891 960.107 121.271 954.514 121.271C948.921 121.271 944.386 116.891 944.386 111.488C944.386 106.085 948.921 101.705 954.514 101.705Z" fill="white"/>
</svg>
