<svg width="224" height="118" viewBox="0 0 224 118" fill="none" xmlns="http://www.w3.org/2000/svg">
<path d="M92.2825 32.1388C94.6749 32.1388 96.6144 34.0123 96.6144 36.3233C96.6144 38.6344 94.6749 40.5078 92.2825 40.5078C89.8901 40.5078 87.9507 38.6344 87.9507 36.3233C87.9507 34.0123 89.8901 32.1388 92.2825 32.1388Z" fill="white"/>
<path d="M93.9461 24.7668C96.3385 24.7668 98.2779 26.6402 98.2779 28.9513C98.2779 31.2623 96.3385 33.1357 93.9461 33.1357C91.5537 33.1357 89.6143 31.2623 89.6143 28.9513C89.6143 26.6402 91.5537 24.7668 93.9461 24.7668Z" fill="white"/>
<path d="M97.6321 18.2126C100.025 18.2126 101.964 20.086 101.964 22.3971C101.964 24.7081 100.025 26.5815 97.6321 26.5815C95.2397 26.5815 93.3003 24.7081 93.3003 22.3971C93.3003 20.086 95.2397 18.2126 97.6321 18.2126Z" fill="white"/>
<path d="M103.53 12.7282C105.922 12.7282 107.862 14.6017 107.862 16.9127C107.862 19.2237 105.922 21.0972 103.53 21.0972C101.138 21.0972 99.1982 19.2237 99.1982 16.9127C99.1982 14.6017 101.138 12.7282 103.53 12.7282Z" fill="white"/>
<path d="M110.672 12.7282C113.064 12.7282 115.004 14.6017 115.004 16.9127C115.004 19.2237 113.064 21.0972 110.672 21.0972C108.279 21.0972 106.34 19.2237 106.34 16.9127C106.34 14.6017 108.279 12.7282 110.672 12.7282Z" fill="white"/>
<path d="M118.415 14.7809C120.808 14.7809 122.747 16.6544 122.747 18.9654C122.747 21.2764 120.808 23.1499 118.415 23.1499C116.023 23.1499 114.083 21.2764 114.083 18.9654C114.083 16.6544 116.023 14.7809 118.415 14.7809Z" fill="white"/>
<path d="M123.712 20.5832C126.104 20.5832 128.044 22.4566 128.044 24.7677C128.044 27.0787 126.104 28.9521 123.712 28.9521C121.319 28.9521 119.38 27.0787 119.38 24.7677C119.38 22.4566 121.319 20.5832 123.712 20.5832Z" fill="white"/>
<path d="M125.039 41.3698C127.431 41.3698 129.371 43.2433 129.371 45.5543C129.371 47.8653 127.431 49.7388 125.039 49.7388C122.646 49.7388 120.707 47.8653 120.707 45.5543C120.707 43.2433 122.646 41.3698 125.039 41.3698Z" fill="white"/>
<path d="M122.003 48.0226C124.395 48.0226 126.335 49.8961 126.335 52.2071C126.335 54.5181 124.395 56.3916 122.003 56.3916C119.61 56.3916 117.671 54.5181 117.671 52.2071C117.671 49.8961 119.61 48.0226 122.003 48.0226Z" fill="white"/>
<path d="M116.375 52.2077C118.768 52.2077 120.707 54.0811 120.707 56.3922C120.707 58.7032 118.768 60.5767 116.375 60.5767C113.983 60.5767 112.043 58.7032 112.043 56.3922C112.043 54.0811 113.983 52.2077 116.375 52.2077Z" fill="white"/>
<path d="M109.211 52.2077C111.603 52.2077 113.543 54.0811 113.543 56.3922C113.543 58.7032 111.603 60.5767 109.211 60.5767C106.818 60.5767 104.879 58.7032 104.879 56.3922C104.879 54.0811 106.818 52.2077 109.211 52.2077Z" fill="white"/>
<path d="M101.964 51.3776C104.357 51.3776 106.296 53.2511 106.296 55.5621C106.296 57.8731 104.357 59.7466 101.964 59.7466C99.5718 59.7466 97.6323 57.8731 97.6323 55.5621C97.6323 53.2511 99.5718 51.3776 101.964 51.3776Z" fill="white"/>
<path d="M96.6155 46.0661C99.0079 46.0661 100.947 47.9395 100.947 50.2506C100.947 52.5616 99.0079 54.4351 96.6155 54.4351C94.2231 54.4351 92.2837 52.5616 92.2837 50.2506C92.2837 47.9395 94.2231 46.0661 96.6155 46.0661Z" fill="white"/>
<path d="M92.2825 39.528C94.6749 39.528 96.6144 41.4015 96.6144 43.7125C96.6144 46.0235 94.6749 47.897 92.2825 47.897C89.8901 47.897 87.9507 46.0235 87.9507 43.7125C87.9507 41.4015 89.8901 39.528 92.2825 39.528Z" fill="white"/>
<path d="M4.46545 52.1102C6.93166 52.1102 8.93091 54.0414 8.93091 56.4238C8.93091 58.8061 6.93166 60.7373 4.46545 60.7373C1.99925 60.7373 0 58.8061 0 56.4238C0 54.0414 1.99925 52.1102 4.46545 52.1102Z" fill="white"/>
<path d="M4.46545 44.2108C6.93166 44.2108 8.93091 46.142 8.93091 48.5243C8.93091 50.9066 6.93166 52.8379 4.46545 52.8379C1.99925 52.8379 0 50.9066 0 48.5243C0 46.142 1.99925 44.2108 4.46545 44.2108Z" fill="white"/>
<path d="M4.46545 35.9388C6.93166 35.9388 8.93091 37.8701 8.93091 40.2524C8.93091 42.6347 6.93166 44.5659 4.46545 44.5659C1.99925 44.5659 0 42.6347 0 40.2524C0 37.8701 1.99925 35.9388 4.46545 35.9388Z" fill="white"/>
<path d="M4.46545 27.9676C6.93166 27.9676 8.93091 29.8989 8.93091 32.2812C8.93091 34.6635 6.93166 36.5947 4.46545 36.5947C1.99925 36.5947 0 34.6635 0 32.2812C0 29.8989 1.99925 27.9676 4.46545 27.9676Z" fill="white"/>
<path d="M4.46545 19.7689C6.93166 19.7689 8.93091 21.7001 8.93091 24.0824C8.93091 26.4648 6.93166 28.396 4.46545 28.396C1.99925 28.396 0 26.4648 0 24.0824C0 21.7001 1.99925 19.7689 4.46545 19.7689Z" fill="white"/>
<path d="M4.46545 13.0985C6.93166 13.0985 8.93091 15.0297 8.93091 17.412C8.93091 19.7943 6.93166 21.7256 4.46545 21.7256C1.99925 21.7256 0 19.7943 0 17.412C0 15.0297 1.99925 13.0985 4.46545 13.0985Z" fill="white"/>
<path d="M11.7013 12.5677C14.1675 12.5677 16.1667 14.499 16.1667 16.8813C16.1667 19.2636 14.1675 21.1948 11.7013 21.1948C9.23509 21.1948 7.23584 19.2636 7.23584 16.8813C7.23584 14.499 9.23509 12.5677 11.7013 12.5677Z" fill="white"/>
<path d="M19.5934 13.0985C22.0596 13.0985 24.0588 15.0297 24.0588 17.412C24.0588 19.7943 22.0596 21.7256 19.5934 21.7256C17.1272 21.7256 15.1279 19.7943 15.1279 17.412C15.1279 15.0297 17.1272 13.0985 19.5934 13.0985Z" fill="white"/>
<path d="M26.9542 15.4554C29.4204 15.4554 31.4197 17.3867 31.4197 19.769C31.4197 22.1513 29.4204 24.0825 26.9542 24.0825C24.488 24.0825 22.4888 22.1513 22.4888 19.769C22.4888 17.3867 24.488 15.4554 26.9542 15.4554Z" fill="white"/>
<path d="M30.2316 21.7533C32.6978 21.7533 34.697 23.6845 34.697 26.0668C34.697 28.4491 32.6978 30.3804 30.2316 30.3804C27.7654 30.3804 25.7661 28.4491 25.7661 26.0668C25.7661 23.6845 27.7654 21.7533 30.2316 21.7533Z" fill="white"/>
<path d="M29.5646 29.3436C32.0308 29.3436 34.03 31.2748 34.03 33.6572C34.03 36.0395 32.0308 37.9707 29.5646 37.9707C27.0984 37.9707 25.0991 36.0395 25.0991 33.6572C25.0991 31.2748 27.0984 29.3436 29.5646 29.3436Z" fill="white"/>
<path d="M24.0597 34.6937C26.5259 34.6937 28.5251 36.6249 28.5251 39.0072C28.5251 41.3896 26.5259 43.3208 24.0597 43.3208C21.5935 43.3208 19.5942 41.3896 19.5942 39.0072C19.5942 36.6249 21.5935 34.6937 24.0597 34.6937Z" fill="white"/>
<path d="M16.1666 35.5838C18.6328 35.5838 20.6321 37.5151 20.6321 39.8974C20.6321 42.2797 18.6328 44.2109 16.1666 44.2109C13.7004 44.2109 11.7012 42.2797 11.7012 39.8974C11.7012 37.5151 13.7004 35.5838 16.1666 35.5838Z" fill="white"/>
<path d="M9.34778 34.6937C11.814 34.6937 13.8132 36.6249 13.8132 39.0072C13.8132 41.3896 11.814 43.3208 9.34778 43.3208C6.88158 43.3208 4.88232 41.3896 4.88232 39.0072C4.88232 36.6249 6.88158 34.6937 9.34778 34.6937Z" fill="white"/>
<path d="M136.724 12.4927C139.209 12.4927 141.224 14.4389 141.224 16.8396C141.224 19.2403 139.209 21.1865 136.724 21.1865C134.238 21.1865 132.224 19.2403 132.224 16.8396C132.224 14.4389 134.238 12.4927 136.724 12.4927Z" fill="white"/>
<path d="M139.344 19.1333C141.83 19.1333 143.844 21.0795 143.844 23.4802C143.844 25.881 141.83 27.8271 139.344 27.8271C136.859 27.8271 134.844 25.881 134.844 23.4802C134.844 21.0795 136.859 19.1333 139.344 19.1333Z" fill="white"/>
<path d="M142.531 25.5332C145.016 25.5332 147.031 27.4794 147.031 29.8801C147.031 32.2809 145.016 34.2271 142.531 34.2271C140.045 34.2271 138.031 32.2809 138.031 29.8801C138.031 27.4794 140.045 25.5332 142.531 25.5332Z" fill="white"/>
<path d="M145.724 31.5352C148.209 31.5352 150.224 33.4813 150.224 35.8821C150.224 38.2828 148.209 40.229 145.724 40.229C143.239 40.229 141.224 38.2828 141.224 35.8821C141.224 33.4813 143.239 31.5352 145.724 31.5352Z" fill="white"/>
<path d="M165.919 12.4927C168.404 12.4927 170.419 14.4389 170.419 16.8396C170.419 19.2403 168.404 21.1865 165.919 21.1865C163.434 21.1865 161.419 19.2403 161.419 16.8396C161.419 14.4389 163.434 12.4927 165.919 12.4927Z" fill="white"/>
<path d="M163.31 19.1333C165.795 19.1333 167.81 21.0795 167.81 23.4802C167.81 25.881 165.795 27.8271 163.31 27.8271C160.824 27.8271 158.81 25.881 158.81 23.4802C158.81 21.0795 160.824 19.1333 163.31 19.1333Z" fill="white"/>
<path d="M160.193 25.5322C162.679 25.5322 164.693 27.4784 164.693 29.8791C164.693 32.2799 162.679 34.2261 160.193 34.2261C157.708 34.2261 155.693 32.2799 155.693 29.8791C155.693 27.4784 157.708 25.5322 160.193 25.5322Z" fill="white"/>
<path d="M158.026 32.5532C160.511 32.5532 162.526 34.4994 162.526 36.9001C162.526 39.3009 160.511 41.2471 158.026 41.2471C155.541 41.2471 153.526 39.3009 153.526 36.9001C153.526 34.4994 155.541 32.5532 158.026 32.5532Z" fill="white"/>
<path d="M154.31 39.7178C156.795 39.7178 158.81 41.664 158.81 44.0647C158.81 46.4654 156.795 48.4116 154.31 48.4116C151.824 48.4116 149.81 46.4654 149.81 44.0647C149.81 41.664 151.824 39.7178 154.31 39.7178Z" fill="white"/>
<path d="M151.531 46.3804C154.016 46.3804 156.031 48.3266 156.031 50.7273C156.031 53.128 154.016 55.0742 151.531 55.0742C149.045 55.0742 147.031 53.128 147.031 50.7273C147.031 48.3266 149.045 46.3804 151.531 46.3804Z" fill="white"/>
<path d="M147.031 52.1182C149.517 52.1182 151.531 54.0643 151.531 56.4651C151.531 58.8658 149.517 60.812 147.031 60.812C144.546 60.812 142.531 58.8658 142.531 56.4651C142.531 54.0643 144.546 52.1182 147.031 52.1182Z" fill="white"/>
<path d="M140.428 52.1187C142.914 52.1187 144.928 54.0648 144.928 56.4656C144.928 58.8663 142.914 60.8125 140.428 60.8125C137.943 60.8125 135.928 58.8663 135.928 56.4656C135.928 54.0648 137.943 52.1187 140.428 52.1187Z" fill="white"/>
<path d="M149.429 38.6245C151.914 38.6245 153.929 40.5707 153.929 42.9714C153.929 45.3722 151.914 47.3184 149.429 47.3184C146.944 47.3184 144.929 45.3722 144.929 42.9714C144.929 40.5707 146.944 38.6245 149.429 38.6245Z" fill="white"/>
<path d="M62.9772 33.9754C65.4903 33.9754 67.5275 35.9434 67.5275 38.371C67.5275 40.7986 65.4903 42.7666 62.9772 42.7666C60.464 42.7666 58.4268 40.7986 58.4268 38.371C58.4268 35.9434 60.464 33.9754 62.9772 33.9754Z" fill="white"/>
<path d="M47.6578 51.7151C50.1709 51.7151 52.2082 53.6831 52.2082 56.1107C52.2082 58.5384 50.1709 60.5063 47.6578 60.5063C45.1447 60.5063 43.1074 58.5384 43.1074 56.1107C43.1074 53.6831 45.1447 51.7151 47.6578 51.7151Z" fill="white"/>
<path d="M53.7799 45.9295C56.293 45.9295 58.3303 47.8975 58.3303 50.3251C58.3303 52.7527 56.293 54.7207 53.7799 54.7207C51.2668 54.7207 49.2295 52.7527 49.2295 50.3251C49.2295 47.8975 51.2668 45.9295 53.7799 45.9295Z" fill="white"/>
<path d="M58.3312 40.4402C60.8443 40.4402 62.8816 42.4082 62.8816 44.8358C62.8816 47.2635 60.8443 49.2314 58.3312 49.2314C55.818 49.2314 53.7808 47.2635 53.7808 44.8358C53.7808 42.4082 55.818 40.4402 58.3312 40.4402Z" fill="white"/>
<path d="M67.9874 27.5765C70.5005 27.5765 72.5378 29.5444 72.5378 31.9721C72.5378 34.3997 70.5005 36.3677 67.9874 36.3677C65.4743 36.3677 63.437 34.3997 63.437 31.9721C63.437 29.5444 65.4743 27.5765 67.9874 27.5765Z" fill="white"/>
<path d="M72.0773 21.5887C74.5904 21.5887 76.6276 23.5567 76.6276 25.9843C76.6276 28.4119 74.5904 30.3799 72.0773 30.3799C69.5641 30.3799 67.5269 28.4119 67.5269 25.9843C67.5269 23.5567 69.5641 21.5887 72.0773 21.5887Z" fill="white"/>
<path d="M77.129 12.7972C79.6421 12.7972 81.6794 14.7651 81.6794 17.1928C81.6794 19.6204 79.6421 21.5884 77.129 21.5884C74.6159 21.5884 72.5786 19.6204 72.5786 17.1928C72.5786 14.7651 74.6159 12.7972 77.129 12.7972Z" fill="white"/>
<path d="M76.6275 17.1932C79.1407 17.1932 81.1779 19.1611 81.1779 21.5888C81.1779 24.0164 79.1407 25.9844 76.6275 25.9844C74.1144 25.9844 72.0771 24.0164 72.0771 21.5888C72.0771 19.1611 74.1144 17.1932 76.6275 17.1932Z" fill="white"/>
<path d="M77.129 23.2772C79.6421 23.2772 81.6794 25.2451 81.6794 27.6728C81.6794 30.1004 79.6421 32.0684 77.129 32.0684C74.6159 32.0684 72.5786 30.1004 72.5786 27.6728C72.5786 25.2451 74.6159 23.2772 77.129 23.2772Z" fill="white"/>
<path d="M77.129 30.3797C79.6421 30.3797 81.6794 32.3477 81.6794 34.7753C81.6794 37.2029 79.6421 39.1709 77.129 39.1709C74.6159 39.1709 72.5786 37.2029 72.5786 34.7753C72.5786 32.3477 74.6159 30.3797 77.129 30.3797Z" fill="white"/>
<path d="M77.129 38.115C79.6421 38.115 81.6794 40.083 81.6794 42.5106C81.6794 44.9383 79.6421 46.9062 77.129 46.9062C74.6159 46.9062 72.5786 44.9383 72.5786 42.5106C72.5786 40.083 74.6159 38.115 77.129 38.115Z" fill="white"/>
<path d="M77.129 45.3128C79.6421 45.3128 81.6794 47.2808 81.6794 49.7084C81.6794 52.136 79.6421 54.104 77.129 54.104C74.6159 54.104 72.5786 52.136 72.5786 49.7084C72.5786 47.2808 74.6159 45.3128 77.129 45.3128Z" fill="white"/>
<path d="M77.129 51.7151C79.6421 51.7151 81.6794 53.6831 81.6794 56.1107C81.6794 58.5384 79.6421 60.5063 77.129 60.5063C74.6159 60.5063 72.5786 58.5384 72.5786 56.1107C72.5786 53.6831 74.6159 51.7151 77.129 51.7151Z" fill="white"/>
<path d="M47.6578 44.0267C50.1709 44.0267 52.2082 45.9946 52.2082 48.4223C52.2082 50.8499 50.1709 52.8179 47.6578 52.8179C45.1447 52.8179 43.1074 50.8499 43.1074 48.4223C43.1074 45.9946 45.1447 44.0267 47.6578 44.0267Z" fill="white"/>
<path d="M47.6578 36.3685C50.1709 36.3685 52.2082 38.3364 52.2082 40.7641C52.2082 43.1917 50.1709 45.1597 47.6578 45.1597C45.1447 45.1597 43.1074 43.1917 43.1074 40.7641C43.1074 38.3364 45.1447 36.3685 47.6578 36.3685Z" fill="white"/>
<path d="M47.6578 28.3851C50.1709 28.3851 52.2082 30.353 52.2082 32.7807C52.2082 35.2083 50.1709 37.1763 47.6578 37.1763C45.1447 37.1763 43.1074 35.2083 43.1074 32.7807C43.1074 30.353 45.1447 28.3851 47.6578 28.3851Z" fill="white"/>
<path d="M47.6578 20.5315C50.1709 20.5315 52.2082 22.4995 52.2082 24.9271C52.2082 27.3548 50.1709 29.3228 47.6578 29.3228C45.1447 29.3228 43.1074 27.3548 43.1074 24.9271C43.1074 22.4995 45.1447 20.5315 47.6578 20.5315Z" fill="white"/>
<path d="M47.6578 12.7972C50.1709 12.7972 52.2082 14.7651 52.2082 17.1928C52.2082 19.6204 50.1709 21.5884 47.6578 21.5884C45.1447 21.5884 43.1074 19.6204 43.1074 17.1928C43.1074 14.7651 45.1447 12.7972 47.6578 12.7972Z" fill="white"/>
<path d="M196.015 33.8159C198.573 33.8159 200.646 35.8184 200.646 38.2886C200.646 40.7588 198.573 42.7612 196.015 42.7612C193.458 42.7612 191.385 40.7588 191.385 38.2886C191.385 35.8184 193.458 33.8159 196.015 33.8159Z" fill="white"/>
<path d="M180.428 51.8672C182.985 51.8672 185.058 53.8697 185.058 56.3398C185.058 58.81 182.985 60.8125 180.428 60.8125C177.87 60.8125 175.797 58.81 175.797 56.3398C175.797 53.8697 177.87 51.8672 180.428 51.8672Z" fill="white"/>
<path d="M186.657 45.98C189.214 45.98 191.287 47.9824 191.287 50.4526C191.287 52.9228 189.214 54.9253 186.657 54.9253C184.1 54.9253 182.027 52.9228 182.027 50.4526C182.027 47.9824 184.1 45.98 186.657 45.98Z" fill="white"/>
<path d="M191.287 40.395C193.845 40.395 195.918 42.3975 195.918 44.8677C195.918 47.3379 193.845 49.3403 191.287 49.3403C188.73 49.3403 186.657 47.3379 186.657 44.8677C186.657 42.3975 188.73 40.395 191.287 40.395Z" fill="white"/>
<path d="M201.114 27.3057C203.671 27.3057 205.744 29.3081 205.744 31.7783C205.744 34.2485 203.671 36.251 201.114 36.251C198.556 36.251 196.483 34.2485 196.483 31.7783C196.483 29.3081 198.556 27.3057 201.114 27.3057Z" fill="white"/>
<path d="M205.275 21.2134C207.832 21.2134 209.905 23.2158 209.905 25.686C209.905 28.1562 207.832 30.1587 205.275 30.1587C202.718 30.1587 200.645 28.1562 200.645 25.686C200.645 23.2158 202.718 21.2134 205.275 21.2134Z" fill="white"/>
<path d="M210.415 12.2676C212.972 12.2676 215.045 14.27 215.045 16.7402C215.045 19.2104 212.972 21.2129 210.415 21.2129C207.858 21.2129 205.785 19.2104 205.785 16.7402C205.785 14.27 207.858 12.2676 210.415 12.2676Z" fill="white"/>
<path d="M209.905 16.7407C212.462 16.7407 214.535 18.7432 214.535 21.2134C214.535 23.6836 212.462 25.686 209.905 25.686C207.348 25.686 205.275 23.6836 205.275 21.2134C205.275 18.7432 207.348 16.7407 209.905 16.7407Z" fill="white"/>
<path d="M210.415 22.9316C212.972 22.9316 215.045 24.9341 215.045 27.4043C215.045 29.8745 212.972 31.877 210.415 31.877C207.858 31.877 205.785 29.8745 205.785 27.4043C205.785 24.9341 207.858 22.9316 210.415 22.9316Z" fill="white"/>
<path d="M210.415 30.1582C212.972 30.1582 215.045 32.1607 215.045 34.6309C215.045 37.101 212.972 39.1035 210.415 39.1035C207.858 39.1035 205.785 37.101 205.785 34.6309C205.785 32.1607 207.858 30.1582 210.415 30.1582Z" fill="white"/>
<path d="M210.415 38.0288C212.972 38.0288 215.045 40.0313 215.045 42.5015C215.045 44.9716 212.972 46.9741 210.415 46.9741C207.858 46.9741 205.785 44.9716 205.785 42.5015C205.785 40.0313 207.858 38.0288 210.415 38.0288Z" fill="white"/>
<path d="M210.415 45.3525C212.972 45.3525 215.045 47.355 215.045 49.8252C215.045 52.2954 212.972 54.2979 210.415 54.2979C207.858 54.2979 205.785 52.2954 205.785 49.8252C205.785 47.355 207.858 45.3525 210.415 45.3525Z" fill="white"/>
<path d="M210.415 51.8672C212.972 51.8672 215.045 53.8697 215.045 56.3398C215.045 58.81 212.972 60.8125 210.415 60.8125C207.858 60.8125 205.785 58.81 205.785 56.3398C205.785 53.8697 207.858 51.8672 210.415 51.8672Z" fill="white"/>
<path d="M180.428 44.0444C182.985 44.0444 185.058 46.0469 185.058 48.5171C185.058 50.9873 182.985 52.9897 180.428 52.9897C177.87 52.9897 175.797 50.9873 175.797 48.5171C175.797 46.0469 177.87 44.0444 180.428 44.0444Z" fill="white"/>
<path d="M180.428 36.2519C182.985 36.2519 185.058 38.2544 185.058 40.7246C185.058 43.1948 182.985 45.1973 180.428 45.1973C177.87 45.1973 175.797 43.1948 175.797 40.7246C175.797 38.2544 177.87 36.2519 180.428 36.2519Z" fill="white"/>
<path d="M180.428 28.1284C182.985 28.1284 185.058 30.1309 185.058 32.6011C185.058 35.0713 182.985 37.0737 180.428 37.0737C177.87 37.0737 175.797 35.0713 175.797 32.6011C175.797 30.1309 177.87 28.1284 180.428 28.1284Z" fill="white"/>
<path d="M180.428 20.1372C182.985 20.1372 185.058 22.1397 185.058 24.6099C185.058 27.08 182.985 29.0825 180.428 29.0825C177.87 29.0825 175.797 27.08 175.797 24.6099C175.797 22.1397 177.87 20.1372 180.428 20.1372Z" fill="white"/>
<path d="M180.428 12.2676C182.985 12.2676 185.058 14.27 185.058 16.7402C185.058 19.2104 182.985 21.2129 180.428 21.2129C177.87 21.2129 175.797 19.2104 175.797 16.7402C175.797 14.27 177.87 12.2676 180.428 12.2676Z" fill="white"/>
<path d="M187.6 -1.33514e-05C190.157 -1.33514e-05 192.23 2.00247 192.23 4.47265C192.23 6.94283 190.157 8.94531 187.6 8.94531C185.043 8.94531 182.97 6.94283 182.97 4.47265C182.97 2.00247 185.043 -1.33514e-05 187.6 -1.33514e-05Z" fill="white"/>
<path d="M194.396 3.32128C196.953 3.32128 199.026 5.32375 199.026 7.79394C199.026 10.2641 196.953 12.2666 194.396 12.2666C191.839 12.2666 189.766 10.2641 189.766 7.79394C189.766 5.32375 191.839 3.32128 194.396 3.32128Z" fill="white"/>
<path d="M201.155 -1.33514e-05C203.712 -1.33514e-05 205.785 2.00247 205.785 4.47265C205.785 6.94283 203.712 8.94531 201.155 8.94531C198.598 8.94531 196.525 6.94283 196.525 4.47265C196.525 2.00247 198.598 -1.33514e-05 201.155 -1.33514e-05Z" fill="white"/>
<path d="M149.118 108.488C151.732 108.488 153.851 110.535 153.851 113.06C153.851 115.585 151.732 117.632 149.118 117.632C146.504 117.632 144.385 115.585 144.385 113.06C144.385 110.535 146.504 108.488 149.118 108.488Z" fill="white"/>
<path d="M149.035 100.492C151.649 100.492 153.768 102.539 153.768 105.064C153.768 107.589 151.649 109.636 149.035 109.636C146.421 109.636 144.302 107.589 144.302 105.064C144.302 102.539 146.421 100.492 149.035 100.492Z" fill="white"/>
<path d="M149.035 92.5248C151.649 92.5248 153.768 94.5718 153.768 97.0969C153.768 99.622 151.649 101.669 149.035 101.669C146.421 101.669 144.302 99.622 144.302 97.0969C144.302 94.5718 146.421 92.5248 149.035 92.5248Z" fill="white"/>
<path d="M149.035 84.3563C151.649 84.3563 153.768 86.4033 153.768 88.9284C153.768 91.4535 151.649 93.5005 149.035 93.5005C146.421 93.5005 144.302 91.4535 144.302 88.9284C144.302 86.4033 146.421 84.3563 149.035 84.3563Z" fill="white"/>
<path d="M170.179 75.684C172.793 75.684 174.912 77.731 174.912 80.256C174.912 82.7811 172.793 84.8281 170.179 84.8281C167.565 84.8281 165.446 82.7811 165.446 80.256C165.446 77.731 167.565 75.684 170.179 75.684Z" fill="white"/>
<path d="M174.913 69.871C177.527 69.871 179.646 71.918 179.646 74.4431C179.646 76.9681 177.527 79.0151 174.913 79.0151C172.299 79.0151 170.18 76.9681 170.18 74.4431C170.18 71.918 172.299 69.871 174.913 69.871Z" fill="white"/>
<path d="M153.851 87.9535C156.465 87.9535 158.584 90.0005 158.584 92.5256C158.584 95.0507 156.465 97.0977 153.851 97.0977C151.237 97.0977 149.118 95.0507 149.118 92.5256C149.118 90.0005 151.237 87.9535 153.851 87.9535Z" fill="white"/>
<path d="M160.628 87.9535C163.242 87.9535 165.361 90.0005 165.361 92.5256C165.361 95.0507 163.242 97.0977 160.628 97.0977C158.014 97.0977 155.895 95.0507 155.895 92.5256C155.895 90.0005 158.014 87.9535 160.628 87.9535Z" fill="white"/>
<path d="M165.362 81.725C167.976 81.725 170.095 83.772 170.095 86.2971C170.095 88.8222 167.976 90.8691 165.362 90.8691C162.747 90.8691 160.628 88.8222 160.628 86.2971C160.628 83.772 162.747 81.725 165.362 81.725Z" fill="white"/>
<path d="M163.317 92.6854C165.931 92.6854 168.05 94.7324 168.05 97.2575C168.05 99.7826 165.931 101.83 163.317 101.83C160.703 101.83 158.584 99.7826 158.584 97.2575C158.584 94.7324 160.703 92.6854 163.317 92.6854Z" fill="white"/>
<path d="M166.995 98.2474C169.609 98.2474 171.728 100.294 171.728 102.82C171.728 105.345 169.609 107.392 166.995 107.392C164.381 107.392 162.262 105.345 162.262 102.82C162.262 100.294 164.381 98.2474 166.995 98.2474Z" fill="white"/>
<path d="M171.728 103.917C174.342 103.917 176.461 105.964 176.461 108.489C176.461 111.015 174.342 113.062 171.728 113.062C169.114 113.062 166.995 111.015 166.995 108.489C166.995 105.964 169.114 103.917 171.728 103.917Z" fill="white"/>
<path d="M176.462 108.489C179.076 108.489 181.195 110.536 181.195 113.061C181.195 115.586 179.076 117.633 176.462 117.633C173.848 117.633 171.729 115.586 171.729 113.061C171.729 110.536 173.848 108.489 176.462 108.489Z" fill="white"/>
<path d="M149.035 76.3182C151.649 76.3182 153.768 78.3652 153.768 80.8903C153.768 83.4154 151.649 85.4624 149.035 85.4624C146.421 85.4624 144.302 83.4154 144.302 80.8903C144.302 78.3652 146.421 76.3182 149.035 76.3182Z" fill="white"/>
<path d="M149.035 69.7714C151.649 69.7714 153.768 71.8184 153.768 74.3434C153.768 76.8685 151.649 78.9155 149.035 78.9155C146.421 78.9155 144.302 76.8685 144.302 74.3434C144.302 71.8184 146.421 69.7714 149.035 69.7714Z" fill="white"/>
<path d="M108.432 69.8872C110.848 69.8872 112.806 71.7786 112.806 74.1118C112.806 76.445 110.848 78.3364 108.432 78.3364C106.017 78.3364 104.059 76.445 104.059 74.1118C104.059 71.7786 106.017 69.8872 108.432 69.8872Z" fill="white"/>
<path d="M108.432 76.3413C110.848 76.3413 112.806 78.2327 112.806 80.5659C112.806 82.8991 110.848 84.7905 108.432 84.7905C106.017 84.7905 104.059 82.8991 104.059 80.5659C104.059 78.2327 106.017 76.3413 108.432 76.3413Z" fill="white"/>
<path d="M108.432 83.2094C110.848 83.2094 112.806 85.1009 112.806 87.4341C112.806 89.7673 110.848 91.6587 108.432 91.6587C106.017 91.6587 104.059 89.7673 104.059 87.4341C104.059 85.1009 106.017 83.2094 108.432 83.2094Z" fill="white"/>
<path d="M110.714 89.3832C113.129 89.3832 115.087 91.2747 115.087 93.6079C115.087 95.9411 113.129 97.8325 110.714 97.8325C108.298 97.8325 106.34 95.9411 106.34 93.6079C106.34 91.2747 108.298 89.3832 110.714 89.3832Z" fill="white"/>
<path d="M117.179 92.6196C119.594 92.6196 121.552 94.511 121.552 96.8442C121.552 99.1774 119.594 101.069 117.179 101.069C114.764 101.069 112.806 99.1774 112.806 96.8442C112.806 94.511 114.764 92.6196 117.179 92.6196Z" fill="white"/>
<path d="M124.764 92.6811C127.179 92.6811 129.137 94.5725 129.137 96.9057C129.137 99.2389 127.179 101.13 124.764 101.13C122.349 101.13 120.391 99.2389 120.391 96.9057C120.391 94.5725 122.349 92.6811 124.764 92.6811Z" fill="white"/>
<path d="M132.238 90.1479C134.654 90.1479 136.612 92.0393 136.612 94.3725C136.612 96.7057 134.654 98.5972 132.238 98.5972C129.823 98.5972 127.865 96.7057 127.865 94.3725C127.865 92.0393 129.823 90.1479 132.238 90.1479Z" fill="white"/>
<path d="M132.238 83.2104C134.654 83.2104 136.612 85.1018 136.612 87.435C136.612 89.7682 134.654 91.6597 132.238 91.6597C129.823 91.6597 127.865 89.7682 127.865 87.435C127.865 85.1018 129.823 83.2104 132.238 83.2104Z" fill="white"/>
<path d="M132.238 76.3413C134.654 76.3413 136.612 78.2327 136.612 80.5659C136.612 82.8991 134.654 84.7905 132.238 84.7905C129.823 84.7905 127.865 82.8991 127.865 80.5659C127.865 78.2327 129.823 76.3413 132.238 76.3413Z" fill="white"/>
<path d="M132.239 69.8881C134.654 69.8881 136.613 71.7796 136.613 74.1128C136.613 76.446 134.654 78.3374 132.239 78.3374C129.824 78.3374 127.866 76.446 127.866 74.1128C127.866 71.7796 129.824 69.8881 132.239 69.8881Z" fill="white"/>
<path d="M132.238 96.1162C134.654 96.1162 136.612 98.0076 136.612 100.341C136.612 102.674 134.654 104.565 132.238 104.565C129.823 104.565 127.865 102.674 127.865 100.341C127.865 98.0076 129.823 96.1162 132.238 96.1162Z" fill="white"/>
<path d="M132.238 102.822C134.654 102.822 136.612 104.713 136.612 107.046C136.612 109.38 134.654 111.271 132.238 111.271C129.823 111.271 127.865 109.38 127.865 107.046C127.865 104.713 129.823 102.822 132.238 102.822Z" fill="white"/>
<path d="M132.238 109.021C134.654 109.021 136.612 110.912 136.612 113.246C136.612 115.579 134.654 117.47 132.238 117.47C129.823 117.47 127.865 115.579 127.865 113.246C127.865 110.912 129.823 109.021 132.238 109.021Z" fill="white"/>
<path d="M67.9481 69.8876C70.3866 69.8876 72.3634 71.7972 72.3634 74.1528C72.3634 76.5084 70.3866 78.418 67.9481 78.418C65.5095 78.418 63.5327 76.5084 63.5327 74.1528C63.5327 71.7972 65.5095 69.8876 67.9481 69.8876Z" fill="white"/>
<path d="M70.5194 76.4028C72.9579 76.4028 74.9347 78.3124 74.9347 80.6679C74.9347 83.0235 72.9579 84.9331 70.5194 84.9331C68.0808 84.9331 66.104 83.0235 66.104 80.6679C66.104 78.3124 68.0808 76.4028 70.5194 76.4028Z" fill="white"/>
<path d="M73.6453 82.6831C76.0839 82.6831 78.0607 84.5926 78.0607 86.9482C78.0607 89.3038 76.0839 91.2134 73.6453 91.2134C71.2068 91.2134 69.23 89.3038 69.23 86.9482C69.23 84.5926 71.2068 82.6831 73.6453 82.6831Z" fill="white"/>
<path d="M76.7786 88.5717C79.2172 88.5717 81.194 90.4813 81.194 92.8369C81.194 95.1925 79.2172 97.1021 76.7786 97.1021C74.3401 97.1021 72.3633 95.1925 72.3633 92.8369C72.3633 90.4813 74.3401 88.5717 76.7786 88.5717Z" fill="white"/>
<path d="M96.5946 69.8876C99.0331 69.8876 101.01 71.7972 101.01 74.1528C101.01 76.5084 99.0331 78.418 96.5946 78.418C94.156 78.418 92.1792 76.5084 92.1792 74.1528C92.1792 71.7972 94.156 69.8876 96.5946 69.8876Z" fill="white"/>
<path d="M94.0325 76.4033C96.4711 76.4033 98.4479 78.3129 98.4479 80.6684C98.4479 83.024 96.4711 84.9336 94.0325 84.9336C91.594 84.9336 89.6172 83.024 89.6172 80.6684C89.6172 78.3129 91.594 76.4033 94.0325 76.4033Z" fill="white"/>
<path d="M90.9759 82.6816C93.4144 82.6816 95.3913 84.5912 95.3913 86.9468C95.3913 89.3023 93.4144 91.2119 90.9759 91.2119C88.5374 91.2119 86.5605 89.3023 86.5605 86.9468C86.5605 84.5912 88.5374 82.6816 90.9759 82.6816Z" fill="white"/>
<path d="M88.8494 89.5703C91.288 89.5703 93.2648 91.4798 93.2648 93.8354C93.2648 96.191 91.288 98.1006 88.8494 98.1006C86.4109 98.1006 84.4341 96.191 84.4341 93.8354C84.4341 91.4798 86.4109 89.5703 88.8494 89.5703Z" fill="white"/>
<path d="M85.202 96.6005C87.6405 96.6005 89.6173 98.5101 89.6173 100.866C89.6173 103.221 87.6405 105.131 85.202 105.131C82.7634 105.131 80.7866 103.221 80.7866 100.866C80.7866 98.5101 82.7634 96.6005 85.202 96.6005Z" fill="white"/>
<path d="M82.4764 103.138C84.9149 103.138 86.8918 105.047 86.8918 107.403C86.8918 109.758 84.9149 111.668 82.4764 111.668C80.0379 111.668 78.061 109.758 78.061 107.403C78.061 105.047 80.0379 103.138 82.4764 103.138Z" fill="white"/>
<path d="M78.0614 108.768C80.4999 108.768 82.4767 110.678 82.4767 113.033C82.4767 115.389 80.4999 117.298 78.0614 117.298C75.6228 117.298 73.646 115.389 73.646 113.033C73.646 110.678 75.6228 108.768 78.0614 108.768Z" fill="white"/>
<path d="M71.5838 108.769C74.0224 108.769 75.9992 110.678 75.9992 113.034C75.9992 115.389 74.0224 117.299 71.5838 117.299C69.1453 117.299 67.1685 115.389 67.1685 113.034C67.1685 110.678 69.1453 108.769 71.5838 108.769Z" fill="white"/>
<path d="M80.4144 95.5278C82.8529 95.5278 84.8297 97.4374 84.8297 99.7929C84.8297 102.149 82.8529 104.058 80.4144 104.058C77.9758 104.058 75.999 102.149 75.999 99.7929C75.999 97.4374 77.9758 95.5278 80.4144 95.5278Z" fill="white"/>
<path d="M34.6281 89.2398C37.005 89.2398 38.9319 91.1012 38.9319 93.3972C38.9319 95.6933 37.005 97.5547 34.6281 97.5547C32.2511 97.5547 30.3242 95.6933 30.3242 93.3972C30.3242 91.1012 32.2511 89.2398 34.6281 89.2398Z" fill="white"/>
<path d="M40.3244 84.7212C42.7013 84.7212 44.6282 86.5826 44.6282 88.8787C44.6282 91.1748 42.7013 93.0361 40.3244 93.0361C37.9474 93.0361 36.0205 91.1748 36.0205 88.8787C36.0205 86.5826 37.9474 84.7212 40.3244 84.7212Z" fill="white"/>
<path d="M45.1198 79.5616C47.4967 79.5616 49.4236 81.4229 49.4236 83.719C49.4236 86.0151 47.4967 87.8765 45.1198 87.8765C42.7428 87.8765 40.8159 86.0151 40.8159 83.719C40.8159 81.4229 42.7428 79.5616 45.1198 79.5616Z" fill="white"/>
<path d="M49.9069 74.2105C52.2838 74.2105 54.2107 76.0719 54.2107 78.3679C54.2107 80.664 52.2838 82.5254 49.9069 82.5254C47.5299 82.5254 45.603 80.664 45.603 78.3679C45.603 76.0719 47.5299 74.2105 49.9069 74.2105Z" fill="white"/>
<path d="M53.7282 69.9537C56.1051 69.9537 58.032 71.815 58.032 74.1111C58.032 76.4072 56.1051 78.2686 53.7282 78.2686C51.3512 78.2686 49.4243 76.4072 49.4243 74.1111C49.4243 71.815 51.3512 69.9537 53.7282 69.9537Z" fill="white"/>
<path d="M39.6427 92.4244C42.0197 92.4244 43.9466 94.2857 43.9466 96.5818C43.9466 98.8779 42.0197 100.739 39.6427 100.739C37.2658 100.739 35.3389 98.8779 35.3389 96.5818C35.3389 94.2857 37.2658 92.4244 39.6427 92.4244Z" fill="white"/>
<path d="M43.2355 98.5157C45.6124 98.5157 47.5393 100.377 47.5393 102.673C47.5393 104.969 45.6124 106.831 43.2355 106.831C40.8585 106.831 38.9316 104.969 38.9316 102.673C38.9316 100.377 40.8585 98.5157 43.2355 98.5157Z" fill="white"/>
<path d="M47.5397 103.571C49.9166 103.571 51.8435 105.432 51.8435 107.728C51.8435 110.024 49.9166 111.886 47.5397 111.886C45.1627 111.886 43.2358 110.024 43.2358 107.728C43.2358 105.432 45.1627 103.571 47.5397 103.571Z" fill="white"/>
<path d="M51.8434 109.284C54.2203 109.284 56.1472 111.146 56.1472 113.442C56.1472 115.738 54.2203 117.599 51.8434 117.599C49.4664 117.599 47.5396 115.738 47.5396 113.442C47.5396 111.146 49.4664 109.284 51.8434 109.284Z" fill="white"/>
<path d="M23.4037 89.2393C21.0267 89.2393 19.0998 91.1007 19.0998 93.3968C19.0998 95.6928 21.0267 97.5542 23.4037 97.5542C25.7806 97.5542 27.7075 95.6928 27.7075 93.3968C27.7075 91.1007 25.7806 89.2393 23.4037 89.2393Z" fill="white"/>
<path d="M17.7069 84.7203C15.3299 84.7203 13.403 86.5816 13.403 88.8777C13.403 91.1738 15.3299 93.0352 17.7069 93.0352C20.0838 93.0352 22.0107 91.1738 22.0107 88.8777C22.0107 86.5816 20.0838 84.7203 17.7069 84.7203Z" fill="white"/>
<path d="M12.912 79.5601C10.535 79.5601 8.60812 81.4215 8.60812 83.7176C8.60812 86.0136 10.535 87.875 12.912 87.875C15.2889 87.875 17.2158 86.0136 17.2158 83.7176C17.2158 81.4215 15.2889 79.5601 12.912 79.5601Z" fill="white"/>
<path d="M8.12437 74.21C5.74743 74.21 3.82053 76.0714 3.82053 78.3675C3.82053 80.6636 5.74743 82.5249 8.12437 82.5249C10.5013 82.5249 12.4282 80.6636 12.4282 78.3675C12.4282 76.0714 10.5013 74.21 8.12437 74.21Z" fill="white"/>
<path d="M4.30406 69.9522C1.92711 69.9522 0.000214577 71.8136 0.000214577 74.1096C0.000214577 76.4057 1.92711 78.2671 4.30406 78.2671C6.68101 78.2671 8.60791 76.4057 8.60791 74.1096C8.60791 71.8136 6.68101 69.9522 4.30406 69.9522Z" fill="white"/>
<path d="M18.3895 92.4234C16.0126 92.4234 14.0857 94.2847 14.0857 96.5808C14.0857 98.8769 16.0126 100.738 18.3895 100.738C20.7665 100.738 22.6934 98.8769 22.6934 96.5808C22.6934 94.2847 20.7665 92.4234 18.3895 92.4234Z" fill="white"/>
<path d="M14.7958 98.5147C12.4188 98.5147 10.4919 100.376 10.4919 102.672C10.4919 104.968 12.4188 106.83 14.7958 106.83C17.1727 106.83 19.0996 104.968 19.0996 102.672C19.0996 100.376 17.1727 98.5147 14.7958 98.5147Z" fill="white"/>
<path d="M10.4911 103.569C8.11412 103.569 6.18723 105.431 6.18723 107.727C6.18723 110.023 8.11412 111.884 10.4911 111.884C12.868 111.884 14.7949 110.023 14.7949 107.727C14.7949 105.431 12.868 103.569 10.4911 103.569Z" fill="white"/>
<path d="M6.18736 109.283C3.81041 109.283 1.88352 111.145 1.88352 113.441C1.88352 115.737 3.81041 117.598 6.18736 117.598C8.56431 117.598 10.4912 115.737 10.4912 113.441C10.4912 111.145 8.56431 109.283 6.18736 109.283Z" fill="white"/>
<path d="M28.5392 79.3516C30.9161 79.3516 32.843 81.213 32.843 83.5091C32.843 85.8052 30.9161 87.6665 28.5392 87.6665C26.1622 87.6665 24.2354 85.8052 24.2354 83.5091C24.2354 81.213 26.1622 79.3516 28.5392 79.3516Z" fill="white"/>
<path d="M28.5392 72.5024C30.9161 72.5024 32.843 74.4335 32.843 76.8157C32.843 79.1978 30.9161 81.1289 28.5392 81.1289C26.1622 81.1289 24.2354 79.1978 24.2354 76.8157C24.2354 74.4335 26.1622 72.5024 28.5392 72.5024Z" fill="white"/>
<path d="M28.5392 86.731C30.9161 86.731 32.843 88.5924 32.843 90.8885C32.843 93.1845 30.9161 95.0459 28.5392 95.0459C26.1622 95.0459 24.2354 93.1845 24.2354 90.8885C24.2354 88.5924 26.1622 86.731 28.5392 86.731Z" fill="white"/>
<path d="M28.5392 94.1495C30.9161 94.1495 32.843 96.0108 32.843 98.3069C32.843 100.603 30.9161 102.464 28.5392 102.464C26.1622 102.464 24.2354 100.603 24.2354 98.3069C24.2354 96.0108 26.1622 94.1495 28.5392 94.1495Z" fill="white"/>
<path d="M28.5392 101.879C30.9161 101.879 32.843 103.741 32.843 106.037C32.843 108.333 30.9161 110.194 28.5392 110.194C26.1622 110.194 24.2354 108.333 24.2354 106.037C24.2354 103.741 26.1622 101.879 28.5392 101.879Z" fill="white"/>
<path d="M28.5392 109.074C30.9161 109.074 32.843 110.936 32.843 113.232C32.843 115.528 30.9161 117.389 28.5392 117.389C26.1622 117.389 24.2354 115.528 24.2354 113.232C24.2354 110.936 26.1622 109.074 28.5392 109.074Z" fill="white"/>
<path d="M199.551 96.5261C202.063 96.5261 204.1 98.4933 204.1 100.92C204.1 103.346 202.063 105.313 199.551 105.313C197.039 105.313 195.003 103.346 195.003 100.92C195.003 98.4933 197.039 96.5261 199.551 96.5261Z" fill="white"/>
<path d="M207.146 96.5261C209.658 96.5261 211.694 98.4933 211.694 100.92C211.694 103.346 209.658 105.313 207.146 105.313C204.634 105.313 202.598 103.346 202.598 100.92C202.598 98.4933 204.634 96.5261 207.146 96.5261Z" fill="white"/>
<path d="M187.573 109.203C190.085 109.203 192.122 111.17 192.122 113.597C192.122 116.024 190.085 117.991 187.573 117.991C185.061 117.991 183.025 116.024 183.025 113.597C183.025 111.17 185.061 109.203 187.573 109.203Z" fill="white"/>
<path d="M189.477 102.554C191.989 102.554 194.025 104.522 194.025 106.948C194.025 109.375 191.989 111.342 189.477 111.342C186.965 111.342 184.929 109.375 184.929 106.948C184.929 104.522 186.965 102.554 189.477 102.554Z" fill="white"/>
<path d="M191.66 96.0925C194.172 96.0925 196.209 98.0597 196.209 100.486C196.209 102.913 194.172 104.88 191.66 104.88C189.148 104.88 187.112 102.913 187.112 100.486C187.112 98.0597 189.148 96.0925 191.66 96.0925Z" fill="white"/>
<path d="M196.67 83.9436C199.182 83.9436 201.218 85.9107 201.218 88.3373C201.218 90.7638 199.182 92.731 196.67 92.731C194.158 92.731 192.122 90.7638 192.122 88.3373C192.122 85.9107 194.158 83.9436 196.67 83.9436Z" fill="white"/>
<path d="M199.217 77.1365C201.729 77.1365 203.765 79.1036 203.765 81.5302C203.765 83.9567 201.729 85.9238 199.217 85.9238C196.705 85.9238 194.668 83.9567 194.668 81.5302C194.668 79.1036 196.705 77.1365 199.217 77.1365Z" fill="white"/>
<path d="M202.581 70.3089C205.093 70.3089 207.129 72.276 207.129 74.7025C207.129 77.1291 205.093 79.0962 202.581 79.0962C200.069 79.0962 198.033 77.1291 198.033 74.7025C198.033 72.276 200.069 70.3089 202.581 70.3089Z" fill="white"/>
<path d="M206.44 76.2962C208.952 76.2962 210.989 78.2633 210.989 80.6898C210.989 83.1164 208.952 85.0835 206.44 85.0835C203.928 85.0835 201.892 83.1164 201.892 80.6898C201.892 78.2633 203.928 76.2962 206.44 76.2962Z" fill="white"/>
<path d="M209.125 83.4226C211.637 83.4226 213.673 85.3897 213.673 87.8163C213.673 90.2428 211.637 92.21 209.125 92.21C206.613 92.21 204.577 90.2428 204.577 87.8163C204.577 85.3897 206.613 83.4226 209.125 83.4226Z" fill="white"/>
<path d="M212.172 89.8738C214.684 89.8738 216.72 91.8409 216.72 94.2675C216.72 96.694 214.684 98.6611 212.172 98.6611C209.66 98.6611 207.624 96.694 207.624 94.2675C207.624 91.8409 209.66 89.8738 212.172 89.8738Z" fill="white"/>
<path d="M214.387 97.1248C216.899 97.1248 218.935 99.0919 218.935 101.518C218.935 103.945 216.899 105.912 214.387 105.912C211.875 105.912 209.838 103.945 209.838 101.518C209.838 99.0919 211.875 97.1248 214.387 97.1248Z" fill="white"/>
<path d="M194.025 90.2766C196.537 90.2766 198.574 92.2437 198.574 94.6703C198.574 97.0969 196.537 99.064 194.025 99.064C191.513 99.064 189.477 97.0969 189.477 94.6703C189.477 92.2437 191.513 90.2766 194.025 90.2766Z" fill="white"/>
<path d="M216.718 103.459C219.23 103.459 221.267 105.426 221.267 107.852C221.267 110.279 219.23 112.246 216.718 112.246C214.206 112.246 212.17 110.279 212.17 107.852C212.17 105.426 214.206 103.459 216.718 103.459Z" fill="white"/>
<path d="M218.935 109.203C221.447 109.203 223.484 111.17 223.484 113.597C223.484 116.024 221.447 117.991 218.935 117.991C216.423 117.991 214.387 116.024 214.387 113.597C214.387 111.17 216.423 109.203 218.935 109.203Z" fill="white"/>
</svg>
