<svg width="41" height="48" viewBox="0 0 41 48" fill="none" xmlns="http://www.w3.org/2000/svg">
<path d="M16.5262 26.2171C19.0382 26.2171 21.0746 28.1842 21.0746 30.6107C21.0746 33.0373 19.0382 35.0044 16.5262 35.0044C14.0142 35.0044 11.9778 33.0373 11.9778 30.6107C11.9778 28.1842 14.0142 26.2171 16.5262 26.2171Z" fill="#F6F6F6"/>
<path d="M24.1209 26.2171C26.6329 26.2171 28.6693 28.1842 28.6693 30.6107C28.6693 33.0373 26.6329 35.0044 24.1209 35.0044C21.6089 35.0044 19.5725 33.0373 19.5725 30.6107C19.5725 28.1842 21.6089 26.2171 24.1209 26.2171Z" fill="#F6F6F6"/>
<path d="M4.54839 38.8943C7.0604 38.8943 9.09678 40.8614 9.09678 43.288C9.09678 45.7145 7.0604 47.6816 4.54839 47.6816C2.03638 47.6816 0 45.7145 0 43.288C0 40.8614 2.03638 38.8943 4.54839 38.8943Z" fill="#F6F6F6"/>
<path d="M6.4522 32.2454C8.96421 32.2454 11.0006 34.2125 11.0006 36.639C11.0006 39.0656 8.96421 41.0327 6.4522 41.0327C3.94019 41.0327 1.90381 39.0656 1.90381 36.639C1.90381 34.2125 3.94019 32.2454 6.4522 32.2454Z" fill="#F6F6F6"/>
<path d="M8.63531 25.7835C11.1473 25.7835 13.1837 27.7506 13.1837 30.1771C13.1837 32.6037 11.1473 34.5708 8.63531 34.5708C6.1233 34.5708 4.08691 32.6037 4.08691 30.1771C4.08691 27.7506 6.1233 25.7835 8.63531 25.7835Z" fill="#F6F6F6"/>
<path d="M13.6451 13.6345C16.1571 13.6345 18.1935 15.6017 18.1935 18.0282C18.1935 20.4548 16.1571 22.4219 13.6451 22.4219C11.1331 22.4219 9.09668 20.4548 9.09668 18.0282C9.09668 15.6017 11.1331 13.6345 13.6451 13.6345Z" fill="#F6F6F6"/>
<path d="M16.1919 6.82741C18.704 6.82741 20.7403 8.79452 20.7403 11.2211C20.7403 13.6476 18.704 15.6147 16.1919 15.6147C13.6799 15.6147 11.6436 13.6476 11.6436 11.2211C11.6436 8.79452 13.6799 6.82741 16.1919 6.82741Z" fill="#F6F6F6"/>
<path d="M19.556 -0.000226974C22.068 -0.000226974 24.1044 1.96689 24.1044 4.39344C24.1044 6.82 22.068 8.78711 19.556 8.78711C17.044 8.78711 15.0076 6.82 15.0076 4.39344C15.0076 1.96689 17.044 -0.000226974 19.556 -0.000226974Z" fill="#F6F6F6"/>
<path d="M23.4153 5.98708C25.9273 5.98708 27.9637 7.95419 27.9637 10.3807C27.9637 12.8073 25.9273 14.7744 23.4153 14.7744C20.9033 14.7744 18.8669 12.8073 18.8669 10.3807C18.8669 7.95419 20.9033 5.98708 23.4153 5.98708Z" fill="#F6F6F6"/>
<path d="M26.0999 13.1135C28.6119 13.1135 30.6483 15.0807 30.6483 17.5072C30.6483 19.9338 28.6119 21.9009 26.0999 21.9009C23.5879 21.9009 21.5515 19.9338 21.5515 17.5072C21.5515 15.0807 23.5879 13.1135 26.0999 13.1135Z" fill="#F6F6F6"/>
<path d="M29.1473 19.5647C31.6593 19.5647 33.6957 21.5318 33.6957 23.9584C33.6957 26.3849 31.6593 28.3521 29.1473 28.3521C26.6353 28.3521 24.5989 26.3849 24.5989 23.9584C24.5989 21.5318 26.6353 19.5647 29.1473 19.5647Z" fill="#F6F6F6"/>
<path d="M31.3619 26.8157C33.8739 26.8157 35.9103 28.7828 35.9103 31.2094C35.9103 33.6359 33.8739 35.603 31.3619 35.603C28.8499 35.603 26.8135 33.6359 26.8135 31.2094C26.8135 28.7828 28.8499 26.8157 31.3619 26.8157Z" fill="#F6F6F6"/>
<path d="M11.0008 19.9675C13.5128 19.9675 15.5492 21.9347 15.5492 24.3612C15.5492 26.7878 13.5128 28.7549 11.0008 28.7549C8.48878 28.7549 6.45239 26.7878 6.45239 24.3612C6.45239 21.9347 8.48878 19.9675 11.0008 19.9675Z" fill="#F6F6F6"/>
<path d="M33.6937 33.1497C36.2057 33.1497 38.242 35.1168 38.242 37.5433C38.242 39.9699 36.2057 41.937 33.6937 41.937C31.1816 41.937 29.1453 39.9699 29.1453 37.5433C29.1453 35.1168 31.1816 33.1497 33.6937 33.1497Z" fill="#F6F6F6"/>
<path d="M35.91 38.8943C38.422 38.8943 40.4584 40.8614 40.4584 43.288C40.4584 45.7145 38.422 47.6816 35.91 47.6816C33.398 47.6816 31.3616 45.7145 31.3616 43.288C31.3616 40.8614 33.398 38.8943 35.91 38.8943Z" fill="#F6F6F6"/>
</svg>
