<svg width="147" height="199" viewBox="0 0 147 199" fill="none" xmlns="http://www.w3.org/2000/svg">
<path d="M18.7677 134.93C29.1328 134.93 37.5354 143.047 37.5354 153.059C37.5354 163.072 29.1328 171.189 18.7677 171.189C8.40258 171.189 0 163.072 0 153.059C0 143.047 8.40258 134.93 18.7677 134.93Z" fill="white"/>
<path d="M18.7681 53.9685C29.1332 53.9685 37.5357 62.0853 37.5357 72.0978C37.5357 82.1103 29.1332 90.2271 18.7681 90.2271C8.40295 90.2271 0.000366211 82.1103 0.000366211 72.0978C0.000366211 62.0853 8.40295 53.9685 18.7681 53.9685Z" fill="white"/>
<path d="M18.7681 107.947C29.1332 107.947 37.5357 116.064 37.5357 126.076C37.5357 136.089 29.1332 144.205 18.7681 144.205C8.40295 144.205 0.000366211 136.089 0.000366211 126.076C0.000366211 116.064 8.40295 107.947 18.7681 107.947Z" fill="white"/>
<path d="M18.7687 26.9851C29.1338 26.9851 37.5364 35.1019 37.5364 45.1144C37.5364 55.1269 29.1338 63.2437 18.7687 63.2437C8.40356 63.2437 0.000976562 55.1269 0.000976562 45.1144C0.000976562 35.1019 8.40356 26.9851 18.7687 26.9851Z" fill="white"/>
<path d="M18.7693 7.62939e-06C29.1344 7.62939e-06 37.537 8.11676 37.537 18.1293C37.537 28.1418 29.1344 36.2585 18.7693 36.2585C8.40417 36.2585 0.00158691 28.1418 0.00158691 18.1293C0.00158691 8.11676 8.40417 7.62939e-06 18.7693 7.62939e-06Z" fill="white"/>
<path d="M18.7681 80.95C29.1332 80.95 37.5357 89.0667 37.5357 99.0792C37.5357 109.092 29.1332 117.208 18.7681 117.208C8.40295 117.208 0.000366211 109.092 0.000366211 99.0792C0.000366211 89.0667 8.40295 80.95 18.7681 80.95Z" fill="white"/>
<path d="M48.6056 80.9502C58.9707 80.9502 67.3733 89.067 67.3733 99.0795C67.3733 109.092 58.9707 117.209 48.6056 117.209C38.2405 117.209 29.8379 109.092 29.8379 99.0795C29.8379 89.067 38.2405 80.9502 48.6056 80.9502Z" fill="white"/>
<path d="M43.5123 7.62939e-06C53.8774 7.62939e-06 62.28 8.11676 62.28 18.1293C62.28 28.1418 53.8774 36.2585 43.5123 36.2585C33.1472 36.2585 24.7446 28.1418 24.7446 18.1293C24.7446 8.11676 33.1472 7.62939e-06 43.5123 7.62939e-06Z" fill="white"/>
<path d="M70.8025 7.62939e-06C81.1676 7.62939e-06 89.5702 8.11676 89.5702 18.1293C89.5702 28.1418 81.1676 36.2585 70.8025 36.2585C60.4374 36.2585 52.0348 28.1418 52.0348 18.1293C52.0348 8.11676 60.4374 7.62939e-06 70.8025 7.62939e-06Z" fill="white"/>
<path d="M100.823 0.000495911C111.188 0.000495911 119.591 8.11724 119.591 18.1298C119.591 28.1423 111.188 36.259 100.823 36.259C90.4582 36.259 82.0557 28.1423 82.0557 18.1298C82.0557 8.11724 90.4582 0.000495911 100.823 0.000495911Z" fill="white"/>
<path d="M122.839 7.62939e-06C133.204 7.62939e-06 141.606 8.11676 141.606 18.1293C141.606 28.1418 133.204 36.2585 122.839 36.2585C112.474 36.2585 104.071 28.1418 104.071 18.1293C104.071 8.11676 112.474 7.62939e-06 122.839 7.62939e-06Z" fill="white"/>
<path d="M77.9104 80.95C88.2755 80.95 96.6781 89.0667 96.6781 99.0792C96.6781 109.092 88.2755 117.208 77.9104 117.208C67.5453 117.208 59.1427 109.092 59.1427 99.0792C59.1427 89.0667 67.5453 80.95 77.9104 80.95Z" fill="white"/>
<path d="M106.031 84.4226C116.396 84.4226 124.799 92.5394 124.799 102.552C124.799 112.564 116.396 120.681 106.031 120.681C95.6661 120.681 87.2635 112.564 87.2635 102.552C87.2635 92.5394 95.6661 84.4226 106.031 84.4226Z" fill="white"/>
<path d="M127.463 102.564C137.828 102.564 146.23 110.681 146.23 120.694C146.23 130.706 137.828 138.823 127.463 138.823C117.097 138.823 108.695 130.706 108.695 120.694C108.695 110.681 117.097 102.564 127.463 102.564Z" fill="white"/>
<path d="M127.464 126.077C137.829 126.077 146.231 134.193 146.231 144.206C146.231 154.218 137.829 162.335 127.464 162.335C117.099 162.335 108.696 154.218 108.696 144.206C108.696 134.193 117.099 126.077 127.464 126.077Z" fill="white"/>
<path d="M119.593 150.989C129.958 150.989 138.361 159.106 138.361 169.118C138.361 179.131 129.958 187.247 119.593 187.247C109.228 187.247 100.826 179.131 100.826 169.118C100.826 159.106 109.228 150.989 119.593 150.989Z" fill="white"/>
<path d="M94.0756 162.334C104.441 162.334 112.843 170.451 112.843 180.464C112.843 190.476 104.441 198.593 94.0756 198.593C83.7104 198.593 75.3079 190.476 75.3079 180.464C75.3079 170.451 83.7104 162.334 94.0756 162.334Z" fill="white"/>
<path d="M43.5107 162.126C53.8758 162.126 62.2784 170.243 62.2784 180.255C62.2784 190.268 53.8758 198.385 43.5107 198.385C33.1456 198.385 24.743 190.268 24.743 180.255C24.743 170.243 33.1456 162.126 43.5107 162.126Z" fill="white"/>
<path d="M70.8025 162.125C81.1676 162.125 89.5702 170.242 89.5702 180.254C89.5702 190.267 81.1676 198.384 70.8025 198.384C60.4374 198.384 52.0348 190.267 52.0348 180.254C52.0348 170.242 60.4374 162.125 70.8025 162.125Z" fill="white"/>
<path d="M18.7687 162.125C29.1338 162.125 37.5364 170.241 37.5364 180.254C37.5364 190.266 29.1338 198.383 18.7687 198.383C8.40356 198.383 0.000976562 190.266 0.000976562 180.254C0.000976562 170.241 8.40356 162.125 18.7687 162.125Z" fill="white"/>
</svg>
