<svg width="713" height="174" viewBox="0 0 713 174" fill="none" xmlns="http://www.w3.org/2000/svg">
<path d="M313.53 120.769C320.097 120.769 325.42 125.911 325.42 132.255C325.42 138.598 320.097 143.741 313.53 143.741C306.963 143.741 301.639 138.598 301.639 132.255C301.639 125.911 306.963 120.769 313.53 120.769Z" fill="white"/>
<path d="M331.496 120.769C338.063 120.769 343.387 125.911 343.387 132.255C343.387 138.598 338.063 143.741 331.496 143.741C324.929 143.741 319.606 138.598 319.606 132.255C319.606 125.911 324.929 120.769 331.496 120.769Z" fill="white"/>
<path d="M352.106 120.769C358.673 120.769 363.996 125.911 363.996 132.255C363.996 138.598 358.673 143.741 352.106 143.741C345.539 143.741 340.215 138.598 340.215 132.255C340.215 125.911 345.539 120.769 352.106 120.769Z" fill="white"/>
<path d="M369.462 120.769C376.029 120.769 381.353 125.911 381.353 132.255C381.353 138.598 376.029 143.741 369.462 143.741C362.895 143.741 357.572 138.598 357.572 132.255C357.572 125.911 362.895 120.769 369.462 120.769Z" fill="white"/>
<path d="M387.325 120.769C393.891 120.769 399.215 125.911 399.215 132.255C399.215 138.598 393.891 143.741 387.325 143.741C380.758 143.741 375.434 138.598 375.434 132.255C375.434 125.911 380.758 120.769 387.325 120.769Z" fill="white"/>
<path d="M389.319 104.04C395.886 104.04 401.21 109.182 401.21 115.526C401.21 121.869 395.886 127.012 389.319 127.012C382.752 127.012 377.429 121.869 377.429 115.526C377.429 109.182 382.752 104.04 389.319 104.04Z" fill="white"/>
<path d="M389.319 86.321C395.886 86.321 401.21 91.4635 401.21 97.807C401.21 104.151 395.886 109.293 389.319 109.293C382.752 109.293 377.429 104.151 377.429 97.807C377.429 91.4635 382.752 86.321 389.319 86.321Z" fill="white"/>
<path d="M389.319 67.5193C395.886 67.5193 401.21 72.6617 401.21 79.0052C401.21 85.3488 395.886 90.4912 389.319 90.4912C382.752 90.4912 377.429 85.3488 377.429 79.0052C377.429 72.6617 382.752 67.5193 389.319 67.5193Z" fill="white"/>
<path d="M389.319 48.7575C395.886 48.7575 401.21 53.9 401.21 60.2435C401.21 66.587 395.886 71.7295 389.319 71.7295C382.752 71.7295 377.429 66.587 377.429 60.2435C377.429 53.9 382.752 48.7575 389.319 48.7575Z" fill="white"/>
<path d="M389.319 32.5949C395.886 32.5949 401.21 37.7374 401.21 44.0809C401.21 50.4244 395.886 55.5669 389.319 55.5669C382.752 55.5669 377.429 50.4244 377.429 44.0809C377.429 37.7374 382.752 32.5949 389.319 32.5949Z" fill="white"/>
<path d="M389.319 15.9612C395.886 15.9612 401.21 21.1036 401.21 27.4471C401.21 33.7907 395.886 38.9331 389.319 38.9331C382.752 38.9331 377.429 33.7907 377.429 27.4471C377.429 21.1036 382.752 15.9612 389.319 15.9612Z" fill="white"/>
<path d="M373.587 15.9612C380.154 15.9612 385.478 21.1036 385.478 27.4471C385.478 33.7907 380.154 38.9331 373.587 38.9331C367.02 38.9331 361.697 33.7907 361.697 27.4471C361.697 21.1036 367.02 15.9612 373.587 15.9612Z" fill="white"/>
<path d="M352.106 15.9612C358.673 15.9612 363.996 21.1036 363.996 27.4471C363.996 33.7907 358.673 38.9331 352.106 38.9331C345.539 38.9331 340.215 33.7907 340.215 27.4471C340.215 21.1036 345.539 15.9612 352.106 15.9612Z" fill="white"/>
<path d="M331.496 15.9612C338.063 15.9612 343.387 21.1036 343.387 27.4471C343.387 33.7907 338.063 38.9331 331.496 38.9331C324.929 38.9331 319.606 33.7907 319.606 27.4471C319.606 21.1036 324.929 15.9612 331.496 15.9612Z" fill="white"/>
<path d="M331.496 32.5954C338.063 32.5954 343.387 37.7379 343.387 44.0814C343.387 50.4249 338.063 55.5674 331.496 55.5674C324.929 55.5674 319.606 50.4249 319.606 44.0814C319.606 37.7379 324.929 32.5954 331.496 32.5954Z" fill="white"/>
<path d="M331.496 50.2849C338.063 50.2849 343.387 55.4273 343.387 61.7709C343.387 68.1144 338.063 73.2568 331.496 73.2568C324.929 73.2568 319.606 68.1144 319.606 61.7709C319.606 55.4273 324.929 50.2849 331.496 50.2849Z" fill="white"/>
<path d="M328.76 67.5193C335.327 67.5193 340.651 72.6617 340.651 79.0052C340.651 85.3488 335.327 90.4912 328.76 90.4912C322.193 90.4912 316.87 85.3488 316.87 79.0052C316.87 72.6617 322.193 67.5193 328.76 67.5193Z" fill="white"/>
<path d="M325.42 84.4748C331.987 84.4748 337.31 89.6173 337.31 95.9608C337.31 102.304 331.987 107.447 325.42 107.447C318.853 107.447 313.529 102.304 313.529 95.9608C313.529 89.6173 318.853 84.4748 325.42 84.4748Z" fill="white"/>
<path d="M319.604 97.8083C326.171 97.8083 331.495 102.951 331.495 109.294C331.495 115.638 326.171 120.78 319.604 120.78C313.037 120.78 307.714 115.638 307.714 109.294C307.714 102.951 313.037 97.8083 319.604 97.8083Z" fill="white"/>
<path d="M313.53 111.743C320.097 111.743 325.42 116.886 325.42 123.229C325.42 129.573 320.097 134.715 313.53 134.715C306.963 134.715 301.639 129.573 301.639 123.229C301.639 116.886 306.963 111.743 313.53 111.743Z" fill="white"/>
<path d="M402.049 120.769C408.616 120.769 413.939 125.911 413.939 132.255C413.939 138.598 408.616 143.741 402.049 143.741C395.482 143.741 390.158 138.598 390.158 132.255C390.158 125.911 395.482 120.769 402.049 120.769Z" fill="white"/>
<path d="M301.965 122.942C308.532 122.942 313.855 128.084 313.855 134.428C313.855 140.771 308.532 145.914 301.965 145.914C295.398 145.914 290.074 140.771 290.074 134.428C290.074 128.084 295.398 122.942 301.965 122.942Z" fill="white"/>
<path d="M402.049 134.714C408.616 134.714 413.939 139.857 413.939 146.2C413.939 152.544 408.616 157.686 402.049 157.686C395.482 157.686 390.158 152.544 390.158 146.2C390.158 139.857 395.482 134.714 402.049 134.714Z" fill="white"/>
<path d="M301.965 136.898C308.532 136.898 313.855 142.041 313.855 148.384C313.855 154.728 308.532 159.87 301.965 159.87C295.398 159.87 290.074 154.728 290.074 148.384C290.074 142.041 295.398 136.898 301.965 136.898Z" fill="white"/>
<path d="M402.049 148.097C408.616 148.097 413.939 153.239 413.939 159.583C413.939 165.926 408.616 171.069 402.049 171.069C395.482 171.069 390.158 165.926 390.158 159.583C390.158 153.239 395.482 148.097 402.049 148.097Z" fill="white"/>
<path d="M301.965 150.276C308.532 150.276 313.855 155.419 313.855 161.762C313.855 168.106 308.532 173.248 301.965 173.248C295.398 173.248 290.074 168.106 290.074 161.762C290.074 155.419 295.398 150.276 301.965 150.276Z" fill="white"/>
<path d="M301.965 120.769C308.532 120.769 313.855 125.911 313.855 132.255C313.855 138.598 308.532 143.741 301.965 143.741C295.398 143.741 290.074 138.598 290.074 132.255C290.074 125.911 295.398 120.769 301.965 120.769Z" fill="white"/>
<path d="M527.412 35.4515C533.088 32.9768 539.626 35.415 542.017 40.8974C544.407 46.3797 541.744 52.8302 536.069 55.3049C530.393 57.7795 523.855 55.3413 521.464 49.8589C519.074 44.3766 521.737 37.9261 527.412 35.4515Z" fill="white"/>
<path d="M542.016 24.0179C547.691 21.5432 554.23 23.9814 556.62 29.4638C559.011 34.9461 556.348 41.3966 550.673 43.8713C544.997 46.3459 538.458 43.9077 536.068 38.4253C533.677 32.943 536.34 26.4925 542.016 24.0179Z" fill="white"/>
<path d="M556.62 15.1849C562.296 12.7102 568.834 15.1484 571.225 20.6308C573.615 26.1131 570.953 32.5636 565.277 35.0383C559.602 37.5129 553.063 35.0747 550.672 29.5923C548.282 24.11 550.945 17.6595 556.62 15.1849Z" fill="white"/>
<path d="M556.62 32.9808C562.296 30.5061 568.834 32.9443 571.225 38.4267C573.615 43.909 570.953 50.3595 565.277 52.8342C559.602 55.3088 553.063 52.8706 550.672 47.3882C548.282 41.9059 550.945 35.4554 556.62 32.9808Z" fill="white"/>
<path d="M556.62 51.5579C562.296 49.0832 568.834 51.5215 571.225 57.0038C573.615 62.4862 570.953 68.9366 565.277 71.4113C559.602 73.886 553.063 71.4478 550.672 65.9654C548.282 60.483 550.945 54.0326 556.62 51.5579Z" fill="white"/>
<path d="M556.62 70.5017C562.296 68.0271 568.834 70.4653 571.225 75.9477C573.615 81.43 570.953 87.8805 565.277 90.3552C559.602 92.8298 553.063 90.3916 550.672 84.9092C548.282 79.4269 550.945 72.9764 556.62 70.5017Z" fill="white"/>
<path d="M556.62 89.9749C562.296 87.5002 568.834 89.9384 571.225 95.4208C573.615 100.903 570.953 107.354 565.277 109.828C559.602 112.303 553.063 109.865 550.672 104.382C548.282 98.9 550.945 92.4496 556.62 89.9749Z" fill="white"/>
<path d="M556.62 106.961C562.296 104.487 568.834 106.925 571.225 112.407C573.615 117.89 570.953 124.34 565.277 126.815C559.602 129.289 553.063 126.851 550.672 121.369C548.282 115.886 550.945 109.436 556.62 106.961Z" fill="white"/>
<path d="M556.62 121.579C562.296 119.105 568.834 121.543 571.225 127.025C573.615 132.508 570.953 138.958 565.277 141.433C559.602 143.907 553.063 141.469 550.672 135.987C548.282 130.505 550.945 124.054 556.62 121.579Z" fill="white"/>
<path d="M634.684 13.1415C640.422 10.6396 647.033 13.1046 649.45 18.6473C651.866 24.1899 649.174 30.7113 643.436 33.2131C637.699 35.715 631.088 33.25 628.671 27.7073C626.254 22.1647 628.947 15.6434 634.684 13.1415Z" fill="white"/>
<path d="M619.917 18.3666C625.655 15.8647 632.266 18.3297 634.683 23.8724C637.099 29.415 634.407 35.9364 628.669 38.4382C622.931 40.9401 616.321 38.4751 613.904 32.9324C611.487 27.3898 614.18 20.8685 619.917 18.3666Z" fill="white"/>
<path d="M651.048 18.3666C656.785 15.8647 663.396 18.3297 665.813 23.8724C668.229 29.415 665.537 35.9364 659.799 38.4382C654.062 40.9401 647.451 38.4751 645.034 32.9324C642.617 27.3898 645.31 20.8685 651.048 18.3666Z" fill="white"/>
<path d="M663.483 31.6688C669.22 29.167 675.831 31.632 678.248 37.1746C680.665 42.7172 677.972 49.2386 672.234 51.7405C666.497 54.2423 659.886 51.7773 657.469 46.2347C655.053 40.6921 657.745 34.1707 663.483 31.6688Z" fill="white"/>
<path d="M607.375 31.6688C613.113 29.167 619.724 31.632 622.141 37.1746C624.557 42.7172 621.865 49.2386 616.127 51.7405C610.389 54.2423 603.779 51.7773 601.362 46.2347C598.945 40.6921 601.638 34.1707 607.375 31.6688Z" fill="white"/>
<path d="M669.497 48.7684C675.235 46.2666 681.846 48.7316 684.262 54.2742C686.679 59.8169 683.987 66.3382 678.249 68.8401C672.511 71.342 665.901 68.8769 663.484 63.3343C661.067 57.7917 663.759 51.2703 669.497 48.7684Z" fill="white"/>
<path d="M601.362 48.7684C607.1 46.2666 613.711 48.7316 616.127 54.2742C618.544 59.8169 615.852 66.3382 610.114 68.8401C604.376 71.342 597.766 68.8769 595.349 63.3343C592.932 57.7917 595.624 51.2703 601.362 48.7684Z" fill="white"/>
<path d="M669.863 67.934C675.601 65.4321 682.212 67.8971 684.629 73.4397C687.045 78.9824 684.353 85.5037 678.615 88.0056C672.877 90.5075 666.267 88.0425 663.85 82.4998C661.433 76.9572 664.126 70.4358 669.863 67.934Z" fill="white"/>
<path d="M599.504 67.9364C605.242 65.4345 611.852 67.8996 614.269 73.4422C616.686 78.9848 613.994 85.5062 608.256 88.008C602.518 90.5099 595.908 88.0449 593.491 82.5023C591.074 76.9596 593.766 70.4383 599.504 67.9364Z" fill="white"/>
<path d="M669.497 85.7347C675.235 83.2329 681.846 85.6979 684.262 91.2405C686.679 96.7832 683.987 103.305 678.249 105.806C672.511 108.308 665.901 105.843 663.484 100.301C661.067 94.758 663.759 88.2366 669.497 85.7347Z" fill="white"/>
<path d="M601.362 85.7347C607.1 83.2329 613.711 85.6979 616.127 91.2405C618.544 96.7832 615.852 103.305 610.114 105.806C604.376 108.308 597.766 105.843 595.349 100.301C592.932 94.758 595.624 88.2366 601.362 85.7347Z" fill="white"/>
<path d="M663.483 103.742C669.221 101.24 675.832 103.705 678.248 109.248C680.665 114.79 677.973 121.312 672.235 123.814C666.497 126.316 659.887 123.851 657.47 118.308C655.053 112.765 657.745 106.244 663.483 103.742Z" fill="white"/>
<path d="M607.375 103.742C613.113 101.24 619.724 103.705 622.141 109.248C624.557 114.79 621.865 121.312 616.127 123.814C610.389 126.316 603.779 123.851 601.362 118.308C598.945 112.765 601.638 106.244 607.375 103.742Z" fill="white"/>
<path d="M651.226 117.948C656.964 115.446 663.575 117.911 665.991 123.453C668.408 128.996 665.716 135.517 659.978 138.019C654.24 140.521 647.63 138.056 645.213 132.513C642.796 126.971 645.488 120.45 651.226 117.948Z" fill="white"/>
<path d="M617.745 117.948C623.483 115.446 630.093 117.911 632.51 123.453C634.927 128.996 632.235 135.517 626.497 138.019C620.759 140.521 614.148 138.056 611.732 132.513C609.315 126.971 612.007 120.45 617.745 117.948Z" fill="white"/>
<path d="M634.684 121.697C640.422 119.195 647.033 121.66 649.45 127.202C651.866 132.745 649.174 139.266 643.436 141.768C637.699 144.27 631.088 141.805 628.671 136.263C626.254 130.72 628.947 124.199 634.684 121.697Z" fill="white"/>
<path d="M435.8 33.0062C441.176 29.7057 448.119 31.2397 451.307 36.4325C454.495 41.6253 452.722 48.5105 447.346 51.811C441.97 55.1115 435.028 53.5775 431.84 48.3847C428.652 43.1919 430.425 36.3067 435.8 33.0062Z" fill="white"/>
<path d="M448.084 19.4222C453.866 16.9009 460.528 19.385 462.963 24.9706C465.399 30.5561 462.686 37.128 456.904 39.6492C451.121 42.1705 444.459 39.6864 442.024 34.1008C439.589 28.5153 442.302 21.9434 448.084 19.4222Z" fill="white"/>
<path d="M480.137 17.4822C485.919 14.961 492.581 17.4451 495.016 23.0306C497.452 28.6162 494.739 35.1881 488.957 37.7093C483.174 40.2305 476.512 37.7464 474.077 32.1609C471.642 26.5753 474.355 20.0035 480.137 17.4822Z" fill="white"/>
<path d="M489.964 28.221C495.747 25.6998 502.409 28.1839 504.844 33.7694C507.279 39.355 504.566 45.9268 498.784 48.4481C493.002 50.9693 486.34 48.4852 483.905 42.8996C481.469 37.3141 484.182 30.7422 489.964 28.221Z" fill="white"/>
<path d="M493.917 43.0394C499.699 40.5181 506.361 43.0022 508.796 48.5878C511.232 54.1733 508.519 60.7452 502.736 63.2664C496.954 65.7877 490.292 63.3036 487.857 57.718C485.421 52.1325 488.134 45.5606 493.917 43.0394Z" fill="white"/>
<path d="M490.988 59.1448C496.77 56.6236 503.432 59.1077 505.867 64.6932C508.303 70.2788 505.59 76.8507 499.807 79.3719C494.025 81.8931 487.363 79.409 484.928 73.8235C482.492 68.2379 485.205 61.6661 490.988 59.1448Z" fill="white"/>
<path d="M478.71 71.1595C484.492 68.6382 491.154 71.1223 493.59 76.7079C496.025 82.2934 493.312 88.8653 487.53 91.3865C481.747 93.9078 475.086 91.4237 472.65 85.8381C470.215 80.2526 472.928 73.6807 478.71 71.1595Z" fill="white"/>
<path d="M462.92 72.1346C468.702 69.6133 475.364 72.0974 477.799 77.683C480.235 83.2685 477.522 89.8404 471.739 92.3616C465.957 94.8829 459.295 92.3988 456.86 86.8132C454.424 81.2277 457.138 74.6558 462.92 72.1346Z" fill="white"/>
<path d="M490.973 82.7241C496.492 79.6696 503.358 81.5154 506.309 86.8469C509.259 92.1783 507.177 98.9764 501.658 102.031C496.139 105.085 489.273 103.24 486.322 97.9081C483.371 92.5767 485.454 85.7786 490.973 82.7241Z" fill="white"/>
<path d="M495.049 98.1924C500.568 95.1379 507.434 96.9837 510.385 102.315C513.335 107.647 511.253 114.445 505.734 117.499C500.215 120.554 493.349 118.708 490.398 113.376C487.447 108.045 489.53 101.247 495.049 98.1924Z" fill="white"/>
<path d="M485.06 113.884C490.579 110.83 497.445 112.676 500.396 118.007C503.346 123.338 501.264 130.137 495.745 133.191C490.226 136.246 483.36 134.4 480.409 129.068C477.459 123.737 479.541 116.939 485.06 113.884Z" fill="white"/>
<path d="M468.975 120.699C474.494 117.644 481.361 119.49 484.311 124.821C487.262 130.153 485.179 136.951 479.66 140.005C474.141 143.06 467.275 141.214 464.324 135.883C461.374 130.551 463.456 123.753 468.975 120.699Z" fill="white"/>
<path d="M452.877 120.395C458.397 117.341 465.263 119.187 468.213 124.518C471.164 129.85 469.082 136.648 463.562 139.702C458.043 142.757 451.177 140.911 448.227 135.58C445.276 130.248 447.358 123.45 452.877 120.395Z" fill="white"/>
<path d="M436.922 114.09C442.442 111.035 449.308 112.881 452.258 118.213C455.209 123.544 453.127 130.342 447.607 133.397C442.088 136.451 435.222 134.605 432.272 129.274C429.321 123.942 431.403 117.144 436.922 114.09Z" fill="white"/>
<path d="M428.926 101.393C434.445 98.3386 441.311 100.184 444.262 105.516C447.212 110.847 445.13 117.645 439.611 120.7C434.092 123.754 427.226 121.909 424.275 116.577C421.324 111.246 423.407 104.448 428.926 101.393Z" fill="white"/>
<path d="M445.194 69.9534C450.977 67.4322 457.639 69.9163 460.074 75.5018C462.509 81.0874 459.796 87.6592 454.014 90.1805C448.232 92.7017 441.57 90.2176 439.135 84.6321C436.699 79.0465 439.412 72.4747 445.194 69.9534Z" fill="white"/>
<path d="M464.04 14.1331C469.823 11.6119 476.484 14.096 478.92 19.6815C481.355 25.2671 478.642 31.8389 472.86 34.3602C467.078 36.8814 460.416 34.3973 457.981 28.8118C455.545 23.2262 458.258 16.6543 464.04 14.1331Z" fill="white"/>
<path d="M220.912 48.8634C227.415 47.9506 233.401 52.3032 234.283 58.5851C235.165 64.8671 230.608 70.6996 224.105 71.6124C217.601 72.5252 211.615 68.1726 210.733 61.8907C209.851 55.6087 214.408 49.7762 220.912 48.8634Z" fill="white"/>
<path d="M218.048 64.2252C224.551 63.3124 230.538 67.665 231.42 73.9469C232.302 80.2289 227.745 86.0614 221.241 86.9742C214.738 87.887 208.752 83.5344 207.87 77.2525C206.988 70.9705 211.545 65.138 218.048 64.2252Z" fill="white"/>
<path d="M240.072 58.6477C246.639 58.6477 251.963 63.7901 251.963 70.1337C251.963 76.4772 246.639 81.6196 240.072 81.6196C233.505 81.6196 228.182 76.4772 228.182 70.1337C228.182 63.7901 233.505 58.6477 240.072 58.6477Z" fill="white"/>
<path d="M271.466 70.133C278.033 70.133 283.357 75.2755 283.357 81.619C283.357 87.9625 278.033 93.105 271.466 93.105C264.899 93.105 259.576 87.9625 259.576 81.619C259.576 75.2755 264.899 70.133 271.466 70.133Z" fill="white"/>
<path d="M276.375 84.4709C282.942 84.4709 288.266 89.6134 288.266 95.9569C288.266 102.3 282.942 107.443 276.375 107.443C269.808 107.443 264.485 102.3 264.485 95.9569C264.485 89.6134 269.808 84.4709 276.375 84.4709Z" fill="white"/>
<path d="M273.983 100.254C280.55 100.254 285.873 105.397 285.873 111.74C285.873 118.084 280.55 123.226 273.983 123.226C267.416 123.226 262.092 118.084 262.092 111.74C262.092 105.397 267.416 100.254 273.983 100.254Z" fill="white"/>
<path d="M264.484 114.411C271.051 114.411 276.374 119.554 276.374 125.897C276.374 132.241 271.051 137.383 264.484 137.383C257.917 137.383 252.593 132.241 252.593 125.897C252.593 119.554 257.917 114.411 264.484 114.411Z" fill="white"/>
<path d="M247.77 120.762C254.337 120.762 259.66 125.904 259.66 132.248C259.66 138.591 254.337 143.734 247.77 143.734C241.203 143.734 235.879 138.591 235.879 132.248C235.879 125.904 241.203 120.762 247.77 120.762Z" fill="white"/>
<path d="M230.222 118.8C236.789 118.8 242.112 123.942 242.112 130.286C242.112 136.629 236.789 141.771 230.222 141.771C223.655 141.771 218.332 136.629 218.332 130.286C218.332 123.942 223.655 118.8 230.222 118.8Z" fill="white"/>
<path d="M216.291 105.663C222.858 105.663 228.182 110.805 228.182 117.149C228.182 123.492 222.858 128.635 216.291 128.635C209.724 128.635 204.401 123.492 204.401 117.149C204.401 110.805 209.724 105.663 216.291 105.663Z" fill="white"/>
<path d="M257.497 60.239C264.064 60.239 269.388 65.3814 269.388 71.725C269.388 78.0685 264.064 83.2109 257.497 83.2109C250.93 83.2109 245.607 78.0685 245.607 71.725C245.607 65.3814 250.93 60.239 257.497 60.239Z" fill="white"/>
<path d="M222.413 34.2438C228.917 33.331 234.903 37.6835 235.785 43.9655C236.667 50.2474 232.11 56.0799 225.607 56.9927C219.103 57.9055 213.117 53.553 212.235 47.271C211.353 40.9891 215.91 35.1566 222.413 34.2438Z" fill="white"/>
<path d="M226.727 18.0735C233.294 18.0735 238.617 23.2159 238.617 29.5594C238.617 35.903 233.294 41.0454 226.727 41.0454C220.16 41.0454 214.836 35.903 214.836 29.5594C214.836 23.2159 220.16 18.0735 226.727 18.0735Z" fill="white"/>
<path d="M242.115 18.0735C248.681 18.0735 254.005 23.2159 254.005 29.5594C254.005 35.903 248.681 41.0454 242.115 41.0454C235.548 41.0454 230.224 35.903 230.224 29.5594C230.224 23.2159 235.548 18.0735 242.115 18.0735Z" fill="white"/>
<path d="M257.498 18.0735C264.065 18.0735 269.388 23.2159 269.388 29.5594C269.388 35.903 264.065 41.0454 257.498 41.0454C250.931 41.0454 245.607 35.903 245.607 29.5594C245.607 23.2159 250.931 18.0735 257.498 18.0735Z" fill="white"/>
<path d="M272.883 18.0735C279.45 18.0735 284.774 23.2159 284.774 29.5594C284.774 35.903 279.45 41.0454 272.883 41.0454C266.316 41.0454 260.993 35.903 260.993 29.5594C260.993 23.2159 266.316 18.0735 272.883 18.0735Z" fill="white"/>
<path d="M120.147 38.7937C126.714 38.7937 132.037 43.9361 132.037 50.2796C132.037 56.6232 126.714 61.7656 120.147 61.7656C113.58 61.7656 108.256 56.6232 108.256 50.2796C108.256 43.9361 113.58 38.7937 120.147 38.7937Z" fill="white"/>
<path d="M124.451 23.0969C131.017 23.0969 136.341 28.2393 136.341 34.5829C136.341 40.9264 131.017 46.0688 124.451 46.0688C117.884 46.0688 112.56 40.9264 112.56 34.5829C112.56 28.2393 117.884 23.0969 124.451 23.0969Z" fill="white"/>
<path d="M139.136 13.0383C145.702 13.0383 151.026 18.1807 151.026 24.5243C151.026 30.8678 145.702 36.0103 139.136 36.0103C132.569 36.0103 127.245 30.8678 127.245 24.5243C127.245 18.1807 132.569 13.0383 139.136 13.0383Z" fill="white"/>
<path d="M157.292 13.0383C163.859 13.0383 169.183 18.1807 169.183 24.5243C169.183 30.8678 163.859 36.0103 157.292 36.0103C150.725 36.0103 145.402 30.8678 145.402 24.5243C145.402 18.1807 150.725 13.0383 157.292 13.0383Z" fill="white"/>
<path d="M172.104 24.5232C178.671 24.5232 183.994 29.6656 183.994 36.0091C183.994 42.3527 178.671 47.4951 172.104 47.4951C165.537 47.4951 160.213 42.3527 160.213 36.0091C160.213 29.6656 165.537 24.5232 172.104 24.5232Z" fill="white"/>
<path d="M176.293 42.1238C182.86 42.1238 188.183 47.2662 188.183 53.6097C188.183 59.9533 182.86 65.0957 176.293 65.0957C169.726 65.0957 164.402 59.9533 164.402 53.6097C164.402 47.2662 169.726 42.1238 176.293 42.1238Z" fill="white"/>
<path d="M172.104 58.0905C178.671 58.0905 183.994 63.233 183.994 69.5765C183.994 75.9201 178.671 81.0625 172.104 81.0625C165.537 81.0625 160.213 75.9201 160.213 69.5765C160.213 63.233 165.537 58.0905 172.104 58.0905Z" fill="white"/>
<path d="M160.211 71.2087C166.778 71.2087 172.102 76.3512 172.102 82.6947C172.102 89.0382 166.778 94.1807 160.211 94.1807C153.644 94.1807 148.321 89.0382 148.321 82.6947C148.321 76.3512 153.644 71.2087 160.211 71.2087Z" fill="white"/>
<path d="M148.323 82.6936C154.89 82.6936 160.213 87.836 160.213 94.1796C160.213 100.523 154.89 105.666 148.323 105.666C141.756 105.666 136.432 100.523 136.432 94.1796C136.432 87.836 141.756 82.6936 148.323 82.6936Z" fill="white"/>
<path d="M139.136 94.1789C145.702 94.1789 151.026 99.3214 151.026 105.665C151.026 112.008 145.702 117.151 139.136 117.151C132.569 117.151 127.245 112.008 127.245 105.665C127.245 99.3214 132.569 94.1789 139.136 94.1789Z" fill="white"/>
<path d="M127.246 107.315C133.813 107.315 139.137 112.458 139.137 118.801C139.137 125.145 133.813 130.287 127.246 130.287C120.679 130.287 115.356 125.145 115.356 118.801C115.356 112.458 120.679 107.315 127.246 107.315Z" fill="white"/>
<path d="M120.147 118.93C126.714 118.93 132.037 124.073 132.037 130.416C132.037 136.76 126.714 141.902 120.147 141.902C113.58 141.902 108.256 136.76 108.256 130.416C108.256 124.073 113.58 118.93 120.147 118.93Z" fill="white"/>
<path d="M139.136 118.93C145.702 118.93 151.026 124.073 151.026 130.416C151.026 136.76 145.702 141.902 139.136 141.902C132.569 141.902 127.245 136.76 127.245 130.416C127.245 124.073 132.569 118.93 139.136 118.93Z" fill="white"/>
<path d="M152.512 118.798C159.079 118.798 164.402 123.941 164.402 130.284C164.402 136.628 159.079 141.77 152.512 141.77C145.945 141.77 140.622 136.628 140.622 130.284C140.622 123.941 145.945 118.798 152.512 118.798Z" fill="white"/>
<path d="M170.047 118.93C176.614 118.93 181.937 124.073 181.937 130.416C181.937 136.76 176.614 141.902 170.047 141.902C163.48 141.902 158.156 136.76 158.156 130.416C158.156 124.073 163.48 118.93 170.047 118.93Z" fill="white"/>
<path d="M181.074 118.93C187.641 118.93 192.965 124.073 192.965 130.416C192.965 136.76 187.641 141.902 181.074 141.902C174.507 141.902 169.184 136.76 169.184 130.416C169.184 124.073 174.507 118.93 181.074 118.93Z" fill="white"/>
<path d="M11.8905 101.568C18.4574 101.568 23.7809 106.711 23.7809 113.054C23.7809 119.398 18.4574 124.54 11.8905 124.54C5.32354 124.54 0 119.398 0 113.054C0 106.711 5.32354 101.568 11.8905 101.568Z" fill="white"/>
<path d="M11.8905 50.2805C18.4574 50.2805 23.7809 55.4229 23.7809 61.7665C23.7809 68.11 18.4574 73.2524 11.8905 73.2524C5.32354 73.2524 0 68.11 0 61.7665C0 55.4229 5.32354 50.2805 11.8905 50.2805Z" fill="white"/>
<path d="M11.8905 84.4739C18.4574 84.4739 23.7809 89.6163 23.7809 95.9598C23.7809 102.303 18.4574 107.446 11.8905 107.446C5.32354 107.446 0 102.303 0 95.9598C0 89.6163 5.32354 84.4739 11.8905 84.4739Z" fill="white"/>
<path d="M11.8905 33.1867C18.4574 33.1867 23.7809 38.3292 23.7809 44.6727C23.7809 51.0162 18.4574 56.1587 11.8905 56.1587C5.32354 56.1587 0 51.0162 0 44.6727C0 38.3292 5.32354 33.1867 11.8905 33.1867Z" fill="white"/>
<path d="M11.8905 16.0876C18.4574 16.0876 23.7809 21.2301 23.7809 27.5736C23.7809 33.9171 18.4574 39.0596 11.8905 39.0596C5.32354 39.0596 0 33.9171 0 27.5736C0 21.2301 5.32354 16.0876 11.8905 16.0876Z" fill="white"/>
<path d="M11.8905 67.3801C18.4574 67.3801 23.7809 72.5225 23.7809 78.8661C23.7809 85.2096 18.4574 90.3521 11.8905 90.3521C5.32354 90.3521 0 85.2096 0 78.8661C0 72.5225 5.32354 67.3801 11.8905 67.3801Z" fill="white"/>
<path d="M30.7933 67.3801C37.3602 67.3801 42.6837 72.5225 42.6837 78.8661C42.6837 85.2096 37.3602 90.3521 30.7933 90.3521C24.2264 90.3521 18.9028 85.2096 18.9028 78.8661C18.9028 72.5225 24.2264 67.3801 30.7933 67.3801Z" fill="white"/>
<path d="M27.5643 16.0876C34.1312 16.0876 39.4547 21.2301 39.4547 27.5736C39.4547 33.9171 34.1312 39.0596 27.5643 39.0596C20.9974 39.0596 15.6738 33.9171 15.6738 27.5736C15.6738 21.2301 20.9974 16.0876 27.5643 16.0876Z" fill="white"/>
<path d="M44.8558 16.0876C51.4227 16.0876 56.7462 21.2301 56.7462 27.5736C56.7462 33.9171 51.4227 39.0596 44.8558 39.0596C38.2889 39.0596 32.9653 33.9171 32.9653 27.5736C32.9653 21.2301 38.2889 16.0876 44.8558 16.0876Z" fill="white"/>
<path d="M63.8802 16.0876C70.4471 16.0876 75.7707 21.2301 75.7707 27.5736C75.7707 33.9171 70.4471 39.0596 63.8802 39.0596C57.3133 39.0596 51.9897 33.9171 51.9897 27.5736C51.9897 21.2301 57.3133 16.0876 63.8802 16.0876Z" fill="white"/>
<path d="M77.8231 16.0876C84.39 16.0876 89.7135 21.2301 89.7135 27.5736C89.7135 33.9171 84.39 39.0596 77.8231 39.0596C71.2562 39.0596 65.9326 33.9171 65.9326 27.5736C65.9326 21.2301 71.2562 16.0876 77.8231 16.0876Z" fill="white"/>
<path d="M49.3607 67.3801C55.9276 67.3801 61.2511 72.5225 61.2511 78.8661C61.2511 85.2096 55.9276 90.3521 49.3607 90.3521C42.7938 90.3521 37.4702 85.2096 37.4702 78.8661C37.4702 72.5225 42.7938 67.3801 49.3607 67.3801Z" fill="white"/>
<path d="M67.1771 69.5754C73.744 69.5754 79.0675 74.7179 79.0675 81.0614C79.0675 87.4049 73.744 92.5474 67.1771 92.5474C60.6102 92.5474 55.2866 87.4049 55.2866 81.0614C55.2866 74.7179 60.6102 69.5754 67.1771 69.5754Z" fill="white"/>
<path d="M80.7542 81.0637C87.3211 81.0637 92.6447 86.2061 92.6447 92.5497C92.6447 98.8932 87.3211 104.036 80.7542 104.036C74.1873 104.036 68.8638 98.8932 68.8638 92.5497C68.8638 86.2061 74.1873 81.0637 80.7542 81.0637Z" fill="white"/>
<path d="M80.7542 95.9597C87.3211 95.9597 92.6447 101.102 92.6447 107.446C92.6447 113.789 87.3211 118.932 80.7542 118.932C74.1873 118.932 68.8638 113.789 68.8638 107.446C68.8638 101.102 74.1873 95.9597 80.7542 95.9597Z" fill="white"/>
<path d="M75.7689 111.74C82.3358 111.74 87.6593 116.882 87.6593 123.226C87.6593 129.569 82.3358 134.712 75.7689 134.712C69.202 134.712 63.8784 129.569 63.8784 123.226C63.8784 116.882 69.202 111.74 75.7689 111.74Z" fill="white"/>
<path d="M59.6004 118.932C66.1673 118.932 71.4909 124.075 71.4909 130.418C71.4909 136.762 66.1673 141.904 59.6004 141.904C53.0335 141.904 47.71 136.762 47.71 130.418C47.71 124.075 53.0335 118.932 59.6004 118.932Z" fill="white"/>
<path d="M27.5643 118.797C34.1312 118.797 39.4547 123.94 39.4547 130.283C39.4547 136.627 34.1312 141.769 27.5643 141.769C20.9974 141.769 15.6738 136.627 15.6738 130.283C15.6738 123.94 20.9974 118.797 27.5643 118.797Z" fill="white"/>
<path d="M44.8558 118.797C51.4227 118.797 56.7462 123.94 56.7462 130.283C56.7462 136.627 51.4227 141.769 44.8558 141.769C38.2889 141.769 32.9653 136.627 32.9653 130.283C32.9653 123.94 38.2889 118.797 44.8558 118.797Z" fill="white"/>
<path d="M11.8905 118.797C18.4574 118.797 23.7809 123.94 23.7809 130.283C23.7809 136.627 18.4574 141.769 11.8905 141.769C5.32354 141.769 0 136.627 0 130.283C0 123.94 5.32354 118.797 11.8905 118.797Z" fill="white"/>
</svg>
