<svg width="155" height="202" viewBox="0 0 155 202" fill="none" xmlns="http://www.w3.org/2000/svg">
<path d="M19.162 2.03822C29.7449 2.03822 38.3241 10.3255 38.3241 20.5484C38.3241 30.7713 29.7449 39.0586 19.162 39.0586C8.57913 39.0586 0 30.7713 0 20.5484C0 10.3255 8.57913 2.03822 19.162 2.03822Z" fill="white"/>
<path d="M45.2874 -0.000106812C55.8703 -0.000106812 64.4494 8.28719 64.4494 18.5101C64.4494 28.733 55.8703 37.0203 45.2874 37.0203C34.7045 37.0203 26.1253 28.733 26.1253 18.5101C26.1253 8.28719 34.7045 -0.000106812 45.2874 -0.000106812Z" fill="white"/>
<path d="M77.7852 -0.000106812C88.3681 -0.000106812 96.9472 8.28719 96.9472 18.5101C96.9472 28.733 88.3681 37.0203 77.7852 37.0203C67.2023 37.0203 58.6232 28.733 58.6232 18.5101C58.6232 8.28719 67.2023 -0.000106812 77.7852 -0.000106812Z" fill="white"/>
<path d="M107.546 6.18129C118.129 6.18129 126.708 14.4686 126.708 24.6915C126.708 34.9144 118.129 43.2017 107.546 43.2017C96.9631 43.2017 88.384 34.9144 88.384 24.6915C88.384 14.4686 96.9631 6.18129 107.546 6.18129Z" fill="white"/>
<path d="M116.109 34.6476C126.692 34.6476 135.271 42.9349 135.271 53.1578C135.271 63.3807 126.692 71.668 116.109 71.668C105.526 71.668 96.9472 63.3807 96.9472 53.1578C96.9472 42.9349 105.526 34.6476 116.109 34.6476Z" fill="white"/>
<path d="M104.218 62.4298C114.801 62.4298 123.38 70.7171 123.38 80.94C123.38 91.1629 114.801 99.4502 104.218 99.4502C93.6352 99.4502 85.0561 91.1629 85.0561 80.94C85.0561 70.7171 93.6352 62.4298 104.218 62.4298Z" fill="white"/>
<path d="M80.4317 77.8371C91.0146 77.8371 99.5937 86.1243 99.5937 96.3472C99.5937 106.57 91.0146 114.857 80.4317 114.857C69.8488 114.857 61.2697 106.57 61.2697 96.3472C61.2697 86.1243 69.8488 77.8371 80.4317 77.8371Z" fill="white"/>
<path d="M113.235 91.4957C123.818 91.4957 132.397 99.783 132.397 110.006C132.397 120.229 123.818 128.516 113.235 128.516C102.652 128.516 94.0728 120.229 94.0728 110.006C94.0728 99.783 102.652 91.4957 113.235 91.4957Z" fill="white"/>
<path d="M135.271 115.418C145.854 115.418 154.433 123.705 154.433 133.928C154.433 144.151 145.854 152.438 135.271 152.438C124.688 152.438 116.109 144.151 116.109 133.928C116.109 123.705 124.688 115.418 135.271 115.418Z" fill="white"/>
<path d="M132.397 143.635C142.98 143.635 151.559 151.922 151.559 162.145C151.559 172.368 142.98 180.655 132.397 180.655C121.814 180.655 113.235 172.368 113.235 162.145C113.235 151.922 121.814 143.635 132.397 143.635Z" fill="white"/>
<path d="M88.384 163.889C98.9669 163.889 107.546 172.176 107.546 182.399C107.546 192.622 98.9669 200.909 88.384 200.909C77.8011 200.909 69.222 192.622 69.222 182.399C69.222 172.176 77.8011 163.889 88.384 163.889Z" fill="white"/>
<path d="M118.756 160.329C129.339 160.329 137.918 168.617 137.918 178.839C137.918 189.062 129.339 197.35 118.756 197.35C108.173 197.35 99.5941 189.062 99.5941 178.839C99.5941 168.617 108.173 160.329 118.756 160.329Z" fill="white"/>
<path d="M54.2036 164.98C64.7865 164.98 73.3656 173.267 73.3656 183.49C73.3656 193.713 64.7865 202 54.2036 202C43.6207 202 35.0416 193.713 35.0416 183.49C35.0416 173.267 43.6207 164.98 54.2036 164.98Z" fill="white"/>
<path d="M45.2873 77.8373C55.8702 77.8373 64.4494 86.1246 64.4494 96.3475C64.4494 106.57 55.8702 114.858 45.2873 114.858C34.7044 114.858 26.1253 106.57 26.1253 96.3475C26.1253 86.1246 34.7044 77.8373 45.2873 77.8373Z" fill="white"/>
<path d="M19.162 33.9205C29.7449 33.9205 38.3241 42.2078 38.3241 52.4307C38.3241 62.6536 29.7449 70.9409 19.162 70.9409C8.57913 70.9409 0 62.6536 0 52.4307C0 42.2078 8.57913 33.9205 19.162 33.9205Z" fill="white"/>
<path d="M19.162 67.3822C29.7449 67.3822 38.3241 75.6695 38.3241 85.8924C38.3241 96.1153 29.7449 104.403 19.162 104.403C8.57913 104.403 0 96.1153 0 85.8924C0 75.6695 8.57913 67.3822 19.162 67.3822Z" fill="white"/>
<path d="M19.162 99.4501C29.7449 99.4501 38.3241 107.737 38.3241 117.96C38.3241 128.183 29.7449 136.47 19.162 136.47C8.57913 136.47 0 128.183 0 117.96C0 107.737 8.57913 99.4501 19.162 99.4501Z" fill="white"/>
<path d="M19.162 130.436C29.7449 130.436 38.3241 138.723 38.3241 148.946C38.3241 159.169 29.7449 167.456 19.162 167.456C8.57913 167.456 0 159.169 0 148.946C0 138.723 8.57913 130.436 19.162 130.436Z" fill="white"/>
<path d="M19.162 163.889C29.7449 163.889 38.3241 172.176 38.3241 182.399C38.3241 192.622 29.7449 200.909 19.162 200.909C8.57913 200.909 0 192.622 0 182.399C0 172.176 8.57913 163.889 19.162 163.889Z" fill="white"/>
</svg>
