<svg width="101" height="128" viewBox="0 0 101 128" fill="none" xmlns="http://www.w3.org/2000/svg">
<path d="M18.9811 84.8136C24.2953 84.8136 28.6033 88.975 28.6033 94.1084C28.6033 99.2419 24.2953 103.403 18.9811 103.403C13.6669 103.403 9.35889 99.2419 9.35889 94.1084C9.35889 88.975 13.6669 84.8136 18.9811 84.8136Z" fill="#F6F6F6"/>
<path d="M33.5204 84.8136C38.8346 84.8136 43.1426 88.975 43.1426 94.1084C43.1426 99.2419 38.8346 103.403 33.5204 103.403C28.2062 103.403 23.8982 99.2419 23.8982 94.1084C23.8982 88.975 28.2062 84.8136 33.5204 84.8136Z" fill="#F6F6F6"/>
<path d="M50.1976 84.8136C55.5118 84.8136 59.8198 88.975 59.8198 94.1084C59.8198 99.2419 55.5118 103.403 50.1976 103.403C44.8834 103.403 40.5754 99.2419 40.5754 94.1084C40.5754 88.975 44.8834 84.8136 50.1976 84.8136Z" fill="#F6F6F6"/>
<path d="M64.2433 84.8136C69.5575 84.8136 73.8655 88.975 73.8655 94.1084C73.8655 99.2419 69.5575 103.403 64.2433 103.403C58.9291 103.403 54.6211 99.2419 54.6211 94.1084C54.6211 88.975 58.9291 84.8136 64.2433 84.8136Z" fill="#F6F6F6"/>
<path d="M78.6984 84.8136C84.0126 84.8136 88.3206 88.975 88.3206 94.1084C88.3206 99.2419 84.0126 103.403 78.6984 103.403C73.3842 103.403 69.0762 99.2419 69.0762 94.1084C69.0762 88.975 73.3842 84.8136 78.6984 84.8136Z" fill="#F6F6F6"/>
<path d="M80.3126 71.2769C85.6268 71.2769 89.9348 75.4384 89.9348 80.5718C89.9348 85.7052 85.6268 89.8667 80.3126 89.8667C74.9984 89.8667 70.6904 85.7052 70.6904 80.5718C70.6904 75.4384 74.9984 71.2769 80.3126 71.2769Z" fill="#F6F6F6"/>
<path d="M80.3126 56.9381C85.6268 56.9381 89.9348 61.0995 89.9348 66.233C89.9348 71.3664 85.6268 75.5278 80.3126 75.5278C74.9984 75.5278 70.6904 71.3664 70.6904 66.233C70.6904 61.0995 74.9984 56.9381 80.3126 56.9381Z" fill="#F6F6F6"/>
<path d="M80.3126 41.7227C85.6268 41.7227 89.9348 45.8842 89.9348 51.0176C89.9348 56.151 85.6268 60.3125 80.3126 60.3125C74.9984 60.3125 70.6904 56.151 70.6904 51.0176C70.6904 45.8842 74.9984 41.7227 80.3126 41.7227Z" fill="#F6F6F6"/>
<path d="M80.3126 26.5401C85.6268 26.5401 89.9348 30.7016 89.9348 35.835C89.9348 40.9684 85.6268 45.1299 80.3126 45.1299C74.9984 45.1299 70.6904 40.9684 70.6904 35.835C70.6904 30.7016 74.9984 26.5401 80.3126 26.5401Z" fill="#F6F6F6"/>
<path d="M80.3126 13.461C85.6268 13.461 89.9348 17.6225 89.9348 22.7559C89.9348 27.8893 85.6268 32.0508 80.3126 32.0508C74.9984 32.0508 70.6904 27.8893 70.6904 22.7559C70.6904 17.6225 74.9984 13.461 80.3126 13.461Z" fill="#F6F6F6"/>
<path d="M80.3126 8.96454e-05C85.6268 8.96454e-05 89.9348 4.16155 89.9348 9.29497C89.9348 14.4284 85.6268 18.5898 80.3126 18.5898C74.9984 18.5898 70.6904 14.4284 70.6904 9.29497C70.6904 4.16155 74.9984 8.96454e-05 80.3126 8.96454e-05Z" fill="#F6F6F6"/>
<path d="M67.5817 8.96454e-05C72.8959 8.96454e-05 77.2039 4.16155 77.2039 9.29497C77.2039 14.4284 72.8959 18.5898 67.5817 18.5898C62.2675 18.5898 57.9595 14.4284 57.9595 9.29497C57.9595 4.16155 62.2675 8.96454e-05 67.5817 8.96454e-05Z" fill="#F6F6F6"/>
<path d="M50.1976 8.96454e-05C55.5118 8.96454e-05 59.8198 4.16155 59.8198 9.29497C59.8198 14.4284 55.5118 18.5898 50.1976 18.5898C44.8834 18.5898 40.5754 14.4284 40.5754 9.29497C40.5754 4.16155 44.8834 8.96454e-05 50.1976 8.96454e-05Z" fill="#F6F6F6"/>
<path d="M33.5204 8.96454e-05C38.8346 8.96454e-05 43.1426 4.16155 43.1426 9.29497C43.1426 14.4284 38.8346 18.5898 33.5204 18.5898C28.2062 18.5898 23.8982 14.4284 23.8982 9.29497C23.8982 4.16155 28.2062 8.96454e-05 33.5204 8.96454e-05Z" fill="#F6F6F6"/>
<path d="M33.5204 13.461C38.8346 13.461 43.1426 17.6225 43.1426 22.7559C43.1426 27.8893 38.8346 32.0508 33.5204 32.0508C28.2062 32.0508 23.8982 27.8893 23.8982 22.7559C23.8982 17.6225 28.2062 13.461 33.5204 13.461Z" fill="#F6F6F6"/>
<path d="M33.5204 27.776C38.8346 27.776 43.1426 31.9374 43.1426 37.0708C43.1426 42.2043 38.8346 46.3657 33.5204 46.3657C28.2062 46.3657 23.8982 42.2043 23.8982 37.0708C23.8982 31.9374 28.2062 27.776 33.5204 27.776Z" fill="#F6F6F6"/>
<path d="M31.3055 41.7227C36.6197 41.7227 40.9277 45.8842 40.9277 51.0176C40.9277 56.151 36.6197 60.3125 31.3055 60.3125C25.9914 60.3125 21.6833 56.151 21.6833 51.0176C21.6833 45.8842 25.9914 41.7227 31.3055 41.7227Z" fill="#F6F6F6"/>
<path d="M28.6029 55.4439C33.9171 55.4439 38.2251 59.6054 38.2251 64.7388C38.2251 69.8722 33.9171 74.0337 28.6029 74.0337C23.2887 74.0337 18.9807 69.8722 18.9807 64.7388C18.9807 59.6054 23.2887 55.4439 28.6029 55.4439Z" fill="#F6F6F6"/>
<path d="M23.8964 66.234C29.2106 66.234 33.5186 70.3954 33.5186 75.5289C33.5186 80.6623 29.2106 84.8237 23.8964 84.8237C18.5822 84.8237 14.2742 80.6623 14.2742 75.5289C14.2742 70.3954 18.5822 66.234 23.8964 66.234Z" fill="#F6F6F6"/>
<path d="M18.9811 77.5103C24.2953 77.5103 28.6033 81.6718 28.6033 86.8052C28.6033 91.9386 24.2953 96.1001 18.9811 96.1001C13.6669 96.1001 9.35889 91.9386 9.35889 86.8052C9.35889 81.6718 13.6669 77.5103 18.9811 77.5103Z" fill="#F6F6F6"/>
<path d="M90.6134 84.8136C95.9276 84.8136 100.236 88.975 100.236 94.1084C100.236 99.2419 95.9276 103.403 90.6134 103.403C85.2992 103.403 80.9912 99.2419 80.9912 94.1084C80.9912 88.975 85.2992 84.8136 90.6134 84.8136Z" fill="#F6F6F6"/>
<path d="M9.6222 86.5733C14.9364 86.5733 19.2444 90.7348 19.2444 95.8682C19.2444 101.002 14.9364 105.163 9.6222 105.163C4.308 105.163 0 101.002 0 95.8682C0 90.7348 4.308 86.5733 9.6222 86.5733Z" fill="#F6F6F6"/>
<path d="M90.6134 96.0992C95.9276 96.0992 100.236 100.261 100.236 105.394C100.236 110.528 95.9276 114.689 90.6134 114.689C85.2992 114.689 80.9912 110.528 80.9912 105.394C80.9912 100.261 85.2992 96.0992 90.6134 96.0992Z" fill="#F6F6F6"/>
<path d="M9.6222 97.8673C14.9364 97.8673 19.2444 102.029 19.2444 107.162C19.2444 112.296 14.9364 116.457 9.6222 116.457C4.308 116.457 0 112.296 0 107.162C0 102.029 4.308 97.8673 9.6222 97.8673Z" fill="#F6F6F6"/>
<path d="M90.6134 106.929C95.9276 106.929 100.236 111.09 100.236 116.224C100.236 121.357 95.9276 125.519 90.6134 125.519C85.2992 125.519 80.9912 121.357 80.9912 116.224C80.9912 111.09 85.2992 106.929 90.6134 106.929Z" fill="#F6F6F6"/>
<path d="M9.6222 108.692C14.9364 108.692 19.2444 112.854 19.2444 117.987C19.2444 123.121 14.9364 127.282 9.6222 127.282C4.308 127.282 0 123.121 0 117.987C0 112.854 4.308 108.692 9.6222 108.692Z" fill="#F6F6F6"/>
<path d="M9.6222 84.8136C14.9364 84.8136 19.2444 88.975 19.2444 94.1084C19.2444 99.2419 14.9364 103.403 9.6222 103.403C4.308 103.403 0 99.2419 0 94.1084C0 88.975 4.308 84.8136 9.6222 84.8136Z" fill="#F6F6F6"/>
</svg>
