<svg width="85" height="107" viewBox="0 0 85 107" fill="none" xmlns="http://www.w3.org/2000/svg">
<path d="M10.3318 69.2613C16.0379 69.2613 20.6637 73.7423 20.6637 79.2698C20.6637 84.7974 16.0379 89.2783 10.3318 89.2783C4.62572 89.2783 0 84.7974 0 79.2698C0 73.7423 4.62572 69.2613 10.3318 69.2613Z" fill="#F6F6F6"/>
<path d="M10.3318 51.5284C16.0379 51.5284 20.6637 56.0094 20.6637 61.5369C20.6637 67.0645 16.0379 71.5454 10.3318 71.5454C4.62572 71.5454 0 67.0645 0 61.5369C0 56.0094 4.62572 51.5284 10.3318 51.5284Z" fill="#F6F6F6"/>
<path d="M10.3318 34.6329C16.0379 34.6329 20.6637 39.1139 20.6637 44.6414C20.6637 50.169 16.0379 54.6499 10.3318 54.6499C4.62572 54.6499 0 50.169 0 44.6414C0 39.1139 4.62572 34.6329 10.3318 34.6329Z" fill="#F6F6F6"/>
<path d="M10.3318 17.5109C16.0379 17.5109 20.6637 21.9918 20.6637 27.5193C20.6637 33.0469 16.0379 37.5278 10.3318 37.5278C4.62572 37.5278 0 33.0469 0 27.5193C0 21.9918 4.62572 17.5109 10.3318 17.5109Z" fill="#F6F6F6"/>
<path d="M10.3318 0.000116348C16.0379 0.000116348 20.6637 4.48107 20.6637 10.0086C20.6637 15.5361 16.0379 20.0171 10.3318 20.0171C4.62572 20.0171 0 15.5361 0 10.0086C0 4.48107 4.62572 0.000116348 10.3318 0.000116348Z" fill="#F6F6F6"/>
<path d="M25.2945 0.068964C31.0006 0.068964 35.6263 4.54992 35.6263 10.0775C35.6263 15.605 31.0006 20.0859 25.2945 20.0859C19.5884 20.0859 14.9626 15.605 14.9626 10.0775C14.9626 4.54992 19.5884 0.068964 25.2945 0.068964Z" fill="#F6F6F6"/>
<path d="M41.8406 0.068964C47.5467 0.068964 52.1725 4.54992 52.1725 10.0775C52.1725 15.605 47.5467 20.0859 41.8406 20.0859C36.1345 20.0859 31.5088 15.605 31.5088 10.0775C31.5088 4.54992 36.1345 0.068964 41.8406 0.068964Z" fill="#F6F6F6"/>
<path d="M59.0401 0.000116348C64.7462 0.000116348 69.3719 4.48107 69.3719 10.0086C69.3719 15.5361 64.7462 20.0171 59.0401 20.0171C53.334 20.0171 48.7083 15.5361 48.7083 10.0086C48.7083 4.48107 53.334 0.000116348 59.0401 0.000116348Z" fill="#F6F6F6"/>
<path d="M25.2945 41.5196C31.0006 41.5196 35.6263 46.0006 35.6263 51.5281C35.6263 57.0557 31.0006 61.5366 25.2945 61.5366C19.5884 61.5366 14.9626 57.0557 14.9626 51.5281C14.9626 46.0006 19.5884 41.5196 25.2945 41.5196Z" fill="#F6F6F6"/>
<path d="M25.6182 86.0904C31.3243 86.0904 35.95 90.5714 35.95 96.0989C35.95 101.626 31.3243 106.107 25.6182 106.107C19.9121 106.107 15.2864 101.626 15.2864 96.0989C15.2864 90.5714 19.9121 86.0904 25.6182 86.0904Z" fill="#F6F6F6"/>
<path d="M41.7117 41.5196C47.4178 41.5196 52.0435 46.0006 52.0435 51.5281C52.0435 57.0557 47.4178 61.5366 41.7117 61.5366C36.0056 61.5366 31.3799 57.0557 31.3799 51.5281C31.3799 46.0006 36.0056 41.5196 41.7117 41.5196Z" fill="#F6F6F6"/>
<path d="M42.0347 86.0904C47.7408 86.0904 52.3665 90.5714 52.3665 96.0989C52.3665 101.626 47.7408 106.107 42.0347 106.107C36.3286 106.107 31.7029 101.626 31.7029 96.0989C31.7029 90.5714 36.3286 86.0904 42.0347 86.0904Z" fill="#F6F6F6"/>
<path d="M57.1307 41.5196C62.8368 41.5196 67.4625 46.0006 67.4625 51.5281C67.4625 57.0557 62.8368 61.5366 57.1307 61.5366C51.4245 61.5366 46.7988 57.0557 46.7988 51.5281C46.7988 46.0006 51.4245 41.5196 57.1307 41.5196Z" fill="#F6F6F6"/>
<path d="M57.4522 86.0904C63.1583 86.0904 67.784 90.5714 67.784 96.0989C67.784 101.626 63.1583 106.107 57.4522 106.107C51.7461 106.107 47.1204 101.626 47.1204 96.0989C47.1204 90.5714 51.7461 86.0904 57.4522 86.0904Z" fill="#F6F6F6"/>
<path d="M71.4766 41.5196C77.1827 41.5196 81.8084 46.0006 81.8084 51.5281C81.8084 57.0557 77.1827 61.5366 71.4766 61.5366C65.7705 61.5366 61.1448 57.0557 61.1448 51.5281C61.1448 46.0006 65.7705 41.5196 71.4766 41.5196Z" fill="#F6F6F6"/>
<path d="M71.7981 86.0904C77.5043 86.0904 82.13 90.5714 82.13 96.0989C82.13 101.626 77.5043 106.107 71.7981 106.107C66.092 106.107 61.4663 101.626 61.4663 96.0989C61.4663 90.5714 66.092 86.0904 71.7981 86.0904Z" fill="#F6F6F6"/>
<path d="M74.3653 0.000116348C80.0714 0.000116348 84.6971 4.48107 84.6971 10.0086C84.6971 15.5361 80.0714 20.0171 74.3653 20.0171C68.6592 20.0171 64.0334 15.5361 64.0334 10.0086C64.0334 4.48107 68.6592 0.000116348 74.3653 0.000116348Z" fill="#F6F6F6"/>
<path d="M10.3318 86.0904C16.0379 86.0904 20.6637 90.5714 20.6637 96.0989C20.6637 101.626 16.0379 106.107 10.3318 106.107C4.62572 106.107 0 101.626 0 96.0989C0 90.5714 4.62572 86.0904 10.3318 86.0904Z" fill="#F6F6F6"/>
</svg>
