<svg width="243" height="200" viewBox="0 0 243 200" fill="none" xmlns="http://www.w3.org/2000/svg">
<path d="M144.862 80.687C154.806 80.687 162.867 88.4737 162.867 98.0791C162.867 107.684 154.806 115.471 144.862 115.471C134.918 115.471 126.858 107.684 126.858 98.0791C126.858 88.4737 134.918 80.687 144.862 80.687Z" fill="white"/>
<path d="M168.692 61.7812C178.636 61.7812 186.697 69.5679 186.697 79.1733C186.697 88.7787 178.636 96.5654 168.692 96.5654C158.749 96.5654 150.688 88.7787 150.688 79.1733C150.688 69.5679 158.749 61.7812 168.692 61.7812Z" fill="white"/>
<path d="M188.751 40.1975C198.694 40.1975 206.755 47.9842 206.755 57.5896C206.755 67.195 198.694 74.9817 188.751 74.9817C178.807 74.9817 170.746 67.195 170.746 57.5896C170.746 47.9842 178.807 40.1975 188.751 40.1975Z" fill="white"/>
<path d="M208.778 17.813C218.722 17.813 226.782 25.5997 226.782 35.2051C226.782 44.8105 218.722 52.5972 208.778 52.5972C198.834 52.5972 190.773 44.8105 190.773 35.2051C190.773 25.5997 198.834 17.813 208.778 17.813Z" fill="white"/>
<path d="M224.763 0.00435638C234.707 0.00435638 242.768 7.79107 242.768 17.3965C242.768 27.0019 234.707 34.7886 224.763 34.7886C214.819 34.7886 206.759 27.0019 206.759 17.3965C206.759 7.79107 214.819 0.00435638 224.763 0.00435638Z" fill="white"/>
<path d="M165.838 94.007C175.782 94.007 183.843 101.794 183.843 111.399C183.843 121.005 175.782 128.791 165.838 128.791C155.895 128.791 147.834 121.005 147.834 111.399C147.834 101.794 155.895 94.007 165.838 94.007Z" fill="white"/>
<path d="M180.869 119.491C190.813 119.491 198.874 127.278 198.874 136.883C198.874 146.489 190.813 154.275 180.869 154.275C170.926 154.275 162.865 146.489 162.865 136.883C162.865 127.278 170.926 119.491 180.869 119.491Z" fill="white"/>
<path d="M198.876 140.637C208.819 140.637 216.88 148.424 216.88 158.029C216.88 167.635 208.819 175.421 198.876 175.421C188.932 175.421 180.871 167.635 180.871 158.029C180.871 148.424 188.932 140.637 198.876 140.637Z" fill="white"/>
<path d="M216.88 164.54C226.824 164.54 234.885 172.326 234.885 181.932C234.885 191.537 226.824 199.324 216.88 199.324C206.937 199.324 198.876 191.537 198.876 181.932C198.876 172.326 206.937 164.54 216.88 164.54Z" fill="white"/>
<path d="M97.905 80.6831C87.9613 80.6831 79.9004 88.4698 79.9004 98.0752C79.9004 107.681 87.9613 115.467 97.905 115.467C107.849 115.467 115.91 107.681 115.91 98.0752C115.91 88.4698 107.849 80.6831 97.905 80.6831Z" fill="white"/>
<path d="M74.0737 61.7775C64.13 61.7775 56.0691 69.5643 56.0691 79.1697C56.0691 88.7751 64.13 96.5618 74.0737 96.5618C84.0173 96.5618 92.0782 88.7751 92.0782 79.1697C92.0782 69.5643 84.0173 61.7775 74.0737 61.7775Z" fill="white"/>
<path d="M54.0136 40.1943C44.07 40.1943 36.009 47.981 36.009 57.5864C36.009 67.1918 44.07 74.9785 54.0136 74.9785C63.9573 74.9785 72.0182 67.1918 72.0182 57.5864C72.0182 47.981 63.9573 40.1943 54.0136 40.1943Z" fill="white"/>
<path d="M33.9892 17.8098C24.0455 17.8098 15.9846 25.5965 15.9846 35.2019C15.9846 44.8073 24.0455 52.594 33.9892 52.594C43.9329 52.594 51.9938 44.8073 51.9938 35.2019C51.9938 25.5965 43.9329 17.8098 33.9892 17.8098Z" fill="white"/>
<path d="M18.0046 -3.8147e-05C8.06093 -3.8147e-05 3.8147e-06 7.78667 3.8147e-06 17.3921C3.8147e-06 26.9975 8.06093 34.7842 18.0046 34.7842C27.9482 34.7842 36.0092 26.9975 36.0092 17.3921C36.0092 7.78667 27.9482 -3.8147e-05 18.0046 -3.8147e-05Z" fill="white"/>
<path d="M76.9295 94.0036C66.9859 94.0036 58.9249 101.79 58.9249 111.396C58.9249 121.001 66.9859 128.788 76.9295 128.788C86.8732 128.788 94.9341 121.001 94.9341 111.396C94.9341 101.79 86.8732 94.0036 76.9295 94.0036Z" fill="white"/>
<path d="M61.8942 119.486C51.9506 119.486 43.8897 127.273 43.8897 136.878C43.8897 146.483 51.9506 154.27 61.8942 154.27C71.8379 154.27 79.8988 146.483 79.8988 136.878C79.8988 127.273 71.8379 119.486 61.8942 119.486Z" fill="white"/>
<path d="M43.8895 140.634C33.9458 140.634 25.8849 148.421 25.8849 158.026C25.8849 167.632 33.9458 175.418 43.8895 175.418C53.8331 175.418 61.894 167.632 61.894 158.026C61.894 148.421 53.8331 140.634 43.8895 140.634Z" fill="white"/>
<path d="M25.8835 164.533C15.9398 164.533 7.87891 172.32 7.87891 181.926C7.87891 191.531 15.9398 199.318 25.8835 199.318C35.8271 199.318 43.8881 191.531 43.8881 181.926C43.8881 172.32 35.8271 164.533 25.8835 164.533Z" fill="white"/>
<path d="M119.389 39.3208C129.333 39.3208 137.394 47.1075 137.394 56.7129C137.394 66.3183 129.333 74.105 119.389 74.105C109.445 74.105 101.385 66.3183 101.385 56.7129C101.385 47.1075 109.445 39.3208 119.389 39.3208Z" fill="white"/>
<path d="M119.39 10.6675C129.333 10.6675 137.394 18.746 137.394 28.7113C137.394 38.6766 129.333 46.7551 119.39 46.7551C109.446 46.7551 101.385 38.6766 101.385 28.7113C101.385 18.746 109.446 10.6675 119.39 10.6675Z" fill="white"/>
<path d="M119.389 70.1933C129.333 70.1933 137.394 77.98 137.394 87.5854C137.394 97.1908 129.333 104.978 119.389 104.978C109.445 104.978 101.384 97.1908 101.384 87.5854C101.384 77.98 109.445 70.1933 119.389 70.1933Z" fill="white"/>
<path d="M119.389 101.222C129.333 101.222 137.394 109.009 137.394 118.614C137.394 128.219 129.333 136.006 119.389 136.006C109.446 136.006 101.385 128.219 101.385 118.614C101.385 109.009 109.446 101.222 119.389 101.222Z" fill="white"/>
<path d="M119.39 133.563C129.334 133.563 137.395 141.35 137.395 150.956C137.395 160.561 129.334 168.348 119.39 168.348C109.446 168.348 101.385 160.561 101.385 150.956C101.385 141.35 109.446 133.563 119.39 133.563Z" fill="white"/>
<path d="M119.389 163.659C129.333 163.659 137.394 171.446 137.394 181.051C137.394 190.657 129.333 198.443 119.389 198.443C109.445 198.443 101.385 190.657 101.385 181.051C101.385 171.446 109.445 163.659 119.389 163.659Z" fill="white"/>
</svg>
