<svg width="162" height="200" viewBox="0 0 162 200" fill="none" xmlns="http://www.w3.org/2000/svg">
<path d="M83.2058 88.682C93.7298 88.682 102.261 96.9232 102.261 107.089C102.261 117.255 93.7298 125.496 83.2058 125.496C72.6818 125.496 64.1504 117.255 64.1504 107.089C64.1504 96.9232 72.6818 88.682 83.2058 88.682Z" fill="white"/>
<path d="M19.0554 162.971C29.5794 162.971 38.1108 171.212 38.1108 181.378C38.1108 191.544 29.5794 199.785 19.0554 199.785C8.53138 199.785 0 191.544 0 181.378C0 171.212 8.53138 162.971 19.0554 162.971Z" fill="white"/>
<path d="M44.6923 138.743C55.2163 138.743 63.7477 146.984 63.7477 157.15C63.7477 167.316 55.2163 175.557 44.6923 175.557C34.1683 175.557 25.637 167.316 25.637 157.15C25.637 146.984 34.1683 138.743 44.6923 138.743Z" fill="white"/>
<path d="M63.748 115.757C74.272 115.757 82.8034 123.999 82.8034 134.165C82.8034 144.331 74.272 152.572 63.748 152.572C53.224 152.572 44.6926 144.331 44.6926 134.165C44.6926 123.999 53.224 115.757 63.748 115.757Z" fill="white"/>
<path d="M104.188 61.8885C114.712 61.8885 123.244 70.1297 123.244 80.2957C123.244 90.4617 114.712 98.7029 104.188 98.7029C93.6643 98.7029 85.1329 90.4617 85.1329 80.2957C85.1329 70.1297 93.6643 61.8885 104.188 61.8885Z" fill="white"/>
<path d="M121.315 36.8141C131.839 36.8141 140.37 45.0552 140.37 55.2212C140.37 65.3872 131.839 73.6284 121.315 73.6284C110.791 73.6284 102.26 65.3872 102.26 55.2212C102.26 45.0552 110.791 36.8141 121.315 36.8141Z" fill="white"/>
<path d="M142.47 0.000110626C152.994 0.000110626 161.526 8.24128 161.526 18.4073C161.526 28.5733 152.994 36.8145 142.47 36.8145C131.946 36.8145 123.415 28.5733 123.415 18.4073C123.415 8.24128 131.946 0.000110626 142.47 0.000110626Z" fill="white"/>
<path d="M140.37 18.4071C150.894 18.4071 159.426 26.6483 159.426 36.8143C159.426 46.9803 150.894 55.2214 140.37 55.2214C129.846 55.2214 121.315 46.9803 121.315 36.8143C121.315 26.6483 129.846 18.4071 140.37 18.4071Z" fill="white"/>
<path d="M142.47 43.8861C152.994 43.8861 161.526 52.1273 161.526 62.2933C161.526 72.4593 152.994 80.7004 142.47 80.7004C131.946 80.7004 123.415 72.4593 123.415 62.2933C123.415 52.1273 131.946 43.8861 142.47 43.8861Z" fill="white"/>
<path d="M142.47 73.6278C152.994 73.6278 161.526 81.869 161.526 92.035C161.526 102.201 152.994 110.442 142.47 110.442C131.946 110.442 123.415 102.201 123.415 92.035C123.415 81.869 131.946 73.6278 142.47 73.6278Z" fill="white"/>
<path d="M142.47 106.019C152.994 106.019 161.526 114.26 161.526 124.426C161.526 134.592 152.994 142.833 142.47 142.833C131.946 142.833 123.415 134.592 123.415 124.426C123.415 114.26 131.946 106.019 142.47 106.019Z" fill="white"/>
<path d="M142.47 136.161C152.994 136.161 161.526 144.402 161.526 154.568C161.526 164.734 152.994 172.975 142.47 172.975C131.946 172.975 123.415 164.734 123.415 154.568C123.415 144.402 131.946 136.161 142.47 136.161Z" fill="white"/>
<path d="M142.47 162.971C152.994 162.971 161.526 171.212 161.526 181.378C161.526 191.544 152.994 199.785 142.47 199.785C131.946 199.785 123.415 191.544 123.415 181.378C123.415 171.212 131.946 162.971 142.47 162.971Z" fill="white"/>
<path d="M19.0554 130.778C29.5794 130.778 38.1108 139.019 38.1108 149.185C38.1108 159.351 29.5794 167.592 19.0554 167.592C8.53138 167.592 0 159.351 0 149.185C0 139.019 8.53138 130.778 19.0554 130.778Z" fill="white"/>
<path d="M19.0554 98.7067C29.5794 98.7067 38.1108 106.948 38.1108 117.114C38.1108 127.28 29.5794 135.521 19.0554 135.521C8.53138 135.521 0 127.28 0 117.114C0 106.948 8.53138 98.7067 19.0554 98.7067Z" fill="white"/>
<path d="M19.0554 65.2745C29.5794 65.2745 38.1108 73.5157 38.1108 83.6817C38.1108 93.8477 29.5794 102.089 19.0554 102.089C8.53138 102.089 0 93.8477 0 83.6817C0 73.5157 8.53138 65.2745 19.0554 65.2745Z" fill="white"/>
<path d="M19.0554 32.3871C29.5794 32.3871 38.1108 40.6282 38.1108 50.7942C38.1108 60.9602 29.5794 69.2014 19.0554 69.2014C8.53138 69.2014 0 60.9602 0 50.7942C0 40.6282 8.53138 32.3871 19.0554 32.3871Z" fill="white"/>
<path d="M19.0554 0.000110626C29.5794 0.000110626 38.1108 8.24128 38.1108 18.4073C38.1108 28.5733 29.5794 36.8145 19.0554 36.8145C8.53138 36.8145 0 28.5733 0 18.4073C0 8.24128 8.53138 0.000110626 19.0554 0.000110626Z" fill="white"/>
</svg>
