<svg width="40" height="61" viewBox="0 0 40 61" fill="none" xmlns="http://www.w3.org/2000/svg">
<path d="M20.2178 33.8159C22.775 33.8159 24.848 35.8184 24.848 38.2886C24.848 40.7588 22.775 42.7612 20.2178 42.7612C17.6606 42.7612 15.5876 40.7588 15.5876 38.2886C15.5876 35.8184 17.6606 33.8159 20.2178 33.8159Z" fill="#F6F6F6"/>
<path d="M4.63017 51.8672C7.18734 51.8672 9.26033 53.8697 9.26033 56.3398C9.26033 58.81 7.18734 60.8125 4.63017 60.8125C2.073 60.8125 0 58.81 0 56.3398C0 53.8697 2.073 51.8672 4.63017 51.8672Z" fill="#F6F6F6"/>
<path d="M10.8597 45.98C13.4168 45.98 15.4898 47.9824 15.4898 50.4526C15.4898 52.9228 13.4168 54.9253 10.8597 54.9253C8.30249 54.9253 6.22949 52.9228 6.22949 50.4526C6.22949 47.9824 8.30249 45.98 10.8597 45.98Z" fill="#F6F6F6"/>
<path d="M15.4898 40.395C18.047 40.395 20.12 42.3975 20.12 44.8677C20.12 47.3379 18.047 49.3403 15.4898 49.3403C12.9326 49.3403 10.8596 47.3379 10.8596 44.8677C10.8596 42.3975 12.9326 40.395 15.4898 40.395Z" fill="#F6F6F6"/>
<path d="M25.3162 27.3057C27.8734 27.3057 29.9464 29.3081 29.9464 31.7783C29.9464 34.2485 27.8734 36.251 25.3162 36.251C22.759 36.251 20.686 34.2485 20.686 31.7783C20.686 29.3081 22.759 27.3057 25.3162 27.3057Z" fill="#F6F6F6"/>
<path d="M29.4778 21.2134C32.035 21.2134 34.108 23.2158 34.108 25.686C34.108 28.1562 32.035 30.1587 29.4778 30.1587C26.9207 30.1587 24.8477 28.1562 24.8477 25.686C24.8477 23.2158 26.9207 21.2134 29.4778 21.2134Z" fill="#F6F6F6"/>
<path d="M34.618 12.2676C37.1751 12.2676 39.2481 14.27 39.2481 16.7402C39.2481 19.2104 37.1751 21.2129 34.618 21.2129C32.0608 21.2129 29.9878 19.2104 29.9878 16.7402C29.9878 14.27 32.0608 12.2676 34.618 12.2676Z" fill="#F6F6F6"/>
<path d="M34.1077 16.7407C36.6649 16.7407 38.7379 18.7432 38.7379 21.2134C38.7379 23.6836 36.6649 25.686 34.1077 25.686C31.5505 25.686 29.4775 23.6836 29.4775 21.2134C29.4775 18.7432 31.5505 16.7407 34.1077 16.7407Z" fill="#F6F6F6"/>
<path d="M34.618 22.9316C37.1751 22.9316 39.2481 24.9341 39.2481 27.4043C39.2481 29.8745 37.1751 31.877 34.618 31.877C32.0608 31.877 29.9878 29.8745 29.9878 27.4043C29.9878 24.9341 32.0608 22.9316 34.618 22.9316Z" fill="#F6F6F6"/>
<path d="M34.618 30.1582C37.1751 30.1582 39.2481 32.1607 39.2481 34.6309C39.2481 37.101 37.1751 39.1035 34.618 39.1035C32.0608 39.1035 29.9878 37.101 29.9878 34.6309C29.9878 32.1607 32.0608 30.1582 34.618 30.1582Z" fill="#F6F6F6"/>
<path d="M34.618 38.0288C37.1751 38.0288 39.2481 40.0313 39.2481 42.5015C39.2481 44.9716 37.1751 46.9741 34.618 46.9741C32.0608 46.9741 29.9878 44.9716 29.9878 42.5015C29.9878 40.0313 32.0608 38.0288 34.618 38.0288Z" fill="#F6F6F6"/>
<path d="M34.618 45.3525C37.1751 45.3525 39.2481 47.355 39.2481 49.8252C39.2481 52.2954 37.1751 54.2979 34.618 54.2979C32.0608 54.2979 29.9878 52.2954 29.9878 49.8252C29.9878 47.355 32.0608 45.3525 34.618 45.3525Z" fill="#F6F6F6"/>
<path d="M34.618 51.8672C37.1751 51.8672 39.2481 53.8697 39.2481 56.3398C39.2481 58.81 37.1751 60.8125 34.618 60.8125C32.0608 60.8125 29.9878 58.81 29.9878 56.3398C29.9878 53.8697 32.0608 51.8672 34.618 51.8672Z" fill="#F6F6F6"/>
<path d="M4.63017 44.0444C7.18734 44.0444 9.26033 46.0469 9.26033 48.5171C9.26033 50.9873 7.18734 52.9897 4.63017 52.9897C2.073 52.9897 0 50.9873 0 48.5171C0 46.0469 2.073 44.0444 4.63017 44.0444Z" fill="#F6F6F6"/>
<path d="M4.63017 36.2519C7.18734 36.2519 9.26033 38.2544 9.26033 40.7246C9.26033 43.1948 7.18734 45.1973 4.63017 45.1973C2.073 45.1973 0 43.1948 0 40.7246C0 38.2544 2.073 36.2519 4.63017 36.2519Z" fill="#F6F6F6"/>
<path d="M4.63017 28.1284C7.18734 28.1284 9.26033 30.1309 9.26033 32.6011C9.26033 35.0713 7.18734 37.0737 4.63017 37.0737C2.073 37.0737 0 35.0713 0 32.6011C0 30.1309 2.073 28.1284 4.63017 28.1284Z" fill="#F6F6F6"/>
<path d="M4.63017 20.1372C7.18734 20.1372 9.26033 22.1397 9.26033 24.6099C9.26033 27.08 7.18734 29.0825 4.63017 29.0825C2.073 29.0825 0 27.08 0 24.6099C0 22.1397 2.073 20.1372 4.63017 20.1372Z" fill="#F6F6F6"/>
<path d="M4.63017 12.2676C7.18734 12.2676 9.26033 14.27 9.26033 16.7402C9.26033 19.2104 7.18734 21.2129 4.63017 21.2129C2.073 21.2129 0 19.2104 0 16.7402C0 14.27 2.073 12.2676 4.63017 12.2676Z" fill="#F6F6F6"/>
<path d="M11.8028 -1.33514e-05C14.3599 -1.33514e-05 16.4329 2.00247 16.4329 4.47265C16.4329 6.94283 14.3599 8.94531 11.8028 8.94531C9.2456 8.94531 7.17261 6.94283 7.17261 4.47265C7.17261 2.00247 9.2456 -1.33514e-05 11.8028 -1.33514e-05Z" fill="#F6F6F6"/>
<path d="M18.5982 3.32128C21.1554 3.32128 23.2284 5.32375 23.2284 7.79394C23.2284 10.2641 21.1554 12.2666 18.5982 12.2666C16.041 12.2666 13.968 10.2641 13.968 7.79394C13.968 5.32375 16.041 3.32128 18.5982 3.32128Z" fill="#F6F6F6"/>
<path d="M25.3577 -1.33514e-05C27.9149 -1.33514e-05 29.9879 2.00247 29.9879 4.47265C29.9879 6.94283 27.9149 8.94531 25.3577 8.94531C22.8005 8.94531 20.7275 6.94283 20.7275 4.47265C20.7275 2.00247 22.8005 -1.33514e-05 25.3577 -1.33514e-05Z" fill="#F6F6F6"/>
</svg>
