<svg width="155" height="201" viewBox="0 0 155 201" fill="none" xmlns="http://www.w3.org/2000/svg">
<path d="M20.1474 161.965C31.0827 161.965 39.9476 170.528 39.9476 181.092C39.9476 191.655 31.0827 200.219 20.1474 200.219C9.21198 200.219 0.347107 191.655 0.347107 181.092C0.347107 170.528 9.21198 161.965 20.1474 161.965Z" fill="white"/>
<path d="M19.8002 128.514C30.7356 128.514 39.6005 137.078 39.6005 147.641C39.6005 158.204 30.7356 166.768 19.8002 166.768C8.86487 166.768 0 158.204 0 147.641C0 137.078 8.86487 128.514 19.8002 128.514Z" fill="white"/>
<path d="M19.8002 95.1856C30.7356 95.1856 39.6005 103.749 39.6005 114.312C39.6005 124.876 30.7356 133.439 19.8002 133.439C8.86487 133.439 0 124.876 0 114.312C0 103.749 8.86487 95.1856 19.8002 95.1856Z" fill="white"/>
<path d="M19.8002 61.014C30.7356 61.014 39.6005 69.5773 39.6005 80.1406C39.6005 90.704 30.7356 99.2673 19.8002 99.2673C8.86487 99.2673 0 90.704 0 80.1406C0 69.5773 8.86487 61.014 19.8002 61.014Z" fill="white"/>
<path d="M108.259 24.7347C119.195 24.7347 128.06 33.298 128.06 43.8613C128.06 54.4247 119.195 62.988 108.259 62.988C97.324 62.988 88.4591 54.4247 88.4591 43.8613C88.4591 33.298 97.324 24.7347 108.259 24.7347Z" fill="white"/>
<path d="M128.061 0.41605C138.996 0.41605 147.861 8.97936 147.861 19.5427C147.861 30.1061 138.996 38.6694 128.061 38.6694C117.126 38.6694 108.261 30.1061 108.261 19.5427C108.261 8.97936 117.126 0.41605 128.061 0.41605Z" fill="white"/>
<path d="M39.9512 76.0616C50.8866 76.0616 59.7514 84.6249 59.7514 95.1882C59.7514 105.752 50.8866 114.315 39.9512 114.315C29.0158 114.315 20.1509 105.752 20.1509 95.1882C20.1509 84.6249 29.0158 76.0616 39.9512 76.0616Z" fill="white"/>
<path d="M68.3012 76.0616C79.2366 76.0616 88.1015 84.6249 88.1015 95.1882C88.1015 105.752 79.2366 114.315 68.3012 114.315C57.3658 114.315 48.501 105.752 48.501 95.1882C48.501 84.6249 57.3658 76.0616 68.3012 76.0616Z" fill="white"/>
<path d="M88.1051 50.0037C99.0404 50.0037 107.905 58.567 107.905 69.1304C107.905 79.6938 99.0404 88.2571 88.1051 88.2571C77.1697 88.2571 68.3048 79.6938 68.3048 69.1304C68.3048 58.567 77.1697 50.0037 88.1051 50.0037Z" fill="white"/>
<path d="M79.5543 95.8592C90.4896 95.8592 99.3545 104.422 99.3545 114.986C99.3545 125.549 90.4896 134.113 79.5543 134.113C68.6189 134.113 59.754 125.549 59.754 114.986C59.754 104.422 68.6189 95.8592 79.5543 95.8592Z" fill="white"/>
<path d="M94.9407 119.127C105.876 119.127 114.741 127.69 114.741 138.254C114.741 148.817 105.876 157.38 94.9407 157.38C84.0053 157.38 75.1404 148.817 75.1404 138.254C75.1404 127.69 84.0053 119.127 94.9407 119.127Z" fill="white"/>
<path d="M114.74 142.845C125.675 142.845 134.54 151.409 134.54 161.972C134.54 172.535 125.675 181.099 114.74 181.099C103.805 181.099 94.9398 172.535 94.9398 161.972C94.9398 151.409 103.805 142.845 114.74 142.845Z" fill="white"/>
<path d="M134.542 161.971C145.477 161.971 154.342 170.534 154.342 181.097C154.342 191.661 145.477 200.224 134.542 200.224C123.606 200.224 114.741 191.661 114.741 181.097C114.741 170.534 123.606 161.971 134.542 161.971Z" fill="white"/>
<path d="M19.8002 27.388C30.7356 27.388 39.6005 35.9513 39.6005 46.5147C39.6005 57.078 30.7356 65.6414 19.8002 65.6414C8.86487 65.6414 0 57.078 0 46.5147C0 35.9513 8.86487 27.388 19.8002 27.388Z" fill="white"/>
<path d="M19.8002 3.43323e-05C30.7356 3.43323e-05 39.6005 8.56334 39.6005 19.1267C39.6005 29.6901 30.7356 38.2534 19.8002 38.2534C8.86487 38.2534 0 29.6901 0 19.1267C0 8.56334 8.86487 3.43323e-05 19.8002 3.43323e-05Z" fill="white"/>
</svg>
