<svg width="162" height="200" viewBox="0 0 162 200" fill="none" xmlns="http://www.w3.org/2000/svg">
<path d="M18.2163 163.863C28.2769 163.863 36.4326 171.741 36.4326 181.46C36.4326 191.178 28.2769 199.056 18.2163 199.056C8.15571 199.056 0 191.178 0 181.46C0 171.741 8.15571 163.863 18.2163 163.863Z" fill="white"/>
<path d="M40.0976 144.694C50.1582 144.694 58.3139 152.572 58.3139 162.291C58.3139 172.009 50.1582 179.887 40.0976 179.887C30.0371 179.887 21.8813 172.009 21.8813 162.291C21.8813 152.572 30.0371 144.694 40.0976 144.694Z" fill="white"/>
<path d="M50.9661 119.118C61.0266 119.118 69.1824 126.997 69.1824 136.715C69.1824 146.433 61.0266 154.312 50.9661 154.312C40.9055 154.312 32.7498 146.433 32.7498 136.715C32.7498 126.997 40.9055 119.118 50.9661 119.118Z" fill="white"/>
<path d="M53.1951 88.8936C63.2556 88.8936 71.4114 96.7719 71.4114 106.49C71.4114 116.209 63.2556 124.087 53.1951 124.087C43.1345 124.087 34.9788 116.209 34.9788 106.49C34.9788 96.7719 43.1345 88.8936 53.1951 88.8936Z" fill="white"/>
<path d="M53.1941 58.6163C63.2547 58.6163 71.4104 66.4946 71.4104 76.2129C71.4104 85.9313 63.2547 93.8096 53.1941 93.8096C43.1335 93.8096 34.9778 85.9313 34.9778 76.2129C34.9778 66.4946 43.1335 58.6163 53.1941 58.6163Z" fill="white"/>
<path d="M53.1951 28.3924C63.2556 28.3924 71.4114 36.2707 71.4114 45.9891C71.4114 55.7074 63.2556 63.5857 53.1951 63.5857C43.1345 63.5857 34.9788 55.7074 34.9788 45.9891C34.9788 36.2707 43.1345 28.3924 53.1951 28.3924Z" fill="white"/>
<path d="M53.1951 0.00082016C63.2556 0.00082016 71.4114 7.8791 71.4114 17.5975C71.4114 27.3158 63.2556 35.1941 53.1951 35.1941C43.1345 35.1941 34.9788 27.3158 34.9788 17.5975C34.9788 7.8791 43.1345 0.00082016 53.1951 0.00082016Z" fill="white"/>
<path d="M83.1477 8.7738e-05C93.2083 8.7738e-05 101.364 7.87837 101.364 17.5967C101.364 27.3151 93.2083 35.1934 83.1477 35.1934C73.0871 35.1934 64.9314 27.3151 64.9314 17.5967C64.9314 7.87837 73.0871 8.7738e-05 83.1477 8.7738e-05Z" fill="white"/>
<path d="M112.066 0.000331879C122.126 0.000331879 130.282 7.87861 130.282 17.597C130.282 27.3153 122.126 35.1936 112.066 35.1936C102.005 35.1936 93.8496 27.3153 93.8496 17.597C93.8496 7.87861 102.005 0.000331879 112.066 0.000331879Z" fill="white"/>
<path d="M143.004 0.00082016C153.064 0.00082016 161.22 7.8791 161.22 17.5975C161.22 27.3158 153.064 35.1941 143.004 35.1941C132.943 35.1941 124.787 27.3158 124.787 17.5975C124.787 7.8791 132.943 0.00082016 143.004 0.00082016Z" fill="white"/>
<path d="M143.004 27.0453C153.064 27.0453 161.22 34.9235 161.22 44.6419C161.22 54.3602 153.064 62.2385 143.004 62.2385C132.943 62.2385 124.787 54.3602 124.787 44.6419C124.787 34.9235 132.943 27.0453 143.004 27.0453Z" fill="white"/>
<path d="M143.004 54.0897C153.064 54.0897 161.22 61.968 161.22 71.6863C161.22 81.4047 153.064 89.283 143.004 89.283C132.943 89.283 124.787 81.4047 124.787 71.6863C124.787 61.968 132.943 54.0897 143.004 54.0897Z" fill="white"/>
<path d="M143.004 81.1339C153.064 81.1339 161.22 89.0122 161.22 98.7305C161.22 108.449 153.064 116.327 143.004 116.327C132.943 116.327 124.787 108.449 124.787 98.7305C124.787 89.0122 132.943 81.1339 143.004 81.1339Z" fill="white"/>
<path d="M143.004 108.178C153.064 108.178 161.22 116.057 161.22 125.775C161.22 135.493 153.064 143.372 143.004 143.372C132.943 143.372 124.787 135.493 124.787 125.775C124.787 116.057 132.943 108.178 143.004 108.178Z" fill="white"/>
<path d="M143.004 135.222C153.064 135.222 161.22 143.101 161.22 152.819C161.22 162.537 153.064 170.416 143.004 170.416C132.943 170.416 124.787 162.537 124.787 152.819C124.787 143.101 132.943 135.222 143.004 135.222Z" fill="white"/>
<path d="M143.004 162.267C153.064 162.267 161.22 170.145 161.22 179.864C161.22 189.582 153.064 197.46 143.004 197.46C132.943 197.46 124.787 189.582 124.787 179.864C124.787 170.145 132.943 162.267 143.004 162.267Z" fill="white"/>
</svg>
