<svg width="102" height="107" viewBox="0 0 102 107" fill="none" xmlns="http://www.w3.org/2000/svg">
<path d="M91.9953 70.7789C97.3975 70.7789 101.777 75.0093 101.777 80.2278C101.777 85.4463 97.3975 89.6768 91.9953 89.6768C86.593 89.6768 82.2136 85.4463 82.2136 80.2278C82.2136 75.0093 86.593 70.7789 91.9953 70.7789Z" fill="white"/>
<path d="M91.9953 28.5846C97.3975 28.5846 101.777 32.815 101.777 38.0335C101.777 43.252 97.3975 47.4824 91.9953 47.4824C86.593 47.4824 82.2136 43.252 82.2136 38.0335C82.2136 32.815 86.593 28.5846 91.9953 28.5846Z" fill="white"/>
<path d="M91.9953 56.7198C97.3975 56.7198 101.777 60.9503 101.777 66.1688C101.777 71.3873 97.3975 75.6177 91.9953 75.6177C86.593 75.6177 82.2136 71.3873 82.2136 66.1688C82.2136 60.9503 86.593 56.7198 91.9953 56.7198Z" fill="white"/>
<path d="M91.9953 14.5377C97.3975 14.5377 101.777 18.7681 101.777 23.9866C101.777 29.2051 97.3975 33.4355 91.9953 33.4355C86.593 33.4355 82.2136 29.2051 82.2136 23.9866C82.2136 18.7681 86.593 14.5377 91.9953 14.5377Z" fill="white"/>
<path d="M91.9953 0.469839C97.3975 0.469839 101.777 4.70026 101.777 9.91876C101.777 15.1373 97.3975 19.3677 91.9953 19.3677C86.593 19.3677 82.2136 15.1373 82.2136 9.91876C82.2136 4.70026 86.593 0.469839 91.9953 0.469839Z" fill="white"/>
<path d="M91.9953 42.6525C97.3975 42.6525 101.777 46.8829 101.777 52.1014C101.777 57.3199 97.3975 61.5503 91.9953 61.5503C86.593 61.5503 82.2136 57.3199 82.2136 52.1014C82.2136 46.8829 86.593 42.6525 91.9953 42.6525Z" fill="white"/>
<path d="M91.9953 84.8468C97.3975 84.8468 101.777 89.0772 101.777 94.2957C101.777 99.5142 97.3975 103.745 91.9953 103.745C86.593 103.745 82.2136 99.5142 82.2136 94.2957C82.2136 89.0772 86.593 84.8468 91.9953 84.8468Z" fill="white"/>
<path d="M9.78166 70.3092C15.1839 70.3092 19.5633 74.5396 19.5633 79.7581C19.5633 84.9766 15.1839 89.207 9.78166 89.207C4.3794 89.207 0 84.9766 0 79.7581C0 74.5396 4.3794 70.3092 9.78166 70.3092Z" fill="white"/>
<path d="M9.78166 28.1144C15.1839 28.1144 19.5633 32.3448 19.5633 37.5633C19.5633 42.7818 15.1839 47.0122 9.78166 47.0122C4.3794 47.0122 0 42.7818 0 37.5633C0 32.3448 4.3794 28.1144 9.78166 28.1144Z" fill="white"/>
<path d="M9.78166 56.2457C15.1839 56.2457 19.5633 60.4761 19.5633 65.6946C19.5633 70.9131 15.1839 75.1436 9.78166 75.1436C4.3794 75.1436 0 70.9131 0 65.6946C0 60.4761 4.3794 56.2457 9.78166 56.2457Z" fill="white"/>
<path d="M9.78166 14.068C15.1839 14.068 19.5633 18.2984 19.5633 23.5169C19.5633 28.7354 15.1839 32.9658 9.78166 32.9658C4.3794 32.9658 0 28.7354 0 23.5169C0 18.2984 4.3794 14.068 9.78166 14.068Z" fill="white"/>
<path d="M9.78166 0.000112534C15.1839 0.000112534 19.5633 4.23054 19.5633 9.44903C19.5633 14.6675 15.1839 18.8979 9.78166 18.8979C4.3794 18.8979 0 14.6675 0 9.44903C0 4.23054 4.3794 0.000112534 9.78166 0.000112534Z" fill="white"/>
<path d="M9.78166 42.1827C15.1839 42.1827 19.5633 46.4132 19.5633 51.6316C19.5633 56.8501 15.1839 61.0806 9.78166 61.0806C4.3794 61.0806 0 56.8501 0 51.6316C0 46.4132 4.3794 42.1827 9.78166 42.1827Z" fill="white"/>
<path d="M9.78166 84.3722C15.1839 84.3722 19.5633 88.6026 19.5633 93.8211C19.5633 99.0396 15.1839 103.27 9.78166 103.27C4.3794 103.27 0 99.0396 0 93.8211C0 88.6026 4.3794 84.3722 9.78166 84.3722Z" fill="white"/>
<path d="M61.9523 72.3908C66.8681 74.6314 69.0985 80.2971 66.9342 85.0456C64.7698 89.7941 59.0303 91.8272 54.1146 89.5867C49.1989 87.3461 46.9684 81.6804 49.1327 76.9319C51.2971 72.1833 57.0366 70.1502 61.9523 72.3908Z" fill="white"/>
<path d="M79.4514 33.9968C84.3671 36.2373 86.5975 41.9031 84.4332 46.6516C82.2689 51.4001 76.5293 53.4332 71.6136 51.1926C66.6979 48.9521 64.4674 43.2863 66.6318 38.5378C68.7961 33.7893 74.5356 31.7562 79.4514 33.9968Z" fill="white"/>
<path d="M67.7861 59.5915C72.7018 61.832 74.9322 67.4978 72.7679 72.2463C70.6036 76.9948 64.864 79.0279 59.9483 76.7874C55.0326 74.5468 52.8021 68.881 54.9665 64.1325C57.1308 59.384 62.8703 57.3509 67.7861 59.5915Z" fill="white"/>
<path d="M85.2792 21.2106C90.195 23.4512 92.4254 29.1169 90.2611 33.8654C88.0967 38.6139 82.3572 40.647 77.4415 38.4065C72.5258 36.1659 70.2953 30.5002 72.4597 25.7517C74.624 21.0032 80.3635 18.9701 85.2792 21.2106Z" fill="white"/>
<path d="M91.113 8.40692C96.0287 10.6475 98.2591 16.3132 96.0948 21.0617C93.9305 25.8102 88.1909 27.8433 83.2752 25.6028C78.3595 23.3622 76.1291 17.6965 78.2934 12.948C80.4577 8.19946 86.1973 6.16636 91.113 8.40692Z" fill="white"/>
<path d="M73.622 46.7961C78.5377 49.0366 80.7682 54.7024 78.6038 59.4509C76.4395 64.1994 70.7 66.2325 65.7843 63.9919C60.8685 61.7514 58.6381 56.0856 60.8024 51.3371C62.9668 46.5886 68.7063 44.5555 73.622 46.7961Z" fill="white"/>
<path d="M56.1208 85.1896C61.0365 87.4302 63.267 93.0959 61.1026 97.8444C58.9383 102.593 53.1988 104.626 48.283 102.385C43.3673 100.145 41.1369 94.4792 43.3012 89.7307C45.4655 84.9822 51.2051 82.9491 56.1208 85.1896Z" fill="white"/>
<path d="M40.4439 72.1003C35.5282 74.3408 33.2977 80.0066 35.4621 84.7551C37.6264 89.5036 43.3659 91.5367 48.2817 89.2961C53.1974 87.0556 55.4278 81.3898 53.2635 76.6413C51.0992 71.8928 45.3596 69.8597 40.4439 72.1003Z" fill="white"/>
<path d="M22.9449 33.7067C18.0292 35.9473 15.7987 41.613 17.9631 46.3615C20.1274 51.11 25.8669 53.1431 30.7826 50.9026C35.6984 48.662 37.9288 42.9963 35.7645 38.2478C33.6001 33.4993 27.8606 31.4662 22.9449 33.7067Z" fill="white"/>
<path d="M34.6102 59.301C29.6944 61.5415 27.464 67.2073 29.6283 71.9558C31.7927 76.7043 37.5322 78.7374 42.4479 76.4968C47.3636 74.2563 49.5941 68.5905 47.4298 63.842C45.2654 59.0935 39.5259 57.0604 34.6102 59.301Z" fill="white"/>
<path d="M17.1177 20.9201C12.202 23.1607 9.97157 28.8264 12.1359 33.5749C14.3002 38.3234 20.0398 40.3565 24.9555 38.116C29.8712 35.8754 32.1017 30.2097 29.9373 25.4611C27.773 20.7126 22.0335 18.6795 17.1177 20.9201Z" fill="white"/>
<path d="M11.2833 8.12518C6.36754 10.3657 4.13709 16.0315 6.30143 20.78C8.46577 25.5285 14.2053 27.5616 19.121 25.321C24.0367 23.0805 26.2672 17.4147 24.1028 12.6662C21.9385 7.91772 16.199 5.88462 11.2833 8.12518Z" fill="white"/>
<path d="M28.7786 46.506C23.8629 48.7466 21.6325 54.4123 23.7968 59.1609C25.9611 63.9094 31.7007 65.9425 36.6164 63.7019C41.5321 61.4613 43.7625 55.7956 41.5982 51.0471C39.4339 46.2986 33.6943 44.2655 28.7786 46.506Z" fill="white"/>
<path d="M46.2776 84.8996C41.3619 87.1401 39.1315 92.8059 41.2958 97.5544C43.4602 102.303 49.1997 104.336 54.1154 102.095C59.0311 99.8549 61.2616 94.1891 59.0972 89.4406C56.9329 84.6921 51.1934 82.659 46.2776 84.8996Z" fill="white"/>
</svg>
