<svg width="1131" height="130" viewBox="0 0 1131 130" fill="none" xmlns="http://www.w3.org/2000/svg">
<path d="M88.338 87.7584C94.8761 87.7584 100.176 92.8784 100.176 99.1942C100.176 105.51 94.8761 110.63 88.338 110.63C81.7998 110.63 76.4995 105.51 76.4995 99.1942C76.4995 92.8784 81.7998 87.7584 88.338 87.7584Z" fill="white"/>
<path d="M88.338 36.693C94.8761 36.693 100.176 41.8129 100.176 48.1287C100.176 54.4445 94.8761 59.5645 88.338 59.5645C81.7998 59.5645 76.4995 54.4445 76.4995 48.1287C76.4995 41.8129 81.7998 36.693 88.338 36.693Z" fill="white"/>
<path d="M88.335 70.7335C94.8732 70.7335 100.173 75.8535 100.173 82.1693C100.173 88.485 94.8732 93.605 88.335 93.605C81.7968 93.605 76.4966 88.485 76.4966 82.1693C76.4966 75.8535 81.7968 70.7335 88.335 70.7335Z" fill="white"/>
<path d="M88.338 19.6901C94.8761 19.6901 100.176 24.81 100.176 31.1258C100.176 37.4416 94.8761 42.5615 88.338 42.5615C81.7998 42.5615 76.4995 37.4416 76.4995 31.1258C76.4995 24.81 81.7998 19.6901 88.338 19.6901Z" fill="white"/>
<path d="M88.335 2.66858C94.8732 2.66858 100.173 7.78853 100.173 14.1043C100.173 20.4201 94.8732 25.54 88.335 25.54C81.7968 25.54 76.4966 20.4201 76.4966 14.1043C76.4966 7.78853 81.7968 2.66858 88.335 2.66858Z" fill="white"/>
<path d="M88.335 53.715C94.8732 53.715 100.173 58.8349 100.173 65.1507C100.173 71.4665 94.8732 76.5864 88.335 76.5864C81.7968 76.5864 76.4966 71.4665 76.4966 65.1507C76.4966 58.8349 81.7968 53.715 88.335 53.715Z" fill="white"/>
<path d="M49.0406 52.4913C55.5788 52.4913 60.879 57.6113 60.879 63.9271C60.879 70.2428 55.5788 75.3628 49.0406 75.3628C42.5024 75.3628 37.2021 70.2428 37.2021 63.9271C37.2021 57.6113 42.5024 52.4913 49.0406 52.4913Z" fill="white"/>
<path d="M31.7628 52.4913C38.3009 52.4913 43.6012 57.6113 43.6012 63.9271C43.6012 70.2428 38.3009 75.3628 31.7628 75.3628C25.2246 75.3628 19.9243 70.2428 19.9243 63.9271C19.9243 57.6113 25.2246 52.4913 31.7628 52.4913Z" fill="white"/>
<path d="M69.0357 52.4913C75.5739 52.4913 80.8741 57.6113 80.8741 63.9271C80.8741 70.2428 75.5739 75.3628 69.0357 75.3628C62.4975 75.3628 57.1973 70.2428 57.1973 63.9271C57.1973 57.6113 62.4975 52.4913 69.0357 52.4913Z" fill="white"/>
<path d="M11.8384 87.5079C18.3766 87.5079 23.6769 92.6279 23.6769 98.9437C23.6769 105.259 18.3766 110.379 11.8384 110.379C5.30025 110.379 0 105.259 0 98.9437C0 92.6279 5.30025 87.5079 11.8384 87.5079Z" fill="white"/>
<path d="M11.8384 36.4454C18.3766 36.4454 23.6769 41.5654 23.6769 47.8812C23.6769 54.1969 18.3766 59.3169 11.8384 59.3169C5.30025 59.3169 0 54.1969 0 47.8812C0 41.5654 5.30025 36.4454 11.8384 36.4454Z" fill="white"/>
<path d="M11.8384 70.4884C18.3766 70.4884 23.6769 75.6084 23.6769 81.9241C23.6769 88.2399 18.3766 93.3599 11.8384 93.3599C5.30025 93.3599 0 88.2399 0 81.9241C0 75.6084 5.30025 70.4884 11.8384 70.4884Z" fill="white"/>
<path d="M11.8384 19.4396C18.3766 19.4396 23.6769 24.5595 23.6769 30.8753C23.6769 37.1911 18.3766 42.311 11.8384 42.311C5.30025 42.311 0 37.1911 0 30.8753C0 24.5595 5.30025 19.4396 11.8384 19.4396Z" fill="white"/>
<path d="M11.8384 2.42249C18.3766 2.42249 23.6769 7.54244 23.6769 13.8582C23.6769 20.174 18.3766 25.2939 11.8384 25.2939C5.30025 25.2939 0 20.174 0 13.8582C0 7.54244 5.30025 2.42249 11.8384 2.42249Z" fill="white"/>
<path d="M11.8384 53.4669C18.3766 53.4669 23.6769 58.5869 23.6769 64.9026C23.6769 71.2184 18.3766 76.3384 11.8384 76.3384C5.30025 76.3384 0 71.2184 0 64.9026C0 58.5869 5.30025 53.4669 11.8384 53.4669Z" fill="white"/>
<path d="M11.8384 104.532C18.3766 104.532 23.6769 109.652 23.6769 115.968C23.6769 122.284 18.3766 127.404 11.8384 127.404C5.30025 127.404 0 122.284 0 115.968C0 109.652 5.30025 104.532 11.8384 104.532Z" fill="white"/>
<path d="M88.338 104.775C94.8761 104.775 100.176 109.894 100.176 116.21C100.176 122.526 94.8761 127.646 88.338 127.646C81.7998 127.646 76.4995 122.526 76.4995 116.21C76.4995 109.894 81.7998 104.775 88.338 104.775Z" fill="white"/>
<path d="M1069.95 88.6425C1076.58 88.6425 1081.95 93.8334 1081.95 100.237C1081.95 106.64 1076.58 111.831 1069.95 111.831C1063.32 111.831 1057.95 106.64 1057.95 100.237C1057.95 93.8334 1063.32 88.6425 1069.95 88.6425Z" fill="white"/>
<path d="M1069.95 36.8706C1076.58 36.8706 1081.95 42.0614 1081.95 48.4646C1081.95 54.8678 1076.58 60.0586 1069.95 60.0586C1063.32 60.0586 1057.95 54.8678 1057.95 48.4646C1057.95 42.0614 1063.32 36.8706 1069.95 36.8706Z" fill="white"/>
<path d="M1069.95 71.3828C1076.57 71.3828 1081.95 76.5736 1081.95 82.9768C1081.95 89.38 1076.57 94.5708 1069.95 94.5708C1063.32 94.5708 1057.94 89.38 1057.94 82.9768C1057.94 76.5736 1063.32 71.3828 1069.95 71.3828Z" fill="white"/>
<path d="M1069.95 19.6328C1076.58 19.6328 1081.95 24.8236 1081.95 31.2268C1081.95 37.63 1076.58 42.8208 1069.95 42.8208C1063.32 42.8208 1057.95 37.63 1057.95 31.2268C1057.95 24.8236 1063.32 19.6328 1069.95 19.6328Z" fill="white"/>
<path d="M1069.95 2.37496C1076.57 2.37496 1081.95 7.56578 1081.95 13.969C1081.95 20.3722 1076.57 25.563 1069.95 25.563C1063.32 25.563 1057.94 20.3722 1057.94 13.969C1057.94 7.56578 1063.32 2.37496 1069.95 2.37496Z" fill="white"/>
<path d="M1069.95 54.1279C1076.57 54.1279 1081.95 59.3187 1081.95 65.7219C1081.95 72.1251 1076.57 77.3159 1069.95 77.3159C1063.32 77.3159 1057.94 72.1251 1057.94 65.7219C1057.94 59.3187 1063.32 54.1279 1069.95 54.1279Z" fill="white"/>
<path d="M1030.11 52.8872C1036.74 52.8872 1042.11 58.078 1042.11 64.4812C1042.11 70.8844 1036.74 76.0752 1030.11 76.0752C1023.48 76.0752 1018.1 70.8844 1018.1 64.4812C1018.1 58.078 1023.48 52.8872 1030.11 52.8872Z" fill="white"/>
<path d="M1012.59 52.8872C1019.22 52.8872 1024.59 58.078 1024.59 64.4812C1024.59 70.8844 1019.22 76.0752 1012.59 76.0752C1005.96 76.0752 1000.59 70.8844 1000.59 64.4812C1000.59 58.078 1005.96 52.8872 1012.59 52.8872Z" fill="white"/>
<path d="M1050.38 52.8872C1057.01 52.8872 1062.38 58.078 1062.38 64.4812C1062.38 70.8844 1057.01 76.0752 1050.38 76.0752C1043.75 76.0752 1038.38 70.8844 1038.38 64.4812C1038.38 58.078 1043.75 52.8872 1050.38 52.8872Z" fill="white"/>
<path d="M992.39 88.3891C999.018 88.3891 1004.39 93.5799 1004.39 99.9831C1004.39 106.386 999.018 111.577 992.39 111.577C985.761 111.577 980.387 106.386 980.387 99.9831C980.387 93.5799 985.761 88.3891 992.39 88.3891Z" fill="white"/>
<path d="M992.39 36.6196C999.018 36.6196 1004.39 41.8104 1004.39 48.2136C1004.39 54.6168 999.018 59.8076 992.39 59.8076C985.761 59.8076 980.387 54.6168 980.387 48.2136C980.387 41.8104 985.761 36.6196 992.39 36.6196Z" fill="white"/>
<path d="M992.39 71.1337C999.018 71.1337 1004.39 76.3246 1004.39 82.7278C1004.39 89.131 999.018 94.3218 992.39 94.3218C985.761 94.3218 980.387 89.131 980.387 82.7278C980.387 76.3246 985.761 71.1337 992.39 71.1337Z" fill="white"/>
<path d="M992.39 19.3789C999.018 19.3789 1004.39 24.5697 1004.39 30.9729C1004.39 37.3761 999.018 42.5669 992.39 42.5669C985.761 42.5669 980.387 37.3761 980.387 30.9729C980.387 24.5697 985.761 19.3789 992.39 19.3789Z" fill="white"/>
<path d="M992.39 2.12642C999.018 2.12642 1004.39 7.31724 1004.39 13.7204C1004.39 20.1236 999.018 25.3145 992.39 25.3145C985.761 25.3145 980.387 20.1236 980.387 13.7204C980.387 7.31724 985.761 2.12642 992.39 2.12642Z" fill="white"/>
<path d="M992.39 53.8774C999.018 53.8774 1004.39 59.0682 1004.39 65.4714C1004.39 71.8746 999.018 77.0654 992.39 77.0654C985.761 77.0654 980.387 71.8746 980.387 65.4714C980.387 59.0682 985.761 53.8774 992.39 53.8774Z" fill="white"/>
<path d="M992.39 105.649C999.018 105.649 1004.39 110.84 1004.39 117.243C1004.39 123.647 999.018 128.837 992.39 128.837C985.761 128.837 980.387 123.647 980.387 117.243C980.387 110.84 985.761 105.649 992.39 105.649Z" fill="white"/>
<path d="M1069.95 105.895C1076.58 105.895 1081.95 111.086 1081.95 117.489C1081.95 123.892 1076.58 129.083 1069.95 129.083C1063.32 129.083 1057.95 123.892 1057.95 117.489C1057.95 111.086 1063.32 105.895 1069.95 105.895Z" fill="white"/>
<path d="M1133.4 71.3511C1140.15 71.3511 1145.63 76.642 1145.63 83.1687C1145.63 89.6954 1140.15 94.9863 1133.4 94.9863C1126.64 94.9863 1121.16 89.6954 1121.16 83.1687C1121.16 76.642 1126.64 71.3511 1133.4 71.3511Z" fill="white"/>
<path d="M1101.18 105.448C1107.93 105.448 1113.41 110.739 1113.41 117.266C1113.41 123.793 1107.93 129.083 1101.18 129.083C1094.42 129.083 1088.94 123.793 1088.94 117.266C1088.94 110.739 1094.42 105.448 1101.18 105.448Z" fill="white"/>
<path d="M1106.3 87.5654C1113.06 87.5654 1118.53 92.8564 1118.53 99.3831C1118.53 105.91 1113.06 111.201 1106.3 111.201C1099.54 111.201 1094.06 105.91 1094.06 99.3831C1094.06 92.8564 1099.54 87.5654 1106.3 87.5654Z" fill="white"/>
<path d="M1112.17 70.1841C1118.93 70.1841 1124.41 75.475 1124.41 82.0017C1124.41 88.5284 1118.93 93.8193 1112.17 93.8193C1105.42 93.8193 1099.94 88.5284 1099.94 82.0017C1099.94 75.475 1105.42 70.1841 1112.17 70.1841Z" fill="white"/>
<path d="M1125.65 37.5073C1132.4 37.5073 1137.88 42.7983 1137.88 49.325C1137.88 55.8516 1132.4 61.1426 1125.65 61.1426C1118.89 61.1426 1113.41 55.8516 1113.41 49.325C1113.41 42.7983 1118.89 37.5073 1125.65 37.5073Z" fill="white"/>
<path d="M1132.5 19.1987C1139.26 19.1987 1144.73 24.4897 1144.73 31.0164C1144.73 37.5431 1139.26 42.834 1132.5 42.834C1125.74 42.834 1120.27 37.5431 1120.27 31.0164C1120.27 24.4897 1125.74 19.1987 1132.5 19.1987Z" fill="white"/>
<path d="M1141.55 0.833986C1148.3 0.833986 1153.78 6.12492 1153.78 12.6516C1153.78 19.1783 1148.3 24.4692 1141.55 24.4692C1134.79 24.4692 1129.31 19.1783 1129.31 12.6516C1129.31 6.12492 1134.79 0.833986 1141.55 0.833986Z" fill="white"/>
<path d="M1118.53 54.5405C1125.29 54.5405 1130.77 59.8315 1130.77 66.3582C1130.77 72.8849 1125.29 78.1758 1118.53 78.1758C1111.78 78.1758 1106.3 72.8849 1106.3 66.3582C1106.3 59.8315 1111.78 54.5405 1118.53 54.5405Z" fill="white"/>
<path d="M159.541 70.7228C166.079 70.7228 171.38 75.8427 171.38 82.1585C171.38 88.4743 166.079 93.5942 159.541 93.5942C153.003 93.5942 147.703 88.4743 147.703 82.1585C147.703 75.8427 153.003 70.7228 159.541 70.7228Z" fill="white"/>
<path d="M179.308 70.7228C185.847 70.7228 191.147 75.8427 191.147 82.1585C191.147 88.4743 185.847 93.5942 179.308 93.5942C172.77 93.5942 167.47 88.4743 167.47 82.1585C167.47 75.8427 172.77 70.7228 179.308 70.7228Z" fill="white"/>
<path d="M128.365 103.718C134.903 103.718 140.203 108.838 140.203 115.154C140.203 121.469 134.903 126.589 128.365 126.589C121.827 126.589 116.526 121.469 116.526 115.154C116.526 108.838 121.827 103.718 128.365 103.718Z" fill="white"/>
<path d="M133.32 86.4137C139.859 86.4137 145.159 91.5336 145.159 97.8494C145.159 104.165 139.859 109.285 133.32 109.285C126.782 109.285 121.482 104.165 121.482 97.8494C121.482 91.5336 126.782 86.4137 133.32 86.4137Z" fill="white"/>
<path d="M139.003 69.5939C145.541 69.5939 150.841 74.7138 150.841 81.0296C150.841 87.3454 145.541 92.4653 139.003 92.4653C132.464 92.4653 127.164 87.3454 127.164 81.0296C127.164 74.7138 132.464 69.5939 139.003 69.5939Z" fill="white"/>
<path d="M152.043 37.9728C158.581 37.9728 163.881 43.0927 163.881 49.4085C163.881 55.7243 158.581 60.8442 152.043 60.8442C145.504 60.8442 140.204 55.7243 140.204 49.4085C140.204 43.0927 145.504 37.9728 152.043 37.9728Z" fill="white"/>
<path d="M158.672 20.2565C165.211 20.2565 170.511 25.3764 170.511 31.6922C170.511 38.008 165.211 43.1279 158.672 43.1279C152.134 43.1279 146.834 38.008 146.834 31.6922C146.834 25.3764 152.134 20.2565 158.672 20.2565Z" fill="white"/>
<path d="M167.427 2.4845C173.965 2.4845 179.266 7.60445 179.266 13.9202C179.266 20.236 173.965 25.356 167.427 25.356C160.889 25.356 155.589 20.236 155.589 13.9202C155.589 7.60445 160.889 2.4845 167.427 2.4845Z" fill="white"/>
<path d="M177.471 18.0675C184.01 18.0675 189.31 23.1875 189.31 29.5032C189.31 35.819 184.01 40.939 177.471 40.939C170.933 40.939 165.633 35.819 165.633 29.5032C165.633 23.1875 170.933 18.0675 177.471 18.0675Z" fill="white"/>
<path d="M184.46 36.6178C190.998 36.6178 196.298 41.7377 196.298 48.0535C196.298 54.3693 190.998 59.4893 184.46 59.4893C177.921 59.4893 172.621 54.3693 172.621 48.0535C172.621 41.7377 177.921 36.6178 184.46 36.6178Z" fill="white"/>
<path d="M192.389 53.4074C198.928 53.4074 204.228 58.5273 204.228 64.8431C204.228 71.1589 198.928 76.2788 192.389 76.2788C185.851 76.2788 180.551 71.1589 180.551 64.8431C180.551 58.5273 185.851 53.4074 192.389 53.4074Z" fill="white"/>
<path d="M198.154 72.2809C204.693 72.2809 209.993 77.4008 209.993 83.7166C209.993 90.0324 204.693 95.1523 198.154 95.1523C191.616 95.1523 186.316 90.0324 186.316 83.7166C186.316 77.4008 191.616 72.2809 198.154 72.2809Z" fill="white"/>
<path d="M145.158 54.4562C151.696 54.4562 156.996 59.5761 156.996 65.8919C156.996 72.2077 151.696 77.3276 145.158 77.3276C138.62 77.3276 133.319 72.2077 133.319 65.8919C133.319 59.5761 138.62 54.4562 145.158 54.4562Z" fill="white"/>
<path d="M204.225 88.7657C210.763 88.7657 216.063 93.8857 216.063 100.201C216.063 106.517 210.763 111.637 204.225 111.637C197.686 111.637 192.386 106.517 192.386 100.201C192.386 93.8857 197.686 88.7657 204.225 88.7657Z" fill="white"/>
<path d="M209.992 103.718C216.531 103.718 221.831 108.838 221.831 115.154C221.831 121.469 216.531 126.589 209.992 126.589C203.454 126.589 198.154 121.469 198.154 115.154C198.154 108.838 203.454 103.718 209.992 103.718Z" fill="white"/>
<path d="M915.808 56.921C922.346 56.921 927.647 62.041 927.647 68.3568C927.647 74.6725 922.346 79.7925 915.808 79.7925C909.27 79.7925 903.97 74.6725 903.97 68.3568C903.97 62.041 909.27 56.921 915.808 56.921Z" fill="white"/>
<path d="M875.957 103.736C882.495 103.736 887.795 108.856 887.795 115.172C887.795 121.488 882.495 126.608 875.957 126.608C869.419 126.608 864.118 121.488 864.118 115.172C864.118 108.856 869.419 103.736 875.957 103.736Z" fill="white"/>
<path d="M887.793 89.5553C894.331 89.5553 899.631 94.6752 899.631 100.991C899.631 107.307 894.331 112.427 887.793 112.427C881.255 112.427 875.954 107.307 875.954 100.991C875.954 94.6752 881.255 89.5553 887.793 89.5553Z" fill="white"/>
<path d="M903.721 74.4039C910.26 74.4039 915.56 79.5239 915.56 85.8397C915.56 92.1554 910.26 97.2754 903.721 97.2754C897.183 97.2754 891.883 92.1554 891.883 85.8397C891.883 79.5239 897.183 74.4039 903.721 74.4039Z" fill="white"/>
<path d="M928.845 40.9371C935.383 40.9371 940.683 46.0571 940.683 52.3729C940.683 58.6886 935.383 63.8086 928.845 63.8086C922.307 63.8086 917.007 58.6886 917.007 52.3729C917.007 46.0571 922.307 40.9371 928.845 40.9371Z" fill="white"/>
<path d="M939.484 25.3575C946.022 25.3575 951.323 30.4775 951.323 36.7933C951.323 43.1091 946.022 48.229 939.484 48.229C932.946 48.229 927.646 43.1091 927.646 36.7933C927.646 30.4775 932.946 25.3575 939.484 25.3575Z" fill="white"/>
<path d="M952.632 2.48694C959.17 2.48694 964.47 7.60689 964.47 13.9227C964.47 20.2384 959.17 25.3584 952.632 25.3584C946.094 25.3584 940.793 20.2384 940.793 13.9227C940.793 7.60689 946.094 2.48694 952.632 2.48694Z" fill="white"/>
<path d="M952.632 18.0646C959.17 18.0646 964.47 23.1845 964.47 29.5003C964.47 35.8161 959.17 40.936 952.632 40.936C946.094 40.936 940.793 35.8161 940.793 29.5003C940.793 23.1845 946.094 18.0646 952.632 18.0646Z" fill="white"/>
<path d="M952.632 29.7531C959.17 29.7531 964.47 34.873 964.47 41.1888C964.47 47.5046 959.17 52.6245 952.632 52.6245C946.094 52.6245 940.793 47.5046 940.793 41.1888C940.793 34.873 946.094 29.7531 952.632 29.7531Z" fill="white"/>
<path d="M952.632 48.2291C959.17 48.2291 964.47 53.3491 964.47 59.6649C964.47 65.9806 959.17 71.1006 952.632 71.1006C946.094 71.1006 940.793 65.9806 940.793 59.6649C940.793 53.3491 946.094 48.2291 952.632 48.2291Z" fill="white"/>
<path d="M952.632 68.3532C959.17 68.3532 964.47 73.4731 964.47 79.7889C964.47 86.1047 959.17 91.2246 952.632 91.2246C946.094 91.2246 940.793 86.1047 940.793 79.7889C940.793 73.4731 946.094 68.3532 952.632 68.3532Z" fill="white"/>
<path d="M952.632 87.0782C959.17 87.0782 964.47 92.1982 964.47 98.514C964.47 104.83 959.17 109.95 952.632 109.95C946.094 109.95 940.793 104.83 940.793 98.514C940.793 92.1982 946.094 87.0782 952.632 87.0782Z" fill="white"/>
<path d="M952.632 103.736C959.17 103.736 964.47 108.856 964.47 115.172C964.47 121.488 959.17 126.608 952.632 126.608C946.094 126.608 940.793 121.488 940.793 115.172C940.793 108.856 946.094 103.736 952.632 103.736Z" fill="white"/>
<path d="M875.957 83.7369C882.495 83.7369 887.795 88.8569 887.795 95.1727C887.795 101.488 882.495 106.608 875.957 106.608C869.419 106.608 864.118 101.488 864.118 95.1727C864.118 88.8569 869.419 83.7369 875.957 83.7369Z" fill="white"/>
<path d="M875.957 63.8073C882.495 63.8073 887.795 68.9272 887.795 75.243C887.795 81.5588 882.495 86.6787 875.957 86.6787C869.419 86.6787 864.118 81.5588 864.118 75.243C864.118 68.9272 869.419 63.8073 875.957 63.8073Z" fill="white"/>
<path d="M875.957 43.0421C882.495 43.0421 887.795 48.1621 887.795 54.4778C887.795 60.7936 882.495 65.9136 875.957 65.9136C869.419 65.9136 864.118 60.7936 864.118 54.4778C864.118 48.1621 869.419 43.0421 875.957 43.0421Z" fill="white"/>
<path d="M875.957 22.6085C882.495 22.6085 887.795 27.7285 887.795 34.0443C887.795 40.36 882.495 45.48 875.957 45.48C869.419 45.48 864.118 40.36 864.118 34.0443C864.118 27.7285 869.419 22.6085 875.957 22.6085Z" fill="white"/>
<path d="M875.957 2.48694C882.495 2.48694 887.795 7.60689 887.795 13.9227C887.795 20.2384 882.495 25.3584 875.957 25.3584C869.419 25.3584 864.118 20.2384 864.118 13.9227C864.118 7.60689 869.419 2.48694 875.957 2.48694Z" fill="white"/>
<path d="M621.758 101.515C628.296 101.515 633.596 106.635 633.596 112.951C633.596 119.267 628.296 124.387 621.758 124.387C615.219 124.387 609.919 119.267 609.919 112.951C609.919 106.635 615.219 101.515 621.758 101.515Z" fill="white"/>
<path d="M674.648 101.515C681.186 101.515 686.486 106.635 686.486 112.951C686.486 119.267 681.186 124.387 674.648 124.387C668.11 124.387 662.81 119.267 662.81 112.951C662.81 106.635 668.11 101.515 674.648 101.515Z" fill="white"/>
<path d="M639.547 101.515C646.085 101.515 651.385 106.635 651.385 112.951C651.385 119.267 646.085 124.387 639.547 124.387C633.009 124.387 627.708 119.267 627.708 112.951C627.708 106.635 633.009 101.515 639.547 101.515Z" fill="white"/>
<path d="M657.826 101.515C664.364 101.515 669.664 106.635 669.664 112.951C669.664 119.267 664.364 124.387 657.826 124.387C651.288 124.387 645.987 119.267 645.987 112.951C645.987 106.635 651.288 101.515 657.826 101.515Z" fill="white"/>
<path d="M695.348 101.515C701.887 101.515 707.187 106.635 707.187 112.951C707.187 119.267 701.887 124.387 695.348 124.387C688.81 124.387 683.51 119.267 683.51 112.951C683.51 106.635 688.81 101.515 695.348 101.515Z" fill="white"/>
<path d="M709.749 101.515C716.288 101.515 721.588 106.635 721.588 112.951C721.588 119.267 716.288 124.387 709.749 124.387C703.211 124.387 697.911 119.267 697.911 112.951C697.911 106.635 703.211 101.515 709.749 101.515Z" fill="white"/>
<path d="M727.538 101.515C734.076 101.515 739.376 106.635 739.376 112.951C739.376 119.267 734.076 124.387 727.538 124.387C720.999 124.387 715.699 119.267 715.699 112.951C715.699 106.635 720.999 101.515 727.538 101.515Z" fill="white"/>
<path d="M621.549 83.6232C628.087 83.6232 633.387 88.7431 633.387 95.0589C633.387 101.375 628.087 106.495 621.549 106.495C615.011 106.495 609.71 101.375 609.71 95.0589C609.71 88.7431 615.011 83.6232 621.549 83.6232Z" fill="white"/>
<path d="M674.439 84.8605C680.977 84.8605 686.278 89.9804 686.278 96.2962C686.278 102.612 680.977 107.732 674.439 107.732C667.901 107.732 662.601 102.612 662.601 96.2962C662.601 89.9804 667.901 84.8605 674.439 84.8605Z" fill="white"/>
<path d="M727.329 81.5211C733.867 81.5211 739.167 86.6411 739.167 92.9568C739.167 99.2726 733.867 104.393 727.329 104.393C720.791 104.393 715.49 99.2726 715.49 92.9568C715.49 86.6411 720.791 81.5211 727.329 81.5211Z" fill="white"/>
<path d="M621.549 63.694C628.087 63.694 633.387 68.8139 633.387 75.1297C633.387 81.4455 628.087 86.5654 621.549 86.5654C615.011 86.5654 609.71 81.4455 609.71 75.1297C609.71 68.8139 615.011 63.694 621.549 63.694Z" fill="white"/>
<path d="M674.439 64.9523C680.977 64.9523 686.278 70.0722 686.278 76.388C686.278 82.7038 680.977 87.8237 674.439 87.8237C667.901 87.8237 662.601 82.7038 662.601 76.388C662.601 70.0722 667.901 64.9523 674.439 64.9523Z" fill="white"/>
<path d="M727.329 61.608C733.867 61.608 739.167 66.728 739.167 73.0438C739.167 79.3595 733.867 84.4795 727.329 84.4795C720.791 84.4795 715.49 79.3595 715.49 73.0438C715.49 66.728 720.791 61.608 727.329 61.608Z" fill="white"/>
<path d="M621.549 43.2653C628.087 43.2653 633.387 48.3852 633.387 54.701C633.387 61.0168 628.087 66.1367 621.549 66.1367C615.011 66.1367 609.71 61.0168 609.71 54.701C609.71 48.3852 615.011 43.2653 621.549 43.2653Z" fill="white"/>
<path d="M674.439 44.5055C680.977 44.5055 686.278 49.6254 686.278 55.9412C686.278 62.257 680.977 67.377 674.439 67.377C667.901 67.377 662.601 62.257 662.601 55.9412C662.601 49.6254 667.901 44.5055 674.439 44.5055Z" fill="white"/>
<path d="M727.329 41.1608C733.867 41.1608 739.167 46.2807 739.167 52.5965C739.167 58.9123 733.867 64.0322 727.329 64.0322C720.791 64.0322 715.49 58.9123 715.49 52.5965C715.49 46.2807 720.791 41.1608 727.329 41.1608Z" fill="white"/>
<path d="M621.549 23.1578C628.087 23.1578 633.387 28.2778 633.387 34.5936C633.387 40.9093 628.087 46.0293 621.549 46.0293C615.011 46.0293 609.71 40.9093 609.71 34.5936C609.71 28.2778 615.011 23.1578 621.549 23.1578Z" fill="white"/>
<path d="M674.439 24.3976C680.977 24.3976 686.278 29.5175 686.278 35.8333C686.278 42.1491 680.977 47.269 674.439 47.269C667.901 47.269 662.601 42.1491 662.601 35.8333C662.601 29.5175 667.901 24.3976 674.439 24.3976Z" fill="white"/>
<path d="M727.329 21.0529C733.867 21.0529 739.167 26.1728 739.167 32.4886C739.167 38.8044 733.867 43.9243 727.329 43.9243C720.791 43.9243 715.49 38.8044 715.49 32.4886C715.49 26.1728 720.791 21.0529 727.329 21.0529Z" fill="white"/>
<path d="M621.549 4.68079C628.087 4.68079 633.387 9.80074 633.387 16.1165C633.387 22.4323 628.087 27.5522 621.549 27.5522C615.011 27.5522 609.71 22.4323 609.71 16.1165C609.71 9.80074 615.011 4.68079 621.549 4.68079Z" fill="white"/>
<path d="M674.439 8.02551C680.977 8.02551 686.278 13.1455 686.278 19.4612C686.278 25.777 680.977 30.897 674.439 30.897C667.901 30.897 662.601 25.777 662.601 19.4612C662.601 13.1455 667.901 8.02551 674.439 8.02551Z" fill="white"/>
<path d="M727.329 4.68079C733.867 4.68079 739.167 9.80074 739.167 16.1165C739.167 22.4323 733.867 27.5522 727.329 27.5522C720.791 27.5522 715.49 22.4323 715.49 16.1165C715.49 9.80074 720.791 4.68079 727.329 4.68079Z" fill="white"/>
<path d="M772.462 102.225C779 102.225 784.3 107.345 784.3 113.66C784.3 119.976 779 125.096 772.462 125.096C765.924 125.096 760.623 119.976 760.623 113.66C760.623 107.345 765.924 102.225 772.462 102.225Z" fill="white"/>
<path d="M772.254 82.2242C778.793 82.2242 784.093 87.3442 784.093 93.66C784.093 99.9758 778.793 105.096 772.254 105.096C765.716 105.096 760.416 99.9758 760.416 93.66C760.416 87.3442 765.716 82.2242 772.254 82.2242Z" fill="white"/>
<path d="M772.254 62.298C778.793 62.298 784.093 67.4179 784.093 73.7337C784.093 80.0495 778.793 85.1694 772.254 85.1694C765.716 85.1694 760.416 80.0495 760.416 73.7337C760.416 67.4179 765.716 62.298 772.254 62.298Z" fill="white"/>
<path d="M772.254 41.8663C778.793 41.8663 784.093 46.9863 784.093 53.3021C784.093 59.6178 778.793 64.7378 772.254 64.7378C765.716 64.7378 760.416 59.6178 760.416 53.3021C760.416 46.9863 765.716 41.8663 772.254 41.8663Z" fill="white"/>
<path d="M825.143 20.1754C831.681 20.1754 836.982 25.2954 836.982 31.6111C836.982 37.9269 831.681 43.0469 825.143 43.0469C818.605 43.0469 813.305 37.9269 813.305 31.6111C813.305 25.2954 818.605 20.1754 825.143 20.1754Z" fill="white"/>
<path d="M836.983 5.63587C843.521 5.63587 848.821 10.7558 848.821 17.0716C848.821 23.3874 843.521 28.5073 836.983 28.5073C830.445 28.5073 825.144 23.3874 825.144 17.0716C825.144 10.7558 830.445 5.63587 836.983 5.63587Z" fill="white"/>
<path d="M784.302 50.8634C790.84 50.8634 796.14 55.9834 796.14 62.2991C796.14 68.6149 790.84 73.7349 784.302 73.7349C777.763 73.7349 772.463 68.6149 772.463 62.2991C772.463 55.9834 777.763 50.8634 784.302 50.8634Z" fill="white"/>
<path d="M801.252 50.8634C807.79 50.8634 813.09 55.9834 813.09 62.2991C813.09 68.6149 807.79 73.7349 801.252 73.7349C794.714 73.7349 789.414 68.6149 789.414 62.2991C789.414 55.9834 794.714 50.8634 801.252 50.8634Z" fill="white"/>
<path d="M813.092 35.2833C819.631 35.2833 824.931 40.4033 824.931 46.7191C824.931 53.0348 819.631 58.1548 813.092 58.1548C806.554 58.1548 801.254 53.0348 801.254 46.7191C801.254 40.4033 806.554 35.2833 813.092 35.2833Z" fill="white"/>
<path d="M807.98 62.7003C814.518 62.7003 819.818 67.8203 819.818 74.136C819.818 80.4518 814.518 85.5718 807.98 85.5718C801.442 85.5718 796.142 80.4518 796.142 74.136C796.142 67.8203 801.442 62.7003 807.98 62.7003Z" fill="white"/>
<path d="M817.179 76.6119C823.717 76.6119 829.018 81.7319 829.018 88.0477C829.018 94.3634 823.717 99.4834 817.179 99.4834C810.641 99.4834 805.341 94.3634 805.341 88.0477C805.341 81.7319 810.641 76.6119 817.179 76.6119Z" fill="white"/>
<path d="M829.017 90.7931C835.556 90.7931 840.856 95.913 840.856 102.229C840.856 108.545 835.556 113.665 829.017 113.665C822.479 113.665 817.179 108.545 817.179 102.229C817.179 95.913 822.479 90.7931 829.017 90.7931Z" fill="white"/>
<path d="M840.856 102.228C847.394 102.228 852.695 107.348 852.695 113.663C852.695 119.979 847.394 125.099 840.856 125.099C834.318 125.099 829.018 119.979 829.018 113.663C829.018 107.348 834.318 102.228 840.856 102.228Z" fill="white"/>
<path d="M772.254 21.7618C778.793 21.7618 784.093 26.8818 784.093 33.1976C784.093 39.5134 778.793 44.6333 772.254 44.6333C765.716 44.6333 760.416 39.5134 760.416 33.1976C760.416 26.8818 765.716 21.7618 772.254 21.7618Z" fill="white"/>
<path d="M772.254 5.38733C778.793 5.38733 784.093 10.5073 784.093 16.8231C784.093 23.1388 778.793 28.2588 772.254 28.2588C765.716 28.2588 760.416 23.1388 760.416 16.8231C760.416 10.5073 765.716 5.38733 772.254 5.38733Z" fill="white"/>
<path d="M458.814 2.10559C465.352 2.10559 470.652 7.22554 470.652 13.5413C470.652 19.8571 465.352 24.9771 458.814 24.9771C452.275 24.9771 446.975 19.8571 446.975 13.5413C446.975 7.22554 452.275 2.10559 458.814 2.10559Z" fill="white"/>
<path d="M458.814 22.8546C465.352 22.8546 470.652 27.9746 470.652 34.2903C470.652 40.6061 465.352 45.7261 458.814 45.7261C452.275 45.7261 446.975 40.6061 446.975 34.2903C446.975 27.9746 452.275 22.8546 458.814 22.8546Z" fill="white"/>
<path d="M458.814 42.7106C465.352 42.7106 470.652 47.8305 470.652 54.1463C470.652 60.4621 465.352 65.582 458.814 65.582C452.275 65.582 446.975 60.4621 446.975 54.1463C446.975 47.8305 452.275 42.7106 458.814 42.7106Z" fill="white"/>
<path d="M458.814 63.4117C465.352 63.4117 470.652 68.5317 470.652 74.8475C470.652 81.1633 465.352 86.2832 458.814 86.2832C452.275 86.2832 446.975 81.1633 446.975 74.8475C446.975 68.5317 452.275 63.4117 458.814 63.4117Z" fill="white"/>
<path d="M458.814 83.3326C465.352 83.3326 470.652 88.4526 470.652 94.7684C470.652 101.084 465.352 106.204 458.814 106.204C452.275 106.204 446.975 101.084 446.975 94.7684C446.975 88.4526 452.275 83.3326 458.814 83.3326Z" fill="white"/>
<path d="M475.69 54.4186C482.228 54.4186 487.528 59.5385 487.528 65.8543C487.528 72.1701 482.228 77.29 475.69 77.29C469.152 77.29 463.852 72.1701 463.852 65.8543C463.852 59.5385 469.152 54.4186 475.69 54.4186Z" fill="white"/>
<path d="M491.601 54.4186C498.139 54.4186 503.44 59.5385 503.44 65.8543C503.44 72.1701 498.139 77.29 491.601 77.29C485.063 77.29 479.763 72.1701 479.763 65.8543C479.763 59.5385 485.063 54.4186 491.601 54.4186Z" fill="white"/>
<path d="M494.786 34.3082C501.324 34.3082 506.624 39.4282 506.624 45.744C506.624 52.0597 501.324 57.1797 494.786 57.1797C488.248 57.1797 482.947 52.0597 482.947 45.744C482.947 39.4282 488.248 34.3082 494.786 34.3082Z" fill="white"/>
<path d="M505.128 15.6857C511.666 15.6857 516.966 20.8056 516.966 27.1214C516.966 33.4372 511.666 38.5571 505.128 38.5571C498.589 38.5571 493.289 33.4372 493.289 27.1214C493.289 20.8056 498.589 15.6857 505.128 15.6857Z" fill="white"/>
<path d="M521.304 2.10559C527.842 2.10559 533.142 7.22554 533.142 13.5413C533.142 19.8571 527.842 24.9771 521.304 24.9771C514.766 24.9771 509.465 19.8571 509.465 13.5413C509.465 7.22554 514.766 2.10559 521.304 2.10559Z" fill="white"/>
<path d="M540.345 0.000123978C546.883 0.000123978 552.183 5.12007 552.183 11.4359C552.183 17.7516 546.883 22.8716 540.345 22.8716C533.806 22.8716 528.506 17.7516 528.506 11.4359C528.506 5.12007 533.806 0.000123978 540.345 0.000123978Z" fill="white"/>
<path d="M558.019 4.24768C564.557 4.24768 569.857 9.36763 569.857 15.6834C569.857 21.9992 564.557 27.1191 558.019 27.1191C551.48 27.1191 546.18 21.9992 546.18 15.6834C546.18 9.36763 551.48 4.24768 558.019 4.24768Z" fill="white"/>
<path d="M573.189 17.7526C579.727 17.7526 585.028 22.8725 585.028 29.1883C585.028 35.5041 579.727 40.624 573.189 40.624C566.651 40.624 561.351 35.5041 561.351 29.1883C561.351 22.8725 566.651 17.7526 573.189 17.7526Z" fill="white"/>
<path d="M580.356 37.0734C586.894 37.0734 592.194 42.1933 592.194 48.5091C592.194 54.8249 586.894 59.9448 580.356 59.9448C573.818 59.9448 568.518 54.8249 568.518 48.5091C568.518 42.1933 573.818 37.0734 580.356 37.0734Z" fill="white"/>
<path d="M581.693 57.1617C588.231 57.1617 593.531 62.2817 593.531 68.5975C593.531 74.9133 588.231 80.0332 581.693 80.0332C575.154 80.0332 569.854 74.9133 569.854 68.5975C569.854 62.2817 575.154 57.1617 581.693 57.1617Z" fill="white"/>
<path d="M578.693 77.2833C585.231 77.2833 590.531 82.4033 590.531 88.7191C590.531 95.0348 585.231 100.155 578.693 100.155C572.154 100.155 566.854 95.0348 566.854 88.7191C566.854 82.4033 572.154 77.2833 578.693 77.2833Z" fill="white"/>
<path d="M568.517 94.7682C575.055 94.7682 580.356 99.8881 580.356 106.204C580.356 112.52 575.055 117.64 568.517 117.64C561.979 117.64 556.679 112.52 556.679 106.204C556.679 99.8881 561.979 94.7682 568.517 94.7682Z" fill="white"/>
<path d="M551.348 104.775C557.886 104.775 563.186 109.895 563.186 116.211C563.186 122.527 557.886 127.646 551.348 127.646C544.81 127.646 539.509 122.527 539.509 116.211C539.509 109.895 544.81 104.775 551.348 104.775Z" fill="white"/>
<path d="M535.677 106.212C542.215 106.212 547.515 111.331 547.515 117.647C547.515 123.963 542.215 129.083 535.677 129.083C529.139 129.083 523.838 123.963 523.838 117.647C523.838 111.331 529.139 106.212 535.677 106.212Z" fill="white"/>
<path d="M515.278 101.708C521.816 101.708 527.117 106.828 527.117 113.144C527.117 119.46 521.816 124.58 515.278 124.58C508.74 124.58 503.44 119.46 503.44 113.144C503.44 106.828 508.74 101.708 515.278 101.708Z" fill="white"/>
<path d="M502.834 88.7233C509.372 88.7233 514.672 93.8432 514.672 100.159C514.672 106.475 509.372 111.595 502.834 111.595C496.295 111.595 490.995 106.475 490.995 100.159C490.995 93.8432 496.295 88.7233 502.834 88.7233Z" fill="white"/>
<path d="M494.786 71.901C501.324 71.901 506.624 77.021 506.624 83.3367C506.624 89.6525 501.324 94.7725 494.786 94.7725C488.248 94.7725 482.947 89.6525 482.947 83.3367C482.947 77.021 488.248 71.901 494.786 71.901Z" fill="white"/>
<path d="M458.814 102.904C465.352 102.904 470.652 108.024 470.652 114.34C470.652 120.656 465.352 125.776 458.814 125.776C452.275 125.776 446.975 120.656 446.975 114.34C446.975 108.024 452.275 102.904 458.814 102.904Z" fill="white"/>
<path d="M240.415 104.174C246.953 104.174 252.254 109.294 252.254 115.61C252.254 121.926 246.953 127.046 240.415 127.046C233.877 127.046 228.577 121.926 228.577 115.61C228.577 109.294 233.877 104.174 240.415 104.174Z" fill="white"/>
<path d="M240.415 70.1344C246.953 70.1344 252.254 75.2544 252.254 81.5701C252.254 87.8859 246.953 93.0059 240.415 93.0059C233.877 93.0059 228.577 87.8859 228.577 81.5701C228.577 75.2544 233.877 70.1344 240.415 70.1344Z" fill="white"/>
<path d="M240.415 87.1559C246.953 87.1559 252.254 92.2758 252.254 98.5916C252.254 104.907 246.953 110.027 240.415 110.027C233.877 110.027 228.577 104.907 228.577 98.5916C228.577 92.2758 233.877 87.1559 240.415 87.1559Z" fill="white"/>
<path d="M240.415 53.1124C246.953 53.1124 252.254 58.2324 252.254 64.5482C252.254 70.8639 246.953 75.9839 240.415 75.9839C233.877 75.9839 228.577 70.8639 228.577 64.5482C228.577 58.2324 233.877 53.1124 240.415 53.1124Z" fill="white"/>
<path d="M240.415 36.0909C246.953 36.0909 252.254 41.2109 252.254 47.5267C252.254 53.8425 246.953 58.9624 240.415 58.9624C233.877 58.9624 228.577 53.8425 228.577 47.5267C228.577 41.2109 233.877 36.0909 240.415 36.0909Z" fill="white"/>
<path d="M240.415 19.0714C246.953 19.0714 252.254 24.1914 252.254 30.5071C252.254 36.8229 246.953 41.9429 240.415 41.9429C233.877 41.9429 228.577 36.8229 228.577 30.5071C228.577 24.1914 233.877 19.0714 240.415 19.0714Z" fill="white"/>
<path d="M240.415 2.04993C246.953 2.04993 252.254 7.16988 252.254 13.4857C252.254 19.8014 246.953 24.9214 240.415 24.9214C233.877 24.9214 228.577 19.8014 228.577 13.4857C228.577 7.16988 233.877 2.04993 240.415 2.04993Z" fill="white"/>
<path d="M259.427 2.05579C265.965 2.05579 271.266 7.17574 271.266 13.4915C271.266 19.8073 265.965 24.9272 259.427 24.9272C252.889 24.9272 247.589 19.8073 247.589 13.4915C247.589 7.17574 252.889 2.05579 259.427 2.05579Z" fill="white"/>
<path d="M277.255 2.05579C283.793 2.05579 289.094 7.17574 289.094 13.4915C289.094 19.8073 283.793 24.9272 277.255 24.9272C270.717 24.9272 265.417 19.8073 265.417 13.4915C265.417 7.17574 270.717 2.05579 277.255 2.05579Z" fill="white"/>
<path d="M295.082 2.05579C301.62 2.05579 306.92 7.17574 306.92 13.4915C306.92 19.8073 301.62 24.9272 295.082 24.9272C288.543 24.9272 283.243 19.8073 283.243 13.4915C283.243 7.17574 288.543 2.05579 295.082 2.05579Z" fill="white"/>
<path d="M312.905 19.0719C319.443 19.0719 324.744 24.1919 324.744 30.5076C324.744 36.8234 319.443 41.9434 312.905 41.9434C306.367 41.9434 301.067 36.8234 301.067 30.5076C301.067 24.1919 306.367 19.0719 312.905 19.0719Z" fill="white"/>
<path d="M312.905 2.05579C319.443 2.05579 324.744 7.17574 324.744 13.4915C324.744 19.8073 319.443 24.9272 312.905 24.9272C306.367 24.9272 301.067 19.8073 301.067 13.4915C301.067 7.17574 306.367 2.05579 312.905 2.05579Z" fill="white"/>
<path d="M312.905 36.0944C319.443 36.0944 324.744 41.2143 324.744 47.5301C324.744 53.8459 319.443 58.9658 312.905 58.9658C306.367 58.9658 301.067 53.8459 301.067 47.5301C301.067 41.2143 306.367 36.0944 312.905 36.0944Z" fill="white"/>
<path d="M312.905 53.1158C319.443 53.1158 324.744 58.2358 324.744 64.5516C324.744 70.8674 319.443 75.9873 312.905 75.9873C306.367 75.9873 301.067 70.8674 301.067 64.5516C301.067 58.2358 306.367 53.1158 312.905 53.1158Z" fill="white"/>
<path d="M312.905 70.1373C319.443 70.1373 324.744 75.2573 324.744 81.5731C324.744 87.8888 319.443 93.0088 312.905 93.0088C306.367 93.0088 301.067 87.8888 301.067 81.5731C301.067 75.2573 306.367 70.1373 312.905 70.1373Z" fill="white"/>
<path d="M312.905 87.1588C319.443 87.1588 324.744 92.2788 324.744 98.5945C324.744 104.91 319.443 110.03 312.905 110.03C306.367 110.03 301.067 104.91 301.067 98.5945C301.067 92.2788 306.367 87.1588 312.905 87.1588Z" fill="white"/>
<path d="M312.905 104.181C319.443 104.181 324.744 109.301 324.744 115.617C324.744 121.933 319.443 127.053 312.905 127.053C306.367 127.053 301.067 121.933 301.067 115.617C301.067 109.301 306.367 104.181 312.905 104.181Z" fill="white"/>
<path d="M355.553 1.05725C362.091 1.05725 367.391 6.1772 367.391 12.493C367.391 18.8088 362.091 23.9287 355.553 23.9287C349.015 23.9287 343.714 18.8088 343.714 12.493C343.714 6.1772 349.015 1.05725 355.553 1.05725Z" fill="white"/>
<path d="M372.415 1.05725C378.954 1.05725 384.254 6.1772 384.254 12.493C384.254 18.8088 378.954 23.9287 372.415 23.9287C365.877 23.9287 360.577 18.8088 360.577 12.493C360.577 6.1772 365.877 1.05725 372.415 1.05725Z" fill="white"/>
<path d="M391.98 1.05725C398.518 1.05725 403.818 6.1772 403.818 12.493C403.818 18.8088 398.518 23.9287 391.98 23.9287C385.442 23.9287 380.141 18.8088 380.141 12.493C380.141 6.1772 385.442 1.05725 391.98 1.05725Z" fill="white"/>
<path d="M411.074 7.37464C417.612 7.37464 422.912 12.4946 422.912 18.8104C422.912 25.1261 417.612 30.2461 411.074 30.2461C404.536 30.2461 399.236 25.1261 399.236 18.8104C399.236 12.4946 404.536 7.37464 411.074 7.37464Z" fill="white"/>
<path d="M420.157 18.8092C426.695 18.8092 431.995 23.9292 431.995 30.2449C431.995 36.5607 426.695 41.6807 420.157 41.6807C413.619 41.6807 408.318 36.5607 408.318 30.2449C408.318 23.9292 413.619 18.8092 420.157 18.8092Z" fill="white"/>
<path d="M420.157 37.4889C426.695 37.4889 431.995 42.6088 431.995 48.9246C431.995 55.2404 426.695 60.3604 420.157 60.3604C413.619 60.3604 408.318 55.2404 408.318 48.9246C408.318 42.6088 413.619 37.4889 420.157 37.4889Z" fill="white"/>
<path d="M413.799 56.1144C420.337 56.1144 425.637 61.2343 425.637 67.5501C425.637 73.8659 420.337 78.9858 413.799 78.9858C407.26 78.9858 401.96 73.8659 401.96 67.5501C401.96 61.2343 407.26 56.1144 413.799 56.1144Z" fill="white"/>
<path d="M393.608 62.3615C400.146 62.3615 405.446 67.4814 405.446 73.7972C405.446 80.113 400.146 85.2329 393.608 85.2329C387.07 85.2329 381.77 80.113 381.77 73.7972C381.77 67.4814 387.07 62.3615 393.608 62.3615Z" fill="white"/>
<path d="M372.415 62.3615C378.954 62.3615 384.254 67.4814 384.254 73.7972C384.254 80.113 378.954 85.2329 372.415 85.2329C365.877 85.2329 360.577 80.113 360.577 73.7972C360.577 67.4814 365.877 62.3615 372.415 62.3615Z" fill="white"/>
<path d="M355.553 18.8092C362.091 18.8092 367.391 23.9292 367.391 30.2449C367.391 36.5607 362.091 41.6807 355.553 41.6807C349.015 41.6807 343.714 36.5607 343.714 30.2449C343.714 23.9292 349.015 18.8092 355.553 18.8092Z" fill="white"/>
<path d="M355.553 37.4884C362.091 37.4884 367.391 42.6084 367.391 48.9241C367.391 55.2399 362.091 60.3599 355.553 60.3599C349.015 60.3599 343.714 55.2399 343.714 48.9241C343.714 42.6084 349.015 37.4884 355.553 37.4884Z" fill="white"/>
<path d="M355.553 56.111C362.091 56.111 367.391 61.2309 367.391 67.5467C367.391 73.8625 362.091 78.9824 355.553 78.9824C349.015 78.9824 343.714 73.8625 343.714 67.5467C343.714 61.2309 349.015 56.111 355.553 56.111Z" fill="white"/>
<path d="M355.553 75.4718C362.091 75.4718 367.391 80.5918 367.391 86.9075C367.391 93.2233 362.091 98.3433 355.553 98.3433C349.015 98.3433 343.714 93.2233 343.714 86.9075C343.714 80.5918 349.015 75.4718 355.553 75.4718Z" fill="white"/>
<path d="M355.553 92.0895C362.091 92.0895 367.391 97.2094 367.391 103.525C367.391 109.841 362.091 114.961 355.553 114.961C349.015 114.961 343.714 109.841 343.714 103.525C343.714 97.2094 349.015 92.0895 355.553 92.0895Z" fill="white"/>
<path d="M355.553 105.158C362.091 105.158 367.391 110.278 367.391 116.594C367.391 122.909 362.091 128.029 355.553 128.029C349.015 128.029 343.714 122.909 343.714 116.594C343.714 110.278 349.015 105.158 355.553 105.158Z" fill="white"/>
</svg>
