<svg width="182" height="201" viewBox="0 0 182 201" fill="none" xmlns="http://www.w3.org/2000/svg">
<path d="M57.2281 8.55423C66.8251 8.55423 74.605 16.0695 74.605 25.34C74.605 34.6105 66.8251 42.1257 57.2281 42.1257C47.6311 42.1257 39.8513 34.6105 39.8513 25.34C39.8513 16.0695 47.6311 8.55423 57.2281 8.55423Z" fill="white"/>
<path d="M89.5201 2.67029e-05C99.117 2.67029e-05 106.897 7.51526 106.897 16.7858C106.897 26.0563 99.117 33.5715 89.5201 33.5715C79.9231 33.5715 72.1432 26.0563 72.1432 16.7858C72.1432 7.51526 79.9231 2.67029e-05 89.5201 2.67029e-05Z" fill="white"/>
<path d="M121.254 9.15279C130.845 9.47305 138.37 17.2437 138.061 26.5091C137.751 35.7744 129.725 43.0259 120.133 42.7056C110.542 42.3853 103.017 34.6147 103.326 25.3493C103.636 16.084 111.662 8.83254 121.254 9.15279Z" fill="white"/>
<path d="M144.288 28.5662C153.885 28.5662 161.665 36.0814 161.665 45.3519C161.665 54.6225 153.885 62.1377 144.288 62.1377C134.691 62.1377 126.911 54.6225 126.911 45.3519C126.911 36.0814 134.691 28.5662 144.288 28.5662Z" fill="white"/>
<path d="M156.017 56.8482C165.614 56.8482 173.394 64.3634 173.394 73.6339C173.394 82.9044 165.614 90.4197 156.017 90.4197C146.42 90.4197 138.64 82.9044 138.64 73.6339C138.64 64.3634 146.42 56.8482 156.017 56.8482Z" fill="white"/>
<path d="M164.425 86.4212C174.022 86.4212 181.801 93.9364 181.801 103.207C181.801 112.477 174.022 119.993 164.425 119.993C154.828 119.993 147.048 112.477 147.048 103.207C147.048 93.9364 154.828 86.4212 164.425 86.4212Z" fill="white"/>
<path d="M156.017 116.066C165.614 116.066 173.394 123.581 173.394 132.852C173.394 142.122 165.614 149.638 156.017 149.638C146.42 149.638 138.64 142.122 138.64 132.852C138.64 123.581 146.42 116.066 156.017 116.066Z" fill="white"/>
<path d="M144.288 144.283C153.885 144.283 161.665 151.798 161.665 161.068C161.665 170.339 153.885 177.854 144.288 177.854C134.691 177.854 126.911 170.339 126.911 161.068C126.911 151.798 134.691 144.283 144.288 144.283Z" fill="white"/>
<path d="M121.263 160.646C130.86 160.646 138.64 168.161 138.64 177.432C138.64 186.702 130.86 194.217 121.263 194.217C111.666 194.217 103.886 186.702 103.886 177.432C103.886 168.161 111.666 160.646 121.263 160.646Z" fill="white"/>
<path d="M91.9842 167.353C101.581 167.353 109.361 174.868 109.361 184.138C109.361 193.409 101.581 200.924 91.9842 200.924C82.3872 200.924 74.6073 193.409 74.6073 184.138C74.6073 174.868 82.3872 167.353 91.9842 167.353Z" fill="white"/>
<path d="M60.6062 161.069C70.2032 161.069 77.9831 168.584 77.9831 177.855C77.9831 187.125 70.2032 194.64 60.6062 194.64C51.0093 194.64 43.2294 187.125 43.2294 177.855C43.2294 168.584 51.0093 161.069 60.6062 161.069Z" fill="white"/>
<path d="M34.7539 140.657C44.3509 140.657 52.1307 148.172 52.1307 157.443C52.1307 166.713 44.3509 174.228 34.7539 174.228C25.1569 174.228 17.377 166.713 17.377 157.443C17.377 148.172 25.1569 140.657 34.7539 140.657Z" fill="white"/>
<path d="M23.415 116.066C33.012 116.066 40.7919 123.581 40.7919 132.852C40.7919 142.122 33.012 149.638 23.415 149.638C13.818 149.638 6.03815 142.122 6.03815 132.852C6.03815 123.581 13.818 116.066 23.415 116.066Z" fill="white"/>
<path d="M17.3769 86.4204C26.9738 86.4204 34.7537 93.9357 34.7537 103.206C34.7537 112.477 26.9738 119.992 17.3769 119.992C7.77989 119.992 0 112.477 0 103.206C0 93.9357 7.77989 86.4204 17.3769 86.4204Z" fill="white"/>
<path d="M23.415 56.8482C33.012 56.8482 40.7919 64.3634 40.7919 73.6339C40.7919 82.9044 33.012 90.4197 23.415 90.4197C13.818 90.4197 6.03815 82.9044 6.03815 73.6339C6.03815 64.3634 13.818 56.8482 23.415 56.8482Z" fill="white"/>
<path d="M34.7541 30.5596C44.351 30.5596 52.1309 38.0748 52.1309 47.3454C52.1309 56.6159 44.351 64.1311 34.7541 64.1311C25.1571 64.1311 17.3772 56.6159 17.3772 47.3454C17.3772 38.0748 25.1571 30.5596 34.7541 30.5596Z" fill="white"/>
</svg>
