<svg width="35" height="49" viewBox="0 0 35 49" fill="none" xmlns="http://www.w3.org/2000/svg">
<path d="M4.46545 39.5428C6.93166 39.5428 8.93091 41.4741 8.93091 43.8564C8.93091 46.2387 6.93166 48.1699 4.46545 48.1699C1.99925 48.1699 0 46.2387 0 43.8564C0 41.4741 1.99925 39.5428 4.46545 39.5428Z" fill="#F6F6F6"/>
<path d="M4.46545 31.6434C6.93166 31.6434 8.93091 33.5746 8.93091 35.957C8.93091 38.3393 6.93166 40.2705 4.46545 40.2705C1.99925 40.2705 0 38.3393 0 35.957C0 33.5746 1.99925 31.6434 4.46545 31.6434Z" fill="#F6F6F6"/>
<path d="M4.46545 23.3714C6.93166 23.3714 8.93091 25.3027 8.93091 27.685C8.93091 30.0673 6.93166 31.9985 4.46545 31.9985C1.99925 31.9985 0 30.0673 0 27.685C0 25.3027 1.99925 23.3714 4.46545 23.3714Z" fill="#F6F6F6"/>
<path d="M4.46545 15.4002C6.93166 15.4002 8.93091 17.3315 8.93091 19.7138C8.93091 22.0961 6.93166 24.0273 4.46545 24.0273C1.99925 24.0273 0 22.0961 0 19.7138C0 17.3315 1.99925 15.4002 4.46545 15.4002Z" fill="#F6F6F6"/>
<path d="M4.46545 7.20151C6.93166 7.20151 8.93091 9.13275 8.93091 11.5151C8.93091 13.8974 6.93166 15.8286 4.46545 15.8286C1.99925 15.8286 0 13.8974 0 11.5151C0 9.13275 1.99925 7.20151 4.46545 7.20151Z" fill="#F6F6F6"/>
<path d="M4.46545 0.531098C6.93166 0.531098 8.93091 2.46234 8.93091 4.84465C8.93091 7.22696 6.93166 9.1582 4.46545 9.1582C1.99925 9.1582 0 7.22696 0 4.84465C0 2.46234 1.99925 0.531098 4.46545 0.531098Z" fill="#F6F6F6"/>
<path d="M11.7013 0.000336647C14.1675 0.000336647 16.1667 1.93158 16.1667 4.31389C16.1667 6.6962 14.1675 8.62744 11.7013 8.62744C9.23509 8.62744 7.23584 6.6962 7.23584 4.31389C7.23584 1.93158 9.23509 0.000336647 11.7013 0.000336647Z" fill="#F6F6F6"/>
<path d="M19.5936 0.531098C22.0598 0.531098 24.0591 2.46234 24.0591 4.84465C24.0591 7.22696 22.0598 9.1582 19.5936 9.1582C17.1274 9.1582 15.1282 7.22696 15.1282 4.84465C15.1282 2.46234 17.1274 0.531098 19.5936 0.531098Z" fill="#F6F6F6"/>
<path d="M26.9542 2.88803C29.4204 2.88803 31.4197 4.81927 31.4197 7.20158C31.4197 9.58389 29.4204 11.5151 26.9542 11.5151C24.488 11.5151 22.4888 9.58389 22.4888 7.20158C22.4888 4.81927 24.488 2.88803 26.9542 2.88803Z" fill="#F6F6F6"/>
<path d="M30.2318 9.18588C32.698 9.18588 34.6973 11.1171 34.6973 13.4994C34.6973 15.8817 32.698 17.813 30.2318 17.813C27.7656 17.813 25.7664 15.8817 25.7664 13.4994C25.7664 11.1171 27.7656 9.18588 30.2318 9.18588Z" fill="#F6F6F6"/>
<path d="M29.5646 16.7762C32.0308 16.7762 34.03 18.7075 34.03 21.0898C34.03 23.4721 32.0308 25.4033 29.5646 25.4033C27.0984 25.4033 25.0991 23.4721 25.0991 21.0898C25.0991 18.7075 27.0984 16.7762 29.5646 16.7762Z" fill="#F6F6F6"/>
<path d="M24.0597 22.1263C26.5259 22.1263 28.5251 24.0576 28.5251 26.4399C28.5251 28.8222 26.5259 30.7534 24.0597 30.7534C21.5935 30.7534 19.5942 28.8222 19.5942 26.4399C19.5942 24.0576 21.5935 22.1263 24.0597 22.1263Z" fill="#F6F6F6"/>
<path d="M16.1664 23.0164C18.6326 23.0164 20.6318 24.9477 20.6318 27.33C20.6318 29.7123 18.6326 31.6436 16.1664 31.6436C13.7002 31.6436 11.7009 29.7123 11.7009 27.33C11.7009 24.9477 13.7002 23.0164 16.1664 23.0164Z" fill="#F6F6F6"/>
<path d="M9.34802 22.1263C11.8142 22.1263 13.8135 24.0576 13.8135 26.4399C13.8135 28.8222 11.8142 30.7534 9.34802 30.7534C6.88182 30.7534 4.88257 28.8222 4.88257 26.4399C4.88257 24.0576 6.88182 22.1263 9.34802 22.1263Z" fill="#F6F6F6"/>
</svg>
