<svg width="42" height="48" viewBox="0 0 42 48" fill="none" xmlns="http://www.w3.org/2000/svg">
<path d="M4.33184 19.4108C6.72426 19.4108 8.66369 21.2843 8.66369 23.5953C8.66369 25.9063 6.72426 27.7798 4.33184 27.7798C1.93943 27.7798 0 25.9063 0 23.5953C0 21.2843 1.93943 19.4108 4.33184 19.4108Z" fill="#F6F6F6"/>
<path d="M5.99566 12.0387C8.38807 12.0387 10.3275 13.9122 10.3275 16.2232C10.3275 18.5343 8.38807 20.4077 5.99566 20.4077C3.60325 20.4077 1.66382 18.5343 1.66382 16.2232C1.66382 13.9122 3.60325 12.0387 5.99566 12.0387Z" fill="#F6F6F6"/>
<path d="M9.68145 5.48454C12.0739 5.48454 14.0133 7.358 14.0133 9.66903C14.0133 11.9801 12.0739 13.8535 9.68145 13.8535C7.28904 13.8535 5.34961 11.9801 5.34961 9.66903C5.34961 7.358 7.28904 5.48454 9.68145 5.48454Z" fill="#F6F6F6"/>
<path d="M15.5792 0.000164986C17.9716 0.000164986 19.911 1.87362 19.911 4.18465C19.911 6.49568 17.9716 8.36914 15.5792 8.36914C13.1867 8.36914 11.2473 6.49568 11.2473 4.18465C11.2473 1.87362 13.1867 0.000164986 15.5792 0.000164986Z" fill="#F6F6F6"/>
<path d="M22.721 0.000164986C25.1134 0.000164986 27.0528 1.87362 27.0528 4.18465C27.0528 6.49568 25.1134 8.36914 22.721 8.36914C20.3286 8.36914 18.3892 6.49568 18.3892 4.18465C18.3892 1.87362 20.3286 0.000164986 22.721 0.000164986Z" fill="#F6F6F6"/>
<path d="M30.4647 2.0529C32.8571 2.0529 34.7965 3.92636 34.7965 6.23739C34.7965 8.54842 32.8571 10.4219 30.4647 10.4219C28.0722 10.4219 26.1328 8.54842 26.1328 6.23739C26.1328 3.92636 28.0722 2.0529 30.4647 2.0529Z" fill="#F6F6F6"/>
<path d="M35.7608 7.85515C38.1532 7.85515 40.0926 9.7286 40.0926 12.0396C40.0926 14.3507 38.1532 16.2241 35.7608 16.2241C33.3684 16.2241 31.429 14.3507 31.429 12.0396C31.429 9.7286 33.3684 7.85515 35.7608 7.85515Z" fill="#F6F6F6"/>
<path d="M37.0882 28.6418C39.4806 28.6418 41.42 30.5152 41.42 32.8263C41.42 35.1373 39.4806 37.0107 37.0882 37.0107C34.6958 37.0107 32.7563 35.1373 32.7563 32.8263C32.7563 30.5152 34.6958 28.6418 37.0882 28.6418Z" fill="#F6F6F6"/>
<path d="M34.0523 35.2946C36.4447 35.2946 38.3841 37.1681 38.3841 39.4791C38.3841 41.7901 36.4447 43.6636 34.0523 43.6636C31.6599 43.6636 29.7205 41.7901 29.7205 39.4791C29.7205 37.1681 31.6599 35.2946 34.0523 35.2946Z" fill="#F6F6F6"/>
<path d="M28.4246 39.4797C30.817 39.4797 32.7565 41.3531 32.7565 43.6641C32.7565 45.9752 30.817 47.8486 28.4246 47.8486C26.0322 47.8486 24.0928 45.9752 24.0928 43.6641C24.0928 41.3531 26.0322 39.4797 28.4246 39.4797Z" fill="#F6F6F6"/>
<path d="M21.2601 39.4797C23.6525 39.4797 25.5919 41.3531 25.5919 43.6641C25.5919 45.9752 23.6525 47.8486 21.2601 47.8486C18.8677 47.8486 16.9282 45.9752 16.9282 43.6641C16.9282 41.3531 18.8677 39.4797 21.2601 39.4797Z" fill="#F6F6F6"/>
<path d="M14.0135 38.6496C16.4059 38.6496 18.3453 40.523 18.3453 42.8341C18.3453 45.1451 16.4059 47.0186 14.0135 47.0186C11.6211 47.0186 9.68164 45.1451 9.68164 42.8341C9.68164 40.523 11.6211 38.6496 14.0135 38.6496Z" fill="#F6F6F6"/>
<path d="M8.6651 33.3381C11.0575 33.3381 12.9969 35.2115 12.9969 37.5225C12.9969 39.8336 11.0575 41.707 8.6651 41.707C6.27268 41.707 4.33325 39.8336 4.33325 37.5225C4.33325 35.2115 6.27268 33.3381 8.6651 33.3381Z" fill="#F6F6F6"/>
<path d="M4.33184 26.8C6.72426 26.8 8.66369 28.6734 8.66369 30.9845C8.66369 33.2955 6.72426 35.1689 4.33184 35.1689C1.93943 35.1689 0 33.2955 0 30.9845C0 28.6734 1.93943 26.8 4.33184 26.8Z" fill="#F6F6F6"/>
</svg>
