<svg width="84" height="107" viewBox="0 0 84 107" fill="none" xmlns="http://www.w3.org/2000/svg">
<path d="M42.4044 86.4711C48.0178 86.4711 52.5683 90.8668 52.5683 96.2892C52.5683 101.712 48.0178 106.107 42.4044 106.107C36.791 106.107 32.2405 101.712 32.2405 96.2892C32.2405 90.8668 36.791 86.4711 42.4044 86.4711Z" fill="#73C431"/>
<path d="M42.2242 69.3002C47.8376 69.3002 52.3882 73.6959 52.3882 79.1183C52.3882 84.5408 47.8376 88.9365 42.2242 88.9365C36.6108 88.9365 32.0603 84.5408 32.0603 79.1183C32.0603 73.6959 36.6108 69.3002 42.2242 69.3002Z" fill="#73C431"/>
<path d="M42.2257 52.1932C47.8391 52.1932 52.3896 56.589 52.3896 62.0114C52.3896 67.4338 47.8391 71.8296 42.2257 71.8296C36.6123 71.8296 32.0618 67.4338 32.0618 62.0114C32.0618 56.589 36.6123 52.1932 42.2257 52.1932Z" fill="#73C431"/>
<path d="M42.2257 34.6517C47.8391 34.6517 52.3896 39.0475 52.3896 44.4699C52.3896 49.8923 47.8391 54.2881 42.2257 54.2881C36.6123 54.2881 32.0618 49.8923 32.0618 44.4699C32.0618 39.0475 36.6123 34.6517 42.2257 34.6517Z" fill="#73C431"/>
<path d="M42.2257 17.3739C47.8391 17.3739 52.3896 21.7696 52.3896 27.1921C52.3896 32.6145 47.8391 37.0103 42.2257 37.0103C36.6123 37.0103 32.0618 32.6145 32.0618 27.1921C32.0618 21.7696 36.6123 17.3739 42.2257 17.3739Z" fill="#73C431"/>
<path d="M10.1639 -0.0001297C15.7773 -0.0001297 20.3279 4.39562 20.3279 9.81805C20.3279 15.2405 15.7773 19.6362 10.1639 19.6362C4.55054 19.6362 0 15.2405 0 9.81805C0 4.39562 4.55054 -0.0001297 10.1639 -0.0001297Z" fill="#73C431"/>
<path d="M25.9125 0.000846863C31.5258 0.000846863 36.0764 4.3966 36.0764 9.81903C36.0764 15.2415 31.5258 19.6372 25.9125 19.6372C20.2991 19.6372 15.7485 15.2415 15.7485 9.81903C15.7485 4.3966 20.2991 0.000846863 25.9125 0.000846863Z" fill="#73C431"/>
<path d="M41.6097 0.000358582C47.2231 0.000358582 51.7737 4.39611 51.7737 9.81854C51.7737 15.241 47.2231 19.6367 41.6097 19.6367C35.9963 19.6367 31.4458 15.241 31.4458 9.81854C31.4458 4.39611 35.9963 0.000358582 41.6097 0.000358582Z" fill="#73C431"/>
<path d="M58.1815 0.000358582C63.7949 0.000358582 68.3454 4.39611 68.3454 9.81854C68.3454 15.241 63.7949 19.6367 58.1815 19.6367C52.5681 19.6367 48.0176 15.241 48.0176 9.81854C48.0176 4.39611 52.5681 0.000358582 58.1815 0.000358582Z" fill="#73C431"/>
<path d="M73.6715 0.000358582C79.2849 0.000358582 83.8354 4.39611 83.8354 9.81854C83.8354 15.241 79.2849 19.6367 73.6715 19.6367C68.0581 19.6367 63.5076 15.241 63.5076 9.81854C63.5076 4.39611 68.0581 0.000358582 73.6715 0.000358582Z" fill="#73C431"/>
</svg>
