<svg width="157" height="199" viewBox="0 0 157 199" fill="none" xmlns="http://www.w3.org/2000/svg">
<path d="M18.4711 8.7738e-05C28.6724 8.7738e-05 36.9421 7.98855 36.9421 17.8428C36.9421 27.6971 28.6724 35.6855 18.4711 35.6855C8.26978 35.6855 0 27.6971 0 17.8428C0 7.98855 8.26978 8.7738e-05 18.4711 8.7738e-05Z" fill="white"/>
<path d="M29.2275 27.2591C39.4288 27.2591 47.6986 35.2476 47.6986 45.1019C47.6986 54.9561 39.4288 62.9446 29.2275 62.9446C19.0262 62.9446 10.7565 54.9561 10.7565 45.1019C10.7565 35.2476 19.0262 27.2591 29.2275 27.2591Z" fill="white"/>
<path d="M42.3061 53.5282C52.5074 53.5282 60.7772 61.5166 60.7772 71.3709C60.7772 81.2252 52.5074 89.2136 42.3061 89.2136C32.1049 89.2136 23.8351 81.2252 23.8351 71.3709C23.8351 61.5166 32.1049 53.5282 42.3061 53.5282Z" fill="white"/>
<path d="M55.413 78.1651C65.6142 78.1651 73.884 86.1536 73.884 96.0079C73.884 105.862 65.6142 113.851 55.413 113.851C45.2117 113.851 36.9419 105.862 36.9419 96.0079C36.9419 86.1536 45.2117 78.1651 55.413 78.1651Z" fill="white"/>
<path d="M138.309 0.000576019C148.51 0.000576019 156.78 7.98904 156.78 17.8433C156.78 27.6976 148.51 35.686 138.309 35.686C128.108 35.686 119.838 27.6976 119.838 17.8433C119.838 7.98904 128.108 0.000576019 138.309 0.000576019Z" fill="white"/>
<path d="M127.595 27.2596C137.796 27.2596 146.066 35.2481 146.066 45.1023C146.066 54.9566 137.796 62.9451 127.595 62.9451C117.394 62.9451 109.124 54.9566 109.124 45.1023C109.124 35.2481 117.394 27.2596 127.595 27.2596Z" fill="white"/>
<path d="M114.805 53.5257C125.006 53.5257 133.276 61.5142 133.276 71.3685C133.276 81.2227 125.006 89.2112 114.805 89.2112C104.604 89.2112 96.3338 81.2227 96.3338 71.3685C96.3338 61.5142 104.604 53.5257 114.805 53.5257Z" fill="white"/>
<path d="M105.909 82.3431C116.11 82.3431 124.38 90.3316 124.38 100.186C124.38 110.04 116.11 118.029 105.909 118.029C95.7075 118.029 87.4377 110.04 87.4377 100.186C87.4377 90.3316 95.7075 82.3431 105.909 82.3431Z" fill="white"/>
<path d="M90.6531 111.752C100.854 111.752 109.124 119.74 109.124 129.595C109.124 139.449 100.854 147.437 90.6531 147.437C80.4518 147.437 72.182 139.449 72.182 129.595C72.182 119.74 80.4518 111.752 90.6531 111.752Z" fill="white"/>
<path d="M79.2491 139.098C89.4504 139.098 97.7202 147.087 97.7202 156.941C97.7202 166.795 89.4504 174.784 79.2491 174.784C69.0479 174.784 60.7781 166.795 60.7781 156.941C60.7781 147.087 69.0479 139.098 79.2491 139.098Z" fill="white"/>
<path d="M60.7793 162.653C70.9806 162.653 79.2504 170.641 79.2504 180.496C79.2504 190.35 70.9806 198.338 60.7793 198.338C50.578 198.338 42.3082 190.35 42.3082 180.496C42.3082 170.641 50.578 162.653 60.7793 162.653Z" fill="white"/>
<path d="M33.6798 162.655C43.8811 162.655 52.1509 170.644 52.1509 180.498C52.1509 190.352 43.8811 198.341 33.6798 198.341C23.4785 198.341 15.2087 190.352 15.2087 180.498C15.2087 170.644 23.4785 162.655 33.6798 162.655Z" fill="white"/>
<path d="M70.6227 107.264C80.824 107.264 89.0937 115.253 89.0937 125.107C89.0937 134.961 80.824 142.95 70.6227 142.95C60.4214 142.95 52.1516 134.961 52.1516 125.107C52.1516 115.253 60.4214 107.264 70.6227 107.264Z" fill="white"/>
</svg>
