<svg width="137" height="200" viewBox="0 0 137 200" fill="none" xmlns="http://www.w3.org/2000/svg">
<path d="M18.2956 3.05176e-05C28.3999 3.05176e-05 36.5911 7.91259 36.5911 17.6732C36.5911 27.4339 28.3999 35.3464 18.2956 35.3464C8.1912 35.3464 0 27.4339 0 17.6732C0 7.91259 8.1912 3.05176e-05 18.2956 3.05176e-05Z" fill="white"/>
<path d="M18.2959 27.0003C28.4002 27.0003 36.5914 34.9128 36.5914 44.6735C36.5914 54.4341 28.4002 62.3467 18.2959 62.3467C8.19151 62.3467 0.000305176 54.4341 0.000305176 44.6735C0.000305176 34.9128 8.19151 27.0003 18.2959 27.0003Z" fill="white"/>
<path d="M18.2959 55.7322C28.4002 55.7322 36.5914 63.6448 36.5914 73.4054C36.5914 83.1661 28.4002 91.0786 18.2959 91.0786C8.19151 91.0786 0.000305176 83.1661 0.000305176 73.4054C0.000305176 63.6448 8.19151 55.7322 18.2959 55.7322Z" fill="white"/>
<path d="M27.8376 81.5589C37.9419 81.5589 46.1331 89.4714 46.1331 99.2321C46.1331 108.993 37.9419 116.905 27.8376 116.905C17.7332 116.905 9.54199 108.993 9.54199 99.2321C9.54199 89.4714 17.7332 81.5589 27.8376 81.5589Z" fill="white"/>
<path d="M54.8868 95.0972C64.9911 95.0972 73.1823 103.01 73.1823 112.77C73.1823 122.531 64.9911 130.444 54.8868 130.444C44.7824 130.444 36.5912 122.531 36.5912 112.77C36.5912 103.01 44.7824 95.0972 54.8868 95.0972Z" fill="white"/>
<path d="M86.6187 95.355C96.723 95.355 104.914 103.268 104.914 113.028C104.914 122.789 96.723 130.701 86.6187 130.701C76.5143 130.701 68.3231 122.789 68.3231 113.028C68.3231 103.268 76.5143 95.355 86.6187 95.355Z" fill="white"/>
<path d="M117.885 84.7588C127.989 84.7588 136.18 92.6714 136.18 102.432C136.18 112.193 127.989 120.105 117.885 120.105C107.78 120.105 99.5892 112.193 99.5892 102.432C99.5892 92.6714 107.78 84.7588 117.885 84.7588Z" fill="white"/>
<path d="M117.885 55.7361C127.989 55.7361 136.181 63.6487 136.181 73.4093C136.181 83.17 127.989 91.0825 117.885 91.0825C107.781 91.0825 99.5894 83.17 99.5894 73.4093C99.5894 63.6487 107.781 55.7361 117.885 55.7361Z" fill="white"/>
<path d="M117.885 27.0003C127.989 27.0003 136.181 34.9128 136.181 44.6735C136.181 54.4341 127.989 62.3467 117.885 62.3467C107.781 62.3467 99.5894 54.4341 99.5894 44.6735C99.5894 34.9128 107.781 27.0003 117.885 27.0003Z" fill="white"/>
<path d="M117.887 0.00320435C127.991 0.00320435 136.182 7.91577 136.182 17.6764C136.182 27.437 127.991 35.3496 117.887 35.3496C107.783 35.3496 99.5914 27.437 99.5914 17.6764C99.5914 7.91577 107.783 0.00320435 117.887 0.00320435Z" fill="white"/>
<path d="M117.885 109.724C127.989 109.724 136.18 117.637 136.18 127.397C136.18 137.158 127.989 145.071 117.885 145.071C107.78 145.071 99.5891 137.158 99.5891 127.397C99.5891 117.637 107.78 109.724 117.885 109.724Z" fill="white"/>
<path d="M117.885 137.777C127.989 137.777 136.18 145.689 136.18 155.45C136.18 165.211 127.989 173.123 117.885 173.123C107.78 173.123 99.5892 165.211 99.5892 155.45C99.5892 145.689 107.78 137.777 117.885 137.777Z" fill="white"/>
<path d="M117.885 163.71C127.989 163.71 136.18 171.623 136.18 181.383C136.18 191.144 127.989 199.056 117.885 199.056C107.781 199.056 99.5894 191.144 99.5894 181.383C99.5894 171.623 107.781 163.71 117.885 163.71Z" fill="white"/>
</svg>
