<svg width="228" height="200" viewBox="0 0 228 200" fill="none" xmlns="http://www.w3.org/2000/svg">
<path d="M44.5762 84.3111C54.707 84.3111 62.9196 92.2443 62.9196 102.03C62.9196 111.817 54.707 119.75 44.5762 119.75C34.4455 119.75 26.2329 111.817 26.2329 102.03C26.2329 92.2443 34.4455 84.3111 44.5762 84.3111Z" fill="white"/>
<path d="M69.2318 84.3116C79.3625 84.3116 87.5751 92.2448 87.5751 102.031C87.5751 111.817 79.3625 119.75 69.2318 119.75C59.101 119.75 50.8884 111.817 50.8884 102.031C50.8884 92.2448 59.101 84.3116 69.2318 84.3116Z" fill="white"/>
<path d="M74.1619 53.1578C84.2927 53.1578 92.5053 61.091 92.5053 70.8771C92.5053 80.6632 84.2927 88.5964 74.1619 88.5964C64.0312 88.5964 55.8186 80.6632 55.8186 70.8771C55.8186 61.091 64.0312 53.1578 74.1619 53.1578Z" fill="white"/>
<path d="M90.1876 24.2984C100.318 24.2984 108.531 32.2316 108.531 42.0177C108.531 51.8038 100.318 59.7371 90.1876 59.7371C80.0568 59.7371 71.8442 51.8038 71.8442 42.0177C71.8442 32.2316 80.0568 24.2984 90.1876 24.2984Z" fill="white"/>
<path d="M115.253 3.25932C125.384 3.25932 133.597 11.1925 133.597 20.9787C133.597 30.7648 125.384 38.698 115.253 38.698C105.123 38.698 96.9102 30.7648 96.9102 20.9787C96.9102 11.1925 105.123 3.25932 115.253 3.25932Z" fill="white"/>
<path d="M144.758 4.57764e-05C154.889 4.57764e-05 163.101 7.93326 163.101 17.7194C163.101 27.5055 154.889 35.4387 144.758 35.4387C134.627 35.4387 126.415 27.5055 126.415 17.7194C126.415 7.93326 134.627 4.57764e-05 144.758 4.57764e-05Z" fill="white"/>
<path d="M172.14 6.57866C182.271 6.57866 190.483 14.5119 190.483 24.298C190.483 34.0841 182.271 42.0173 172.14 42.0173C162.009 42.0173 153.797 34.0841 153.797 24.298C153.797 14.5119 162.009 6.57866 172.14 6.57866Z" fill="white"/>
<path d="M195.644 27.5032C205.775 27.5032 213.988 35.4364 213.988 45.2226C213.988 55.0087 205.775 62.9419 195.644 62.9419C185.514 62.9419 177.301 55.0087 177.301 45.2226C177.301 35.4364 185.514 27.5032 195.644 27.5032Z" fill="white"/>
<path d="M206.752 57.4383C216.883 57.4383 225.095 65.3715 225.095 75.1576C225.095 84.9437 216.883 92.877 206.752 92.877C196.621 92.877 188.409 84.9437 188.409 75.1576C188.409 65.3715 196.621 57.4383 206.752 57.4383Z" fill="white"/>
<path d="M208.826 88.5682C218.957 88.5682 227.169 96.5014 227.169 106.287C227.169 116.074 218.957 124.007 208.826 124.007C198.695 124.007 190.483 116.074 190.483 106.287C190.483 96.5014 198.695 88.5682 208.826 88.5682Z" fill="white"/>
<path d="M204.176 119.75C214.307 119.75 222.52 127.683 222.52 137.469C222.52 147.255 214.307 155.188 204.176 155.188C194.045 155.188 185.833 147.255 185.833 137.469C185.833 127.683 194.045 119.75 204.176 119.75Z" fill="white"/>
<path d="M188.41 146.845C198.54 146.845 206.753 154.778 206.753 164.564C206.753 174.35 198.54 182.283 188.41 182.283C178.279 182.283 170.066 174.35 170.066 164.564C170.066 154.778 178.279 146.845 188.41 146.845Z" fill="white"/>
<path d="M161.804 162.344C171.935 162.344 180.147 170.277 180.147 180.063C180.147 189.849 171.935 197.783 161.804 197.783C151.673 197.783 143.46 189.849 143.46 180.063C143.46 170.277 151.673 162.344 161.804 162.344Z" fill="white"/>
<path d="M137.523 164.565C147.654 164.565 155.866 172.499 155.866 182.285C155.866 192.071 147.654 200.004 137.523 200.004C127.392 200.004 119.18 192.071 119.18 182.285C119.18 172.499 127.392 164.565 137.523 164.565Z" fill="white"/>
<path d="M105.918 157.589C116.048 157.589 124.261 165.522 124.261 175.308C124.261 185.094 116.048 193.027 105.918 193.027C95.7869 193.027 87.5743 185.094 87.5743 175.308C87.5743 165.522 95.7869 157.589 105.918 157.589Z" fill="white"/>
<path d="M86.6365 137.47C96.7673 137.47 104.98 145.403 104.98 155.189C104.98 164.975 96.7673 172.909 86.6365 172.909C76.5058 172.909 68.2932 164.975 68.2932 155.189C68.2932 145.403 76.5058 137.47 86.6365 137.47Z" fill="white"/>
<path d="M74.1614 111.407C84.2922 111.407 92.5048 119.34 92.5048 129.127C92.5048 138.913 84.2922 146.846 74.1614 146.846C64.0307 146.846 55.8181 138.913 55.8181 129.127C55.8181 119.34 64.0307 111.407 74.1614 111.407Z" fill="white"/>
<path d="M18.3434 4.57764e-05C28.4742 4.57764e-05 36.6868 7.93326 36.6868 17.7194C36.6868 27.5055 28.4742 35.4387 18.3434 35.4387C8.21271 35.4387 0.00012207 27.5055 0.00012207 17.7194C0.00012207 7.93326 8.21271 4.57764e-05 18.3434 4.57764e-05Z" fill="white"/>
<path d="M18.3434 27.2898C28.4742 27.2898 36.6868 35.2231 36.6868 45.0092C36.6868 54.7953 28.4742 62.7285 18.3434 62.7285C8.21271 62.7285 0.00012207 54.7953 0.00012207 45.0092C0.00012207 35.2231 8.21271 27.2898 18.3434 27.2898Z" fill="white"/>
<path d="M18.3434 54.5794C28.4742 54.5794 36.6868 62.5126 36.6868 72.2987C36.6868 82.0848 28.4742 90.0181 18.3434 90.0181C8.21271 90.0181 0.00012207 82.0848 0.00012207 72.2987C0.00012207 62.5126 8.21271 54.5794 18.3434 54.5794Z" fill="white"/>
<path d="M18.3434 81.8692C28.4742 81.8692 36.6868 89.8024 36.6868 99.5885C36.6868 109.375 28.4742 117.308 18.3434 117.308C8.21271 117.308 0.00012207 109.375 0.00012207 99.5885C0.00012207 89.8024 8.21271 81.8692 18.3434 81.8692Z" fill="white"/>
<path d="M18.3434 109.159C28.4742 109.159 36.6868 117.092 36.6868 126.878C36.6868 136.664 28.4742 144.598 18.3434 144.598C8.21271 144.598 0.00012207 136.664 0.00012207 126.878C0.00012207 117.092 8.21271 109.159 18.3434 109.159Z" fill="white"/>
<path d="M18.3434 136.449C28.4742 136.449 36.6868 144.382 36.6868 154.168C36.6868 163.954 28.4742 171.887 18.3434 171.887C8.21271 171.887 0.00012207 163.954 0.00012207 154.168C0.00012207 144.382 8.21271 136.449 18.3434 136.449Z" fill="white"/>
<path d="M18.3434 163.738C28.4742 163.738 36.6868 171.672 36.6868 181.458C36.6868 191.244 28.4742 199.177 18.3434 199.177C8.21271 199.177 0.00012207 191.244 0.00012207 181.458C0.00012207 171.672 8.21271 163.738 18.3434 163.738Z" fill="white"/>
</svg>
