<svg width="74" height="106" viewBox="0 0 74 106" fill="none" xmlns="http://www.w3.org/2000/svg">
<path d="M64.1305 72.4832C69.4224 72.4832 73.7124 76.6272 73.7124 81.7392C73.7124 86.8511 69.4224 90.9951 64.1305 90.9951C58.8385 90.9951 54.5486 86.8511 54.5486 81.7392C54.5486 76.6272 58.8385 72.4832 64.1305 72.4832Z" fill="#F6F6F6"/>
<path d="M64.1305 85.8416C69.4224 85.8416 73.7124 89.9856 73.7124 95.0976C73.7124 100.209 69.4224 104.354 64.1305 104.354C58.8385 104.354 54.5486 100.209 54.5486 95.0976C54.5486 89.9856 58.8385 85.8416 64.1305 85.8416Z" fill="#F6F6F6"/>
<path d="M64.1305 58.0316C69.4224 58.0316 73.7124 62.1756 73.7124 67.2875C73.7124 72.3994 69.4224 76.5435 64.1305 76.5435C58.8385 76.5435 54.5486 72.3994 54.5486 67.2875C54.5486 62.1756 58.8385 58.0316 64.1305 58.0316Z" fill="#F6F6F6"/>
<path d="M64.1305 43.5804C69.4224 43.5804 73.7124 47.7244 73.7124 52.8363C73.7124 57.9483 69.4224 62.0923 64.1305 62.0923C58.8385 62.0923 54.5486 57.9483 54.5486 52.8363C54.5486 47.7244 58.8385 43.5804 64.1305 43.5804Z" fill="#F6F6F6"/>
<path d="M64.1305 29.1224C69.4224 29.1224 73.7124 33.2664 73.7124 38.3783C73.7124 43.4902 69.4224 47.6343 64.1305 47.6343C58.8385 47.6343 54.5486 43.4902 54.5486 38.3783C54.5486 33.2664 58.8385 29.1224 64.1305 29.1224Z" fill="#F6F6F6"/>
<path d="M64.1305 14.6717C69.4224 14.6717 73.7124 18.8157 73.7124 23.9276C73.7124 29.0396 69.4224 33.1836 64.1305 33.1836C58.8385 33.1836 54.5486 29.0396 54.5486 23.9276C54.5486 18.8157 58.8385 14.6717 64.1305 14.6717Z" fill="#F6F6F6"/>
<path d="M64.1305 0.218079C69.4224 0.218079 73.7124 4.36211 73.7124 9.47403C73.7124 14.586 69.4224 18.73 64.1305 18.73C58.8385 18.73 54.5486 14.586 54.5486 9.47403C54.5486 4.36211 58.8385 0.218079 64.1305 0.218079Z" fill="#F6F6F6"/>
<path d="M51.2465 -0.000183105C56.5384 -0.000183105 60.8284 4.14385 60.8284 9.25577C60.8284 14.3677 56.5384 18.5117 51.2465 18.5117C45.9545 18.5117 41.6646 14.3677 41.6646 9.25577C41.6646 4.14385 45.9545 -0.000183105 51.2465 -0.000183105Z" fill="#F6F6F6"/>
<path d="M37.0697 0.218079C42.3616 0.218079 46.6516 4.36211 46.6516 9.47403C46.6516 14.586 42.3616 18.73 37.0697 18.73C31.7778 18.73 27.4878 14.586 27.4878 9.47403C27.4878 4.36211 31.7778 0.218079 37.0697 0.218079Z" fill="#F6F6F6"/>
<path d="M22.8981 0.218079C28.19 0.218079 32.48 4.36211 32.48 9.47403C32.48 14.586 28.19 18.73 22.8981 18.73C17.6061 18.73 13.3162 14.586 13.3162 9.47403C13.3162 4.36211 17.6061 0.218079 22.8981 0.218079Z" fill="#F6F6F6"/>
<path d="M14.5206 5.41388C19.8126 5.41388 24.1025 9.55791 24.1025 14.6698C24.1025 19.7818 19.8126 23.9258 14.5206 23.9258C9.22868 23.9258 4.93872 19.7818 4.93872 14.6698C4.93872 9.55791 9.22868 5.41388 14.5206 5.41388Z" fill="#F6F6F6"/>
<path d="M9.5819 19.8675C14.8738 19.8675 19.1638 24.0115 19.1638 29.1234C19.1638 34.2354 14.8738 38.3794 9.5819 38.3794C4.28996 38.3794 0 34.2354 0 29.1234C0 24.0115 4.28996 19.8675 9.5819 19.8675Z" fill="#F6F6F6"/>
<path d="M13.3151 34.3211C18.607 34.3211 22.897 38.4651 22.897 43.5771C22.897 48.689 18.607 52.833 13.3151 52.833C8.02312 52.833 3.73315 48.689 3.73315 43.5771C3.73315 38.4651 8.02312 34.3211 13.3151 34.3211Z" fill="#F6F6F6"/>
<path d="M24.1044 43.5804C29.3963 43.5804 33.6863 47.7244 33.6863 52.8363C33.6863 57.9483 29.3963 62.0923 24.1044 62.0923C18.8124 62.0923 14.5225 57.9483 14.5225 52.8363C14.5225 47.7244 18.8124 43.5804 24.1044 43.5804Z" fill="#F6F6F6"/>
<path d="M38.7235 45.8514C44.0154 45.8514 48.3054 49.9954 48.3054 55.1073C48.3054 60.2193 44.0154 64.3633 38.7235 64.3633C33.4316 64.3633 29.1416 60.2193 29.1416 55.1073C29.1416 49.9954 33.4316 45.8514 38.7235 45.8514Z" fill="#F6F6F6"/>
<path d="M53.1119 45.8514C58.4039 45.8514 62.6938 49.9954 62.6938 55.1073C62.6938 60.2193 58.4039 64.3633 53.1119 64.3633C47.82 64.3633 43.53 60.2193 43.53 55.1073C43.53 49.9954 47.82 45.8514 53.1119 45.8514Z" fill="#F6F6F6"/>
<path d="M25.4073 55.3226C30.6993 55.3226 34.9892 59.4666 34.9892 64.5785C34.9892 69.6904 30.6993 73.8345 25.4073 73.8345C20.1154 73.8345 15.8254 69.6904 15.8254 64.5785C15.8254 59.4666 20.1154 55.3226 25.4073 55.3226Z" fill="#F6F6F6"/>
<path d="M19.5582 65.4988C24.8502 65.4988 29.1401 69.6429 29.1401 74.7548C29.1401 79.8667 24.8502 84.0107 19.5582 84.0107C14.2663 84.0107 9.97632 79.8667 9.97632 74.7548C9.97632 69.6429 14.2663 65.4988 19.5582 65.4988Z" fill="#F6F6F6"/>
<path d="M14.5206 77.4022C19.8126 77.4022 24.1025 81.5462 24.1025 86.6581C24.1025 91.77 19.8126 95.9141 14.5206 95.9141C9.22868 95.9141 4.93872 91.77 4.93872 86.6581C4.93872 81.5462 9.22868 77.4022 14.5206 77.4022Z" fill="#F6F6F6"/>
<path d="M9.97814 87.4798C15.2701 87.4798 19.56 91.6238 19.56 96.7357C19.56 101.848 15.2701 105.992 9.97814 105.992C4.6862 105.992 0.39624 101.848 0.39624 96.7357C0.39624 91.6238 4.6862 87.4798 9.97814 87.4798Z" fill="#F6F6F6"/>
</svg>
