<svg width="83" height="134" viewBox="0 0 83 134" fill="none" xmlns="http://www.w3.org/2000/svg">
<path d="M10.0717 97.8007C15.6341 97.8007 20.1433 102.157 20.1433 107.53C20.1433 112.903 15.6341 117.259 10.0717 117.259C4.50924 117.259 0 112.903 0 107.53C0 102.157 4.50924 97.8007 10.0717 97.8007Z" fill="#F6F6F6"/>
<path d="M10.0717 80.5624C15.6341 80.5624 20.1433 84.9183 20.1433 90.2915C20.1433 95.6647 15.6341 100.021 10.0717 100.021C4.50924 100.021 0 95.6647 0 90.2915C0 84.9183 4.50924 80.5624 10.0717 80.5624Z" fill="#F6F6F6"/>
<path d="M10.0717 64.14C15.6341 64.14 20.1433 68.4959 20.1433 73.8691C20.1433 79.2423 15.6341 83.5981 10.0717 83.5981C4.50924 83.5981 0 79.2423 0 73.8691C0 68.4959 4.50924 64.14 10.0717 64.14Z" fill="#F6F6F6"/>
<path d="M10.0717 47.495C15.6341 47.495 20.1433 51.8509 20.1433 57.2241C20.1433 62.5973 15.6341 66.9531 10.0717 66.9531C4.50924 66.9531 0 62.5973 0 57.2241C0 51.8509 4.50924 47.495 10.0717 47.495Z" fill="#F6F6F6"/>
<path d="M10.0717 30.4735C15.6341 30.4735 20.1433 34.8294 20.1433 40.2026C20.1433 45.5758 15.6341 49.9316 10.0717 49.9316C4.50924 49.9316 0 45.5758 0 40.2026C0 34.8294 4.50924 30.4735 10.0717 30.4735Z" fill="#F6F6F6"/>
<path d="M24.6571 30.5409C30.2195 30.5409 34.7288 34.8968 34.7288 40.27C34.7288 45.6432 30.2195 49.999 24.6571 49.999C19.0947 49.999 14.5854 45.6432 14.5854 40.27C14.5854 34.8968 19.0947 30.5409 24.6571 30.5409Z" fill="#F6F6F6"/>
<path d="M40.7865 30.5409C46.3489 30.5409 50.8582 34.8968 50.8582 40.27C50.8582 45.6432 46.3489 49.999 40.7865 49.999C35.2241 49.999 30.7148 45.6432 30.7148 40.27C30.7148 34.8968 35.2241 30.5409 40.7865 30.5409Z" fill="#F6F6F6"/>
<path d="M57.5531 30.4735C63.1155 30.4735 67.6248 34.8294 67.6248 40.2026C67.6248 45.5758 63.1155 49.9316 57.5531 49.9316C51.9907 49.9316 47.4814 45.5758 47.4814 40.2026C47.4814 34.8294 51.9907 30.4735 57.5531 30.4735Z" fill="#F6F6F6"/>
<path d="M24.6571 70.8339C30.2195 70.8339 34.7288 75.1897 34.7288 80.5629C34.7288 85.9361 30.2195 90.292 24.6571 90.292C19.0947 90.292 14.5854 85.9361 14.5854 80.5629C14.5854 75.1897 19.0947 70.8339 24.6571 70.8339Z" fill="#F6F6F6"/>
<path d="M24.9735 114.16C30.5359 114.16 35.0452 118.516 35.0452 123.889C35.0452 129.262 30.5359 133.618 24.9735 133.618C19.4111 133.618 14.9019 129.262 14.9019 123.889C14.9019 118.516 19.4111 114.16 24.9735 114.16Z" fill="#F6F6F6"/>
<path d="M40.6605 70.8339C46.223 70.8339 50.7322 75.1897 50.7322 80.5629C50.7322 85.9361 46.223 90.292 40.6605 90.292C35.0981 90.292 30.5889 85.9361 30.5889 80.5629C30.5889 75.1897 35.0981 70.8339 40.6605 70.8339Z" fill="#F6F6F6"/>
<path d="M40.9762 114.16C46.5386 114.16 51.0479 118.516 51.0479 123.889C51.0479 129.262 46.5386 133.618 40.9762 133.618C35.4138 133.618 30.9045 129.262 30.9045 123.889C30.9045 118.516 35.4138 114.16 40.9762 114.16Z" fill="#F6F6F6"/>
<path d="M55.6913 70.8339C61.2537 70.8339 65.7629 75.1897 65.7629 80.5629C65.7629 85.9361 61.2537 90.292 55.6913 90.292C50.1289 90.292 45.6196 85.9361 45.6196 80.5629C45.6196 75.1897 50.1289 70.8339 55.6913 70.8339Z" fill="#F6F6F6"/>
<path d="M56.0055 114.16C61.5679 114.16 66.0772 118.516 66.0772 123.889C66.0772 129.262 61.5679 133.618 56.0055 133.618C50.4431 133.618 45.9338 129.262 45.9338 123.889C45.9338 118.516 50.4431 114.16 56.0055 114.16Z" fill="#F6F6F6"/>
<path d="M69.6762 70.8339C75.2386 70.8339 79.7478 75.1897 79.7478 80.5629C79.7478 85.9361 75.2386 90.292 69.6762 90.292C64.1137 90.292 59.6045 85.9361 59.6045 80.5629C59.6045 75.1897 64.1137 70.8339 69.6762 70.8339Z" fill="#F6F6F6"/>
<path d="M69.9904 114.16C75.5528 114.16 80.062 118.516 80.062 123.889C80.062 129.262 75.5528 133.618 69.9904 133.618C64.4279 133.618 59.9187 129.262 59.9187 123.889C59.9187 118.516 64.4279 114.16 69.9904 114.16Z" fill="#F6F6F6"/>
<path d="M72.493 30.4735C78.0555 30.4735 82.5647 34.8294 82.5647 40.2026C82.5647 45.5758 78.0555 49.9316 72.493 49.9316C66.9306 49.9316 62.4214 45.5758 62.4214 40.2026C62.4214 34.8294 66.9306 30.4735 72.493 30.4735Z" fill="#F6F6F6"/>
<path d="M10.0717 114.16C15.6341 114.16 20.1433 118.516 20.1433 123.889C20.1433 129.262 15.6341 133.618 10.0717 133.618C4.50924 133.618 0 129.262 0 123.889C0 118.516 4.50924 114.16 10.0717 114.16Z" fill="#F6F6F6"/>
<path d="M22.0259 0.000146866C28.0647 0.000146866 32.9601 4.729 32.9601 10.5623C32.9601 16.3957 28.0647 21.1245 22.0259 21.1245C15.9872 21.1245 11.0918 16.3957 11.0918 10.5623C11.0918 4.729 15.9872 0.000146866 22.0259 0.000146866Z" fill="#F6F6F6"/>
<path d="M62.5743 0.000146866C68.613 0.000146866 73.5084 4.729 73.5084 10.5623C73.5084 16.3957 68.613 21.1245 62.5743 21.1245C56.5355 21.1245 51.6401 16.3957 51.6401 10.5623C51.6401 4.729 56.5355 0.000146866 62.5743 0.000146866Z" fill="#F6F6F6"/>
</svg>
